<svg width="24" height="24" viewBox="0 0 24 24" fill="none" xmlns="http://www.w3.org/2000/svg">
<path d="M7.47646 14.137C9.52445 14.137 11.1846 12.4769 11.1846 10.4288C11.1846 8.38086 9.52445 6.72064 7.47646 6.72064C5.42847 6.72064 3.76825 8.38086 3.76825 10.4288C3.76825 12.4769 5.42847 14.137 7.47646 14.137Z" stroke="#00595E" stroke-width="2" stroke-linecap="round" stroke-linejoin="round"></path>
<path d="M1.78961 22.2421C1.78961 20.7338 2.38879 19.2873 3.45533 18.2208C4.52188 17.1542 5.96842 16.555 7.47674 16.555C8.98506 16.555 10.4313 17.1541 11.4979 18.2207C12.5644 19.2872 13.1636 20.7338 13.1636 22.2421" stroke="#00595E" stroke-width="2" stroke-linecap="round" stroke-linejoin="round"></path>
<path d="M13.5225 12.2865C13.9696 12.4612 14.4353 12.5837 14.9104 12.6514V15.4528C15.3666 14.9965 18.1042 12.7153 18.5604 12.2946C20.6854 11.5398 22.2104 9.56171 22.2104 7.24031C22.2104 4.13123 19.2596 1.64729 16.2792 1.76167C13.8691 1.71128 11.6147 3.18423 10.6928 5.41166" stroke="#00595E" stroke-width="2" stroke-linecap="round" stroke-linejoin="round"></path>
<path d="M14 7.99999L15.275 9.27504L18.5374 6.01273" stroke="#00595E" stroke-width="2" stroke-linecap="round" stroke-linejoin="round"></path>
</svg>