<svg width="24" height="24" viewBox="0 0 24 24" fill="none" xmlns="http://www.w3.org/2000/svg">
<g clip-path="url(#clip0_14503_6592)">
<path d="M16.5025 10.0025C18.2264 10.0025 19.8802 10.6868 21.0992 11.9058C22.3182 13.1248 23.0025 14.7786 23.0025 16.5025C23.0025 18.2264 22.3182 19.8802 21.0992 21.0992C19.8802 22.3182 18.2264 23.0025 16.5025 23.0025C14.7786 23.0025 13.1248 22.3182 11.9058 21.0992C10.6868 19.8802 10.0025 18.2264 10.0025 16.5025C10.0025 14.7786 10.6868 13.1248 11.9058 11.9058C13.1248 10.6868 14.7786 10.0025 16.5025 10.0025Z" stroke="#00595E" stroke-width="2" stroke-linecap="round" stroke-linejoin="round"></path>
<path d="M16.5025 13.7525V19.2525" stroke="#00595E" stroke-width="2" stroke-linecap="round" stroke-linejoin="round"></path>
<path d="M13.7525 16.5025H19.2525" stroke="#00595E" stroke-width="2" stroke-linecap="round" stroke-linejoin="round"></path>
<path d="M10.1935 9.9469C9.17322 9.04707 7.85787 8.55349 6.4975 8.55998C5.15046 8.54942 3.84639 9.03359 2.83261 9.92064C1.81883 10.8077 1.16584 12.036 0.997498 13.3725" stroke="#00595E" stroke-width="2" stroke-linecap="round" stroke-linejoin="round"></path>
<path d="M3.40375 4.09125C3.40375 4.91176 3.7297 5.69867 4.30989 6.27886C4.89008 6.85905 5.67698 7.185 6.4975 7.185C7.31801 7.185 8.10492 6.85905 8.68511 6.27886C9.2653 5.69867 9.59125 4.91176 9.59125 4.09125C9.59125 3.27073 9.2653 2.48383 8.68511 1.90364C8.10492 1.32345 7.31801 0.997498 6.4975 0.997498C5.67698 0.997498 4.89008 1.32345 4.30989 1.90364C3.7297 2.48383 3.40375 3.27073 3.40375 4.09125Z" stroke="#00595E" stroke-width="2" stroke-linecap="round" stroke-linejoin="round"></path>
<path d="M13.0287 3.40375C13.0287 4.04192 13.2823 4.65396 13.7335 5.10522C14.1848 5.55648 14.7968 5.81 15.435 5.81C16.0732 5.81 16.6852 5.55648 17.1365 5.10522C17.5877 4.65396 17.8412 4.04192 17.8412 3.40375C17.8412 2.76557 17.5877 2.15353 17.1365 1.70227C16.6852 1.25101 16.0732 0.997498 15.435 0.997498C14.7968 0.997498 14.1848 1.25101 13.7335 1.70227C13.2823 2.15353 13.0287 2.76557 13.0287 3.40375Z" stroke="#00595E" stroke-width="2" stroke-linecap="round" stroke-linejoin="round"></path>
<path d="M12.3321 8.55998C12.6603 7.99192 13.1192 7.51032 13.6708 7.15517C14.2224 6.80003 14.8508 6.58156 15.5037 6.51793C16.1567 6.45429 16.8154 6.54731 17.4252 6.78927C18.035 7.03123 18.5783 7.41514 19.01 7.90915" stroke="#00595E" stroke-width="2" stroke-linecap="round" stroke-linejoin="round"></path>
</g>
<defs>
<clipPath id="clip0_14503_6592">
<rect width="24" height="24" fill="white"></rect>
</clipPath>
</defs>
</svg>