<svg width="24" height="24" viewBox="0 0 24 24" fill="none" xmlns="http://www.w3.org/2000/svg">
<path d="M12 16.25C11.8764 16.25 11.7556 16.2867 11.6528 16.3553C11.55 16.424 11.4699 16.5216 11.4226 16.6358C11.3753 16.75 11.3629 16.8757 11.387 16.9969C11.4112 17.1182 11.4707 17.2295 11.5581 17.3169C11.6455 17.4043 11.7569 17.4639 11.8781 17.488C11.9993 17.5121 12.125 17.4997 12.2392 17.4524C12.3534 17.4051 12.451 17.325 12.5197 17.2222C12.5884 17.1194 12.625 16.9986 12.625 16.875C12.625 16.7092 12.5592 16.5503 12.442 16.4331C12.3247 16.3158 12.1658 16.25 12 16.25Z" fill="#00595E" stroke="#00595E" stroke-width="2" stroke-linecap="round" stroke-linejoin="round"></path>
<path d="M12 12.9999V8" stroke="#00595E" stroke-width="2" stroke-linecap="round" stroke-linejoin="round"></path>
<path d="M9.40193 4C10.5566 2 13.4434 2 14.5981 4L21.9593 16.75C23.114 18.75 21.6706 21.25 19.3612 21.25H4.63878C2.32938 21.25 0.886007 18.75 2.04071 16.75L9.40193 4Z" stroke="#00595E" stroke-width="2" stroke-linecap="round" stroke-linejoin="round"></path>
</svg>