<svg width="24" height="24" viewBox="0 0 24 24" fill="none" xmlns="http://www.w3.org/2000/svg">
<path d="M13.629 22.25H3.25C2.85218 22.25 2.47064 22.092 2.18934 21.8107C1.90804 21.5294 1.75 21.1478 1.75 20.75V3.25C1.75 2.85218 1.90804 2.47064 2.18934 2.18934C2.47064 1.90804 2.85218 1.75 3.25 1.75H20.75C21.1478 1.75 21.5294 1.90804 21.8107 2.18934C22.092 2.47064 22.25 2.85218 22.25 3.25V13.629C22.2499 14.0265 22.092 14.4078 21.811 14.689L14.689 21.811C14.4078 22.092 14.0265 22.2499 13.629 22.25Z" stroke="#00595E" stroke-width="2" stroke-linecap="round" stroke-linejoin="round"></path>
<path d="M14 21.865V15.5C14 15.1022 14.158 14.7206 14.4393 14.4393C14.7206 14.158 15.1022 14 15.5 14H21.865" stroke="#00595E" stroke-width="2" stroke-linecap="round" stroke-linejoin="round"></path>
<path d="M6.25 6H17.25" stroke="#00595E" stroke-width="2" stroke-linecap="round" stroke-linejoin="round"></path>
<path d="M6.25 10H17.25" stroke="#00595E" stroke-width="2" stroke-linecap="round" stroke-linejoin="round"></path>
<path d="M6.25 14H10" stroke="#00595E" stroke-width="2" stroke-linecap="round" stroke-linejoin="round"></path>
</svg>