<svg width="24" height="24" viewBox="0 0 24 24" fill="none" xmlns="http://www.w3.org/2000/svg">
<path d="M17.5528 21.5192H6.447C6.02624 21.5192 5.62269 21.3521 5.32516 21.0545C5.02762 20.757 4.86047 20.3535 4.86047 19.9326V5.65381H19.1393V19.9326C19.1393 20.3535 18.9722 20.757 18.6746 21.0545C18.3771 21.3521 17.9735 21.5192 17.5528 21.5192Z" stroke="#00595E" stroke-width="2" stroke-linecap="round" stroke-linejoin="round"></path>
<path d="M9.62016 16.7596V10.4135" stroke="#00595E" stroke-width="2" stroke-linecap="round" stroke-linejoin="round"></path>
<path d="M14.3799 16.7596V10.4135" stroke="#00595E" stroke-width="2" stroke-linecap="round" stroke-linejoin="round"></path>
<path d="M1.6875 5.65381H22.3125" stroke="#00595E" stroke-width="2" stroke-linecap="round" stroke-linejoin="round"></path>
<path d="M14.3799 2.48077H9.62021C9.19944 2.48077 8.79589 2.64793 8.49836 2.94546C8.20082 3.24299 8.03368 3.64654 8.03368 4.06731V5.65385H15.9663V4.06731C15.9663 3.64654 15.7992 3.24299 15.5017 2.94546C15.2041 2.64793 14.8006 2.48077 14.3799 2.48077Z" stroke="#00595E" stroke-width="2" stroke-linecap="round" stroke-linejoin="round"></path>
</svg>