<svg width="25" height="25" viewBox="0 0 25 25" fill="none" xmlns="http://www.w3.org/2000/svg">
<path d="M12 17.0625C12 18.5212 12.5795 19.9201 13.6109 20.9516C14.6424 21.983 16.0413 22.5625 17.5 22.5625C18.9587 22.5625 20.3576 21.983 21.3891 20.9516C22.4205 19.9201 23 18.5212 23 17.0625C23 15.6038 22.4205 14.2049 21.3891 13.1734C20.3576 12.142 18.9587 11.5625 17.5 11.5625C16.0413 11.5625 14.6424 12.142 13.6109 13.1734C12.5795 14.2049 12 15.6038 12 17.0625Z" stroke="#00595E" stroke-width="2" stroke-linecap="round" stroke-linejoin="round"></path>
<path d="M19.931 17.0625H17.5V14.6324" stroke="#00595E" stroke-width="2" stroke-linecap="round" stroke-linejoin="round"></path>
<path d="M8.5 17.5H2.5C2.10218 17.5 1.72064 17.342 1.43934 17.0607C1.15804 16.7794 1 16.3978 1 16V4.01501C1 3.61719 1.15804 3.23566 1.43934 2.95435C1.72064 2.67305 2.10218 2.51501 2.5 2.51501H16C16.3978 2.51501 16.7794 2.67305 17.0607 2.95435C17.342 3.23566 17.5 3.61719 17.5 4.01501V8.25" stroke="#00595E" stroke-width="2" stroke-linecap="round" stroke-linejoin="round"></path>
<path d="M1 7H17.5" stroke="#00595E" stroke-width="2" stroke-linejoin="round"></path>
<path d="M5.493 4V1" stroke="#00595E" stroke-width="2" stroke-linecap="round" stroke-linejoin="round"></path>
<path d="M12.993 4V1" stroke="#00595E" stroke-width="2" stroke-linecap="round" stroke-linejoin="round"></path>
</svg>