<svg width="25" height="25" viewBox="0 0 25 25" fill="none" xmlns="http://www.w3.org/2000/svg">
<path d="M22.88 15.036L15.25 22.666L11.5 23.416L12.25 19.666L19.88 12.036C20.2768 11.6393 20.8149 11.4165 21.376 11.4165C21.9371 11.4165 22.4752 11.6393 22.872 12.036L22.88 12.044C23.0767 12.2404 23.2327 12.4736 23.3391 12.7303C23.4456 12.987 23.5004 13.2621 23.5004 13.54C23.5004 13.8179 23.4456 14.0931 23.3391 14.3498C23.2327 14.6065 23.0767 14.8397 22.88 15.036Z" stroke="#00595E" stroke-width="2" stroke-linecap="round" stroke-linejoin="round"></path>
<path d="M9.25 17.5H2.5C2.10218 17.5 1.72064 17.342 1.43934 17.0607C1.15804 16.7794 1 16.3978 1 16V4.01501C1 3.61719 1.15804 3.23566 1.43934 2.95435C1.72064 2.67305 2.10218 2.51501 2.5 2.51501H16C16.3978 2.51501 16.7794 2.67305 17.0607 2.95435C17.342 3.23566 17.5 3.61719 17.5 4.01501V8.50001" stroke="#00595E" stroke-width="2" stroke-linecap="round" stroke-linejoin="round"></path>
<path d="M1 7H17.5" stroke="#00595E" stroke-width="2" stroke-linejoin="round"></path>
<path d="M5.493 4V1" stroke="#00595E" stroke-width="2" stroke-linecap="round" stroke-linejoin="round"></path>
<path d="M12.993 4V1" stroke="#00595E" stroke-width="2" stroke-linecap="round" stroke-linejoin="round"></path>
</svg>