<svg width="24" height="24" viewBox="0 0 24 24" fill="none" xmlns="http://www.w3.org/2000/svg">
<path d="M20.9375 4.4375H3.0625C2.30311 4.4375 1.6875 5.05311 1.6875 5.8125V20.9375C1.6875 21.6969 2.30311 22.3125 3.0625 22.3125H20.9375C21.6969 22.3125 22.3125 21.6969 22.3125 20.9375V5.8125C22.3125 5.05311 21.6969 4.4375 20.9375 4.4375Z" stroke="#00595E" stroke-width="2" stroke-linecap="round" stroke-linejoin="round"></path>
<path d="M1.6875 9.9375H22.3125" stroke="#00595E" stroke-width="2" stroke-linecap="round" stroke-linejoin="round"></path>
<path d="M7.1875 6.5V1.6875" stroke="#00595E" stroke-width="2" stroke-linecap="round" stroke-linejoin="round"></path>
<path d="M16.8125 6.5V1.6875" stroke="#00595E" stroke-width="2" stroke-linecap="round" stroke-linejoin="round"></path>
<path d="M6.15625 14.0625C5.9664 14.0625 5.8125 13.9086 5.8125 13.7188C5.8125 13.5289 5.9664 13.375 6.15625 13.375" stroke="#00595E" stroke-width="2"></path>
<path d="M6.15625 14.0625C6.3461 14.0625 6.5 13.9086 6.5 13.7188C6.5 13.5289 6.3461 13.375 6.15625 13.375" stroke="#00595E" stroke-width="2"></path>
<path d="M6.15625 18.875C5.9664 18.875 5.8125 18.7211 5.8125 18.5312C5.8125 18.3414 5.9664 18.1875 6.15625 18.1875" stroke="#00595E" stroke-width="2"></path>
<path d="M6.15625 18.875C6.3461 18.875 6.5 18.7211 6.5 18.5312C6.5 18.3414 6.3461 18.1875 6.15625 18.1875" stroke="#00595E" stroke-width="2"></path>
<path d="M12 14.0625C11.8102 14.0625 11.6562 13.9086 11.6562 13.7188C11.6562 13.5289 11.8102 13.375 12 13.375" stroke="#00595E" stroke-width="2"></path>
<path d="M12 14.0625C12.1898 14.0625 12.3438 13.9086 12.3438 13.7188C12.3438 13.5289 12.1898 13.375 12 13.375" stroke="#00595E" stroke-width="2"></path>
<path d="M12 18.875C11.8102 18.875 11.6562 18.7211 11.6562 18.5312C11.6562 18.3414 11.8102 18.1875 12 18.1875" stroke="#00595E" stroke-width="2"></path>
<path d="M12 18.875C12.1898 18.875 12.3438 18.7211 12.3438 18.5312C12.3438 18.3414 12.1898 18.1875 12 18.1875" stroke="#00595E" stroke-width="2"></path>
<path d="M17.8438 14.0625C17.6539 14.0625 17.5 13.9086 17.5 13.7188C17.5 13.5289 17.6539 13.375 17.8438 13.375" stroke="#00595E" stroke-width="2"></path>
<path d="M17.8438 14.0625C18.0336 14.0625 18.1875 13.9086 18.1875 13.7188C18.1875 13.5289 18.0336 13.375 17.8438 13.375" stroke="#00595E" stroke-width="2"></path>
<path d="M17.8438 18.875C17.6539 18.875 17.5 18.7211 17.5 18.5312C17.5 18.3414 17.6539 18.1875 17.8438 18.1875" stroke="#00595E" stroke-width="2"></path>
<path d="M17.8438 18.875C18.0336 18.875 18.1875 18.7211 18.1875 18.5312C18.1875 18.3414 18.0336 18.1875 17.8438 18.1875" stroke="#00595E" stroke-width="2"></path>
</svg>