<svg width="24" height="24" viewBox="0 0 24 24" fill="none" xmlns="http://www.w3.org/2000/svg">
<g clip-path="url(#clip0_14503_6554)">
<path d="M3.0625 1.68652H20.9375C20.9375 1.68652 22.3125 1.68652 22.3125 3.06152V20.9365C22.3125 20.9365 22.3125 22.3115 20.9375 22.3115H3.0625C3.0625 22.3115 1.6875 22.3115 1.6875 20.9365V3.06152C1.6875 3.06152 1.6875 1.68652 3.0625 1.68652Z" stroke="#00595E" stroke-width="2" stroke-linecap="round" stroke-linejoin="round"></path>
<path d="M6.5 13.1211L8.74583 16.3084C8.83102 16.4356 8.94537 16.5407 9.07936 16.6148C9.21335 16.689 9.36311 16.73 9.51617 16.7346C9.66924 16.7392 9.82118 16.7071 9.95936 16.6411C10.0975 16.5751 10.2179 16.4771 10.3106 16.3551L17.5 7.25903" stroke="#00595E" stroke-width="2" stroke-linecap="round" stroke-linejoin="round"></path>
</g>
<defs>
<clipPath id="clip0_14503_6554">
<rect width="24" height="24" fill="white"></rect>
</clipPath>
</defs>
</svg>