<svg width="24" height="24" viewBox="0 0 24 24" fill="none" xmlns="http://www.w3.org/2000/svg">
<path d="M4.439 17.44C4.15774 17.7214 3.99978 18.103 3.99988 18.5009C3.99997 18.8987 4.15811 19.2803 4.43951 19.5615C4.7209 19.8428 5.1025 20.0007 5.50036 20.0007C5.89822 20.0006 6.27974 19.8424 6.56101 19.561L11.823 14.3C11.8462 14.2767 11.8738 14.2583 11.9042 14.2457C11.9346 14.2331 11.9671 14.2266 12 14.2266C12.0329 14.2266 12.0654 14.2331 12.0958 14.2457C12.1262 14.2583 12.1538 14.2767 12.177 14.3L17.439 19.563C17.5783 19.7024 17.7436 19.8129 17.9256 19.8883C18.1076 19.9638 18.3027 20.0026 18.4997 20.0027C18.6967 20.0027 18.8917 19.9639 19.0738 19.8886C19.2558 19.8133 19.4212 19.7028 19.5605 19.5635C19.6998 19.4243 19.8104 19.2589 19.8858 19.0769C19.9612 18.8949 20.0001 18.6999 20.0001 18.5029C20.0002 18.3059 19.9614 18.1108 19.8861 17.9288C19.8107 17.7468 19.7003 17.5814 19.561 17.442L14.3 12.177C14.2767 12.1538 14.2583 12.1262 14.2456 12.0958C14.233 12.0655 14.2266 12.0329 14.2266 12C14.2266 11.9671 14.233 11.9346 14.2456 11.9042C14.2583 11.8738 14.2767 11.8463 14.3 11.823L19.563 6.56103C19.8443 6.27937 20.0021 5.89751 20.0018 5.49947C20.0016 5.10142 19.8432 4.71979 19.5615 4.43853C19.2798 4.15727 18.898 3.99941 18.4999 3.9997C18.1019 3.99998 17.7203 4.15837 17.439 4.44003L12.177 9.70003C12.1538 9.72331 12.1262 9.74178 12.0958 9.75439C12.0654 9.76699 12.0329 9.77348 12 9.77348C11.9671 9.77348 11.9346 9.76699 11.9042 9.75439C11.8738 9.74178 11.8462 9.72331 11.823 9.70003L6.56101 4.44003C6.42174 4.3007 6.25639 4.19016 6.07441 4.11473C5.89242 4.0393 5.69736 4.00045 5.50036 4.0004C5.1025 4.00031 4.7209 4.15827 4.43951 4.43953C4.15811 4.72079 3.99997 5.10232 3.99988 5.50018C3.99978 5.89803 4.15774 6.27963 4.43901 6.56103L9.7 11.823C9.72329 11.8463 9.74176 11.8738 9.75436 11.9042C9.76696 11.9346 9.77345 11.9671 9.77345 12C9.77345 12.0329 9.76696 12.0655 9.75436 12.0958C9.74176 12.1262 9.72329 12.1538 9.7 12.177L4.439 17.44Z" fill="#00595E"></path>
</svg>