<svg width="25" height="24" viewBox="0 0 25 24" fill="none" xmlns="http://www.w3.org/2000/svg">
<path d="M9.90539 6.27152C9.8079 6.27147 9.71216 6.24564 9.62786 6.19667C9.54357 6.14769 9.47372 6.0773 9.4254 5.99263C9.37707 5.90796 9.35199 5.81202 9.35269 5.71454C9.35339 5.61705 9.37985 5.52148 9.42939 5.43752L11.7784 1.27152C11.8273 1.1888 11.8969 1.12026 11.9804 1.07265C12.0639 1.02504 12.1583 1 12.2544 1C12.3505 1 12.4449 1.02504 12.5284 1.07265C12.6119 1.12026 12.6815 1.1888 12.7304 1.27152L15.0804 5.43652C15.1299 5.52063 15.1563 5.61633 15.1569 5.71393C15.1576 5.81153 15.1324 5.90757 15.084 5.99232C15.0356 6.07706 14.9656 6.14752 14.8812 6.19655C14.7968 6.24558 14.701 6.27144 14.6034 6.27152H9.90539Z" stroke="#00595E" stroke-width="2" stroke-linecap="round" stroke-linejoin="round"></path>
<path d="M6.6664 10.94C6.70354 10.8498 6.71622 10.7513 6.70317 10.6546C6.69012 10.5579 6.65179 10.4663 6.59205 10.3891C6.53232 10.312 6.45329 10.2519 6.36293 10.215C6.27257 10.1781 6.17409 10.1657 6.0774 10.179L1.4774 10.826C1.38179 10.8392 1.2913 10.8772 1.21492 10.9362C1.13854 10.9952 1.07893 11.0732 1.04203 11.1624C1.00512 11.2516 0.992197 11.3488 1.00454 11.4446C1.01689 11.5403 1.05408 11.6311 1.1124 11.708L3.9044 15.415C3.96336 15.4929 4.04182 15.5538 4.13186 15.5917C4.22191 15.6295 4.32034 15.6429 4.41723 15.6306C4.51412 15.6182 4.60602 15.5805 4.68366 15.5212C4.7613 15.4619 4.82192 15.3832 4.8594 15.293L5.7594 13.117L6.6664 10.94Z" stroke="#00595E" stroke-width="2" stroke-linecap="round" stroke-linejoin="round"></path>
<path d="M5.6344 13.4319C9.7834 14.7319 12.2544 17.2319 12.2544 21.9509V22.9999" stroke="#00595E" stroke-width="2" stroke-linecap="round" stroke-linejoin="round"></path>
<path d="M17.8424 10.94C17.8053 10.8498 17.7926 10.7513 17.8056 10.6546C17.8187 10.5579 17.857 10.4663 17.9167 10.3891C17.9765 10.312 18.0555 10.2519 18.1459 10.215C18.2362 10.1781 18.3347 10.1657 18.4314 10.179L23.0314 10.826C23.127 10.8392 23.2175 10.8772 23.2939 10.9362C23.3703 10.9952 23.4299 11.0732 23.4668 11.1624C23.5037 11.2516 23.5166 11.3488 23.5043 11.4446C23.4919 11.5403 23.4547 11.6311 23.3964 11.708L20.6044 15.415C20.5454 15.4929 20.467 15.5538 20.3769 15.5917C20.2869 15.6295 20.1885 15.6429 20.0916 15.6306C19.9947 15.6182 19.9028 15.5805 19.8251 15.5212C19.7475 15.4619 19.6869 15.3832 19.6494 15.293L18.7494 13.117L17.8424 10.94Z" stroke="#00595E" stroke-width="2" stroke-linecap="round" stroke-linejoin="round"></path>
<path d="M18.8744 13.4319C14.7254 14.7319 12.2544 17.2319 12.2544 21.9509V22.9999" stroke="#00595E" stroke-width="2" stroke-linecap="round" stroke-linejoin="round"></path>
<path d="M12.2544 6.5V22.451" stroke="#00595E" stroke-width="2" stroke-linecap="round" stroke-linejoin="round"></path>
</svg>