<svg width="24" height="24" viewBox="0 0 24 24" fill="none" xmlns="http://www.w3.org/2000/svg">
<g clip-path="url(#clip0_14503_6545)">
<path d="M8.5625 18.1875H3.24309" stroke="#00595E" stroke-width="2" stroke-linecap="round" stroke-linejoin="round"></path>
<path d="M19.5625 8.5625V5.8125C19.5625 5.44783 19.4176 5.09809 19.1598 4.84023C18.9019 4.58237 18.5522 4.4375 18.1875 4.4375H8.5625V3.0625C8.5625 2.69783 8.41763 2.34809 8.15977 2.09023C7.90191 1.83237 7.55217 1.6875 7.1875 1.6875H3.0625C2.69783 1.6875 2.34809 1.83237 2.09023 2.09023C1.83237 2.34809 1.6875 2.69783 1.6875 3.0625V16.6292C1.69267 17.0036 1.83249 17.3636 2.08138 17.6434C2.33026 17.9232 2.67156 18.104 3.04282 18.1527C3.41409 18.2015 3.79049 18.1149 4.10316 17.9088C4.41583 17.7028 4.64385 17.3911 4.7455 17.0307L6.90058 9.55617C6.98331 9.26957 7.15699 9.01766 7.39543 8.83842C7.63386 8.65917 7.92412 8.56233 8.22242 8.5625H20.9375C21.1483 8.56243 21.3562 8.61081 21.5453 8.70391C21.7344 8.79701 21.8996 8.93233 22.028 9.09943C22.1565 9.26652 22.2448 9.46091 22.2862 9.66758C22.3276 9.87425 22.3209 10.0877 22.2667 10.2913" stroke="#00595E" stroke-width="2" stroke-linecap="round" stroke-linejoin="round"></path>
<path d="M11.3125 16.8125C11.3125 18.2712 11.892 19.6701 12.9234 20.7016C13.9549 21.733 15.3538 22.3125 16.8125 22.3125C18.2712 22.3125 19.6701 21.733 20.7016 20.7016C21.733 19.6701 22.3125 18.2712 22.3125 16.8125C22.3125 15.3538 21.733 13.9549 20.7016 12.9234C19.6701 11.892 18.2712 11.3125 16.8125 11.3125C15.3538 11.3125 13.9549 11.892 12.9234 12.9234C11.892 13.9549 11.3125 15.3538 11.3125 16.8125Z" stroke="#00595E" stroke-width="2" stroke-linecap="round" stroke-linejoin="round"></path>
<path d="M16.8125 19.5625V14.0625" stroke="#00595E" stroke-width="2" stroke-linecap="round" stroke-linejoin="round"></path>
<path d="M16.8125 14.0625L14.75 16.125" stroke="#00595E" stroke-width="2" stroke-linecap="round" stroke-linejoin="round"></path>
<path d="M16.8125 14.0625L18.875 16.125" stroke="#00595E" stroke-width="2" stroke-linecap="round" stroke-linejoin="round"></path>
</g>
<defs>
<clipPath id="clip0_14503_6545">
<rect width="24" height="24" fill="white"></rect>
</clipPath>
</defs>
</svg>