<svg width="24" height="24" viewBox="0 0 24 24" fill="none" xmlns="http://www.w3.org/2000/svg">
<path d="M16.8125 19.9227C18.5485 19.9227 19.9558 18.5155 19.9558 16.7795C19.9558 15.0435 18.5485 13.6362 16.8125 13.6362C15.0765 13.6362 13.6693 15.0435 13.6693 16.7795C13.6693 18.5155 15.0765 19.9227 16.8125 19.9227Z" stroke="#00595E" stroke-width="2" stroke-linecap="round" stroke-linejoin="round"></path>
<path d="M16.2891 11.2795H17.3359" stroke="#00595E" stroke-width="2" stroke-linecap="round" stroke-linejoin="round"></path>
<path d="M16.8125 11.2795V13.6372" stroke="#00595E" stroke-width="2" stroke-linecap="round" stroke-linejoin="round"></path>
<path d="M20.3316 12.5206L21.0723 13.2613" stroke="#00595E" stroke-width="2" stroke-linecap="round" stroke-linejoin="round"></path>
<path d="M20.7019 12.891L19.0345 14.5575" stroke="#00595E" stroke-width="2" stroke-linecap="round" stroke-linejoin="round"></path>
<path d="M22.3125 16.2561V17.3039" stroke="#00595E" stroke-width="2" stroke-linecap="round" stroke-linejoin="round"></path>
<path d="M22.3125 16.7795H19.9557" stroke="#00595E" stroke-width="2" stroke-linecap="round" stroke-linejoin="round"></path>
<path d="M21.0723 20.2986L20.3316 21.0392" stroke="#00595E" stroke-width="2" stroke-linecap="round" stroke-linejoin="round"></path>
<path d="M20.7019 20.6689L19.0345 19.0024" stroke="#00595E" stroke-width="2" stroke-linecap="round" stroke-linejoin="round"></path>
<path d="M17.3359 22.2795H16.2891" stroke="#00595E" stroke-width="2" stroke-linecap="round" stroke-linejoin="round"></path>
<path d="M16.8125 22.2795V19.9227" stroke="#00595E" stroke-width="2" stroke-linecap="round" stroke-linejoin="round"></path>
<path d="M13.2934 21.0392L12.5527 20.2986" stroke="#00595E" stroke-width="2" stroke-linecap="round" stroke-linejoin="round"></path>
<path d="M12.9231 20.6689L14.5905 19.0024" stroke="#00595E" stroke-width="2" stroke-linecap="round" stroke-linejoin="round"></path>
<path d="M11.3125 17.3039V16.2561" stroke="#00595E" stroke-width="2" stroke-linecap="round" stroke-linejoin="round"></path>
<path d="M11.3125 16.7795H13.6692" stroke="#00595E" stroke-width="2" stroke-linecap="round" stroke-linejoin="round"></path>
<path d="M12.5527 13.2613L13.2934 12.5206" stroke="#00595E" stroke-width="2" stroke-linecap="round" stroke-linejoin="round"></path>
<path d="M12.9231 12.891L14.5905 14.5575" stroke="#00595E" stroke-width="2" stroke-linecap="round" stroke-linejoin="round"></path>
<path d="M8.30125 17.3524H3.10833C2.73149 17.3518 2.37024 17.2019 2.10387 16.9354C1.83749 16.6688 1.68774 16.3075 1.6875 15.9306V4.56488C1.6875 4.18788 1.83714 3.82629 2.10354 3.55954C2.36995 3.29279 2.73134 3.1427 3.10833 3.14221H15.9206C16.2979 3.14221 16.6598 3.2921 16.9265 3.5589C17.1934 3.8257 17.3433 4.18756 17.3433 4.56488V8.56521" stroke="#00595E" stroke-width="2" stroke-linecap="round" stroke-linejoin="round"></path>
<path d="M1.69392 7.4093H17.3497" stroke="#00595E" stroke-width="2" stroke-linejoin="round"></path>
<path d="M5.95734 4.56487V1.72046" stroke="#00595E" stroke-width="2" stroke-linecap="round" stroke-linejoin="round"></path>
<path d="M13.0734 4.56487V1.72046" stroke="#00595E" stroke-width="2" stroke-linecap="round" stroke-linejoin="round"></path>
</svg>