<svg width="24" height="24" viewBox="0 0 24 24" fill="none" xmlns="http://www.w3.org/2000/svg">
<path d="M21.19 2.81002C20.8494 2.47086 20.4451 2.20254 20.0002 2.02057C19.5553 1.8386 19.0788 1.74658 18.5982 1.74984C18.1176 1.75309 17.6424 1.85155 17.2 2.03953C16.7577 2.22751 16.3569 2.50128 16.021 2.84502L3.521 15.345L1.75 22.25L8.655 20.479L21.155 7.97902C21.4987 7.64309 21.7725 7.24237 21.9605 6.80001C22.1485 6.35766 22.2469 5.88244 22.2502 5.40182C22.2534 4.92119 22.1614 4.44469 21.9795 3.99983C21.7975 3.55497 21.5292 3.15058 21.19 2.81002Z" stroke="#00595E" stroke-width="2" stroke-linecap="round" stroke-linejoin="round"></path>
<path d="M14.606 4.26001L19.74 9.39401" stroke="#00595E" stroke-width="2" stroke-linecap="round" stroke-linejoin="round"></path>
</svg>