<svg width="24" height="24" viewBox="0 0 24 24" fill="none" xmlns="http://www.w3.org/2000/svg">
<path d="M16.8125 12C16.8125 12.9518 16.5303 13.8823 16.0014 14.6737C15.4726 15.4651 14.721 16.0819 13.8417 16.4462C12.9623 16.8104 11.9947 16.9057 11.0611 16.72C10.1276 16.5343 9.27009 16.076 8.59705 15.403C7.92401 14.7299 7.46566 13.8724 7.27997 12.9389C7.09428 12.0053 7.18959 11.0377 7.55383 10.1583C7.91808 9.27897 8.53491 8.52736 9.32632 7.99855C10.1177 7.46975 11.0482 7.1875 12 7.1875C13.2764 7.1875 14.5004 7.69453 15.403 8.59705C16.3055 9.49957 16.8125 10.7236 16.8125 12Z" stroke="#00595E" stroke-width="2" stroke-linecap="round" stroke-linejoin="round"></path>
<path d="M16.8124 12.0001V14.0626C16.8124 14.7919 17.1021 15.4914 17.6178 16.0071C18.1336 16.5229 18.833 16.8126 19.5624 16.8126C20.2917 16.8126 20.9912 16.5229 21.5069 16.0071C22.0227 15.4914 22.3124 14.7919 22.3124 14.0626V12.0001C22.3123 9.67725 21.5279 7.42248 20.0863 5.60109C18.6447 3.7797 16.6304 2.4984 14.3697 1.96477C12.109 1.43114 9.73431 1.67644 7.63041 2.66094C5.52652 3.64544 3.81665 5.31146 2.77784 7.38908C1.73904 9.46669 1.43214 11.8342 1.90688 14.108C2.38161 16.3818 3.61017 18.4287 5.39351 19.9171C7.17684 21.4055 9.41048 22.2482 11.7325 22.3087C14.0546 22.3691 16.329 21.6437 18.1874 20.2501" stroke="#00595E" stroke-width="2" stroke-linecap="round" stroke-linejoin="round"></path>
</svg>