<svg width="25" height="25" viewBox="0 0 25 25" fill="none" xmlns="http://www.w3.org/2000/svg">
<path d="M13 1.00002C11.1288 0.99732 9.291 1.49543 7.67726 2.44266C6.06352 3.38989 4.73267 4.75172 3.82283 6.38683C2.91298 8.02194 2.45729 9.87074 2.50305 11.7414C2.5488 13.612 3.09433 15.4363 4.08303 17.025L1.00003 23.5L7.47403 20.416C8.8547 21.2748 10.416 21.8012 12.0347 21.9537C13.6535 22.1062 15.2856 21.8807 16.8024 21.295C18.3192 20.7092 19.6792 19.7792 20.7753 18.5782C21.8714 17.3772 22.6736 15.9381 23.1187 14.3743C23.5637 12.8104 23.6396 11.1646 23.3401 9.56641C23.0407 7.96826 22.3742 6.46148 21.3932 5.16482C20.4122 3.86816 19.1434 2.81704 17.6869 2.09431C16.2304 1.37157 14.626 0.99697 13 1.00002Z" stroke="#00595E" stroke-width="2" stroke-linecap="round" stroke-linejoin="round"></path>
<circle cx="13" cy="14.5" r="0.75" fill="#00595E"></circle>
<path d="M13 14.5C12.9259 14.5 12.8534 14.522 12.7917 14.5632C12.73 14.6044 12.682 14.663 12.6536 14.7315C12.6252 14.8 12.6178 14.8754 12.6322 14.9482C12.6467 15.0209 12.6824 15.0877 12.7349 15.1402C12.7873 15.1926 12.8541 15.2283 12.9269 15.2428C12.9996 15.2573 13.075 15.2498 13.1435 15.2215C13.2121 15.1931 13.2706 15.145 13.3118 15.0833C13.353 15.0217 13.375 14.9492 13.375 14.875C13.375 14.7755 13.3355 14.6802 13.2652 14.6098C13.1949 14.5395 13.0995 14.5 13 14.5Z" stroke="#00595E" stroke-width="2" stroke-linecap="round" stroke-linejoin="round"></path>
<circle cx="12.975" cy="14.875" r="1.125" fill="#00595E"></circle>
<path d="M13 11.5V7" stroke="#00595E" stroke-width="2" stroke-linecap="round" stroke-linejoin="round"></path>
</svg>