<svg width="24" height="24" viewBox="0 0 24 24" fill="none" xmlns="http://www.w3.org/2000/svg">
<path d="M18.6458 9.9459V5.8125C18.6458 5.44783 18.501 5.09809 18.2431 4.84023C17.9853 4.58237 17.6355 4.4375 17.2708 4.4375H9.25L7.6 2.2375C7.47192 2.06673 7.30584 1.92812 7.11492 1.83266C6.92399 1.7372 6.71346 1.6875 6.5 1.6875H3.0625C2.69783 1.6875 2.34809 1.83237 2.09023 2.09023C1.83237 2.34809 1.6875 2.69783 1.6875 3.0625V14.5208C1.6875 14.8855 1.83237 15.2353 2.09023 15.4931C2.34809 15.751 2.69783 15.8958 3.0625 15.8958H5.35605" stroke="#00595E" stroke-width="2" stroke-linecap="round" stroke-linejoin="round"></path>
<path d="M22.3125 11.3125C22.3125 10.9478 22.1677 10.5981 21.9098 10.3402C21.652 10.0824 21.3022 9.9375 20.9375 9.9375H12.9167L11.2667 7.7375C11.1386 7.56673 10.9725 7.42813 10.7816 7.33266C10.5906 7.2372 10.3802 7.1875 10.1667 7.1875H6.72917C6.3645 7.1875 6.01476 7.33237 5.7569 7.59023C5.49904 7.84809 5.35417 8.19783 5.35417 8.5625V20.0208C5.35417 20.3855 5.49904 20.7353 5.7569 20.9931C6.01476 21.251 6.3645 21.3958 6.72917 21.3958H20.9375C21.3022 21.3958 21.652 21.251 21.9098 20.9931C22.1677 20.7353 22.3125 20.3855 22.3125 20.0208V11.3125Z" stroke="#00595E" stroke-width="2" stroke-linecap="round" stroke-linejoin="round"></path>
</svg>