<svg width="25" height="24" viewBox="0 0 25 24" fill="none" xmlns="http://www.w3.org/2000/svg">
<path d="M23.5 6.75C23.5 6.35218 23.342 5.97064 23.0607 5.68934C22.7794 5.40804 22.3978 5.25 22 5.25H10.75L8.95 2.85C8.81028 2.66371 8.6291 2.5125 8.42082 2.40836C8.21254 2.30422 7.98287 2.25 7.75 2.25H2.5C2.10218 2.25 1.72064 2.40804 1.43934 2.68934C1.15804 2.97064 1 3.35218 1 3.75V20.25C1 20.6478 1.15804 21.0294 1.43934 21.3107C1.72064 21.592 2.10218 21.75 2.5 21.75H22C22.3978 21.75 22.7794 21.592 23.0607 21.3107C23.342 21.0294 23.5 20.6478 23.5 20.25V6.75Z" stroke="#00595E" stroke-width="2" stroke-linecap="round" stroke-linejoin="round"></path>
</svg>