<svg width="25" height="24" viewBox="0 0 25 24" fill="none" xmlns="http://www.w3.org/2000/svg">
<path d="M20.5001 9.75V6.75C20.5001 6.35218 20.3421 5.97064 20.0608 5.68934C19.7794 5.40804 19.3979 5.25 19.0001 5.25H8.50009V3.75C8.50009 3.35218 8.34206 2.97064 8.06075 2.68934C7.77945 2.40804 7.39792 2.25 7.00009 2.25H2.50009C2.10227 2.25 1.72074 2.40804 1.43943 2.68934C1.15813 2.97064 1.00009 3.35218 1.00009 3.75V20.05C1.00574 20.4585 1.15827 20.8512 1.42977 21.1564C1.70128 21.4616 2.07361 21.6589 2.47863 21.712C2.88364 21.7652 3.29427 21.6708 3.63536 21.446C3.97645 21.2212 4.2252 20.8812 4.33609 20.488L6.68709 10.831C6.77788 10.5189 6.96759 10.2448 7.22765 10.0498C7.48771 9.85484 7.80407 9.74963 8.12909 9.75H22.0001C22.23 9.74992 22.4569 9.8027 22.6632 9.90426C22.8695 10.0058 23.0496 10.1535 23.1898 10.3357C23.3299 10.518 23.4263 10.7301 23.4714 10.9555C23.5166 11.181 23.5093 11.4138 23.4501 11.636L21.2501 20.636C21.165 20.9555 20.9767 21.238 20.7145 21.4395C20.4522 21.641 20.1308 21.7501 19.8001 21.75H2.69709" stroke="#00595E" stroke-width="2" stroke-linecap="round" stroke-linejoin="round"></path>
</svg>