<svg width="24" height="24" viewBox="0 0 24 24" fill="none" xmlns="http://www.w3.org/2000/svg">
<g clip-path="url(#clip0_14503_6547)">
<path d="M17.5 3.63362C15.9436 2.37431 14.0021 1.68726 12 1.68726C9.99791 1.68726 8.05644 2.37431 6.5 3.63362" stroke="#00595E" stroke-width="2" stroke-linecap="round" stroke-linejoin="round"></path>
<path d="M8.79167 6.94734C9.69971 6.213 10.8322 5.81238 12 5.81238C13.1678 5.81238 14.3003 6.213 15.2083 6.94734" stroke="#00595E" stroke-width="2" stroke-linecap="round" stroke-linejoin="round"></path>
<path d="M1.6875 13.7188C1.6875 14.3569 1.94101 14.969 2.39227 15.4202C2.84353 15.8715 3.45557 16.125 4.09375 16.125C4.73193 16.125 5.34397 15.8715 5.79523 15.4202C6.24649 14.969 6.5 14.3569 6.5 13.7188C6.5 13.0806 6.24649 12.4685 5.79523 12.0173C5.34397 11.566 4.73193 11.3125 4.09375 11.3125C3.45557 11.3125 2.84353 11.566 2.39227 12.0173C1.94101 12.4685 1.6875 13.0806 1.6875 13.7188Z" stroke="#00595E" stroke-width="2" stroke-linecap="round" stroke-linejoin="round"></path>
<path d="M7.88783 19.3177C7.64474 18.7498 7.27718 18.2436 6.81228 17.8367C6.34738 17.4299 5.79702 17.1326 5.20184 16.9669C4.60667 16.8012 3.98187 16.7713 3.3736 16.8795C2.76533 16.9876 2.18911 17.231 1.6875 17.5916" stroke="#00595E" stroke-width="2" stroke-linecap="round" stroke-linejoin="round"></path>
<path d="M17.5 13.7188C17.5 14.3569 17.7535 14.969 18.2048 15.4202C18.656 15.8715 19.2681 16.125 19.9062 16.125C20.5444 16.125 21.1565 15.8715 21.6077 15.4202C22.059 14.969 22.3125 14.3569 22.3125 13.7188C22.3125 13.0806 22.059 12.4685 21.6077 12.0173C21.1565 11.566 20.5444 11.3125 19.9062 11.3125C19.2681 11.3125 18.656 11.566 18.2048 12.0173C17.7535 12.4685 17.5 13.0806 17.5 13.7188Z" stroke="#00595E" stroke-width="2" stroke-linecap="round" stroke-linejoin="round"></path>
<path d="M16.1122 19.3177C16.3553 18.7498 16.7228 18.2436 17.1877 17.8367C17.6526 17.4299 18.203 17.1326 18.7982 16.9669C19.3933 16.8012 20.0181 16.7713 20.6264 16.8795C21.2347 16.9876 21.8109 17.231 22.3125 17.5916" stroke="#00595E" stroke-width="2" stroke-linecap="round" stroke-linejoin="round"></path>
<path d="M8.90625 13.0312C8.90625 13.8518 9.2322 14.6387 9.81239 15.2189C10.3926 15.7991 11.1795 16.125 12 16.125C12.8205 16.125 13.6074 15.7991 14.1876 15.2189C14.7678 14.6387 15.0937 13.8518 15.0938 13.0312C15.0937 12.2107 14.7678 11.4238 14.1876 10.8436C13.6074 10.2634 12.8205 9.9375 12 9.9375C11.1795 9.9375 10.3926 10.2634 9.81239 10.8436C9.2322 11.4238 8.90625 12.2107 8.90625 13.0312Z" stroke="#00595E" stroke-width="2" stroke-linecap="round" stroke-linejoin="round"></path>
<path d="M17.5 22.3125C17.3209 20.9808 16.6648 19.7592 15.6533 18.8747C14.6418 17.9901 13.3437 17.5026 12 17.5026C10.6563 17.5026 9.35821 17.9901 8.34673 18.8747C7.33525 19.7592 6.67907 20.9808 6.5 22.3125" stroke="#00595E" stroke-width="2" stroke-linecap="round" stroke-linejoin="round"></path>
</g>
<defs>
<clipPath id="clip0_14503_6547">
<rect width="24" height="24" fill="white"></rect>
</clipPath>
</defs>
</svg>