<svg width="24" height="24" viewBox="0 0 24 24" fill="none" xmlns="http://www.w3.org/2000/svg">
<path d="M1.45799 12.1709L10.893 2.72794C11.0328 2.58901 11.1985 2.47898 11.3808 2.40414C11.5631 2.32929 11.7584 2.29111 11.9554 2.29176C12.1525 2.29241 12.3475 2.33188 12.5293 2.40792C12.7111 2.48397 12.8762 2.59509 13.015 2.73494L22.458 12.1709" stroke="#00595E" stroke-width="2" stroke-linecap="round" stroke-linejoin="round"></path>
<path d="M19.458 9.17297V21.171H4.45801V9.16797" stroke="#00595E" stroke-width="2" stroke-linecap="round" stroke-linejoin="round"></path>
<path d="M14.958 21.171V16.671C14.958 15.8754 14.6419 15.1123 14.0793 14.5497C13.5167 13.9871 12.7537 13.671 11.958 13.671C11.1624 13.671 10.3993 13.9871 9.83669 14.5497C9.27408 15.1123 8.95801 15.8754 8.95801 16.671V21.171" stroke="#00595E" stroke-width="2" stroke-linecap="round" stroke-linejoin="round"></path>
</svg>