<svg width="24" height="24" viewBox="0 0 24 24" fill="none" xmlns="http://www.w3.org/2000/svg">
<path d="M5.30326 10.8541C4.75326 10.3041 3.83659 10.3041 3.19492 10.8541C2.64492 11.4041 2.64492 12.3207 3.19492 12.9624L11.0783 20.8457C11.995 21.7624 13.2783 22.3124 14.6533 22.3124C16.0283 22.3124 17.3116 21.7624 18.2283 20.8457L20.245 18.8291C21.62 17.4541 22.2616 15.4374 21.895 13.5124L20.6116 7.18744C20.52 6.54578 20.0616 6.08744 19.42 5.99578C18.595 5.81244 17.6783 6.45411 17.5866 7.27911L17.22 10.3041L10.4366 3.52078C9.88659 2.97078 8.96993 2.97078 8.32826 3.52078C7.77826 4.07078 7.77826 4.98744 8.32826 5.62911L7.41159 4.62078C6.86159 4.07078 5.94492 4.07078 5.30326 4.62078C4.75326 5.17078 4.75326 6.08744 5.30326 6.72911L6.31159 7.73744C5.76159 7.18744 4.84492 7.18744 4.20326 7.73744C3.65326 8.28744 3.65326 9.20411 4.20326 9.84578L5.30326 10.8541Z" stroke="#00595E" stroke-width="2" stroke-miterlimit="10" stroke-linecap="round" stroke-linejoin="round"></path>
<path d="M8.32684 5.62552L12.4518 9.75052" stroke="#00595E" stroke-width="2" stroke-miterlimit="10" stroke-linecap="round" stroke-linejoin="round"></path>
<path d="M6.31161 7.73743L10.5283 11.8624" stroke="#00595E" stroke-width="2" stroke-miterlimit="10" stroke-linecap="round" stroke-linejoin="round"></path>
<path d="M8.41992 13.9707L5.30325 10.8541" stroke="#00595E" stroke-width="2" stroke-miterlimit="10" stroke-linecap="round" stroke-linejoin="round"></path>
<path d="M16.0283 3.97916C16.395 3.97916 16.67 4.07082 16.945 4.25416" stroke="#00595E" stroke-width="2" stroke-miterlimit="10" stroke-linecap="round" stroke-linejoin="round"></path>
<path d="M16.4866 1.6875C17.495 1.6875 18.4116 2.05417 19.0533 2.7875" stroke="#00595E" stroke-width="2" stroke-miterlimit="10" stroke-linecap="round" stroke-linejoin="round"></path>
<path d="M4.29494 18.1875C4.29494 19.1958 5.11994 20.0208 6.12827 20.0208" stroke="#00595E" stroke-width="2" stroke-miterlimit="10" stroke-linecap="round" stroke-linejoin="round"></path>
<path d="M2.00328 18.6458C2.00328 20.6625 3.65328 22.3125 5.66995 22.3125" stroke="#00595E" stroke-width="2" stroke-miterlimit="10" stroke-linecap="round" stroke-linejoin="round"></path>
</svg>