<svg width="24" height="24" viewBox="0 0 24 24" fill="none" xmlns="http://www.w3.org/2000/svg">
<path d="M21.604 20.9375C21.604 21.3022 21.4591 21.6519 21.2012 21.9098C20.9434 22.1676 20.5936 22.3125 20.229 22.3125H3.77112C3.40645 22.3125 3.05671 22.1676 2.79885 21.9098C2.54098 21.6519 2.39612 21.3022 2.39612 20.9375V3.0625C2.39612 2.69783 2.54098 2.34809 2.79885 2.09023C3.05671 1.83237 3.40645 1.6875 3.77112 1.6875H17.5211C17.8797 1.68754 18.2241 1.82766 18.4809 2.078L21.1896 4.72075C21.3209 4.84891 21.4251 5.00204 21.4963 5.17112C21.5674 5.3402 21.6041 5.52181 21.604 5.70525V20.9375Z" stroke="#00595E" stroke-width="2" stroke-linecap="round" stroke-linejoin="round"></path>
<path d="M6.52112 7.875C6.52112 8.42201 6.73842 8.94661 7.12521 9.33341C7.512 9.7202 8.03661 9.9375 8.58362 9.9375C9.13063 9.9375 9.65523 9.7202 10.042 9.33341C10.4288 8.94661 10.6461 8.42201 10.6461 7.875C10.6461 7.60415 10.5928 7.33595 10.4891 7.08572C10.3855 6.83548 10.2335 6.60811 10.042 6.41659C9.85051 6.22507 9.62314 6.07315 9.3729 5.9695C9.12267 5.86585 8.85447 5.8125 8.58362 5.8125C8.31277 5.8125 8.04457 5.86585 7.79433 5.9695C7.5441 6.07315 7.31673 6.22507 7.12521 6.41659C6.93369 6.60811 6.78177 6.83548 6.67812 7.08572C6.57447 7.33595 6.52112 7.60415 6.52112 7.875Z" stroke="#00595E" stroke-width="2" stroke-linecap="round" stroke-linejoin="round"></path>
<path d="M18.2453 17.6834L14.6474 12.2861C14.5638 12.1603 14.4507 12.0569 14.3181 11.9848C14.1854 11.9127 14.0371 11.8741 13.8861 11.8724C13.7351 11.8707 13.586 11.9059 13.4517 11.9749C13.3174 12.044 13.202 12.1448 13.1156 12.2686L10.6489 15.7932L9.11987 14.5667C9.0195 14.4863 8.9035 14.4276 8.77923 14.3945C8.65496 14.3613 8.52515 14.3544 8.39806 14.3741C8.27097 14.3939 8.14938 14.4399 8.04103 14.5092C7.93268 14.5785 7.83993 14.6696 7.7687 14.7766L5.83362 17.6834" stroke="#00595E" stroke-width="2" stroke-linecap="round" stroke-linejoin="round"></path>
</svg>