<svg width="25" height="25" viewBox="0 0 25 25" fill="none" xmlns="http://www.w3.org/2000/svg">
<path d="M12.25 16.25V11.5C12.25 11.3011 12.171 11.1103 12.0303 10.9697C11.8897 10.829 11.6989 10.75 11.5 10.75H10.75" stroke="#00595E" stroke-width="2" stroke-linecap="round" stroke-linejoin="round"></path>
<path d="M14.25 16.75H10.25" stroke="#00595E" stroke-width="2" stroke-linecap="round" stroke-linejoin="round"></path>
<path d="M11.875 7C11.8008 7 11.7283 7.02199 11.6667 7.0632C11.605 7.1044 11.5569 7.16297 11.5285 7.23149C11.5002 7.30002 11.4927 7.37542 11.5072 7.44816C11.5217 7.5209 11.5574 7.58772 11.6098 7.64016C11.6623 7.69261 11.7291 7.72833 11.8018 7.74279C11.8746 7.75726 11.95 7.74984 12.0185 7.72145C12.087 7.69307 12.1456 7.64501 12.1868 7.58334C12.228 7.52167 12.25 7.44917 12.25 7.375C12.25 7.27554 12.2105 7.18016 12.1402 7.10984C12.0698 7.03951 11.9745 7 11.875 7Z" stroke="#00595E" stroke-width="2" stroke-linecap="round" stroke-linejoin="round"></path>
<circle cx="11.875" cy="7.375" r="1.125" fill="#00595E"></circle>
<path d="M12.25 23.5C18.4632 23.5 23.5 18.4632 23.5 12.25C23.5 6.0368 18.4632 1 12.25 1C6.0368 1 1 6.0368 1 12.25C1 18.4632 6.0368 23.5 12.25 23.5Z" stroke="#00595E" stroke-width="2" stroke-linecap="round" stroke-linejoin="round"></path>
</svg>