<svg width="24" height="24" viewBox="0 0 24 24" fill="none" xmlns="http://www.w3.org/2000/svg">
<g clip-path="url(#clip0_14503_6533)">
<path d="M3.0625 1.6875H20.9375C20.9375 1.6875 22.3125 1.6875 22.3125 3.0625V20.9375C22.3125 20.9375 22.3125 22.3125 20.9375 22.3125H3.0625C3.0625 22.3125 1.6875 22.3125 1.6875 20.9375V3.0625C1.6875 3.0625 1.6875 1.6875 3.0625 1.6875Z" stroke="#00595E" stroke-width="2" stroke-linecap="round" stroke-linejoin="round"></path>
<path d="M12.9167 15.4375H18.1875" stroke="#00595E" stroke-width="2" stroke-linecap="round" stroke-linejoin="round"></path>
<path d="M5.8125 15.4375H8.33333" stroke="#00595E" stroke-width="2" stroke-linecap="round" stroke-linejoin="round"></path>
<path fill-rule="evenodd" clip-rule="evenodd" d="M12.9167 15.4374C12.9167 15.8907 12.7823 16.3337 12.5304 16.7106C12.2786 17.0875 11.9207 17.3812 11.502 17.5546C11.0832 17.7281 10.6225 17.7735 10.1779 17.6851C9.73337 17.5966 9.32504 17.3784 9.00454 17.0579C8.68405 16.7374 8.46579 16.329 8.37736 15.8845C8.28894 15.44 8.33432 14.9792 8.50777 14.5604C8.68122 14.1417 8.97495 13.7838 9.35181 13.532C9.72868 13.2802 10.1717 13.1458 10.625 13.1458C11.2328 13.1458 11.8157 13.3872 12.2454 13.817C12.6752 14.2467 12.9167 14.8296 12.9167 15.4374Z" stroke="#00595E" stroke-width="2" stroke-linecap="round" stroke-linejoin="round"></path>
<path d="M13.8333 8.5625H5.8125" stroke="#00595E" stroke-width="2" stroke-linecap="round" stroke-linejoin="round"></path>
<path fill-rule="evenodd" clip-rule="evenodd" d="M18.4167 8.56242C18.4167 8.10917 18.2823 7.6661 18.0304 7.28924C17.7786 6.91238 17.4207 6.61865 17.002 6.4452C16.5832 6.27175 16.1225 6.22636 15.6779 6.31479C15.2334 6.40321 14.825 6.62147 14.5045 6.94197C14.184 7.26246 13.9658 7.6708 13.8774 8.11534C13.7889 8.55988 13.8343 9.02066 14.0078 9.4394C14.1812 9.85815 14.475 10.2161 14.8518 10.4679C15.2287 10.7197 15.6717 10.8541 16.125 10.8541C16.7328 10.8541 17.3157 10.6126 17.7454 10.1829C18.1752 9.7531 18.4167 9.17021 18.4167 8.56242Z" stroke="#00595E" stroke-width="2" stroke-linecap="round" stroke-linejoin="round"></path>
</g>
<defs>
<clipPath id="clip0_14503_6533">
<rect width="24" height="24" fill="white"></rect>
</clipPath>
</defs>
</svg>