<svg width="24" height="24" viewBox="0 0 24 24" fill="none" xmlns="http://www.w3.org/2000/svg">
<g clip-path="url(#clip0_14503_6571)">
<path d="M5.53659 9.05113C5.35523 9.15754 5.20069 9.30412 5.08486 9.4796C4.96902 9.65509 4.89498 9.85481 4.86842 10.0634C4.84186 10.272 4.86349 10.4839 4.93165 10.6828C4.99981 10.8817 5.11268 11.0623 5.26159 11.2108L12.7902 18.7394C12.9386 18.8883 13.1193 19.0012 13.3182 19.0693C13.5171 19.1375 13.729 19.1591 13.9376 19.1325C14.1462 19.106 14.3459 19.0319 14.5214 18.9161C14.6968 18.8003 14.8434 18.6457 14.9498 18.4644C15.8416 16.9302 16.1075 15.1113 15.6923 13.386L21.6773 9.5773C21.851 9.4668 21.9977 9.3187 22.1065 9.14392C22.2154 8.96915 22.2836 8.77216 22.3061 8.56751C22.3286 8.36285 22.3049 8.15575 22.2367 7.96149C22.1684 7.76723 22.0575 7.59076 21.9119 7.44513L16.5558 2.08905C16.4103 1.94346 16.2339 1.83243 16.0396 1.76413C15.8454 1.69584 15.6383 1.67203 15.4337 1.69447C15.229 1.7169 15.032 1.78501 14.8572 1.89376C14.6824 2.00251 14.5342 2.14913 14.4237 2.3228L10.6149 8.30863C8.88967 7.89344 7.07076 8.15938 5.53659 9.05113Z" stroke="#00595E" stroke-width="2" stroke-linecap="round" stroke-linejoin="round"></path>
<path d="M9.02358 14.9756L1.6875 22.3117" stroke="#00595E" stroke-width="2" stroke-linecap="round" stroke-linejoin="round"></path>
</g>
<defs>
<clipPath id="clip0_14503_6571">
<rect width="24" height="24" fill="white"></rect>
</clipPath>
</defs>
</svg>