<svg width="24" height="24" viewBox="0 0 24 24" fill="none" xmlns="http://www.w3.org/2000/svg">
<path d="M12.7271 14.2379L14.9894 11.9756L16.5468 12.3934C16.7835 12.4565 17.0327 12.4563 17.2693 12.3927C17.506 12.3292 17.7217 12.2045 17.895 12.0313C18.0682 11.858 18.1929 11.6423 18.2564 11.4056C18.32 11.169 18.3202 10.9198 18.257 10.6831L17.8393 9.12574L18.5362 8.42884L20.0935 8.84662C20.3303 8.91005 20.5796 8.91004 20.8164 8.84659C21.0531 8.78314 21.269 8.65849 21.4423 8.48516C21.6157 8.31184 21.7403 8.09595 21.8038 7.85919C21.8672 7.62242 21.8672 7.37313 21.8038 7.13636L21.3869 5.57899C21.7797 5.18611 22.0003 4.65329 22.0002 4.09776C22.0001 3.54222 21.7793 3.00947 21.3865 2.61671C21.1919 2.42223 20.961 2.26797 20.7068 2.16274C20.4527 2.05752 20.1803 2.00338 19.9052 2.00342C19.3497 2.0035 18.8169 2.22427 18.4242 2.61715L9.7653 11.276C8.57202 10.7701 7.23992 10.6949 5.9973 11.0634C4.75469 11.4319 3.67892 12.2211 2.95437 13.2958C2.22982 14.3705 1.9016 15.6637 2.02596 16.9538C2.15032 18.244 2.71952 19.4507 3.636 20.3672C4.55249 21.2836 5.7592 21.8528 7.04933 21.9772C8.33945 22.1016 9.63267 21.7733 10.7073 21.0488C11.782 20.3242 12.5712 19.2485 12.9397 18.0059C13.3082 16.7632 13.2331 15.4311 12.7271 14.2379Z" stroke="#00595E" stroke-width="2" stroke-linecap="round" stroke-linejoin="round"></path>
<path d="M6.5 18.5C7.05228 18.5 7.5 18.0523 7.5 17.5C7.5 16.9477 7.05228 16.5 6.5 16.5C5.94772 16.5 5.5 16.9477 5.5 17.5C5.5 18.0523 5.94772 18.5 6.5 18.5Z" stroke="#00595E" stroke-width="2" stroke-linecap="round" stroke-linejoin="round"></path>
</svg>