<svg width="24" height="24" viewBox="0 0 24 24" fill="none" xmlns="http://www.w3.org/2000/svg">
<path d="M12 6L12 17" stroke="#00595E" stroke-width="2" stroke-linecap="round" stroke-linejoin="round"></path>
<path d="M12 6.00002C10 3.26671 8.00003 3 6.00004 3H4.00006C3.00007 3 2.00007 3.9111 2.00007 4.82221L1.00008 17C0.999981 18 2.00008 19 3.00007 19M12 21C11 21 10 19 6.00005 19M3.00007 19C4.00006 19 5.00005 19 6.00005 19M3.00007 19H6.00005" stroke="#00595E" stroke-width="2" stroke-linecap="round" stroke-linejoin="round"></path>
<path d="M12 6C14 3.35294 16 3 18 3H20C21 3 22 4.11765 22 5L23 17C23 17.8824 22 19 21 19C20 19 19 19 18 19C14 19 13 21 12 21" stroke="#00595E" stroke-width="2" stroke-linecap="round" stroke-linejoin="round"></path>
</svg>