<svg width="24" height="24" viewBox="0 0 24 24" fill="none" xmlns="http://www.w3.org/2000/svg">
<g clip-path="url(#clip0_14937_15170)">
<path d="M9.36403 18.5003L8.43203 19.4323C7.58811 20.2762 6.44351 20.7503 5.25003 20.7503C4.05655 20.7503 2.91195 20.2762 2.06803 19.4323C1.22411 18.5884 0.75 17.4438 0.75 16.2503C0.75 15.0568 1.22411 13.9122 2.06803 13.0683L6.84103 8.29428C7.64125 7.49225 8.71455 7.02158 9.84661 6.97626C10.9787 6.93094 12.0862 7.31431 12.9479 8.04982C13.8097 8.78532 14.3623 9.81882 14.4954 10.9439C14.6286 12.0691 14.3324 13.203 13.666 14.1193" stroke="#00595E" stroke-width="2" stroke-linecap="round" stroke-linejoin="round"></path>
<path d="M14.8179 5.56705L15.5679 4.81705C16.4119 3.97313 17.5565 3.49902 18.7499 3.49902C19.9434 3.49902 21.088 3.97313 21.9319 4.81705C22.7759 5.66097 23.25 6.80557 23.25 7.99905C23.25 9.19253 22.7759 10.3371 21.9319 11.1811L17.1589 15.9541C16.3586 16.7557 15.2853 17.2261 14.1533 17.2711C13.0214 17.3161 11.9141 16.9326 11.0525 16.197C10.191 15.4615 9.63852 14.428 9.50551 13.303C9.37249 12.178 9.66868 11.0442 10.3349 10.1281" stroke="#00595E" stroke-width="2" stroke-linecap="round" stroke-linejoin="round"></path>
</g>
<defs>
<clipPath id="clip0_14937_15170">
<rect width="24" height="24" fill="white"></rect>
</clipPath>
</defs>
</svg>