<svg width="24" height="24" viewBox="0 0 24 24" fill="none" xmlns="http://www.w3.org/2000/svg">
<path d="M16.125 15.4365H17.8438C18.7995 15.4769 19.7327 15.1387 20.4407 14.4953C21.1486 13.8519 21.5742 12.9552 21.625 11.9999C21.5747 11.0443 21.1493 10.1472 20.4412 9.50358C19.7332 8.85992 18.7998 8.52168 17.8438 8.56237H16.125" stroke="#00595E" stroke-width="2" stroke-linecap="round" stroke-linejoin="round"></path>
<path d="M7.875 15.4369H6.15625C5.20045 15.4774 4.26728 15.1392 3.55933 14.4957C2.85138 13.8523 2.4258 12.9556 2.375 12.0003C2.42557 11.0449 2.85104 10.1479 3.55902 9.50431C4.267 8.86069 5.2003 8.52237 6.15625 8.56282H7.875" stroke="#00595E" stroke-width="2" stroke-linecap="round" stroke-linejoin="round"></path>
<path d="M12 5.81152V1.68652" stroke="#00595E" stroke-width="2" stroke-linecap="round" stroke-linejoin="round"></path>
<path d="M9.25 5.81152L7.875 4.43652" stroke="#00595E" stroke-width="2" stroke-linecap="round" stroke-linejoin="round"></path>
<path d="M14.75 5.81152L16.125 4.43652" stroke="#00595E" stroke-width="2" stroke-linecap="round" stroke-linejoin="round"></path>
<path d="M12 18.1865V22.3115" stroke="#00595E" stroke-width="2" stroke-linecap="round" stroke-linejoin="round"></path>
<path d="M9.25 18.1865L7.875 19.5615" stroke="#00595E" stroke-width="2" stroke-linecap="round" stroke-linejoin="round"></path>
<path d="M14.75 18.1865L16.125 19.5615" stroke="#00595E" stroke-width="2" stroke-linecap="round" stroke-linejoin="round"></path>
</svg>