<svg width="25" height="24" viewBox="0 0 25 24" fill="none" xmlns="http://www.w3.org/2000/svg">
<path d="M7.75151 12.0039H23.5015" stroke="#00595E" stroke-width="2" stroke-linecap="round" stroke-linejoin="round"></path>
<path d="M19.7515 15.7539L23.5015 12.0039L19.7515 8.25391" stroke="#00595E" stroke-width="2" stroke-linecap="round" stroke-linejoin="round"></path>
<path d="M16.0015 16.5V21C16.0186 21.3796 15.8848 21.7505 15.6291 22.0316C15.3735 22.3127 15.017 22.4811 14.6375 22.5H2.36451C1.98521 22.4808 1.62893 22.3123 1.37353 22.0312C1.11813 21.7501 0.984375 21.3794 1.00151 21V3C0.984108 2.62054 1.11777 2.24964 1.37322 1.96851C1.62868 1.68737 1.98512 1.51891 2.36451 1.5H14.6375C15.017 1.51891 15.3735 1.68734 15.6291 1.96845C15.8848 2.24955 16.0186 2.62044 16.0015 3V7.5" stroke="#00595E" stroke-width="2" stroke-linecap="round" stroke-linejoin="round"></path>
</svg>