<svg width="24" height="24" viewBox="0 0 24 24" fill="none" xmlns="http://www.w3.org/2000/svg">
<path d="M4.4375 5.82251H12.6875C12.6875 5.82251 15.4375 5.82251 15.4375 8.57251V15.4475C15.4375 15.4475 15.4375 18.1975 12.6875 18.1975H4.4375C4.4375 18.1975 1.6875 18.1975 1.6875 15.4475V8.57251C1.6875 8.57251 1.6875 5.82251 4.4375 5.82251Z" stroke="#00595E" stroke-width="2" stroke-linecap="round" stroke-linejoin="round"></path>
<path d="M18.1875 14.76L21.3179 16.3248C21.4227 16.3771 21.5392 16.4018 21.6562 16.3965C21.7732 16.3911 21.887 16.356 21.9866 16.2944C22.0862 16.2328 22.1685 16.1467 22.2255 16.0444C22.2826 15.9421 22.3125 15.8268 22.3125 15.7097V8.30944C22.3126 8.19227 22.2827 8.07703 22.2257 7.97468C22.1686 7.87233 22.0863 7.78628 21.9867 7.72472C21.887 7.66316 21.7732 7.62813 21.6561 7.62298C21.5391 7.61783 21.4226 7.64271 21.3179 7.69528L18.1875 9.26003" stroke="#00595E" stroke-width="2" stroke-linecap="round" stroke-linejoin="round"></path>
</svg>