<svg width="24" height="24" viewBox="0 0 24 24" fill="none" xmlns="http://www.w3.org/2000/svg">
<path d="M12.3334 19.1875V22.625" stroke="#00595E" stroke-width="2" stroke-linecap="round" stroke-linejoin="round"></path>
<path d="M12.375 1.5H12.2917C12.2917 1.5 15.9584 1.5 15.9584 5.16667V11.8125C15.9584 11.8125 15.9584 15.4792 12.2917 15.4792H12.375C12.375 15.4792 8.70837 15.4792 8.70837 11.8125V5.16667C8.70837 5.16667 8.70837 1.5 12.375 1.5Z" stroke="#00595E" stroke-width="2" stroke-linecap="round" stroke-linejoin="round"></path>
<path d="M5 10.25V12.3125C5 14.1359 5.72433 15.8845 7.01364 17.1739C8.30295 18.4632 10.0516 19.1875 11.875 19.1875H12.7917C13.6945 19.1875 14.5885 19.0097 15.4226 18.6642C16.2567 18.3187 17.0146 17.8123 17.653 17.1739C18.2914 16.5355 18.7978 15.7776 19.1433 14.9434C19.4888 14.1093 19.6667 13.2153 19.6667 12.3125V10.25" stroke="#00595E" stroke-width="2" stroke-linecap="round" stroke-linejoin="round"></path>
</svg>