<svg width="24" height="24" viewBox="0 0 24 24" fill="none" xmlns="http://www.w3.org/2000/svg">
<path d="M1.45801 12.171L10.893 2.728C11.0328 2.58907 11.1985 2.47904 11.3808 2.4042C11.5631 2.32935 11.7584 2.29117 11.9555 2.29182C12.1525 2.29247 12.3475 2.33194 12.5293 2.40799C12.7111 2.48403 12.8762 2.59515 13.015 2.735L22.458 12.171" stroke="currentColor" stroke-width="2" stroke-linecap="round" stroke-linejoin="round"></path>
<path d="M19.458 9.173V21.171H4.45801V9.168" stroke="currentColor" stroke-width="2" stroke-linecap="round" stroke-linejoin="round"></path>
<path d="M14.958 21.171V16.671C14.958 15.8754 14.6419 15.1123 14.0793 14.5497C13.5167 13.9871 12.7537 13.671 11.958 13.671C11.1624 13.671 10.3993 13.9871 9.83669 14.5497C9.27408 15.1123 8.95801 15.8754 8.95801 16.671V21.171" stroke="currentColor" stroke-width="2" stroke-linecap="round" stroke-linejoin="round"></path>
</svg>