<svg width="24" height="24" viewBox="0 0 24 24" fill="none" xmlns="http://www.w3.org/2000/svg">
<path d="M21.756 11.4107L12.5892 2.24399C12.4329 2.08776 12.221 2 12 2C11.779 2 11.5671 2.08776 11.4108 2.24399L2.24399 11.4107C2.12748 11.5273 2.04814 11.6758 2.016 11.8374C1.98386 11.999 2.00037 12.1665 2.06343 12.3188C2.12648 12.471 2.23327 12.6012 2.37028 12.6928C2.50729 12.7843 2.66838 12.8332 2.83317 12.8333H3.87486C3.93011 12.8333 3.9831 12.8552 4.02217 12.8943C4.06124 12.9333 4.08319 12.9863 4.08319 13.0416V21.1667C4.08319 21.3877 4.17099 21.5996 4.32727 21.7559C4.48356 21.9122 4.69552 22 4.91654 22H9.70829C9.76355 22 9.81654 21.9781 9.85561 21.939C9.89468 21.8999 9.91663 21.8469 9.91663 21.7917V17.8333C9.91663 17.2808 10.1361 16.7508 10.5268 16.3601C10.9175 15.9694 11.4475 15.7499 12 15.7499C12.5525 15.7499 13.0825 15.9694 13.4732 16.3601C13.8639 16.7508 14.0834 17.2808 14.0834 17.8333V21.7917C14.0834 21.8469 14.1053 21.8999 14.1444 21.939C14.1835 21.9781 14.2365 22 14.2917 22H19.0835C19.3045 22 19.5164 21.9122 19.6727 21.7559C19.829 21.5996 19.9168 21.3877 19.9168 21.1667V13.0416C19.9168 12.9863 19.9388 12.9333 19.9778 12.8943C20.0169 12.8552 20.0699 12.8333 20.1251 12.8333H21.1668C21.3316 12.8332 21.4927 12.7843 21.6297 12.6928C21.7667 12.6012 21.8735 12.471 21.9366 12.3188C21.9996 12.1665 22.0161 11.999 21.984 11.8374C21.9519 11.6758 21.8725 11.5273 21.756 11.4107Z" fill="currentColor"></path>
</svg>