<svg width="24" height="24" viewBox="0 0 24 24" fill="none" xmlns="http://www.w3.org/2000/svg">
<path d="M22.9999 4C23.4 7.96462 23.9999 14 23.9999 15.0207C23.9999 15.5415 23.8631 16.0063 23.586 16.2372C23.2927 16.4816 22.9695 16.5831 22.751 16.5831H19.0006C16.2616 16.5831 14.4871 17.1604 13.2236 17.762C13.0628 17.8386 12.9029 17.9197 12.75 18V5.43234C12.75 4 14.7928 2.73397 15.7228 2.41751C16.7439 2.07011 17.7968 2 19.0006 2H20C21.5 2 22.8 2.2 22.9999 4Z" fill="currentColor"></path>
<path d="M1 4C0.599913 7.96462 0 14 0 15.0207C0 15.5415 0.136827 16.0063 0.413894 16.2372C0.707253 16.4816 1.03041 16.5831 1.2489 16.5831H4.99928C7.73827 16.5831 9.51282 17.1604 10.7763 17.762C10.9371 17.8386 11.097 17.9197 11.2499 18V5.43234C11.2499 4 9.20715 2.73397 8.27706 2.41751C7.25601 2.07011 6.20309 2 4.99928 2H3.99991C2.49991 2 1.19991 2.2 1 4Z" fill="currentColor"></path>
<path d="M12 21C11 21 10 19 6.00005 19M3.00007 19C4.00006 19 5.00005 19 6.00005 19M3.00007 19H6.00005M3.00007 19C2.49992 19 2.30537 18.8794 1.99992 18.68" stroke="currentColor" stroke-width="2" stroke-linecap="round" stroke-linejoin="round"></path>
<path d="M12 21C13 21 14 19 18 19C19 19 18.5001 19 20 19C21.4999 19 21.6945 18.8652 21.9999 18.6523" stroke="currentColor" stroke-width="2" stroke-linecap="round" stroke-linejoin="round"></path>
</svg>