<svg width="25" height="25" viewBox="0 0 25 25" fill="none" xmlns="http://www.w3.org/2000/svg">
<path d="M12.25 7C13.9069 7 15.25 5.65685 15.25 4C15.25 2.34315 13.9069 1 12.25 1C10.5931 1 9.25 2.34315 9.25 4C9.25 5.65685 10.5931 7 12.25 7Z" stroke="currentColor" stroke-width="2" stroke-linecap="round" stroke-linejoin="round"></path>
<path d="M16 14.5V12.25C16 11.2554 15.6049 10.3016 14.9017 9.59835C14.1984 8.89509 13.2446 8.5 12.25 8.5C11.2554 8.5 10.3016 8.89509 9.59835 9.59835C8.89509 10.3016 8.5 11.2554 8.5 12.25V14.5H10L10.75 20.5H13.75L14.5 14.5H16Z" stroke="currentColor" stroke-width="2" stroke-linecap="round" stroke-linejoin="round"></path>
<path d="M4.75 8.5C5.99264 8.5 7 7.49264 7 6.25C7 5.00736 5.99264 4 4.75 4C3.50736 4 2.5 5.00736 2.5 6.25C2.5 7.49264 3.50736 8.5 4.75 8.5Z" stroke="currentColor" stroke-width="2" stroke-linecap="round" stroke-linejoin="round"></path>
<path d="M5.95 10.197C5.38585 10.0071 4.78463 9.9542 4.19598 10.0425C3.60733 10.1309 3.04813 10.358 2.56457 10.7051C2.081 11.0522 1.68693 11.5093 1.41488 12.0388C1.14284 12.5682 1.00063 13.1547 1 13.75V14.5H2.5L3.25 19H6.25L6.626 16.744" stroke="currentColor" stroke-width="2" stroke-linecap="round" stroke-linejoin="round"></path>
<path d="M19.75 8.5C20.9926 8.5 22 7.49264 22 6.25C22 5.00736 20.9926 4 19.75 4C18.5074 4 17.5 5.00736 17.5 6.25C17.5 7.49264 18.5074 8.5 19.75 8.5Z" stroke="currentColor" stroke-width="2" stroke-linecap="round" stroke-linejoin="round"></path>
<path d="M18.55 10.197C19.1142 10.0071 19.7154 9.9542 20.304 10.0425C20.8927 10.1309 21.4519 10.358 21.9355 10.7051C22.419 11.0522 22.8131 11.5093 23.0851 12.0388C23.3572 12.5682 23.4994 13.1547 23.5 13.75V14.5H22L21.25 19H18.25L17.874 16.744" stroke="currentColor" stroke-width="2" stroke-linecap="round" stroke-linejoin="round"></path>
<path d="M23.5 21.25C23.5 22.493 18.463 23.5 12.25 23.5C6.037 23.5 1 22.493 1 21.25" stroke="currentColor" stroke-width="2" stroke-linecap="round" stroke-linejoin="round"></path>
</svg>