<svg width="24" height="24" viewBox="0 0 24 24" fill="none" xmlns="http://www.w3.org/2000/svg">
<path d="M12 24.0001C22.7 24.0001 23.851 21.9281 23.851 21.0371C23.851 20.3961 23.851 18.8941 16.81 18.2741C16.5492 18.2511 16.2899 18.3327 16.0892 18.501C15.8886 18.6692 15.7629 18.9102 15.74 19.1711C15.7171 19.4319 15.7987 19.6912 15.9669 19.8918C16.1351 20.0925 16.3762 20.2181 16.637 20.2411C17.9056 20.3372 19.1658 20.5234 20.408 20.7981C20.4623 20.8108 20.5106 20.8414 20.5452 20.8851C20.5799 20.9288 20.5987 20.9828 20.5987 21.0386C20.5987 21.0943 20.5799 21.1484 20.5452 21.192C20.5106 21.2357 20.4623 21.2664 20.408 21.2791C17.6406 21.8314 14.8214 22.0815 12 22.0251C9.17926 22.0815 6.36073 21.8313 3.594 21.2791C3.53975 21.2664 3.49138 21.2357 3.45676 21.192C3.42213 21.1484 3.40329 21.0943 3.40329 21.0386C3.40329 20.9828 3.42213 20.9288 3.45676 20.8851C3.49138 20.8414 3.53975 20.8108 3.594 20.7981C4.82308 20.5261 6.06986 20.3413 7.325 20.2451C7.58584 20.222 7.82683 20.0962 7.99496 19.8955C8.16309 19.6947 8.24458 19.4354 8.2215 19.1746C8.19843 18.9137 8.07268 18.6727 7.87192 18.5046C7.67116 18.3365 7.41184 18.255 7.151 18.2781C0.151001 18.9001 0.151001 20.3981 0.151001 21.0371C0.149001 23.7111 8.437 24.0001 12 24.0001Z" fill="currentColor"></path>
<path d="M13.273 6.63008C13.2253 6.6136 13.1837 6.58308 13.1537 6.54254C13.1237 6.50199 13.1066 6.45331 13.1048 6.4029C13.103 6.35249 13.1164 6.3027 13.1434 6.26007C13.1704 6.21745 13.2096 6.18398 13.256 6.16408C13.9371 5.8745 14.4972 5.35848 14.8415 4.70336C15.1858 4.04824 15.2931 3.29428 15.1454 2.5691C14.9976 1.84391 14.6038 1.19207 14.0306 0.723898C13.4574 0.255729 12.7401 0 12 0C11.2599 0 10.5426 0.255729 9.96937 0.723898C9.39619 1.19207 9.00238 1.84391 8.85462 2.5691C8.70686 3.29428 8.81421 4.04824 9.15851 4.70336C9.50281 5.35848 10.0629 5.8745 10.744 6.16408C10.7903 6.18398 10.8296 6.21745 10.8566 6.26007C10.8836 6.3027 10.897 6.35249 10.8952 6.4029C10.8933 6.45331 10.8763 6.50199 10.8463 6.54254C10.8162 6.58308 10.7747 6.6136 10.727 6.63008C9.94671 6.89682 9.26927 7.40066 8.78931 8.0712C8.30936 8.74174 8.05087 9.54547 8.04999 10.3701V13.3331C8.04999 13.4638 8.10193 13.5892 8.19438 13.6817C8.28684 13.7741 8.41224 13.8261 8.54299 13.8261H9.42499C9.48707 13.8259 9.54692 13.8492 9.59255 13.8913C9.63817 13.9334 9.66619 13.9912 9.67099 14.0531L10.027 18.3121C10.0373 18.4354 10.0936 18.5504 10.1847 18.6341C10.2759 18.7179 10.3952 18.7643 10.519 18.7641H13.481C13.6048 18.7643 13.7241 18.7179 13.8152 18.6341C13.9064 18.5504 13.9627 18.4354 13.973 18.3121L14.329 14.0531C14.3338 13.9912 14.3618 13.9334 14.4074 13.8913C14.4531 13.8492 14.5129 13.8259 14.575 13.8261H15.457C15.5877 13.8261 15.7131 13.7741 15.8056 13.6817C15.898 13.5892 15.95 13.4638 15.95 13.3331V10.3701C15.9491 9.54547 15.6906 8.74174 15.2107 8.0712C14.7307 7.40066 14.0533 6.89682 13.273 6.63008Z" fill="currentColor"></path>
<path d="M4.77899 7.61206C4.73264 7.59506 4.69234 7.56477 4.66313 7.52498C4.63391 7.48519 4.61707 7.43767 4.61473 7.38836C4.61238 7.33905 4.62462 7.29014 4.64992 7.24776C4.67523 7.20537 4.71247 7.17139 4.75699 7.15006C5.31684 6.88839 5.77072 6.44362 6.04369 5.88919C6.31665 5.33475 6.39237 4.7038 6.25835 4.10052C6.12432 3.49724 5.78857 2.95771 5.30653 2.571C4.82448 2.18429 4.22497 1.97354 3.60699 1.97354C2.989 1.97354 2.38949 2.18429 1.90745 2.571C1.4254 2.95771 1.08965 3.49724 0.955626 4.10052C0.821603 4.7038 0.897325 5.33475 1.17029 5.88919C1.44325 6.44362 1.89713 6.88839 2.45699 7.15006C2.50154 7.1713 2.53884 7.2052 2.56422 7.24753C2.58961 7.28985 2.60195 7.33872 2.59971 7.38803C2.59747 7.43733 2.58074 7.48488 2.55162 7.52472C2.5225 7.56457 2.48228 7.59495 2.43599 7.61206C1.7671 7.85356 1.18878 8.29513 0.779614 8.87677C0.370443 9.45841 0.150262 10.1519 0.148987 10.8631V12.3461C0.148987 12.4109 0.161772 12.4751 0.18661 12.535C0.211448 12.5948 0.247851 12.6492 0.293737 12.695C0.339622 12.7408 0.394088 12.7771 0.454017 12.8018C0.513946 12.8265 0.578161 12.8392 0.642987 12.8391H1.46199C1.52267 12.8394 1.58112 12.862 1.62627 12.9025C1.67142 12.9431 1.70014 12.9988 1.70699 13.0591L2.12699 16.8451C2.14154 16.9655 2.19936 17.0765 2.28969 17.1575C2.38002 17.2384 2.4967 17.2838 2.61799 17.2851H4.59299C4.71449 17.2851 4.83174 17.2403 4.92232 17.1593C5.0129 17.0783 5.07046 16.9668 5.08399 16.8461L5.50499 13.0591C5.51163 12.9987 5.54028 12.9429 5.58548 12.9023C5.63068 12.8617 5.68924 12.8392 5.74999 12.8391H6.56799C6.63281 12.8392 6.69703 12.8265 6.75696 12.8018C6.81689 12.7771 6.87135 12.7408 6.91724 12.695C6.96312 12.6492 6.99953 12.5948 7.02436 12.535C7.0492 12.4751 7.06199 12.4109 7.06199 12.3461V10.8621C7.06124 10.1515 6.84171 9.45833 6.43325 8.87686C6.02479 8.29539 5.4472 7.85379 4.77899 7.61206Z" fill="currentColor"></path>
<path d="M21.567 7.61206C21.5207 7.59495 21.4805 7.56457 21.4513 7.52472C21.4222 7.48488 21.4055 7.43733 21.4033 7.38803C21.401 7.33872 21.4134 7.28985 21.4387 7.24753C21.4641 7.2052 21.5014 7.1713 21.546 7.15006C22.1058 6.88839 22.5597 6.44362 22.8327 5.88919C23.1056 5.33475 23.1814 4.7038 23.0473 4.10052C22.9133 3.49724 22.5776 2.95771 22.0955 2.571C21.6135 2.18429 21.014 1.97354 20.396 1.97354C19.778 1.97354 19.1785 2.18429 18.6964 2.571C18.2144 2.95771 17.8786 3.49724 17.7446 4.10052C17.6106 4.7038 17.6863 5.33475 17.9593 5.88919C18.2322 6.44362 18.6861 6.88839 19.246 7.15006C19.2905 7.1713 19.3278 7.2052 19.3532 7.24753C19.3786 7.28985 19.3909 7.33872 19.3887 7.38803C19.3865 7.43733 19.3697 7.48488 19.3406 7.52472C19.3115 7.56457 19.2713 7.59495 19.225 7.61206C18.5565 7.8538 17.9787 8.29552 17.57 8.87718C17.1614 9.45883 16.9417 10.1522 16.941 10.8631V12.3461C16.941 12.4109 16.9538 12.4751 16.9786 12.535C17.0034 12.5948 17.0398 12.6492 17.0857 12.695C17.1316 12.7408 17.1861 12.7771 17.246 12.8018C17.3059 12.8265 17.3702 12.8392 17.435 12.8391H18.253C18.3138 12.8392 18.3725 12.8616 18.4179 12.9022C18.4632 12.9428 18.4921 12.9986 18.499 13.0591L18.919 16.8451C18.9335 16.9655 18.9914 17.0765 19.0817 17.1575C19.172 17.2384 19.2887 17.2838 19.41 17.2851H21.385C21.5065 17.2851 21.6237 17.2403 21.7143 17.1593C21.8049 17.0783 21.8625 16.9668 21.876 16.8461L22.297 13.0591C22.3036 12.9987 22.3323 12.9429 22.3775 12.9023C22.4227 12.8617 22.4812 12.8392 22.542 12.8391H23.36C23.4248 12.8392 23.489 12.8265 23.5489 12.8018C23.6089 12.7771 23.6633 12.7408 23.7092 12.695C23.7551 12.6492 23.7915 12.5948 23.8164 12.535C23.8412 12.4751 23.854 12.4109 23.854 12.3461V10.8621C23.8529 10.151 23.6328 9.4575 23.2236 8.87598C22.8144 8.29445 22.2359 7.85313 21.567 7.61206Z" fill="currentColor"></path>
<path d="M12 24.0001C22.7 24.0001 23.851 21.9281 23.851 21.0371C23.851 20.3961 23.851 18.8941 16.81 18.2741C16.5492 18.2511 16.2899 18.3327 16.0892 18.501C15.8886 18.6692 15.7629 18.9102 15.74 19.1711C15.7171 19.4319 15.7987 19.6912 15.9669 19.8918C16.1351 20.0925 16.3762 20.2181 16.637 20.2411C17.9056 20.3372 19.1658 20.5234 20.408 20.7981C20.4623 20.8108 20.5106 20.8414 20.5452 20.8851C20.5799 20.9288 20.5987 20.9828 20.5987 21.0386C20.5987 21.0943 20.5799 21.1484 20.5452 21.192C20.5106 21.2357 20.4623 21.2664 20.408 21.2791C17.6406 21.8314 14.8214 22.0815 12 22.0251C9.17926 22.0815 6.36073 21.8313 3.594 21.2791C3.53975 21.2664 3.49138 21.2357 3.45676 21.192C3.42213 21.1484 3.40329 21.0943 3.40329 21.0386C3.40329 20.9828 3.42213 20.9288 3.45676 20.8851C3.49138 20.8414 3.53975 20.8108 3.594 20.7981C4.82308 20.5261 6.06986 20.3413 7.325 20.2451C7.58584 20.222 7.82683 20.0962 7.99496 19.8955C8.16309 19.6947 8.24458 19.4354 8.2215 19.1746C8.19843 18.9137 8.07268 18.6727 7.87192 18.5046C7.67116 18.3365 7.41184 18.255 7.151 18.2781C0.151001 18.9001 0.151001 20.3981 0.151001 21.0371C0.149001 23.7111 8.437 24.0001 12 24.0001Z" fill="currentColor"></path>
<path d="M13.273 6.63008C13.2253 6.6136 13.1837 6.58308 13.1537 6.54254C13.1237 6.50199 13.1066 6.45331 13.1048 6.4029C13.103 6.35249 13.1164 6.3027 13.1434 6.26007C13.1704 6.21745 13.2096 6.18398 13.256 6.16408C13.9371 5.8745 14.4972 5.35848 14.8415 4.70336C15.1858 4.04824 15.2931 3.29428 15.1454 2.5691C14.9976 1.84391 14.6038 1.19207 14.0306 0.723898C13.4574 0.255729 12.7401 0 12 0C11.2599 0 10.5426 0.255729 9.96937 0.723898C9.39619 1.19207 9.00238 1.84391 8.85462 2.5691C8.70686 3.29428 8.81421 4.04824 9.15851 4.70336C9.50281 5.35848 10.0629 5.8745 10.744 6.16408C10.7903 6.18398 10.8296 6.21745 10.8566 6.26007C10.8836 6.3027 10.897 6.35249 10.8952 6.4029C10.8933 6.45331 10.8763 6.50199 10.8463 6.54254C10.8162 6.58308 10.7747 6.6136 10.727 6.63008C9.94671 6.89682 9.26927 7.40066 8.78931 8.0712C8.30936 8.74174 8.05087 9.54547 8.04999 10.3701V13.3331C8.04999 13.4638 8.10193 13.5892 8.19438 13.6817C8.28684 13.7741 8.41224 13.8261 8.54299 13.8261H9.42499C9.48707 13.8259 9.54692 13.8492 9.59255 13.8913C9.63817 13.9334 9.66619 13.9912 9.67099 14.0531L10.027 18.3121C10.0373 18.4354 10.0936 18.5504 10.1847 18.6341C10.2759 18.7179 10.3952 18.7643 10.519 18.7641H13.481C13.6048 18.7643 13.7241 18.7179 13.8152 18.6341C13.9064 18.5504 13.9627 18.4354 13.973 18.3121L14.329 14.0531C14.3338 13.9912 14.3618 13.9334 14.4074 13.8913C14.4531 13.8492 14.5129 13.8259 14.575 13.8261H15.457C15.5877 13.8261 15.7131 13.7741 15.8056 13.6817C15.898 13.5892 15.95 13.4638 15.95 13.3331V10.3701C15.9491 9.54547 15.6906 8.74174 15.2107 8.0712C14.7307 7.40066 14.0533 6.89682 13.273 6.63008Z" fill="currentColor"></path>
<path d="M4.77899 7.61206C4.73264 7.59506 4.69234 7.56477 4.66313 7.52498C4.63391 7.48519 4.61707 7.43767 4.61473 7.38836C4.61238 7.33905 4.62462 7.29014 4.64992 7.24776C4.67523 7.20537 4.71247 7.17139 4.75699 7.15006C5.31684 6.88839 5.77072 6.44362 6.04369 5.88919C6.31665 5.33475 6.39237 4.7038 6.25835 4.10052C6.12432 3.49724 5.78857 2.95771 5.30653 2.571C4.82448 2.18429 4.22497 1.97354 3.60699 1.97354C2.989 1.97354 2.38949 2.18429 1.90745 2.571C1.4254 2.95771 1.08965 3.49724 0.955626 4.10052C0.821603 4.7038 0.897325 5.33475 1.17029 5.88919C1.44325 6.44362 1.89713 6.88839 2.45699 7.15006C2.50154 7.1713 2.53884 7.2052 2.56422 7.24753C2.58961 7.28985 2.60195 7.33872 2.59971 7.38803C2.59747 7.43733 2.58074 7.48488 2.55162 7.52472C2.5225 7.56457 2.48228 7.59495 2.43599 7.61206C1.7671 7.85356 1.18878 8.29513 0.779614 8.87677C0.370443 9.45841 0.150262 10.1519 0.148987 10.8631V12.3461C0.148987 12.4109 0.161772 12.4751 0.18661 12.535C0.211448 12.5948 0.247851 12.6492 0.293737 12.695C0.339622 12.7408 0.394088 12.7771 0.454017 12.8018C0.513946 12.8265 0.578161 12.8392 0.642987 12.8391H1.46199C1.52267 12.8394 1.58112 12.862 1.62627 12.9025C1.67142 12.9431 1.70014 12.9988 1.70699 13.0591L2.12699 16.8451C2.14154 16.9655 2.19936 17.0765 2.28969 17.1575C2.38002 17.2384 2.4967 17.2838 2.61799 17.2851H4.59299C4.71449 17.2851 4.83174 17.2403 4.92232 17.1593C5.0129 17.0783 5.07046 16.9668 5.08399 16.8461L5.50499 13.0591C5.51163 12.9987 5.54028 12.9429 5.58548 12.9023C5.63068 12.8617 5.68924 12.8392 5.74999 12.8391H6.56799C6.63281 12.8392 6.69703 12.8265 6.75696 12.8018C6.81689 12.7771 6.87135 12.7408 6.91724 12.695C6.96312 12.6492 6.99953 12.5948 7.02436 12.535C7.0492 12.4751 7.06199 12.4109 7.06199 12.3461V10.8621C7.06124 10.1515 6.84171 9.45833 6.43325 8.87686C6.02479 8.29539 5.4472 7.85379 4.77899 7.61206Z" fill="currentColor"></path>
<path d="M21.567 7.61206C21.5207 7.59495 21.4805 7.56457 21.4513 7.52472C21.4222 7.48488 21.4055 7.43733 21.4033 7.38803C21.401 7.33872 21.4134 7.28985 21.4387 7.24753C21.4641 7.2052 21.5014 7.1713 21.546 7.15006C22.1058 6.88839 22.5597 6.44362 22.8327 5.88919C23.1056 5.33475 23.1814 4.7038 23.0473 4.10052C22.9133 3.49724 22.5776 2.95771 22.0955 2.571C21.6135 2.18429 21.014 1.97354 20.396 1.97354C19.778 1.97354 19.1785 2.18429 18.6964 2.571C18.2144 2.95771 17.8786 3.49724 17.7446 4.10052C17.6106 4.7038 17.6863 5.33475 17.9593 5.88919C18.2322 6.44362 18.6861 6.88839 19.246 7.15006C19.2905 7.1713 19.3278 7.2052 19.3532 7.24753C19.3786 7.28985 19.3909 7.33872 19.3887 7.38803C19.3865 7.43733 19.3697 7.48488 19.3406 7.52472C19.3115 7.56457 19.2713 7.59495 19.225 7.61206C18.5565 7.8538 17.9787 8.29552 17.57 8.87718C17.1614 9.45883 16.9417 10.1522 16.941 10.8631V12.3461C16.941 12.4109 16.9538 12.4751 16.9786 12.535C17.0034 12.5948 17.0398 12.6492 17.0857 12.695C17.1316 12.7408 17.1861 12.7771 17.246 12.8018C17.3059 12.8265 17.3702 12.8392 17.435 12.8391H18.253C18.3138 12.8392 18.3725 12.8616 18.4179 12.9022C18.4632 12.9428 18.4921 12.9986 18.499 13.0591L18.919 16.8451C18.9335 16.9655 18.9914 17.0765 19.0817 17.1575C19.172 17.2384 19.2887 17.2838 19.41 17.2851H21.385C21.5065 17.2851 21.6237 17.2403 21.7143 17.1593C21.8049 17.0783 21.8625 16.9668 21.876 16.8461L22.297 13.0591C22.3036 12.9987 22.3323 12.9429 22.3775 12.9023C22.4227 12.8617 22.4812 12.8392 22.542 12.8391H23.36C23.4248 12.8392 23.489 12.8265 23.5489 12.8018C23.6089 12.7771 23.6633 12.7408 23.7092 12.695C23.7551 12.6492 23.7915 12.5948 23.8164 12.535C23.8412 12.4751 23.854 12.4109 23.854 12.3461V10.8621C23.8529 10.151 23.6328 9.4575 23.2236 8.87598C22.8144 8.29445 22.2359 7.85313 21.567 7.61206Z" fill="currentColor"></path>
</svg>