<svg width="24" height="24" viewBox="0 0 24 24" fill="none" xmlns="http://www.w3.org/2000/svg">
<path d="M20.75 17.75H12.25L6.25 22.25V17.75H3.25C2.85218 17.75 2.47064 17.592 2.18934 17.3107C1.90804 17.0294 1.75 16.6478 1.75 16.25V3.25C1.75 2.85218 1.90804 2.47064 2.18934 2.18934C2.47064 1.90804 2.85218 1.75 3.25 1.75H20.75C21.1478 1.75 21.5294 1.90804 21.8107 2.18934C22.092 2.47064 22.25 2.85218 22.25 3.25V16.25C22.25 16.6478 22.092 17.0294 21.8107 17.3107C21.5294 17.592 21.1478 17.75 20.75 17.75Z" stroke="#00595E" stroke-width="2" stroke-linecap="round" stroke-linejoin="round"></path>
<path d="M7 8H17" stroke="#00595E" stroke-width="2" stroke-linecap="round" stroke-linejoin="round"></path>
<path d="M7 12L14 12" stroke="#00595E" stroke-width="2" stroke-linecap="round" stroke-linejoin="round"></path>
</svg>