<svg width="24" height="24" viewBox="0 0 24 24" fill="none" xmlns="http://www.w3.org/2000/svg">
<g clip-path="url(#clip0_14503_6567)">
<path d="M9.38658 18.325H19.095C19.5132 18.325 19.9142 18.1588 20.2099 17.8632C20.5056 17.5675 20.6717 17.1664 20.6717 16.7483V8.76137C20.672 8.45881 20.5854 8.16253 20.422 7.90785C20.2587 7.65317 20.0255 7.45083 19.7504 7.32495" stroke="#00595E" stroke-width="2" stroke-linecap="round" stroke-linejoin="round"></path>
<path d="M16.73 7.18483L15.1533 4.03149H8.84667L7.27001 7.18483H4.90501C4.48685 7.18483 4.08582 7.35094 3.79013 7.64662C3.49445 7.9423 3.32834 8.34334 3.32834 8.76149V16.9501C3.32834 17.3147 3.4732 17.6645 3.73107 17.9223C3.98893 18.1802 4.33867 18.3251 4.70334 18.3251H5.67501" stroke="#00595E" stroke-width="2" stroke-linecap="round" stroke-linejoin="round"></path>
<path d="M15.2817 12C15.2817 12.8704 14.9359 13.7051 14.3205 14.3205C13.7051 14.9359 12.8704 15.2817 12 15.2817" stroke="#00595E" stroke-width="2" stroke-linecap="round" stroke-linejoin="round"></path>
<path d="M22.3125 1.6875L1.6875 22.3125" stroke="#00595E" stroke-width="2" stroke-linecap="round" stroke-linejoin="round"></path>
<path d="M9.67991 14.3202C9.37523 14.0155 9.13355 13.6538 8.96866 13.2557C8.80377 12.8576 8.7189 12.431 8.7189 12.0001C8.7189 11.1299 9.06459 10.2953 9.67991 9.68C10.2952 9.06468 11.1298 8.71899 12 8.71899C12.8702 8.71899 13.7048 9.06468 14.3201 9.68" stroke="#00595E" stroke-width="2" stroke-linecap="round" stroke-linejoin="round"></path>
</g>
<defs>
<clipPath id="clip0_14503_6567">
<rect width="24" height="24" fill="white"></rect>
</clipPath>
</defs>
</svg>