<svg width="25" height="24" viewBox="0 0 25 24" fill="none" xmlns="http://www.w3.org/2000/svg">
<path d="M3.25 14.248C4.49264 14.248 5.5 13.2407 5.5 11.998C5.5 10.7554 4.49264 9.74805 3.25 9.74805C2.00736 9.74805 1 10.7554 1 11.998C1 13.2407 2.00736 14.248 3.25 14.248Z" stroke="#00595E" stroke-width="2" stroke-linecap="round" stroke-linejoin="round"></path>
<path d="M12.25 14.248C13.4926 14.248 14.5 13.2407 14.5 11.998C14.5 10.7554 13.4926 9.74805 12.25 9.74805C11.0074 9.74805 10 10.7554 10 11.998C10 13.2407 11.0074 14.248 12.25 14.248Z" stroke="#00595E" stroke-width="2" stroke-linecap="round" stroke-linejoin="round"></path>
<path d="M21.25 14.248C22.4926 14.248 23.5 13.2407 23.5 11.998C23.5 10.7554 22.4926 9.74805 21.25 9.74805C20.0074 9.74805 19 10.7554 19 11.998C19 13.2407 20.0074 14.248 21.25 14.248Z" stroke="#00595E" stroke-width="2" stroke-linecap="round" stroke-linejoin="round"></path>
</svg>