<svg width="25" height="24" viewBox="0 0 25 24" fill="none" xmlns="http://www.w3.org/2000/svg">
<path d="M11.5 22.5C8.71523 22.5 6.04451 21.3938 4.07538 19.4246C2.10625 17.4555 1 14.7848 1 12C1 9.21523 2.10625 6.54451 4.07538 4.57538C6.04451 2.60625 8.71523 1.5 11.5 1.5" stroke="#00595E" stroke-width="2" stroke-linecap="round" stroke-linejoin="round"></path>
<path d="M11.5 1.5C11.5 1.5 6.25 4.5 6.25 12C6.25 19.5 11.5 22.5 11.5 22.5" stroke="#00595E" stroke-width="2" stroke-linecap="round" stroke-linejoin="round"></path>
<path d="M11.5 7.5H2.01099" stroke="#00595E" stroke-width="2" stroke-linecap="round" stroke-linejoin="round"></path>
<path d="M11.5 16.5H2.01099" stroke="#00595E" stroke-width="2" stroke-linecap="round" stroke-linejoin="round"></path>
<path d="M19 7.5C20.6569 7.5 22 6.15685 22 4.5C22 2.84315 20.6569 1.5 19 1.5C17.3431 1.5 16 2.84315 16 4.5C16 6.15685 17.3431 7.5 19 7.5Z" stroke="#00595E" stroke-width="2" stroke-linecap="round" stroke-linejoin="round"></path>
<path d="M21.61 9.84595L19 13.4999L16.39 9.84595C15.8063 10.2601 15.3302 10.8079 15.0015 11.4435C14.6727 12.0792 14.5007 12.7843 14.5 13.4999V16.4999C14.5 16.8978 14.658 17.2793 14.9393 17.5606C15.2206 17.8419 15.6022 17.9999 16 17.9999H16.75V20.9999C16.75 21.3978 16.908 21.7793 17.1893 22.0606C17.4706 22.3419 17.8522 22.4999 18.25 22.4999H19.75C20.1478 22.4999 20.5294 22.3419 20.8107 22.0606C21.092 21.7793 21.25 21.3978 21.25 20.9999V17.9999H22C22.3978 17.9999 22.7794 17.8419 23.0607 17.5606C23.342 17.2793 23.5 16.8978 23.5 16.4999V13.4999C23.4993 12.7843 23.3273 12.0792 22.9985 11.4435C22.6698 10.8079 22.1937 10.2601 21.61 9.84595Z" stroke="#00595E" stroke-width="2" stroke-linecap="round" stroke-linejoin="round"></path>
</svg>