<svg width="24" height="24" viewBox="0 0 24 24" fill="none" xmlns="http://www.w3.org/2000/svg">
<path d="M16.403 14.9497L16.403 20.443C16.403 20.6474 16.4444 20.8499 16.5249 21.0388C16.6054 21.2277 16.7234 21.3994 16.8722 21.544C17.0208 21.6885 17.1975 21.8032 17.3918 21.8815C17.5863 21.9597 17.7945 21.9999 18.0049 22C19.2045 22 20.2625 20.2939 21 19.5L19.6056 18L19.6048 17.9L21 16.5L19.6032 15L19.6019 14.9504C20.4438 14.5927 21.1334 13.9643 21.5547 13.1707C21.976 12.3771 22.1034 11.4667 21.9154 10.5925C21.7275 9.71841 21.2356 8.93381 20.5226 8.37064C19.8096 7.80741 18.9188 7.5 18 7.5C17.0812 7.5 16.1905 7.80741 15.4774 8.37064C14.7644 8.93374 14.2726 9.71841 14.0846 10.5926C13.8966 11.4667 14.024 12.377 14.4453 13.1706C14.8667 13.9643 15.5562 14.5927 16.3981 14.9504L16.403 14.9497Z" stroke="#006066" stroke-width="2" stroke-linecap="round" stroke-linejoin="round"></path>
<path d="M18.0437 11.4375C17.8539 11.4375 17.7 11.2836 17.7 11.0938C17.7 10.9039 17.8539 10.75 18.0437 10.75" stroke="#006066" stroke-width="2"></path>
<path d="M18.0437 11.4375C18.2336 11.4375 18.3875 11.2836 18.3875 11.0938C18.3875 10.9039 18.2336 10.75 18.0437 10.75" stroke="#006066" stroke-width="2"></path>
<path d="M7.875 9.5625C9.96332 9.5625 11.6562 7.86957 11.6562 5.78125C11.6562 3.69293 9.96332 2 7.875 2C5.78668 2 4.09375 3.69293 4.09375 5.78125C4.09375 7.86957 5.78668 9.5625 7.875 9.5625Z" stroke="#006066" stroke-width="2" stroke-linecap="round" stroke-linejoin="round"></path>
<path d="M12 18H1.6875V17.1874C1.68608 15.9699 2.04431 14.7791 2.71724 13.7644C3.39015 12.7498 4.34779 11.9565 5.46994 11.4841C6.5921 11.0118 7.82877 10.8813 9.02477 11.1093C9.62142 11.223 10.1947 11.4234 10.7274 11.7015" stroke="#006066" stroke-width="2" stroke-linecap="round" stroke-linejoin="round"></path>
</svg>