<svg width="24" height="24" viewBox="0 0 24 24" fill="none" xmlns="http://www.w3.org/2000/svg">
<path d="M4.5 20C4.0875 20 3.73441 19.8531 3.44075 19.5592C3.14691 19.2656 3 18.9125 3 18.5V17.65C3 17.0166 3.15833 16.475 3.475 16.025C3.79166 15.575 4.2 15.2333 4.7 15C5.81665 14.5 6.8875 14.125 7.9125 13.875C8.9375 13.625 9.96665 13.5 11 13.5C11.35 13.5 11.7 13.5125 12.05 13.5375C12.4 13.5625 12.75 13.6083 13.1 13.675C13.2334 13.7084 13.3333 13.7682 13.4 13.8547C13.4667 13.9412 13.5 14.048 13.5 14.175C13.5 15.0084 13.6916 15.7875 14.075 16.5125C14.4584 17.2375 14.9917 17.8333 15.675 18.3C15.7761 18.3661 15.8556 18.4488 15.9132 18.5478C15.9711 18.6469 16 18.756 16 18.875V19.25C16 19.4625 15.9282 19.6406 15.7845 19.7843C15.6406 19.9281 15.4625 20 15.25 20H4.5ZM11 11.5C9.95 11.5 9.0625 11.1375 8.3375 10.4125C7.6125 9.6875 7.25 8.8 7.25 7.75C7.25 6.7 7.6125 5.8125 8.3375 5.0875C9.0625 4.3625 9.95 4 11 4C12.05 4 12.9375 4.3625 13.6625 5.0875C14.3875 5.8125 14.75 6.7 14.75 7.75C14.75 8.8 14.3875 9.6875 13.6625 10.4125C12.9375 11.1375 12.05 11.5 11 11.5ZM18.5 14.675C18.7833 14.675 19.0208 14.5792 19.2125 14.3875C19.4042 14.1958 19.5 13.9584 19.5 13.675C19.5 13.3917 19.4042 13.1542 19.2125 12.9625C19.0208 12.7708 18.7833 12.675 18.5 12.675C18.2167 12.675 17.9792 12.7708 17.7875 12.9625C17.5958 13.1542 17.5 13.3917 17.5 13.675C17.5 13.9584 17.5958 14.1958 17.7875 14.3875C17.9792 14.5792 18.2167 14.675 18.5 14.675ZM18.725 23.4L17.606 22.281C17.5687 22.2437 17.5333 22.1583 17.5 22.025V17.5285C16.7667 17.3095 16.1666 16.8959 15.7 16.2875C15.2333 15.6792 15 14.975 15 14.175C15 13.2084 15.3417 12.3833 16.025 11.7C16.7083 11.0166 17.5333 10.675 18.5 10.675C19.4667 10.675 20.2917 11.0166 20.975 11.7C21.6583 12.3833 22 13.2084 22 14.175C22 14.925 21.7875 15.5916 21.3625 16.175C20.9375 16.7583 20.4 17.175 19.75 17.425L20.725 18.4C20.8083 18.4773 20.85 18.5675 20.85 18.6705C20.85 18.7735 20.8083 18.8667 20.725 18.95L19.775 19.9C19.6917 19.9773 19.65 20.0675 19.65 20.1705C19.65 20.2735 19.6917 20.3667 19.775 20.45L20.725 21.4C20.8083 21.4774 20.85 21.5675 20.85 21.6705C20.85 21.7735 20.8083 21.8667 20.725 21.95L19.275 23.4C19.1976 23.4833 19.1075 23.525 19.0045 23.525C18.9015 23.525 18.8084 23.4833 18.725 23.4Z" fill="#00595E"></path>
</svg>