<svg width="24" height="24" viewBox="0 0 24 24" fill="none" xmlns="http://www.w3.org/2000/svg">
<path d="M7.1875 4.4375H8.5625C8.5625 4.4375 9.9375 4.4375 9.9375 5.8125V18.1875C9.9375 18.1875 9.9375 19.5625 8.5625 19.5625H7.1875C7.1875 19.5625 5.8125 19.5625 5.8125 18.1875V5.8125C5.8125 5.8125 5.8125 4.4375 7.1875 4.4375Z" stroke="#00595E" stroke-width="2" stroke-linecap="round" stroke-linejoin="round"></path>
<path d="M15.4375 4.4375H16.8125C16.8125 4.4375 18.1875 4.4375 18.1875 5.8125V18.1875C18.1875 18.1875 18.1875 19.5625 16.8125 19.5625H15.4375C15.4375 19.5625 14.0625 19.5625 14.0625 18.1875V5.8125C14.0625 5.8125 14.0625 4.4375 15.4375 4.4375Z" stroke="#00595E" stroke-width="2" stroke-linecap="round" stroke-linejoin="round"></path>
</svg>