<svg width="24" height="24" viewBox="0 0 24 24" fill="none" xmlns="http://www.w3.org/2000/svg">
<g clip-path="url(#clip0_14503_6537)">
<path d="M16.7584 4.80885H15.2294C14.9944 4.80784 14.7663 4.88899 14.5847 5.03828C14.4032 5.18756 14.2794 5.3956 14.235 5.62642C14.1905 5.85725 14.2281 6.09635 14.3412 6.30241C14.4543 6.50847 14.6359 6.66853 14.8545 6.75493L16.4064 7.37551C16.6243 7.46224 16.8051 7.62219 16.9178 7.82784C17.0305 8.03349 17.0679 8.27199 17.0238 8.50228C16.9796 8.73258 16.8565 8.94028 16.6758 9.08965C16.495 9.23902 16.2678 9.32072 16.0333 9.32068H14.5025" stroke="#00595E" stroke-width="2" stroke-linecap="round" stroke-linejoin="round"></path>
<path d="M15.6309 4.80873V3.71606" stroke="#00595E" stroke-width="2" stroke-linecap="round" stroke-linejoin="round"></path>
<path d="M15.6309 10.2959V9.32056" stroke="#00595E" stroke-width="2" stroke-linecap="round" stroke-linejoin="round"></path>
<path d="M10.4609 7.06478C10.4609 8.43594 11.0056 9.75095 11.9752 10.7205C12.9447 11.6901 14.2598 12.2348 15.6309 12.2348C17.0021 12.2348 18.3171 11.6901 19.2867 10.7205C20.2562 9.75095 20.8009 8.43594 20.8009 7.06478C20.8009 5.69361 20.2562 4.3786 19.2867 3.40903C18.3171 2.43947 17.0021 1.89478 15.6309 1.89478C14.2598 1.89478 12.9447 2.43947 11.9752 3.40903C11.0056 4.3786 10.4609 5.69361 10.4609 7.06478Z" stroke="#00595E" stroke-width="2" stroke-linecap="round" stroke-linejoin="round"></path>
<path d="M14.9333 16.9683L20.6323 15.1478L20.6717 15.1368C20.9922 15.0665 21.3274 15.1153 21.6146 15.2741C21.9018 15.4329 22.1214 15.6907 22.2325 15.9995C22.3435 16.3083 22.3383 16.647 22.2179 16.9523C22.0975 17.2576 21.8702 17.5086 21.5783 17.6586C10.4527 23.4189 13.2907 23.1586 1.68658 19.293" stroke="#00595E" stroke-width="2" stroke-linecap="round" stroke-linejoin="round"></path>
<path d="M1.6875 12.2346H3.70417C6.04818 12.2107 8.32209 13.0336 10.108 14.552L10.1456 14.585H13.9039C14.2788 14.585 14.6383 14.7339 14.9034 14.999C15.1685 15.2641 15.3174 15.6236 15.3174 15.9985C15.3177 16.3722 15.1699 16.7309 14.9063 16.996C14.6428 17.261 14.285 17.4109 13.9113 17.4129L8.19675 17.4413" stroke="#00595E" stroke-width="2" stroke-linecap="round" stroke-linejoin="round"></path>
</g>
<defs>
<clipPath id="clip0_14503_6537">
<rect width="24" height="24" fill="white"></rect>
</clipPath>
</defs>
</svg>