<svg width="24" height="24" viewBox="0 0 24 24" fill="none" xmlns="http://www.w3.org/2000/svg">
<path d="M17.06 6.5L15.7061 4.38342C15.5816 4.18909 15.4103 4.02921 15.2078 3.91851C15.0053 3.80782 14.7782 3.74987 14.5474 3.75H9.45258C9.22197 3.75002 8.99506 3.80805 8.79275 3.91873C8.59044 4.02942 8.41921 4.18922 8.29483 4.38342L6.94 6.5H3.0625C2.69783 6.5 2.34809 6.64487 2.09023 6.90273C1.83237 7.16059 1.6875 7.51033 1.6875 7.875V18.875C1.6875 19.2397 1.83237 19.5894 2.09023 19.8473C2.34809 20.1051 2.69783 20.25 3.0625 20.25H20.9375C21.3022 20.25 21.6519 20.1051 21.9098 19.8473C22.1676 19.5894 22.3125 19.2397 22.3125 18.875V7.875C22.3125 7.51033 22.1676 7.16059 21.9098 6.90273C21.6519 6.64487 21.3022 6.5 20.9375 6.5H17.06Z" stroke="#00595E" stroke-width="2" stroke-linecap="round" stroke-linejoin="round"></path>
<circle cx="12" cy="13" r="3.5" stroke="#00595E" stroke-width="2" stroke-linecap="round" stroke-linejoin="round"></circle>
<path d="M18.875 9.75C18.8008 9.75 18.7283 9.77199 18.6667 9.8132C18.605 9.8544 18.5569 9.91297 18.5285 9.98149C18.5002 10.05 18.4927 10.1254 18.5072 10.1982C18.5217 10.2709 18.5574 10.3377 18.6098 10.3902C18.6623 10.4426 18.7291 10.4783 18.8018 10.4928C18.8746 10.5073 18.95 10.4998 19.0185 10.4715C19.087 10.4431 19.1456 10.395 19.1868 10.3333C19.228 10.2717 19.25 10.1992 19.25 10.125C19.25 10.0255 19.2105 9.93016 19.1402 9.85983C19.0698 9.78951 18.9745 9.75 18.875 9.75Z" stroke="#00595E" stroke-width="2" stroke-linecap="round" stroke-linejoin="round"></path>
<circle cx="18.875" cy="10.125" r="1.125" fill="#00595E"></circle>
</svg>