<svg width="24" height="24" viewBox="0 0 24 24" fill="none" xmlns="http://www.w3.org/2000/svg">
<path d="M2.33801 3.25502V20.745C2.33799 21.0044 2.4052 21.2593 2.5331 21.4849C2.66099 21.7105 2.84519 21.8991 3.06773 22.0323C3.29026 22.1654 3.54352 22.2387 3.80279 22.2447C4.06205 22.2508 4.31847 22.1896 4.54701 22.067L20.87 13.322C21.1091 13.1938 21.309 13.0032 21.4483 12.7704C21.5877 12.5376 21.6613 12.2713 21.6613 12C21.6613 11.7287 21.5877 11.4625 21.4483 11.2297C21.309 10.9969 21.1091 10.8062 20.87 10.678L4.54701 1.93302C4.31847 1.81044 4.06205 1.74921 3.80279 1.7553C3.54352 1.76139 3.29026 1.83459 3.06773 1.96777C2.84519 2.10095 2.66099 2.28955 2.5331 2.51516C2.4052 2.74077 2.33799 2.99568 2.33801 3.25502Z" stroke="#00595E" stroke-width="2" stroke-linecap="round" stroke-linejoin="round"></path>
</svg>