<svg width="24" height="24" viewBox="0 0 24 24" fill="none" xmlns="http://www.w3.org/2000/svg">
<g clip-path="url(#clip0_14503_6534)">
<path d="M12 22.3125C17.6954 22.3125 22.3125 17.6954 22.3125 12C22.3125 6.30457 17.6954 1.6875 12 1.6875C6.30457 1.6875 1.6875 6.30457 1.6875 12C1.6875 17.6954 6.30457 22.3125 12 22.3125Z" stroke="#00595E" stroke-width="2" stroke-linecap="round" stroke-linejoin="round"></path>
<path d="M12 15.125C13.7259 15.125 15.125 13.7259 15.125 12C15.125 10.2741 13.7259 8.875 12 8.875C10.2741 8.875 8.875 10.2741 8.875 12C8.875 13.7259 10.2741 15.125 12 15.125Z" stroke="#00595E" stroke-width="2" stroke-linecap="round" stroke-linejoin="round"></path>
<path d="M12 17.125C14.8305 17.125 17.125 14.8305 17.125 12C17.125 9.16954 14.8305 6.875 12 6.875C9.16954 6.875 6.875 9.16954 6.875 12C6.875 14.8305 9.16954 17.125 12 17.125Z" stroke="#00595E" stroke-width="2" stroke-linecap="round" stroke-linejoin="round"></path>
<path d="M12 13.125C12.6213 13.125 13.125 12.6213 13.125 12C13.125 11.3787 12.6213 10.875 12 10.875C11.3787 10.875 10.875 11.3787 10.875 12C10.875 12.6213 11.3787 13.125 12 13.125Z" stroke="#00595E" stroke-width="2" stroke-linecap="round" stroke-linejoin="round"></path>
</g>
<defs>
<clipPath id="clip0_14503_6534">
<rect width="24" height="24" fill="white"></rect>
</clipPath>
</defs>
</svg>