<svg width="24" height="24" viewBox="0 0 24 24" fill="none" xmlns="http://www.w3.org/2000/svg">
<path d="M2.6875 20.3125C2.6875 18.6715 3.3394 17.0977 4.49978 15.9373C5.66016 14.7769 7.23397 14.125 8.875 14.125C10.516 14.125 12.0898 14.7769 13.2502 15.9373C14.4106 17.0977 15.0625 18.6715 15.0625 20.3125H2.6875Z" stroke="#00595E" stroke-width="2" stroke-linecap="round" stroke-linejoin="round"></path>
<path d="M5.61624 7.04932C6.50299 7.96757 7.64826 8.59412 8.89976 8.84563C10.1513 9.09714 11.4497 8.9617 12.6223 8.45732" stroke="#00595E" stroke-width="2" stroke-linecap="round" stroke-linejoin="round"></path>
<path d="M5.09375 8.96875C5.09375 9.9716 5.49213 10.9334 6.20125 11.6425C6.91037 12.3516 7.87215 12.75 8.875 12.75C9.87785 12.75 10.8396 12.3516 11.5487 11.6425C12.2579 10.9334 12.6562 9.9716 12.6562 8.96875C12.6562 7.9659 12.2579 7.00412 11.5487 6.295C10.8396 5.58588 9.87785 5.1875 8.875 5.1875C7.87215 5.1875 6.91037 5.58588 6.20125 6.295C5.49213 7.00412 5.09375 7.9659 5.09375 8.96875Z" stroke="#00595E" stroke-width="2" stroke-linecap="round" stroke-linejoin="round"></path>
<path d="M16.4986 11.435C17.1419 10.7902 17.5032 9.91662 17.5032 9.00583C17.5032 8.09503 17.1419 7.22143 16.4986 6.57666" stroke="#00595E" stroke-width="2" stroke-linecap="round" stroke-linejoin="round"></path>
<path d="M19 14.6673C19.7661 13.9012 20.3738 12.9918 20.7884 11.9908C21.203 10.9899 21.4164 9.91708 21.4164 8.83367C21.4164 7.75025 21.203 6.67745 20.7884 5.67651C20.3738 4.67556 19.7661 3.76608 19 3" stroke="#00595E" stroke-width="2" stroke-linecap="round" stroke-linejoin="round"></path>
</svg>