<svg width="24" height="24" viewBox="0 0 24 24" fill="none" xmlns="http://www.w3.org/2000/svg">
<path d="M2.34935 13.2437C2.77607 14.2478 3.39638 15.158 4.17486 15.9224C4.95335 16.6867 5.87475 17.2902 6.88648 17.6985C7.89821 18.1067 8.98044 18.3117 10.0714 18.3017C11.1623 18.2917 12.2406 18.0669 13.2447 17.6402C14.2488 17.2135 15.159 16.5932 15.9233 15.8147C16.6877 15.0362 17.2912 14.1148 17.6994 13.1031C18.1077 12.0914 18.3127 11.0091 18.3027 9.91818C18.2927 8.82723 18.0679 7.74894 17.6412 6.74486C17.2144 5.74078 16.5941 4.83059 15.8157 4.06624C15.0372 3.30189 14.1158 2.69836 13.104 2.29011C12.0923 1.88186 11.0101 1.67688 9.91913 1.68687C8.82819 1.69687 7.74989 1.92164 6.74582 2.34837C5.74174 2.77509 4.83154 3.3954 4.0672 4.17388C3.30285 4.95237 2.69933 5.87378 2.29108 6.88551C1.88283 7.89724 1.67785 8.97947 1.68785 10.0704C1.69785 11.1614 1.92263 12.2397 2.34935 13.2437Z" stroke="#00595E" stroke-width="2" stroke-linecap="round" stroke-linejoin="round"></path>
<path d="M15.8693 15.8682L22.3125 22.3123" stroke="#00595E" stroke-width="2" stroke-linecap="round" stroke-linejoin="round"></path>
</svg>