<svg width="24" height="24" viewBox="0 0 24 24" fill="none" xmlns="http://www.w3.org/2000/svg">
<g clip-path="url(#clip0_14503_6591)">
<path d="M10.6672 3.23474C10.8354 3.42147 11.041 3.57076 11.2706 3.67296C11.5002 3.77515 11.7487 3.82796 12 3.82796C12.2513 3.82796 12.4998 3.77515 12.7294 3.67296C12.9591 3.57076 13.1646 3.42147 13.3328 3.23474L14.2 2.28324C14.4485 2.00819 14.7761 1.81679 15.1377 1.73532C15.4994 1.65384 15.8774 1.68628 16.2198 1.82819C16.5623 1.9701 16.8525 2.21452 17.0505 2.5279C17.2485 2.84128 17.3447 3.20827 17.3258 3.57849L17.2608 4.86183C17.2482 5.11217 17.2882 5.36238 17.3781 5.59634C17.4681 5.83029 17.6061 6.0428 17.7833 6.22017C17.9604 6.39755 18.1727 6.53586 18.4065 6.62619C18.6403 6.71653 18.8905 6.75688 19.1408 6.74466L20.4242 6.67958C20.7942 6.66134 21.1607 6.75796 21.4737 6.95622C21.7866 7.15447 22.0305 7.44464 22.1721 7.78697C22.3136 8.1293 22.3458 8.50702 22.2643 8.86838C22.1828 9.22973 21.9915 9.55703 21.7167 9.80541L20.7615 10.6671C20.575 10.8355 20.4259 11.0412 20.3239 11.2709C20.2219 11.5005 20.1691 11.7491 20.1691 12.0004C20.1691 12.2517 20.2219 12.5002 20.3239 12.7298C20.4259 12.9595 20.575 13.1652 20.7615 13.3337L21.7167 14.1953C21.9917 14.4439 22.1831 14.7714 22.2646 15.1331C22.3461 15.4947 22.3136 15.8727 22.1717 16.2152C22.0298 16.5576 21.7854 16.8478 21.472 17.0458C21.1586 17.2438 20.7916 17.34 20.4214 17.3212L19.1381 17.2561C18.8872 17.2432 18.6364 17.2831 18.4019 17.3732C18.1674 17.4634 17.9544 17.6018 17.7767 17.7794C17.5991 17.9571 17.4607 18.17 17.3706 18.4045C17.2804 18.639 17.2405 18.8898 17.2534 19.1407L17.3185 20.4241C17.3349 20.7924 17.2375 21.1569 17.0396 21.468C16.8416 21.7791 16.5527 22.0217 16.2121 22.1629C15.8715 22.3041 15.4956 22.337 15.1356 22.2571C14.7757 22.1773 14.449 21.9885 14.2 21.7166L13.3374 20.7623C13.1691 20.5759 12.9634 20.4268 12.7338 20.3248C12.5043 20.2227 12.2558 20.17 12.0046 20.17C11.7534 20.17 11.5049 20.2227 11.2753 20.3248C11.0457 20.4268 10.8401 20.5759 10.6718 20.7623L9.8055 21.7166C9.55691 21.9898 9.2301 22.1798 8.86963 22.2605C8.50915 22.3412 8.13255 22.3088 7.79117 22.1677C7.44978 22.0265 7.16023 21.7836 6.96198 21.4719C6.76372 21.1602 6.66642 20.7949 6.68334 20.4259L6.74934 19.1426C6.76224 18.8917 6.72233 18.6409 6.63218 18.4064C6.54203 18.1719 6.40366 17.9589 6.22601 17.7812C6.04836 17.6036 5.8354 17.4652 5.60089 17.3751C5.36639 17.2849 5.11557 17.245 4.86467 17.2579L3.58134 17.323C3.21126 17.3423 2.84428 17.2466 2.53078 17.049C2.21727 16.8514 1.97262 16.5616 1.83039 16.2194C1.68817 15.8772 1.65536 15.4994 1.73646 15.1378C1.81755 14.7762 2.00859 14.4486 2.28334 14.1999L3.23759 13.3382C3.42408 13.1698 3.57316 12.9641 3.67519 12.7344C3.77723 12.5048 3.82995 12.2563 3.82995 12.005C3.82995 11.7536 3.77723 11.5051 3.67519 11.2755C3.57316 11.0458 3.42408 10.8401 3.23759 10.6717L2.28334 9.80541C2.00948 9.55699 1.81903 9.23006 1.73801 8.86931C1.65699 8.50856 1.68937 8.13159 1.83071 7.78993C1.97204 7.44827 2.21545 7.1586 2.52765 6.96051C2.83985 6.76243 3.2056 6.66559 3.57492 6.68324L4.85825 6.74833C5.10963 6.76154 5.36097 6.72173 5.59596 6.63149C5.83095 6.54124 6.04433 6.40257 6.22224 6.22449C6.40015 6.04641 6.53861 5.8329 6.62863 5.59782C6.71865 5.36274 6.75821 5.11136 6.74475 4.85999L6.68334 3.57574C6.66602 3.20657 6.76302 2.84104 6.96113 2.52904C7.15923 2.21704 7.44877 1.97376 7.79025 1.83239C8.13172 1.69103 8.5085 1.65847 8.86916 1.73916C9.22983 1.81985 9.55681 2.00985 9.8055 2.28324L10.6672 3.23474Z" stroke="#00595E" stroke-width="2" stroke-linecap="round" stroke-linejoin="round"></path>
<path d="M7.875 12.001C7.875 13.095 8.3096 14.1442 9.08318 14.9178C9.85677 15.6914 10.906 16.126 12 16.126C13.094 16.126 14.1432 15.6914 14.9168 14.9178C15.6904 14.1442 16.125 13.095 16.125 12.001C16.125 10.907 15.6904 9.85775 14.9168 9.08416C14.1432 8.31057 13.094 7.87598 12 7.87598C10.906 7.87598 9.85677 8.31057 9.08318 9.08416C8.3096 9.85775 7.875 10.907 7.875 12.001Z" stroke="#00595E" stroke-width="2" stroke-linecap="round" stroke-linejoin="round"></path>
</g>
<defs>
<clipPath id="clip0_14503_6591">
<rect width="24" height="24" fill="white"></rect>
</clipPath>
</defs>
</svg>