<svg width="24" height="24" viewBox="0 0 24 24" fill="none" xmlns="http://www.w3.org/2000/svg">
<path d="M3.05007 10.3869C2.74419 10.3006 2.47401 10.1186 2.27913 9.8675C2.08426 9.61644 1.97495 9.30955 1.96724 8.99183C1.95952 8.67411 2.0538 8.36228 2.23626 8.10205C2.41871 7.84183 2.67974 7.64691 2.98107 7.54587L21.0521 1.99987C21.1835 1.95701 21.3243 1.95129 21.4588 1.98333C21.5933 2.01537 21.7164 2.08393 21.8145 2.18145C21.9125 2.27898 21.9817 2.40168 22.0145 2.53603C22.0472 2.67038 22.0422 2.81117 22.0001 2.94287L16.4591 21.0239C16.3585 21.3257 16.1637 21.5873 15.9033 21.7702C15.6429 21.953 15.3307 22.0475 15.0127 22.0396C14.6946 22.0318 14.3875 21.9221 14.1364 21.7266C13.8854 21.5312 13.7037 21.2603 13.6181 20.9539L11.3721 12.6229L3.05007 10.3869Z" stroke="#00595E" stroke-width="2" stroke-linecap="round" stroke-linejoin="round"></path>
<path d="M21.8151 2.18018L11.3721 12.6232" stroke="#00595E" stroke-width="2" stroke-linecap="round" stroke-linejoin="round"></path>
</svg>