<svg width="24" height="24" viewBox="0 0 24 24" fill="none" xmlns="http://www.w3.org/2000/svg">
<path d="M3.0625 4.59596V11.5755C3.0625 14.9882 4.55575 19.6421 11.0128 22.129C11.6482 22.3735 12.3518 22.3735 12.9873 22.129C19.4415 19.6467 20.9375 14.9589 20.9375 11.5755V4.59596C20.9394 4.3333 20.8653 4.07569 20.7241 3.85418C20.5829 3.63267 20.3807 3.4567 20.1418 3.34746C17.575 2.2271 14.8006 1.6614 12 1.68738C9.19946 1.6614 6.42499 2.2271 3.85817 3.34746C3.61929 3.4567 3.41708 3.63267 3.27592 3.85418C3.13475 4.07569 3.06063 4.3333 3.0625 4.59596Z" stroke="#00595E" stroke-width="2" stroke-linecap="round" stroke-linejoin="round"></path>
<path d="M10.625 11.625C10.625 11.9897 10.7699 12.3394 11.0277 12.5973C11.2856 12.8551 11.6353 13 12 13C12.3647 13 12.7144 12.8551 12.9723 12.5973C13.2301 12.3394 13.375 11.9897 13.375 11.625C13.375 11.2603 13.2301 10.9106 12.9723 10.6527C12.7144 10.3949 12.3647 10.25 12 10.25C11.6353 10.25 11.2856 10.3949 11.0277 10.6527C10.7699 10.9106 10.625 11.2603 10.625 11.625Z" stroke="#00595E" stroke-width="2" stroke-linecap="round" stroke-linejoin="round"></path>
<path d="M13.1678 6.30833L13.573 7.64025C13.6399 7.86131 13.7882 8.04874 13.988 8.16463C14.1877 8.28051 14.4241 8.31621 14.6492 8.2645L15.9985 7.95191C16.2543 7.89428 16.5217 7.92004 16.7618 8.02543C17.0018 8.13082 17.2018 8.31031 17.3325 8.53759C17.4631 8.76488 17.5176 9.02803 17.4879 9.2885C17.4581 9.54897 17.3458 9.79308 17.1673 9.98508L16.2222 11.0007C16.0644 11.1704 15.9768 11.3934 15.9768 11.625C15.9768 11.8566 16.0644 12.0796 16.2222 12.2492L17.1673 13.2677C17.3458 13.4597 17.4581 13.7038 17.4879 13.9642C17.5176 14.2247 17.4631 14.4879 17.3325 14.7151C17.2018 14.9424 17.0018 15.1219 16.7618 15.2273C16.5217 15.3327 16.2543 15.3585 15.9985 15.3008L14.6492 14.9882C14.4241 14.9365 14.1877 14.9722 13.988 15.0881C13.7882 15.204 13.6399 15.3914 13.573 15.6125L13.1678 16.9417C13.0925 17.1929 12.9383 17.4131 12.7279 17.5697C12.5175 17.7262 12.2623 17.8108 12 17.8108C11.7378 17.8108 11.4825 17.7262 11.2721 17.5697C11.0618 17.4131 10.9075 17.1929 10.8322 16.9417L10.427 15.6097C10.3601 15.3887 10.2118 15.2012 10.012 15.0854C9.81227 14.9695 9.57594 14.9338 9.35084 14.9855L8.00151 15.2981C7.74576 15.3557 7.47827 15.33 7.23823 15.2246C6.99818 15.1192 6.79819 14.9397 6.66753 14.7124C6.53688 14.4851 6.48243 14.222 6.51216 13.9615C6.54189 13.701 6.65424 13.4569 6.83276 13.2649L7.77784 12.2465C7.93557 12.0769 8.02325 11.8539 8.02325 11.6222C8.02325 11.3906 7.93557 11.1676 7.77784 10.998L6.83276 9.98233C6.65424 9.79033 6.54189 9.54622 6.51216 9.28575C6.48243 9.02528 6.53688 8.76213 6.66753 8.53484C6.79819 8.30756 6.99818 8.12807 7.23823 8.02268C7.47827 7.91729 7.74576 7.89153 8.00151 7.94916L9.35084 8.26175C9.57594 8.31346 9.81227 8.27776 10.012 8.16188C10.2118 8.04599 10.3601 7.85856 10.427 7.6375L10.8322 6.30833C10.9075 6.05713 11.0618 5.8369 11.2721 5.68033C11.4825 5.52377 11.7378 5.43921 12 5.43921C12.2623 5.43921 12.5175 5.52377 12.7279 5.68033C12.9383 5.8369 13.0925 6.05713 13.1678 6.30833Z" stroke="#00595E" stroke-width="2" stroke-linecap="round" stroke-linejoin="round"></path>
</svg>