<svg width="24" height="24" viewBox="0 0 24 24" fill="none" xmlns="http://www.w3.org/2000/svg">
<path d="M3.06247 4.59621V11.5757C3.06249 13.7818 3.73101 15.9361 4.97992 17.7547C6.22882 19.5731 7.99947 20.9706 10.0585 21.7626L11.0127 22.1293C11.6482 22.3737 12.3517 22.3737 12.9872 22.1293L13.9415 21.7626C16.0005 20.9706 17.7711 19.5731 19.02 17.7547C20.269 15.9361 20.9375 13.7818 20.9375 11.5757V4.59621C20.9392 4.33357 20.8651 4.07601 20.7239 3.85452C20.5827 3.63303 20.3806 3.45703 20.1418 3.34771C17.575 2.22735 14.8005 1.66165 12 1.68762C9.19942 1.66165 6.42495 2.22735 3.85814 3.34771C3.61933 3.45703 3.41718 3.63303 3.27603 3.85452C3.13488 4.07601 3.06072 4.33357 3.06247 4.59621Z" stroke="#00595E" stroke-width="2" stroke-linecap="round" stroke-linejoin="round"></path>
<path d="M12 15V11" stroke="#00595E" stroke-width="2" stroke-linecap="round" stroke-linejoin="round"></path>
<path d="M10.5 9.5C10.5 9.89782 10.658 10.2794 10.9393 10.5607C11.2206 10.842 11.6022 11 12 11C12.3978 11 12.7794 10.842 13.0607 10.5607C13.342 10.2794 13.5 9.89782 13.5 9.5C13.5 9.10218 13.342 8.72064 13.0607 8.43934C12.7794 8.15804 12.3978 8 12 8C11.6022 8 11.2206 8.15804 10.9393 8.43934C10.658 8.72064 10.5 9.10218 10.5 9.5Z" stroke="#00595E" stroke-width="2" stroke-linecap="round" stroke-linejoin="round"></path>
</svg>