<svg width="24" height="24" viewBox="0 0 24 24" fill="none" xmlns="http://www.w3.org/2000/svg">
<path d="M12.9928 15.2304C12.8644 15.3643 12.7103 15.4709 12.5397 15.5437C12.3691 15.6165 12.1855 15.654 12 15.654C11.8145 15.654 11.6309 15.6165 11.4603 15.5437C11.2897 15.4709 11.1356 15.3643 11.0073 15.2304L7.31217 11.3804C6.90055 10.9688 6.62886 10.4383 6.53557 9.86375C6.44229 9.28924 6.53215 8.69995 6.79242 8.17935C6.98903 7.7863 7.27621 7.4456 7.63031 7.1853C7.98441 6.92501 8.39529 6.75257 8.8291 6.68221C9.26291 6.61185 9.70723 6.64557 10.1255 6.7806C10.5437 6.91563 10.9238 7.1481 11.2346 7.45885L12 8.21969L12.7654 7.45427C13.0762 7.14351 13.4563 6.91104 13.8746 6.77602C14.2928 6.64099 14.7371 6.60727 15.1709 6.67763C15.6047 6.74799 16.0156 6.92042 16.3697 7.18072C16.7238 7.44101 17.011 7.78172 17.2076 8.17477C17.4679 8.69537 17.5577 9.28466 17.4644 9.85917C17.3711 10.4337 17.0995 10.9643 16.6878 11.3758L12.9928 15.2304Z" stroke="#00595E" stroke-width="2" stroke-linecap="round" stroke-linejoin="round"></path>
<path d="M3.0625 4.59596V11.5755C3.0625 14.9882 4.55575 19.6421 11.0128 22.129C11.6482 22.3735 12.3518 22.3735 12.9873 22.129C19.4415 19.6467 20.9375 14.9589 20.9375 11.5755V4.59596C20.9394 4.3333 20.8653 4.07569 20.7241 3.85418C20.5829 3.63267 20.3807 3.4567 20.1418 3.34746C17.575 2.2271 14.8006 1.6614 12 1.68738C9.19946 1.6614 6.42499 2.2271 3.85817 3.34746C3.61929 3.4567 3.41708 3.63267 3.27592 3.85418C3.13475 4.07569 3.06063 4.3333 3.0625 4.59596Z" stroke="#00595E" stroke-width="2" stroke-linecap="round" stroke-linejoin="round"></path>
</svg>