<svg width="24" height="24" viewBox="0 0 24 24" fill="none" xmlns="http://www.w3.org/2000/svg">
<path d="M6.5 18.5314H15.5942C15.919 18.5315 16.2334 18.4165 16.4816 18.2069C16.7297 17.9974 16.8956 17.7068 16.95 17.3865L19.3673 3.17818C19.4218 2.85813 19.5878 2.56769 19.8359 2.35831C20.0841 2.14893 20.3983 2.03411 20.723 2.03418H21.625" stroke="#00595E" stroke-width="2" stroke-linecap="round" stroke-linejoin="round"></path>
<path d="M8.21875 21.2812C8.0289 21.2812 7.875 21.1273 7.875 20.9375C7.875 20.7477 8.0289 20.5938 8.21875 20.5938" stroke="#00595E" stroke-width="2"></path>
<path d="M8.21875 21.2812C8.4086 21.2812 8.5625 21.1273 8.5625 20.9375C8.5625 20.7477 8.4086 20.5938 8.21875 20.5938" stroke="#00595E" stroke-width="2"></path>
<path d="M15.0938 21.2812C14.9039 21.2812 14.75 21.1273 14.75 20.9375C14.75 20.7477 14.9039 20.5938 15.0938 20.5938" stroke="#00595E" stroke-width="2"></path>
<path d="M15.0938 21.2812C15.2836 21.2812 15.4375 21.1273 15.4375 20.9375C15.4375 20.7477 15.2836 20.5938 15.0938 20.5938" stroke="#00595E" stroke-width="2"></path>
<path d="M17.4568 14.4065H6.39177C5.7786 14.4064 5.18303 14.2014 4.69972 13.8241C4.2164 13.4468 3.87307 12.9187 3.72427 12.3238L2.39511 7.00717C2.36974 6.90577 2.36784 6.79993 2.38951 6.69769C2.4112 6.59544 2.45592 6.4995 2.52026 6.41713C2.58459 6.33475 2.66686 6.26814 2.76082 6.22234C2.85477 6.17655 2.95792 6.15278 3.06244 6.15283H18.8602" stroke="#00595E" stroke-width="2" stroke-linecap="round" stroke-linejoin="round"></path>
</svg>