<svg width="24" height="25" viewBox="0 0 24 25" fill="none" xmlns="http://www.w3.org/2000/svg">
<path d="M3.74899 9.25004C3.74899 7.68547 4.19387 6.15316 5.03175 4.83185C5.86963 3.51055 7.06596 2.45475 8.48116 1.78761C9.89637 1.12047 11.4721 0.869506 13.0245 1.064C14.577 1.25848 16.0421 1.89041 17.249 2.88604" stroke="#00595E" stroke-width="2" stroke-linecap="round" stroke-linejoin="round"></path>
<path d="M19.687 6.25C20.0597 7.20621 20.2504 8.22371 20.249 9.25V15.25C20.249 17.4379 19.3799 19.5361 17.833 21.0833C16.286 22.6304 14.1879 23.4997 12 23.5C11.4969 23.5 10.9949 23.4545 10.5 23.364" stroke="#00595E" stroke-width="2" stroke-linecap="round" stroke-linejoin="round"></path>
<path d="M6.75101 21.615C5.81176 20.8416 5.05558 19.8697 4.53685 18.7691C4.01812 17.6685 3.74974 16.4667 3.75101 15.25V13" stroke="#00595E" stroke-width="2" stroke-linecap="round" stroke-linejoin="round"></path>
<path d="M15.749 15.25V9.25C15.749 8.55358 15.5551 7.87092 15.1889 7.27851C14.8228 6.6861 14.2989 6.20735 13.676 5.8959C13.0531 5.58445 12.3558 5.45261 11.6622 5.51515C10.9686 5.5777 10.3061 5.83215 9.74899 6.25" stroke="#00595E" stroke-width="2" stroke-linecap="round" stroke-linejoin="round"></path>
<path d="M8.24899 9.25V15.25C8.2495 15.8726 8.4049 16.4853 8.70118 17.0329C8.99747 17.5805 9.42533 18.0458 9.94622 18.3868C10.4671 18.7278 11.0647 18.9339 11.685 18.9865C12.3054 19.0391 12.9291 18.9365 13.5 18.688" stroke="#00595E" stroke-width="2" stroke-linecap="round" stroke-linejoin="round"></path>
<path d="M11.999 10V14.5" stroke="#00595E" stroke-width="2" stroke-linecap="round" stroke-linejoin="round"></path>
</svg>