<svg width="24" height="24" viewBox="0 0 24 24" fill="none" xmlns="http://www.w3.org/2000/svg">
<path d="M4.09375 8.21875C4.09375 9.2216 4.49213 10.1834 5.20125 10.8925C5.91037 11.6016 6.87215 12 7.875 12C8.87785 12 9.83963 11.6016 10.5487 10.8925C11.2579 10.1834 11.6562 9.2216 11.6562 8.21875C11.6562 7.2159 11.2579 6.25412 10.5487 5.545C9.83963 4.83588 8.87785 4.4375 7.875 4.4375C6.87215 4.4375 5.91037 4.83588 5.20125 5.545C4.49213 6.25412 4.09375 7.2159 4.09375 8.21875Z" stroke="#00595E" stroke-width="2" stroke-linecap="round" stroke-linejoin="round"></path>
<path d="M1.6875 19.5625C1.6875 17.9215 2.3394 16.3477 3.49978 15.1873C4.66016 14.0269 6.23397 13.375 7.875 13.375C9.51603 13.375 11.0898 14.0269 12.2502 15.1873C13.4106 16.3477 14.0625 17.9215 14.0625 19.5625" stroke="#00595E" stroke-width="2" stroke-linecap="round" stroke-linejoin="round"></path>
<path d="M14.156 10.2812C14.156 10.6875 14.236 11.0898 14.3915 11.4652C14.547 11.8405 14.7749 12.1816 15.0621 12.4689C15.3494 12.7561 15.6905 12.984 16.0658 13.1395C16.4412 13.295 16.8435 13.375 17.2498 13.375C17.656 13.375 18.0583 13.295 18.4337 13.1395C18.809 12.984 19.1501 12.7561 19.4374 12.4689C19.7246 12.1816 19.9525 11.8405 20.108 11.4652C20.2635 11.0898 20.3435 10.6875 20.3435 10.2812C20.3435 9.46074 20.0176 8.67383 19.4374 8.09364C18.8572 7.51345 18.0703 7.1875 17.2498 7.1875C16.4292 7.1875 15.6423 7.51345 15.0621 8.09364C14.482 8.67383 14.156 9.46074 14.156 10.2812Z" stroke="#00595E" stroke-width="2" stroke-linecap="round" stroke-linejoin="round"></path>
<path d="M15.4953 14.8125C16.2607 14.5304 17.0831 14.4373 17.8922 14.5413C18.7014 14.6452 19.4735 14.943 20.1429 15.4094C20.8123 15.8758 21.3591 16.497 21.7368 17.2201C22.1146 17.9432 22.3121 18.7469 22.3125 19.5627" stroke="#00595E" stroke-width="2" stroke-linecap="round" stroke-linejoin="round"></path>
</svg>