<svg width="24" height="24" viewBox="0 0 24 24" fill="none" xmlns="http://www.w3.org/2000/svg">
<g clip-path="url(#clip0_14634_42974)">
<path d="M11.9 12L15.4 8.5" stroke="#00595E" stroke-width="2" stroke-linecap="round" stroke-linejoin="round"></path>
<path d="M12.7327 2.03418C12.4582 2.01154 12.1804 2 11.9 2C6.37715 2 1.89999 6.47715 1.89999 12C1.89999 17.5228 6.37715 22 11.9 22C17.4228 22 21.9 17.5228 21.9 12C21.9 11.5972 21.8762 11.1999 21.8299 10.8095" stroke="#00595E" stroke-width="2" stroke-linecap="round" stroke-linejoin="round"></path>
<path d="M12.4 6.02054C12.2351 6.00694 12.0684 6 11.9 6C8.58629 6 5.89999 8.68629 5.89999 12C5.89999 15.3137 8.58629 18 11.9 18C15.2137 18 17.9 15.3137 17.9 12C17.9 11.7568 17.8855 11.5169 17.8574 11.2812" stroke="#00595E" stroke-width="2" stroke-linecap="round" stroke-linejoin="round"></path>
<line x1="5.6276" y1="20.1126" x2="4.89999" y2="23.023" stroke="#00595E" stroke-width="2" stroke-linecap="round" stroke-linejoin="round"></line>
<line x1="1" y1="-1" x2="4" y2="-1" transform="matrix(0.242536 0.970142 0.970142 -0.242536 18.9 18.8999)" stroke="#00595E" stroke-width="2" stroke-linecap="round" stroke-linejoin="round"></line>
<path d="M15.9 8V4.5L19.4 1V4.5H22.9L19.4 8H15.9Z" stroke="#00595E" stroke-width="2" stroke-linecap="round" stroke-linejoin="round"></path>
</g>
<defs>
<clipPath id="clip0_14634_42974">
<rect width="24" height="24" fill="white"></rect>
</clipPath>
</defs>
</svg>