<svg width="24" height="24" viewBox="0 0 24 24" fill="none" xmlns="http://www.w3.org/2000/svg">
<path d="M12.0018 22.3135V8.56348" stroke="#00595E" stroke-width="2" stroke-linecap="round" stroke-linejoin="round"></path>
<path d="M16.1268 12.6885L12.0018 8.56348L7.87683 12.6885" stroke="#00595E" stroke-width="2" stroke-linecap="round" stroke-linejoin="round"></path>
<path d="M8.56433 18.8751H6.5C5.77065 18.8751 5.07118 18.5853 4.55546 18.0696C4.03973 17.5539 3.75 16.8544 3.75 16.1251V4.43848C3.75 3.70913 4.03973 3.00966 4.55546 2.49393C5.07118 1.97821 5.77065 1.68848 6.5 1.68848H17.5C18.2293 1.68848 18.9288 1.97821 19.4445 2.49393C19.9603 3.00966 20.25 3.70913 20.25 4.43848V16.1251C20.25 16.8544 19.9603 17.5539 19.4445 18.0696C18.9288 18.5853 18.2293 18.8751 17.5 18.8751H15.4375" stroke="#00595E" stroke-width="2" stroke-linecap="round" stroke-linejoin="round"></path>
</svg>