<svg width="24" height="24" viewBox="0 0 24 24" fill="none" xmlns="http://www.w3.org/2000/svg">
<path d="M12 5.81361C8.30491 5.75127 4.48333 8.33352 2.08074 10.9781C1.82855 11.2581 1.689 11.6215 1.689 11.9984C1.689 12.3752 1.82855 12.7386 2.08074 13.0186C4.43108 15.6073 8.24166 18.2491 12 18.1859C15.7583 18.2491 19.5698 15.6073 21.922 13.0186C22.1742 12.7386 22.3137 12.3752 22.3137 11.9984C22.3137 11.6215 22.1742 11.2581 21.922 10.9781C19.5167 8.33352 15.6951 5.75127 12 5.81361Z" stroke="#00595E" stroke-width="2" stroke-linecap="round" stroke-linejoin="round"></path>
<path d="M15.4375 11.9999C15.4373 12.6798 15.2356 13.3443 14.8577 13.9095C14.4799 14.4746 13.943 14.9151 13.3148 15.1751C12.6867 15.4352 11.9956 15.5031 11.3288 15.3704C10.6621 15.2376 10.0496 14.9102 9.569 14.4294C9.08835 13.9486 8.76105 13.3361 8.62849 12.6693C8.49592 12.0025 8.56405 11.3114 8.82425 10.6833C9.08446 10.0553 9.52505 9.51846 10.0903 9.14078C10.6556 8.76311 11.3202 8.56152 12 8.56152C12.4515 8.5614 12.8987 8.65026 13.3158 8.82303C13.733 8.99579 14.112 9.24908 14.4313 9.5684C14.7505 9.88772 15.0037 10.2668 15.1763 10.684C15.349 11.1013 15.4377 11.5484 15.4375 11.9999Z" stroke="#00595E" stroke-width="2" stroke-linecap="round" stroke-linejoin="round"></path>
</svg>