<svg width="24" height="24" viewBox="0 0 24 24" fill="none" xmlns="http://www.w3.org/2000/svg">
<path d="M3.54834 20.25L20.7358 3.75" stroke="#00595E" stroke-width="2" stroke-linecap="round" stroke-linejoin="round"></path>
<path d="M9.25 18.4626C10.1401 18.7405 11.0676 18.8796 12 18.8751C15.7583 18.9393 19.5717 16.2993 21.9183 13.7051C22.1715 13.4267 22.3117 13.0639 22.3117 12.6876C22.3117 12.3113 22.1715 11.9486 21.9183 11.6701C21.0698 10.7323 20.1267 9.88445 19.1042 9.14014" stroke="#00595E" stroke-width="2" stroke-linecap="round" stroke-linejoin="round"></path>
<path d="M16.6658 7.66436C15.2233 6.91598 13.625 6.5172 12 6.50019C8.33333 6.43603 4.48333 9.02103 2.08166 11.6702C1.82852 11.9486 1.68825 12.3114 1.68825 12.6877C1.68825 13.064 1.82852 13.4268 2.08166 13.7052C3.38322 15.1602 4.90883 16.398 6.60083 17.3719" stroke="#00595E" stroke-width="2" stroke-linecap="round" stroke-linejoin="round"></path>
<path d="M9.25 14.814C8.75273 14.1241 8.52128 13.2779 8.59824 12.431C8.6752 11.5841 9.05539 10.7934 9.66887 10.2045C10.2823 9.61553 11.0879 9.26791 11.9372 9.22557C12.7866 9.18323 13.6227 9.44901 14.2917 9.97401" stroke="#00595E" stroke-width="2" stroke-linecap="round" stroke-linejoin="round"></path>
<path d="M15.4375 12.6875C15.4375 13.1389 15.3486 13.5859 15.1758 14.003C15.0031 14.42 14.7499 14.799 14.4307 15.1182C14.1115 15.4374 13.7325 15.6906 13.3155 15.8633C12.8984 16.0361 12.4514 16.125 12 16.125" stroke="#00595E" stroke-width="2" stroke-linecap="round" stroke-linejoin="round"></path>
</svg>