<svg width="24" height="24" viewBox="0 0 24 24" fill="none" xmlns="http://www.w3.org/2000/svg">
<path d="M7.4066 11.9371L5.7566 10.1955C5.08456 9.4843 4.64407 8.586 4.49334 7.61923C4.3426 6.65245 4.4887 5.66269 4.91235 4.78071C5.21109 4.12244 5.6669 3.5476 6.23975 3.10669C6.8126 2.66577 7.48496 2.37228 8.19777 2.25198C8.91057 2.13169 9.64201 2.18828 10.3278 2.41677C11.0137 2.64527 11.6329 3.03868 12.1311 3.56246L13.375 4.85679L14.6189 3.56246C15.1172 3.03888 15.7363 2.64564 16.422 2.41727C17.1078 2.18889 17.8391 2.13237 18.5517 2.25265C19.2644 2.37294 19.9366 2.66636 20.5094 3.10715C21.0822 3.54794 21.538 4.12261 21.8368 4.78071C22.2604 5.66269 22.4065 6.65245 22.2558 7.61923C22.105 8.586 21.6646 9.4843 20.9925 10.1955L13.375 18L11.4693 16.0465" stroke="#00595E" stroke-width="2" stroke-linecap="round" stroke-linejoin="round"></path>
<path d="M7.875 15.2501L9.40858 14.0997C9.56507 13.9823 9.74385 13.8981 9.93399 13.8522C10.1241 13.8063 10.3216 13.7996 10.5144 13.8327C10.7072 13.8657 10.8913 13.9377 11.0553 14.0443C11.2193 14.1509 11.3598 14.2898 11.4683 14.4526C11.6257 14.6888 11.7097 14.9663 11.7097 15.2501C11.7097 15.5339 11.6257 15.8114 11.4683 16.0476L9.96042 18.309C9.49705 19.0036 8.8338 19.5413 8.05833 19.8508L5.8125 20.7501V22.8126" stroke="#00595E" stroke-width="2" stroke-linecap="round" stroke-linejoin="round"></path>
<path d="M6.74108 11.2344C0.712163 13.8185 1.6875 19.3625 1.6875 22.8128" stroke="#00595E" stroke-width="2" stroke-linecap="round" stroke-linejoin="round"></path>
</svg>