<svg width="24" height="24" viewBox="0 0 24 24" fill="none" xmlns="http://www.w3.org/2000/svg">
<path d="M13.2036 3.08565C13.0847 2.87051 12.9103 2.69116 12.6987 2.56626C12.487 2.44136 12.2458 2.37549 12 2.37549C11.7541 2.37549 11.5129 2.44136 11.3012 2.56626C11.0896 2.69116 10.9152 2.87051 10.7964 3.08565L1.85888 19.5856C1.74331 19.795 1.68432 20.0309 1.68775 20.2699C1.69117 20.509 1.75689 20.7431 1.87842 20.949C1.99995 21.155 2.17307 21.3257 2.38072 21.4443C2.58837 21.5628 2.82335 21.6252 3.06247 21.6252H20.9375C21.1766 21.6252 21.4116 21.5628 21.6192 21.4443C21.8268 21.3257 22 21.155 22.1216 20.949C22.243 20.7431 22.3087 20.509 22.3122 20.2699C22.3156 20.0309 22.2566 19.795 22.1411 19.5856L13.2036 3.08565Z" stroke="#00595E" stroke-width="2" stroke-linecap="round" stroke-linejoin="round"></path>
<path d="M12 14.75V8.5625" stroke="#00595E" stroke-width="2" stroke-linecap="round" stroke-linejoin="round"></path>
<path d="M12 18.1875C11.8102 18.1875 11.6562 18.0336 11.6562 17.8438C11.6562 17.6539 11.8102 17.5 12 17.5" stroke="#00595E" stroke-width="2"></path>
<path d="M12 18.1875C12.1898 18.1875 12.3438 18.0336 12.3438 17.8438C12.3438 17.6539 12.1898 17.5 12 17.5" stroke="#00595E" stroke-width="2"></path>
</svg>