<svg xmlns="http://www.w3.org/2000/svg" width="59.214" height="23" viewBox="0 0 59.214 23" fill="none">
  <path d="M 25.829 6.238 C 27.338 6.238 28.748 6.601 30.017 7.35 C 31.278 8.083 32.287 9.09 33.022 10.35 C 33.778 11.626 34.141 13.051 34.141 14.578 C 34.141 16.119 33.78 17.557 33.029 18.849 C 32.296 20.108 31.291 21.124 30.038 21.876 C 30.035 21.878 30.031 21.879 30.029 21.881 C 28.757 22.635 27.342 23 25.829 23 C 24.349 23 22.962 22.66 21.706 21.957 L 21.586 21.888 L 21.553 21.869 C 20.358 21.139 19.392 20.164 18.67 18.966 L 18.601 18.849 C 18.599 18.845 18.597 18.841 18.594 18.837 C 17.852 17.538 17.489 16.106 17.489 14.578 C 17.489 13.056 17.85 11.634 18.601 10.361 L 18.67 10.244 C 19.395 9.042 20.367 8.072 21.573 7.357 L 21.586 7.35 C 22.873 6.601 24.302 6.238 25.829 6.238 Z M 50.903 6.238 C 52.412 6.238 53.822 6.601 55.091 7.35 C 56.352 8.083 57.36 9.091 58.095 10.35 C 58.852 11.626 59.214 13.051 59.214 14.578 C 59.214 16.119 58.854 17.557 58.103 18.849 C 57.37 20.109 56.365 21.124 55.111 21.876 C 55.108 21.877 55.106 21.879 55.103 21.881 C 53.831 22.635 52.417 23 50.903 23 C 49.423 23 48.036 22.66 46.78 21.957 L 46.659 21.888 L 46.628 21.869 C 45.432 21.139 44.465 20.165 43.744 18.966 L 43.669 18.837 C 42.926 17.538 42.563 16.106 42.563 14.578 C 42.563 13.056 42.924 11.634 43.675 10.361 L 43.745 10.244 C 44.469 9.042 45.441 8.072 46.647 7.357 L 46.659 7.35 C 47.946 6.6 49.376 6.238 50.903 6.238 Z M 3.284 0.55 C 3.969 0.55 4.587 0.957 4.859 1.581 L 4.883 1.642 L 9.722 14.023 L 14.601 1.638 L 14.627 1.577 C 14.899 0.955 15.516 0.55 16.199 0.55 L 17.738 0.55 L 17.792 0.551 C 18.34 0.568 18.849 0.847 19.159 1.303 C 19.478 1.774 19.545 2.372 19.335 2.901 L 11.887 21.642 C 11.627 22.295 10.995 22.725 10.292 22.726 L 9.11 22.726 C 8.427 22.725 7.811 22.321 7.538 21.699 L 7.512 21.638 L 0.12 2.897 C -0.089 2.369 -0.022 1.771 0.297 1.301 C 0.617 0.831 1.149 0.55 1.717 0.55 L 3.284 0.55 Z M 39.054 0 C 40.003 0 40.772 0.769 40.772 1.718 L 40.772 21.008 L 40.769 21.097 C 40.723 22.004 39.973 22.726 39.054 22.726 L 37.653 22.726 C 36.705 22.725 35.935 21.956 35.935 21.008 L 35.935 1.718 C 35.935 0.769 36.705 0 37.653 0 L 39.054 0 Z M 25.829 10.991 C 25.129 10.991 24.552 11.156 24.052 11.458 C 24.049 11.46 24.045 11.463 24.042 11.465 C 23.528 11.771 23.121 12.181 22.807 12.721 C 22.52 13.214 22.352 13.817 22.352 14.578 C 22.352 15.339 22.519 15.957 22.815 16.478 C 23.133 17.036 23.544 17.463 24.058 17.783 C 24.556 18.083 25.132 18.246 25.829 18.246 C 26.504 18.246 27.057 18.085 27.535 17.789 C 27.54 17.786 27.545 17.782 27.55 17.779 C 28.079 17.46 28.478 17.041 28.772 16.503 L 28.779 16.491 C 29.083 15.944 29.25 15.31 29.25 14.55 L 29.248 14.414 C 29.23 13.785 29.088 13.262 28.848 12.815 L 28.795 12.721 L 28.781 12.694 C 28.493 12.179 28.1 11.778 27.576 11.474 C 27.562 11.466 27.548 11.458 27.535 11.449 C 27.057 11.153 26.504 10.991 25.829 10.991 Z M 50.903 10.991 C 50.203 10.991 49.625 11.156 49.126 11.458 C 49.122 11.46 49.119 11.463 49.116 11.465 C 48.602 11.771 48.194 12.181 47.88 12.721 C 47.594 13.214 47.426 13.817 47.426 14.578 L 47.428 14.719 C 47.448 15.415 47.612 15.99 47.889 16.478 C 48.207 17.036 48.618 17.463 49.132 17.783 C 49.63 18.083 50.206 18.246 50.903 18.246 C 51.578 18.246 52.131 18.085 52.609 17.789 C 52.614 17.786 52.62 17.782 52.625 17.779 C 53.153 17.46 53.553 17.041 53.846 16.503 L 53.853 16.491 C 54.157 15.944 54.324 15.31 54.324 14.55 L 54.322 14.414 C 54.304 13.785 54.162 13.262 53.922 12.815 L 53.87 12.721 L 53.855 12.694 C 53.585 12.211 53.223 11.828 52.747 11.531 L 52.65 11.474 C 52.636 11.466 52.622 11.458 52.609 11.449 C 52.131 11.153 51.578 10.991 50.903 10.991 Z M 44.96 17.607 C 45.022 17.735 45.089 17.861 45.16 17.985 C 45.086 17.857 45.018 17.726 44.954 17.595 L 44.96 17.607 Z M 19.207 14.694 C 19.208 14.764 19.212 14.834 19.215 14.903 C 19.211 14.796 19.207 14.687 19.207 14.578 L 19.207 14.694 Z M 44.281 14.694 C 44.282 14.751 44.287 14.807 44.289 14.863 C 44.285 14.769 44.28 14.674 44.28 14.578 L 44.281 14.694 Z M 26.112 7.963 C 26.056 7.961 25.999 7.957 25.943 7.956 L 25.829 7.955 C 25.924 7.955 26.018 7.959 26.112 7.963 Z M 51.187 7.963 C 51.131 7.961 51.074 7.957 51.017 7.956 L 50.903 7.955 C 50.998 7.955 51.093 7.959 51.187 7.963 Z" fill="currentColor" fill-rule="evenodd"/>
</svg>
