<svg xmlns="http://www.w3.org/2000/svg" width="104.663" height="23" viewBox="0 0 104.663 23" fill="none">
  <path d="M 78.603 5.842 C 73.614 5.842 69.928 9.807 69.928 14.448 C 69.928 19.09 73.592 22.967 78.603 22.967 C 83.615 22.967 87.278 19.068 87.278 14.448 C 87.278 9.829 83.592 5.842 78.603 5.842 Z M 78.603 19.937 C 75.446 19.937 73.142 17.5 73.142 14.476 C 73.142 11.451 75.62 8.872 78.603 8.872 C 81.587 8.872 84.064 11.396 84.064 14.476 C 84.064 17.555 81.738 19.937 78.603 19.937 Z" fill="currentColor" fill-rule="nonzero"/>
  <path d="M 38.851 0.434 L 38.851 22.599 L 41.993 22.599 L 41.993 0.434 L 38.851 0.434 Z" fill="currentColor" fill-rule="nonzero"/>
  <path d="M 16.832 0.901 L 10.138 15.919 L 3.558 0.901 L 0 0.901 L 9.514 22.599 L 10.752 22.599 L 20.389 0.901 L 16.832 0.901 Z" fill="currentColor" fill-rule="nonzero"/>
  <path d="M 27.221 5.875 C 22.232 5.875 18.546 9.84 18.546 14.482 C 18.546 19.123 22.209 23 27.221 23 C 32.233 23 35.896 19.101 35.896 14.482 C 35.896 9.862 32.21 5.875 27.221 5.875 Z M 27.221 19.97 C 24.063 19.97 21.76 17.534 21.76 14.509 C 21.76 11.484 24.237 8.905 27.221 8.905 C 30.204 8.905 32.682 11.429 32.682 14.509 C 32.682 17.589 30.356 19.97 27.221 19.97 Z" fill="currentColor" fill-rule="nonzero"/>
  <path d="M 58.32 6.289 L 58.32 0.634 L 55.168 0.634 L 55.168 6.289 L 52.421 6.289 L 52.421 9.147 L 55.168 9.147 L 55.168 22.599 L 58.32 22.599 L 58.32 9.147 L 61.066 9.147 L 61.066 6.289 L 58.32 6.289 Z" fill="currentColor" fill-rule="nonzero"/>
  <path d="M 102.911 7.817 C 101.762 6.502 100.145 5.875 98.308 5.875 C 96.297 5.875 94.556 6.629 93.069 8.048 L 93.069 6.271 L 89.909 6.271 L 89.909 22.599 L 93.069 22.599 L 93.069 15.651 C 93.069 13.269 93.249 11.949 94.297 10.623 C 95.249 9.407 96.461 8.785 97.931 8.785 C 99.294 8.785 100.128 9.22 100.658 9.974 C 101.221 10.771 101.503 12.015 101.503 13.764 L 101.503 22.599 L 104.663 22.599 L 104.663 13.506 C 104.663 11.03 104.049 9.115 102.911 7.812 L 102.911 7.817 Z" fill="currentColor" fill-rule="nonzero"/>
  <path d="M 46.422 22.599 L 49.564 22.599 L 49.564 6.276 L 46.422 6.276 L 46.422 22.599 Z" fill="currentColor" fill-rule="nonzero"/>
  <path d="M 50.247 2.189 C 50.247 0.964 49.204 0 47.979 0 C 46.754 0 45.739 0.937 45.739 2.189 C 45.739 3.442 46.726 4.406 47.979 4.406 C 49.232 4.406 50.247 3.398 50.247 2.189 Z" fill="currentColor" fill-rule="nonzero"/>
  <path d="M 67.74 2.189 C 67.74 0.964 66.705 0 65.489 0 C 64.274 0 63.266 0.937 63.266 2.189 C 63.266 3.442 64.246 4.406 65.489 4.406 C 66.733 4.406 67.74 3.398 67.74 2.189 Z" fill="currentColor" fill-rule="nonzero"/>
  <path d="M 67.091 6.276 L 63.915 6.276 L 63.915 22.599 L 67.091 22.599 L 67.091 6.276 Z" fill="currentColor" fill-rule="nonzero"/>
</svg>
