<svg xmlns="http://www.w3.org/2000/svg" width="48.000" height="59.813" viewBox="0 0 48.000 59.813" fill="none">
  <path d="M 41.222 45.677 C 41.572 45.229 42.218 45.152 42.664 45.504 C 43.11 45.856 43.186 46.505 42.835 46.953 C 36.535 54.993 30.286 59.189 23.865 59.748 C 17.64 60.29 11.55 57.388 5.45 51.913 L 4.859 51.376 L 4.786 51.3 C 4.441 50.909 4.44 50.311 4.8 49.918 C 5.16 49.525 5.753 49.477 6.17 49.79 L 6.251 49.857 L 6.822 50.378 C 12.715 55.666 18.265 58.165 23.688 57.693 C 29.291 57.205 35.077 53.518 41.222 45.677 Z M 46.093 30.547 C 46.385 30.059 47.016 29.9 47.502 30.193 C 47.988 30.487 48.145 31.12 47.854 31.608 C 45.781 35.075 42.444 39.924 38.679 44.268 C 34.948 48.572 30.665 52.537 26.688 54.032 C 20.762 56.264 14.775 53.519 10.092 49.945 C 5.37 46.342 1.677 41.677 0.175 39.432 C -0.141 38.959 -0.016 38.318 0.455 38 C 0.926 37.682 1.564 37.808 1.88 38.28 C 3.294 40.394 6.84 44.873 11.334 48.303 C 15.867 51.762 21.072 53.943 25.968 52.1 C 29.425 50.799 33.42 47.193 37.13 42.913 C 40.805 38.673 44.073 33.925 46.093 30.547 Z M 35.562 12.595 C 37.92 12.308 40.179 12.96 42.018 14.154 C 45.513 16.426 47.765 20.917 45.93 25.032 L 45.739 25.429 C 43.707 29.382 39.848 34.998 35.842 39.821 C 33.836 42.237 31.774 44.476 29.865 46.224 C 27.992 47.939 26.149 49.289 24.589 49.767 C 22.043 50.545 19.573 50.147 17.022 48.853 C 14.822 47.736 12.522 45.933 9.991 43.593 L 8.893 42.558 L 8.82 42.481 C 8.482 42.084 8.491 41.486 8.857 41.1 C 9.224 40.713 9.82 40.675 10.23 40.996 L 10.31 41.064 L 11.391 42.083 C 13.862 44.367 15.993 46.02 17.947 47.012 C 20.145 48.127 22.066 48.381 23.991 47.793 L 24.2 47.722 C 25.273 47.324 26.745 46.289 28.481 44.699 C 30.299 43.036 32.296 40.87 34.266 38.498 C 38.211 33.748 41.973 28.26 43.915 24.482 C 45.442 21.512 43.943 17.863 40.901 15.887 C 39.415 14.921 37.633 14.421 35.809 14.643 C 34.004 14.862 32.072 15.799 30.28 17.853 C 30.264 17.874 30.242 17.905 30.214 17.943 C 30.151 18.027 30.059 18.149 29.942 18.305 C 29.709 18.616 29.376 19.06 28.973 19.589 C 28.167 20.647 27.082 22.054 25.969 23.439 C 24.859 24.821 23.704 26.2 22.766 27.197 C 22.302 27.69 21.86 28.124 21.483 28.417 C 21.303 28.558 21.081 28.712 20.843 28.81 C 20.671 28.88 20.084 29.087 19.561 28.659 L 19.559 28.657 C 17.699 27.128 15.26 25.362 12.775 24.818 C 11.561 24.553 10.371 24.588 9.232 25.061 C 8.092 25.534 6.909 26.487 5.777 28.219 C 4.344 30.412 4.428 32.542 5.011 34.305 C 5.606 36.105 6.715 37.481 7.216 37.991 C 7.614 38.397 7.61 39.051 7.206 39.451 C 6.828 39.826 6.233 39.845 5.832 39.513 L 5.754 39.441 L 5.48 39.146 C 4.78 38.356 3.692 36.862 3.062 34.954 C 2.329 32.737 2.208 29.922 4.061 27.087 L 4.308 26.721 C 5.551 24.933 6.946 23.778 8.447 23.154 C 10.05 22.488 11.678 22.467 13.211 22.802 C 15.968 23.405 18.523 25.191 20.368 26.666 C 20.603 26.464 20.91 26.168 21.274 25.78 C 22.156 24.844 23.268 23.515 24.37 22.144 C 25.469 20.777 26.542 19.385 27.342 18.335 C 27.741 17.81 28.072 17.371 28.303 17.063 C 28.418 16.91 28.508 16.789 28.569 16.707 C 28.6 16.666 28.623 16.634 28.639 16.613 C 28.647 16.603 28.653 16.594 28.657 16.589 C 28.659 16.587 28.66 16.585 28.661 16.584 L 28.662 16.582 L 28.713 16.52 C 30.805 14.11 33.19 12.883 35.562 12.595 Z M 36.416 17.128 C 38.078 17.194 39.608 18.087 40.57 19.378 C 41.548 20.69 41.974 22.462 41.353 24.272 L 41.214 24.635 C 40.793 25.635 39.859 26.986 38.714 28.457 C 37.547 29.957 36.088 31.673 34.543 33.427 C 31.46 36.925 27.963 40.649 25.702 43.146 C 23.778 45.267 20.704 45.655 18.35 44.053 L 18.349 44.052 C 15.387 42.032 11.058 38.761 8.131 35.126 L 8.132 35.125 C 7.716 34.611 7.483 33.945 7.368 33.289 L 7.368 33.287 C 6.943 30.836 8.167 28.804 9.929 27.846 C 11.66 26.904 13.942 26.989 15.634 28.67 C 15.653 28.686 15.674 28.701 15.692 28.719 L 20.467 33.124 C 20.644 33.288 20.799 33.291 20.859 33.273 C 20.878 33.268 20.902 33.261 20.929 33.254 C 20.974 33.236 21.049 33.189 21.129 33.091 L 21.132 33.087 L 32.853 18.841 C 33.619 17.881 34.767 17.162 36.082 17.126 L 36.416 17.128 Z M 45.783 39.606 C 46.097 39.132 46.734 39.002 47.207 39.316 C 47.679 39.631 47.809 40.271 47.496 40.746 L 45.616 43.594 C 45.303 44.068 44.666 44.198 44.193 43.884 C 43.721 43.569 43.591 42.929 43.904 42.454 L 45.783 39.606 Z M 36.138 19.188 C 35.55 19.203 34.925 19.539 34.448 20.141 C 34.444 20.145 34.44 20.151 34.437 20.155 L 30.145 25.375 L 22.715 34.402 C 22.433 34.747 22.043 35.059 21.555 35.22 C 21.512 35.234 21.469 35.243 21.425 35.251 C 21.451 35.246 21.47 35.242 21.477 35.24 C 21.479 35.239 21.482 35.239 21.482 35.239 C 21.48 35.24 21.476 35.241 21.468 35.244 C 21.454 35.249 21.44 35.253 21.427 35.257 C 20.522 35.518 19.65 35.171 19.078 34.644 L 14.386 30.314 C 14.339 30.28 14.293 30.242 14.252 30.199 C 13.257 29.16 11.946 29.096 10.906 29.661 C 9.864 30.228 9.129 31.417 9.391 32.931 C 9.471 33.388 9.608 33.681 9.726 33.826 L 9.728 33.828 C 12.458 37.218 16.579 40.352 19.501 42.345 C 20.997 43.362 22.935 43.132 24.184 41.756 C 26.487 39.213 29.93 35.548 33.006 32.058 C 34.54 30.317 35.967 28.638 37.096 27.188 C 38.246 25.709 39.019 24.552 39.322 23.832 C 39.822 22.646 39.581 21.492 38.927 20.614 C 38.256 19.715 37.192 19.159 36.138 19.188 Z M 36.326 7.872 C 38.747 7.797 41.457 8.359 43.855 10.093 C 44.316 10.426 44.421 11.071 44.09 11.533 C 43.779 11.966 43.196 12.086 42.745 11.825 L 42.656 11.768 L 42.285 11.513 C 40.417 10.293 38.327 9.874 36.391 9.934 C 34.438 9.994 32.705 10.54 31.602 11.168 L 31.39 11.295 C 28.247 13.262 26.084 16.124 24.36 18.514 C 23.525 19.671 22.743 20.792 22.021 21.546 C 21.397 22.197 20.463 22.955 19.332 22.688 L 19.104 22.622 C 17.94 22.212 15.041 20.741 11.639 20.513 C 9.97 20.401 8.248 20.601 6.636 21.367 C 5.034 22.129 3.471 23.481 2.16 25.791 C 1.879 26.286 1.252 26.458 0.76 26.176 C 0.267 25.894 0.095 25.263 0.376 24.769 C 1.876 22.127 3.739 20.461 5.757 19.502 C 7.764 18.548 9.857 18.325 11.776 18.454 C 15.551 18.708 18.93 20.374 19.784 20.676 C 19.792 20.679 19.793 20.678 19.795 20.678 C 19.801 20.677 19.833 20.673 19.896 20.644 C 20.036 20.577 20.247 20.422 20.541 20.115 C 21.137 19.493 21.809 18.535 22.698 17.303 C 24.423 14.912 26.788 11.746 30.304 9.545 L 30.58 9.38 C 32.004 8.566 34.072 7.942 36.326 7.872 Z M 6.353 14.355 C 6.919 14.342 7.391 14.793 7.404 15.362 C 7.418 15.932 6.968 16.404 6.401 16.417 L 6.402 16.418 C 6.321 16.423 6.239 16.432 6.158 16.443 C 5.978 16.469 5.719 16.519 5.427 16.614 C 4.836 16.806 4.152 17.166 3.637 17.835 C 3.289 18.285 2.644 18.366 2.195 18.018 C 1.747 17.669 1.666 17.021 2.013 16.57 C 2.857 15.475 3.949 14.926 4.795 14.651 C 5.22 14.513 5.596 14.44 5.869 14.401 C 6.006 14.382 6.119 14.37 6.201 14.363 C 6.251 14.359 6.302 14.355 6.353 14.355 Z M 30.355 3.841 C 32.286 3.202 34.507 3.01 37.102 3.456 L 37.626 3.555 L 37.728 3.58 C 38.225 3.734 38.535 4.244 38.431 4.768 C 38.326 5.291 37.844 5.643 37.326 5.593 L 37.222 5.577 L 36.757 5.49 C 34.46 5.095 32.581 5.277 30.998 5.801 C 29.304 6.362 27.89 7.335 26.634 8.521 C 25.37 9.713 24.291 11.097 23.249 12.473 C 22.358 13.649 21.468 14.855 20.541 15.836 L 20.142 16.242 C 19.386 16.976 18.514 17.215 17.638 17.185 C 16.825 17.157 15.983 16.896 15.229 16.65 C 13.626 16.128 12.119 15.587 10.428 15.925 C 9.872 16.036 9.332 15.673 9.221 15.114 C 9.11 14.556 9.471 14.012 10.027 13.9 C 12.341 13.439 14.389 14.208 15.862 14.688 C 16.647 14.943 17.225 15.106 17.707 15.123 C 18.125 15.137 18.425 15.041 18.714 14.76 L 18.714 14.759 C 19.646 13.854 20.549 12.629 21.614 11.223 C 22.656 9.848 23.826 8.339 25.228 7.017 C 26.636 5.687 28.302 4.521 30.355 3.841 Z M 28.746 0.001 C 29.313 0.006 29.768 0.472 29.764 1.041 C 29.759 1.611 29.295 2.069 28.729 2.064 C 25.784 2.038 23.806 4.112 21.94 6.613 C 21.061 7.793 20.159 9.134 19.278 10.109 C 18.403 11.078 17.286 11.999 15.85 11.962 C 13.492 11.901 11.444 11.15 10.014 10.803 C 9.257 10.619 8.678 10.542 8.188 10.601 C 7.739 10.655 7.321 10.829 6.888 11.258 L 6.809 11.328 C 6.403 11.655 5.809 11.627 5.436 11.246 C 5.038 10.84 5.043 10.188 5.446 9.788 L 5.589 9.651 C 6.308 8.992 7.098 8.653 7.944 8.552 C 8.807 8.448 9.677 8.599 10.496 8.798 C 12.218 9.216 13.834 9.846 15.901 9.899 C 16.383 9.912 16.957 9.61 17.759 8.723 C 18.554 7.842 19.316 6.691 20.296 5.377 C 22.151 2.889 24.687 -0.035 28.746 0.001 Z M 16.514 2.255 C 16.876 1.817 17.524 1.758 17.96 2.122 C 18.396 2.486 18.455 3.137 18.093 3.575 C 17.89 3.82 17.729 4.136 17.514 4.566 C 17.333 4.928 17.066 5.481 16.662 5.874 L 16.661 5.874 C 15.787 6.724 14.569 7.096 13.373 6.893 L 13.37 6.893 C 12.966 6.822 12.479 6.635 12.132 6.497 C 11.703 6.327 11.461 6.223 11.345 6.191 C 10.797 6.045 10.47 5.479 10.616 4.929 C 10.762 4.378 11.326 4.051 11.874 4.198 C 12.143 4.27 12.586 4.458 12.887 4.577 C 13.27 4.729 13.559 4.831 13.72 4.858 L 13.719 4.858 C 14.277 4.953 14.835 4.779 15.233 4.392 C 15.338 4.289 15.456 4.086 15.679 3.64 C 15.867 3.262 16.131 2.716 16.514 2.255 Z" fill="currentColor" fill-rule="nonzero"/>
</svg>
