<svg xmlns="http://www.w3.org/2000/svg" width="330" height="221" fill="none" viewBox="0 0 330 221"><path fill="#b6ace3" d="M223.646 32.705a.98.98 0 0 1 1.37-.216q.681.495 1.353 1a.981.981 0 0 1-1.177 1.568q-.661-.495-1.33-.982a.98.98 0 0 1-.216-1.37m-5.546-3.707a.98.98 0 0 1 1.354-.3q1.42.908 2.81 1.853a.981.981 0 0 1-1.105 1.621q-1.363-.93-2.76-1.82a.98.98 0 0 1-.299-1.354m-5.76-3.366a.98.98 0 0 1 1.334-.38 112 112 0 0 1 2.916 1.68.981.981 0 0 1-1.005 1.684q-1.418-.845-2.864-1.65a.98.98 0 0 1-.381-1.334m-110.635-.86a.98.98 0 1 1 .938 1.722q-.714.39-1.421.788a.981.981 0 0 1-.964-1.709q.72-.405 1.447-.802m104.685-2.156a.98.98 0 0 1 1.308-.459q1.52.73 3.011 1.503a.98.98 0 1 1-.902 1.742 111 111 0 0 0-2.958-1.477.98.98 0 0 1-.459-1.309m-98.786-.838a.98.98 0 0 1 .836 1.775q-1.473.694-2.92 1.428a.98.98 0 0 1-.888-1.75q1.473-.746 2.972-1.453m92.667-1.818a.98.98 0 0 1 1.279-.536q1.56.639 3.094 1.321a.98.98 0 0 1-.796 1.792 113 113 0 0 0-3.042-1.298.98.98 0 0 1-.535-1.28m-86.603-.825a.981.981 0 1 1 .731 1.82q-1.511.608-2.998 1.256a.98.98 0 1 1-.784-1.798q1.513-.66 3.051-1.278m80.337-1.467a.98.98 0 0 1 1.246-.61q1.595.546 3.167 1.137a.981.981 0 0 1-.69 1.836q-1.545-.581-3.112-1.117a.98.98 0 0 1-.611-1.246m-74.13-.82a.98.98 0 1 1 .625 1.86q-1.544.517-3.066 1.08a.982.982 0 0 1-.679-1.841 116 116 0 0 1 3.12-1.099m67.742-1.1a.98.98 0 0 1 1.208-.682q1.623.452 3.227.95a.98.98 0 1 1-.581 1.873q-1.576-.489-3.172-.933a.98.98 0 0 1-.682-1.208m-61.414-.825a.98.98 0 1 1 .517 1.891q-1.572.43-3.124.902a.981.981 0 0 1-.571-1.876 115 115 0 0 1 3.178-.918m54.924-.72a.98.98 0 0 1 1.167-.751q1.647.357 3.276.76a.98.98 0 1 1-.471 1.903 114 114 0 0 0-3.221-.746.98.98 0 0 1-.751-1.166m-48.496-.84a.98.98 0 1 1 .408 1.918q-1.594.34-3.171.722a.98.98 0 0 1-.462-1.906q1.603-.39 3.225-.735m41.928-.328a.98.98 0 0 1 1.121-.817q1.667.261 3.315.57a.98.98 0 1 1-.36 1.927q-1.62-.302-3.259-.56a.98.98 0 0 1-.817-1.12m-35.424-.865a.98.98 0 1 1 .3 1.938 115 115 0 0 0-3.207.541.98.98 0 0 1-.353-1.929q1.622-.297 3.26-.55m28.8.075a.98.98 0 0 1 1.072-.88q1.679.166 3.343.38a.98.98 0 1 1-.249 1.945q-1.635-.21-3.287-.373a.98.98 0 0 1-.879-1.072m-22.237-.9a.981.981 0 0 1 .19 1.953q-1.624.157-3.233.36a.98.98 0 1 1-.244-1.946q1.635-.206 3.287-.366m16.599-.451q1.686.07 3.359.188a.98.98 0 1 1-.137 1.957q-1.646-.116-3.304-.186a.98.98 0 1 1 .082-1.96m-10.003-.004a.98.98 0 1 1 .081 1.96q-1.63.067-3.247.179a.98.98 0 1 1-.135-1.957q1.644-.113 3.301-.182m4.959-.102q.843 0 1.683.011a.98.98 0 1 1-.027 1.962 119 119 0 0 0-3.282 0 .982.982 0 0 1-.028-1.962 120 120 0 0 1 1.654-.011M78.458 184.551a.98.98 0 0 1 1.386-.05q.6.557 1.206 1.108a.981.981 0 0 1-1.32 1.451q-.614-.558-1.22-1.123a.98.98 0 0 1-.052-1.386m-4.702-4.621a.98.98 0 0 1 1.387.009q1.149 1.164 2.326 2.306a.981.981 0 0 1-1.366 1.408 154 154 0 0 1-2.356-2.336.98.98 0 0 1 .009-1.387m-4.498-4.821a.98.98 0 0 1 1.385.07q1.098 1.213 2.224 2.404a.98.98 0 1 1-1.425 1.347q-1.142-1.206-2.253-2.436a.98.98 0 0 1 .07-1.385m-3.231-3.743a.98.98 0 0 1 1.382.115q.528.625 1.064 1.245a.98.98 0 1 1-1.483 1.283q-.543-.628-1.078-1.261a.98.98 0 0 1 .115-1.382m173.094 9.335a.981.981 0 0 1 1.51 1.252l-1.102 1.329a.98.98 0 1 1-1.511-1.25zm4.377-5.314a.98.98 0 1 1 1.525 1.232c-.711.88-1.44 1.769-2.189 2.676a.98.98 0 1 1-1.513-1.249c.747-.904 1.472-1.787 2.177-2.659m4.184-5.42a.98.98 0 0 1 1.587 1.154c-.682.937-1.378 1.86-2.091 2.78a.98.98 0 1 1-1.55-1.202c.702-.906 1.386-1.813 2.054-2.732m3.792-5.664a.981.981 0 0 1 1.674 1.022 84 84 0 0 1-1.882 2.938.98.98 0 1 1-1.629-1.092 81 81 0 0 0 1.837-2.868m3.305-5.958a.98.98 0 1 1 1.752.882 87 87 0 0 1-1.628 3.082.98.98 0 1 1-1.715-.951 86 86 0 0 0 1.591-3.013m2.863-6.206a.98.98 0 0 1 1.806.765 114 114 0 0 1-1.406 3.183.98.98 0 1 1-1.782-.82q.69-1.497 1.382-3.128m2.513-6.369a.98.98 0 0 1 1.84.679 164 164 0 0 1-1.234 3.241.981.981 0 0 1-1.825-.719q.606-1.538 1.219-3.201m1.717-4.863a.981.981 0 0 1 1.858.63q-.284.837-.565 1.645a.98.98 0 1 1-1.852-.645q.278-.8.559-1.63"/><path fill="#7b4c27" d="M32.551 108.052c-3.454 6.921-10.202 15.25-18.878 11.155-8.587-4.053-5.7-17.697-3.904-24.988 1.957-7.934 4.803-15.652 6.858-23.564-2.395-7.24-3.69-14.89-3.945-22.54-.076-2.294-.532-6.87 2.952-6.261-.184-1.042.476-3.119 1.478-3.553.415-.179 1.177-.083 1.221-.127.054-.052-.031-1.045.108-1.486.456-1.442 2.3-1.976 3.462-.974.25.216.329.694.375.729.223.162.932-.444 1.344-.476 1.996-.147 3.067 4.1 3.467 5.588 1.184 4.418 1.579 9.081 3.506 13.29.375-.034.375-.372.473-.625.775-1.978 1.613-7.281 4.308-7.477.949-.07 1.856.296 2.26 1.186.69 1.513-1.118 6.076-1.532 7.897-.498 2.192-.804 4.445-1.346 6.623.772.326.287.64-.245.98l.316.545c-.91 2.574-2.599 4.408-4.501 6.168-.3.412-.609.988-.645 1.506-.542 7.433-.564 14.87-.518 22.338a4.3 4.3 0 0 1-.537 1.561q.927 1.103 0 1.472c.486.66.608 1.645-.245 1.961q.622 3.133-.184 6.465c-.127 1.601-1.47 7.324-2.782 3.357.963-4.887 1.71-9.947 1.578-15.1q-.396-11.972.837-23.623a59 59 0 0 0 4.266-5.22 54 54 0 0 0 2.937-11.46c3.31-10.216-2.008-3.212-2.535 1.635-.272.775-.657 1.523-1.41 1.94-3.082 1.204-4.563 2.991-5.521 6.073-.95.914-1.766.216-1.812-.973-.1-2.457 3.253-5.667 5.391-6.603a130 130 0 0 1-4.327-15.819c-.184-.618-.849-2.682-1.518-1.65l2.03 12.222c1.344-.115 2.386 1.096 1.074 1.988-3.204.854-6.097 1.79-8.696 3.975-1.692.343-1.962-1.177-.677-2.08q-.61-4.56-1.192-9.265c-.51-3.182-1.311-1.507-1.463.62-.579 8.165 1.46 17.28 3.923 25.136a604 604 0 0 1-6.973 23.603C9.679 100.652 7 112.63 13.344 117.2c7.623 5.49 13.855-3.347 17.498-9.076l.726-.069c.275-1.265 1.545-1.042.98 0z"/><path fill="#2f2a27" d="M82.077 57.545c-.866.402-1.95-.071-2.207-.98-.41-.28-.54-.589-.13-.888 2.104-.691 3.56-1.846 4.651-3.756.645-.846 1.45-1.091 1.837.1s-1.81 3.244-2.697 3.957c8.998-2.02 8.343-12.504 7.662-19.854-.885-9.557-3.457-28.04-13.007-32.567-2.94-1.393-10.523-2.398-13.737-1.787-13.742 2.606-19.166 19.18-21.336 31.235-1.336 7.422-2.459 19.002 6.706 21.603-3.303-3.73-.55-5.911 1.574-1.1.782 1.021 1.356 1.593 2.486 1.1.829-.199.856.674.49 1.226.459.988-2.412 2.086-2.444.762l-1.233-.272c-14.52-2.302-9.844-22.568-6.931-32.307 2.711-9.06 6.389-17.545 15.262-22.005C65.263-1.126 68.879.152 75.33.917c11.042 1.309 14.725 17.294 16.235 26.18.99 5.825 1.986 12.425 1.552 18.327-.441 6.002-4.315 12.526-11.043 12.126z"/><path fill="#3a3161" d="M39.097 74.06c3.96 8.746 1.8 21.01-2.135 29.284l.002.016-1.538 2.066c-.797 1.028-1.245 3.224-2.875 2.626-.402-.147-.056-.983-.98 0-.756-.241-.5-1.162.245-1.226 1.164-3.661-.324-6.392-3.006-8.988l-.182-.82c.025-.487-.017-.983 0-1.47l.606-.138c2.417 2.175 4.629 4.955 5.21 8.233 5.117-8.84 5.781-19.288 2.785-28.747-.59-1.704 1.057-2.626 1.868-.836m15.277-18.233-.002.002c-.182-1.346.966-1.393.98 0 .099.1.19.203.25.324.359.708-2.105 1.959-2.748 2.096 2.467 5.016 7.603 7.772 13.036 8.503 4.894.657 12.64-.91 13.375-6.777.23-1.846-.626-3.357-.211-.576-.554 1.86-2.881.311-1.633-.628l.184-2.155c.027-.897.54-1.92 1.042-.787.502-.613 1.31.042 1.226.736.73.343 1.446.65 2.206.98 4.266 1.861 7.6 2.855 10.448 3.872 1.716.613.944 1.827-.49 1.348-4.414-1.473-6.486-1.996-10.7-3.72-.373 6.341-5.176 9.158-11.083 9.749-7.764.777-15.85-2.67-19.344-9.898l-15.968 4.916-.427-.383c.022-.06.145-.578.245-.98 5.71-1.893 11.57-3.416 17.16-5.642l-1.223-.488c.301.047.713-.024 1.08.01.369.035.629.446.96.432.512-.022 1.272-.62 1.637-.934"/><path fill="#b6ace3" d="m34.51 63.425.003.004 16.772-5.163c3.384 8.598 14.58 11.952 22.934 9.2 3.629-1.197 5.7-3.463 6.52-7.212.122-.566-.118-1.824.477-1.73 1.136.173 3.602 1.502 4.9 1.968 2.142.768 4.49 1.49 6.778 2.352 0 9.116-10.542 31.672-56.425 40.446.079-.841 1.795-4.192 2.21-5.413 2.365-6.988 2.75-16.398.07-23.37-.255-.66-.752-1.481-1.179-.545-.11.24 1.093 4.362 1.238 5.147 1.317 7.215.93 12.874-1.598 19.749-.952 2.589-2.317 4.969-3.44 7.47-.459.054-.192-.495-.135-.745.1-.451.37-.733.363-1.307-.04-3.018-3.09-6.919-5.372-8.733.284-7.856-.302-15.8.522-23.628.26-2.462 1.908-2.847 3.256-4.59.804-1.037 1.657-2.672 2.106-3.9"/><path fill="#edb586" d="M31.57 108.052c-3.224 3.43-4.356 7.944-9.395 10.341-5.077 2.418-10.991-.301-12.55-5.683-3.413-11.79 5.732-30.318 8.2-42.07-2.292-6.595-3.603-13.573-3.907-20.575-.05-1.155-.216-6.431.358-6.992.286-.28 1.294-.383 1.569-.206.6.387 1.172 9.498 1.76 10.89.05.697-.593 1.003-.993 1.462.505 1.544 2.089-.45 2.962-.964.684-.402 1.537-.863 2.265-1.167.77-.321 4.445-1.23 4.578-1.432.537-.811-.922-1.196-1.469-.73l-2.17-13.064c1.535-2.14 2.442 1.43 2.835 2.712 1.515 4.948 1.728 10.457 4.231 15.132-2.36.903-5.237 3.595-5.585 6.191-.135.998.623 1.508.993.73.687-1.448.652-2.34 1.898-3.74 1.321-1.484 3.592-1.965 4.286-2.825 1.282-1.589 1.775-8.113 4.194-8.331 2.35-.214.138 4.722-.12 5.786-1.034 4.261-1.358 9.849-4.084 13.323-.826 1.052-3.09 2.645-3.276 3.834-.355 2.254-.414 5.934-.515 8.312-.345 8.211.26 16.589-.757 24.741-.177 1.424-1.032 3.986-.969 5.183.02.39.042.613.388.851.76-.003 1.441-4.504 1.559-5.301.257-1.763.392-3.7.525-5.482l.58.049c1.585 1.961 3.678 5.225 2.852 7.796-.15.363-.203.832-.245 1.226z"/><path fill="#ecb687" d="m18.566 39.167 2.474 13.09-2.337 1.123c-.725-2.658-.764-5.441-1.174-8.148-.292-1.937-2.158-5.793 1.037-6.065"/><path fill="#edb688" d="m21.214 36.521 2.758 14.77c.008.188-1.608.073-1.843.613-1.128-3.146-.966-6.588-1.668-9.852-.311-1.444-1.821-4.528-.556-5.62.407-.35.9-.188 1.31.09"/><path fill="#e49969" d="M31.816 106.826c-.42-.775-.145-1.609-.36-2.459-.403-1.587-2.308-3.859-3.073-5.387.05-.657.223-1.527.245-1.961 1.935 1.667 4.521 4.989 4.11 7.664-.133.86-.643 1.471-.922 2.143"/><path fill="#4a423e" d="M53.882 54.603c-.672.8-.67 1.025-1.704.356-1.278-.827-1.655-2.124-2.413-3.225-.691-1.005-1.31-.811-.914.425.397 1.245 1.46 2.071 2.09 3.177-12.43-1.959-9.402-18.847-7.141-27.612C46.328 17.92 50.285 7.066 60.17 2.66 64.238.848 66.587.819 70.897 1.424c3.366.473 6.931.797 9.714 3.035 7.686 6.186 9.532 19.7 10.743 28.976C92 38.38 92.6 43.47 91.429 48.38c-1.074 4.487-4.425 8.297-9.349 8.18 1-.9 3.703-2.813 3.676-4.303-.035-2.008-2.025 1.576-2.317 1.863-.79.772-1.905 1.307-2.893 1.778-.356.169-.807.024-.672.664-.334-.157-1.123-.704-1.226-.735-.186-.045-.466-.138-.463-.273.02-.58.5-4.906.647-5.117 6.862-7.151 8.343-18.162 7.561-27.597-6.105-4.906-12.173-10.091-13.95-18.025-1.562 4.494-4.269 7.968-8.31 10.714l-9.66 6.65q-.761 2.257-2.189 3.802a12.4 12.4 0 0 0-2.14-1.702c-4.517-1.868-5.468 9.788-.645 12.735.968.59 2.192 1.072 2.425-.066-.797.365-1.028-.841-.768-1.412.91-1.986 1.726.174 2.074 1.135.324.895.986 3.104.407 3.707q-.169 1.93 1.148 3.653l.24.922a49.4 49.4 0 0 0-.073 7.9c.017.865-.03 2.402-1.07 1.745z"/><path fill="#372a23" d="M55.843 44.796c.186.635.395 1.554-.348 1.716q.05 1.49-.142 2.942l.473.452a75 75 0 0 1 .066 5.565l-.542.358c-.618-1.081-.593-.331-.98 0l-.49-1.226c.18-.216.445-.115.507-.608.343-2.812-.415-6.176.15-9.042-.101-1.415-2.352-2.952-.9-4.568q.971.477 1.416 2.045 1.02 1.31.79 2.368z"/><path fill="#edb587" d="M56.088 47.002c.066 2.094 2.126 4.897 3.685 6.333 4.703 4.328 11.918 7.48 16.807 2.065q.629-2.007 1.084-1.04c.676.638.392 1.216-.008 1.903l-.238 2.51c-.014.758.63 1.506 1.118.738.177-.28-.365-1.905-.134-2.454 2.152.635 1.449 3.01.85 4.654-1.402 3.859-6.046 5.354-9.807 5.639-6.374.483-14.651-2.852-17.017-9.167.757-.876 2.728-1.14 2.925-2.354.286-1.773-.106-4.44 0-6.375q.198-1.474.151-3.01c.184-.753 1.317-.01.584.558"/><path fill="#2e2825" d="M51.92 36.95c.037-.002.127-.218.24-.247l.005 1.476c-5.87.255-7.593-8.385-5.6-12.588 1.317-2.775 4.367-2.464 5.72.076l1.827-3.807c5.185-4.024 13.568-7.996 16.571-14.076.334-.674 1.07-4.094 2.06-3.433.21.143 1.38 4.112 1.687 4.816 2.054 4.746 6.664 8.493 10.469 11.842.8.703 1.863.826 2.064 2.104.464 2.964-.034 8.872-.546 11.927-.974 5.801-2.925 11.438-7.174 15.628l-.599 5.163c-1.348-.419-.652 2.295-1.226 2.942-.115-1.49.079-2.942.246-4.413-.832-.488-.16-2.123.49-2.697-.87-.362-.395-1.118 0-1.716l.258-.932c6.521-6.796 7.242-17.01 6.737-25.878l-6.13-5.25c-2.942-2.62-5.35-5.817-6.776-9.446-1 1.827-2.018 3.325-3.621 4.815-3.502 3.259-7.096 5.65-11.134 7.986q-1.693.853-2.55 2.314-1.904 7.319-4.489 2.435c-2.047-2.356-2.935 1.5-2.964 3.207-.06 3.417.963 6.86 4.433 7.757z"/><path fill="#edb587" d="M78.154 49.945c-.598 1.79-3.082 2.952-4.832 3.574-4.644 1.658-9.297.074-12.983-2.934-1.71-1.398-4.207-3.63-4.496-5.79-.8-1.232-1.738-3.017-2.207-4.412-.25-.748-1.056-5.15-1.593-5.144-.719.453-.442.853-.363 1.586.047.123.125.137.24.125-.652.657-2.331-.53-2.817-.983-2.118-1.974-2.856-7.922-1.211-10.278 1.005-1.439 1.824-1.213 2.93-.022.446.48 1.15 2.224 1.839 1.859.858-.456 1.51-4.112 2.277-4.968 1.224-1.365 6.448-4.148 8.339-5.514 2.503-1.81 4.832-3.793 6.89-6.105l2.346-3.9c1.48 6.896 7.978 11.435 13.014 15.794l.223.512c.267 9.229-.437 19.96-7.596 26.597z"/><path fill="#653c25" d="M78.154 49.945c-.037.566.054 1.154 0 1.716-4.702 5.406-11.844 4.567-17.351.517-.819-.603-4.48-3.741-4.646-4.384a2 2 0 0 1-.069-.791c-.174-.2-.189-.547-.488-.488-.054.772.069 1.576.008 2.346-.025.314-.253.561-.255.593.024-1.569-.196-3.192.49-4.658 5.2 8.027 14.343 12.538 22.311 5.149"/><path fill="#e39969" d="M78.154 51.661c-.076.807-.402 1.92-.49 2.697l-.24-.123c.058 2.207-3.32 4.092-5.28 4.288-5.324.533-9.456-1.23-12.994-5.14-.446-.494-3.155-4.012-3.253-4.345-.177-.61-.115-1.457.191-2.033 4.185 4.766 9.25 9 16.194 7.735 2.231-.407 3.913-2.118 5.872-3.077z"/><path fill="#6b4125" d="M65.093 43.704c-1.105-1.043-.745-2.327.829-2.785 2.164-.628 7.323-.655 9.422.14 3.26 1.236-.06 3.494-2.128 4.028-2.33.604-6.422.22-8.125-1.386zm7.91-18.522c.046.995-.093 2.013.059 3.006.368 2.373 3.5 6.055 1.427 8.164-.983.998-2.754.949-4.07.853-.724-.051-2.109-.13-1.474-1.002.427-.589 4.215.762 4.877-.78.777-1.812-1.567-5.088-1.8-7.177-.105-.938-.358-3.41.981-3.064"/><path fill="#2f2926" d="M63.392 19.364c1.206-.11 5.906.978 5.092 2.626-.527 1.066-2.135-.43-3.064-.623a7.1 7.1 0 0 0-2.1-.108c-.946.098-3.68 1.542-4.04 1.363-2.312-1.15 2.913-3.148 4.112-3.258m14.708.983c1.067-.138 2.361-.192 3.376.164.65.228 2.477 1.567 2.293 2.293-.388 1.52-2.57-.4-3.546-.55-.593-.09-1.576-.07-2.189-.012-.797.074-2.498 1.01-2.594-.13-.103-1.226 1.728-1.645 2.663-1.765z"/><path fill="#2d2725" d="M78.08 26.447c2.028-.616 2.901 3.077 1.124 3.594-1.923.56-2.705-3.114-1.123-3.594"/><path fill="#2e2825" d="M64.096 25.478c1.765-.159 2.351 3.923-.527 3.384-1.44-.27-.981-3.246.527-3.384"/><path fill="#663d23" d="M50.204 33.273c-.056-.682-.476-4.727-.738-4.906-.103-.072-1.089.532-1.224-.128-.144-.701.922-1.282 1.56-1.079.392.125.72 1.444.824 1.888.159.677.576 3.08.546 3.634s-.463.652-.968.588z"/><path fill="#5e3820" d="M67.428 47.437c-.368-.344-.326-.922.296-.922.326 0 .817.382 1.26.463 1.207.218 2.018.174 3.175.258 1.403.1 1.27.78.228.985-.833.164-4.378-.245-4.96-.784"/><path fill="#c55843" d="M67.85 41.535c1.414-.14 6.609-.274 7.439.646.655.726-.47 1.173-1.172 1.507-2.083.987-5.302.885-7.37-.123-2.53-1.233-.98-1.826 1.102-2.03"/><path fill="#7b4c27" d="M116.922 142.203q.222 8.131.127 16.483c0 .088-.074-1.424.118-1.773 1.137.341 1.056 3.752.245 4.414a598 598 0 0 1 2.496 31.321 20.7 20.7 0 0 1 4.842-4.967l.753.125q.758-1.125 2.101-1.26c-.132-.621-.753-1.099-.385-1.437.058-.772-.139-11.958 2.452-8.581h35.305c.047-.219.128-.211.245 0a935 935 0 0 1 20.514-.017c1.763.078 3.234.196 4.249 1.733.912-.123 1.592 1.579.736 1.961a12.1 12.1 0 0 0-.245 3.678l.453.341-.662 5.511c.412-.014.626.04.702.525-.322 1.189.551 1.071 1.436.618l.525.118.883-.13 5.058 2.412 1.397-21.634c.691-.361 1.664-1.959 1.979-1.246q.595.943.735 2.452c.574-.726.574 1.41.41 1.628-.135.179-.415.157-.655.088l-.331.101a348 348 0 0 1-1.16 18.619q1.228-.802 1.981-.331 1.684.183 1.717-1.226c.218-1.037 1.4-1.903 2.451-1.717.635.069 1.503.204.981.981l.015.586c-2.003 1.729-6.975 5.345-9.557 4.538-1.476-1.024-7.758-4.575-8.824-3.839q.093 1.659-.76 2.148c-.137-.052-.093-.273-.093-.258-.042.419-.255 2.989-.199 3.153l.292.292c.708.243.397.593-.245.735q-.9.128-1.962.246c-.323.698-1.159.718-1.471 0-1.213-.483-2.993-.567-4.413-.491-.525.738-3.271.466-3.432-.49.24-.302-1.297-.105-1.717 0-.186.708-1.022.682-1.226 0-1.039-.27-2.108.1-2.942.735.569.388.16 1.418-.49 1.472 1.074 1.152 3.138 1.61 4.658 1.716.145-.849.966-.481.491.245.429.174 2.115.598 3.187.49.726-.62 2.216-.321 2.697.491.414.274 1.978.431 2.942.245.515-.716 2.736-.199 3.187.49.692.106 1.623.13 2.803.071 2.351.974-3.303 1.204-3.783 1.155-.449.638-.981.52-.981-.245a22.4 22.4 0 0 0-5.149-.49c-.471.573-.753.485-.735-.246.514-.245-1.68-.309-2.207-.245-.152.853-.951.483-.49-.245q-2.619-.482-5.848-1.557c-3.555-.863-4.43 2.658-1.017 3.764.284-.417.507-.27.49.245-.167.184 1.096.723 1.961.735.403-.546.533-.412.491.245 2.81 1.195 6.404 2.354 9.562 2.452.642-.605 1.495-.512 1.961.245.807.469 1.802.403 2.697.246.287-.765 1.466-.611 1.471.245-.171.265-.978.252-.907.233.949-.272 1.503-.272 1.275.846l-2.084.147c-1.165.767-3.94.238-4.904-.736a132 132 0 0 0-5.884-1.226c-.1.893-1.142.388-.49-.245q-2.127-.706-5.198-1.942l-.441-.019c.336.51.424 1.461-.245 1.716v.664c1.35 2.562 8.843 4.602 11.523 4.975.301-.159.632-.326.985-.306.376.019 5.483.649 5.735.816.907.596.861 1.488-.059 2.042-.6.361-2.939.424-2.736-.591.042-.144.361-.085.343-.088a45 45 0 0 0-3.133-.39 5.6 5.6 0 0 0-.885-.012c-.152.853-.951.483-.49-.245.161-.103-1.261-.388-1.847-.478a2.6 2.6 0 0 0-.605-.012c-.142.845-.964.48-.491-.246q-1.915-.764-5.148-1.716.96.668.245.981.46 1.177 2.207 2.206l.698-.188c4.926 2.236 10.697 3.403 16.054 2.317l.658.323c.012.581-.292 1.498-1.479 1.716-4.619.518-6.865.246-12.067-.98q-24.883.441-49.71 0c-4.298-1.104-10.918-3.801-15.677-4.011a115 115 0 0 1-19.499-3.511q-2.705-.578-4.3-2.285l-.245-.246c-.589-.566-1.356-.929-1.962-1.471-5.963-5.32-5.555-12.908-4.379-20.192 1.273-7.878 4.284-15.466 6.069-23.172-.814-.319-2.74-1.069-2.67-2.092l4.415-11.177c.721-.309 1.378.875.98 1.471l.239.765-3.268 8.753a207.5 207.5 0 0 0 25.701 10.192q-.239-.827.376-1.077c-.586-.338-.638-.446 0-.735a3.77 3.77 0 0 0-.662-1.915 1215 1215 0 0 1-.42-25.712c-.294-1.655 1.714-2.498 1.572-.816z"/><path fill="#7b4c27" d="M225.78 148.577c1.133 2.653 1.763 5.49 2.692 8.219.476 1.4 2.008 4.276 2.168 5.455.201 1.491-1.275 1.809-2.379 2.295 2.119 10.773 7.26 21.958 6.343 33.187-.326 3.994-2.15 7.596-5.144 10.18-.617.532-1.358.919-1.961 1.471.051.176-.042.25-.245.245-5.85 2.481-12.078 3.979-18.337 5.078-2.386.419-6.436.49-8.456 1.105-.841.258-3.026 2.668-4.266 3.335-1.008.542-2.629 1.076-3.756 1.27l-2.943-.248c.253-1.336 1.687-.478 2.756-.797l1.658-.671.061-.542q3.821-2.153 6.735-5.75c1.089-.36 1.459.41 1.621 1.341 7.365-.868 15.245-2.199 22.095-5.185 9.675-4.217 9.054-13.411 7.353-22.368a379 379 0 0 0-5.281-20.075l-21.801 8.113c1.14 4.649 2.598 9.334 4.354 13.757 1.873-1.834 11.526-5.892 13.531-4.477 1.028.726.204 2.393-1.017 2.366-4.7.015-8.67 2.327-12.362 5.141l-.821-.029c-.361-.718-.844-.108-.981-.981l-.62-.696q-2.178-7.162-4.259-14.264l.22-.483c.559-.331-.014-1.381.04-1.444.049-.057.336-.005.394-.072.059-.066-.196-.186-.191-.198-.429-.096-.483-.373-.127-.623q13.449-3.88 25.51-9.905a1084 1084 0 0 0-3.832-11.457l.27-.817c-.427-.632.226-1.628.981-1.471zM160.808 30.892c.638.778-.252.966-.98.981l-1.17.503c-18.503-.12-27.124 12.492-31.25 28.936-1.27 8.448-2.969 16.186-7.38 23.524-2.185 4.651-3.364 10.776 1.096 14.385q1.204 2.115.865 4.845c-.465 3.263 5.789 6.639 8.275 6.215a94 94 0 0 1 7.444-2.396l.301.486c.439-.218.79-.336.736.245.355.304.345.633-.111.579l-2.586 1.137a9 9 0 0 1-.92.679c-.321.204-.637.395-.98.523a272 272 0 0 1-8.358 2.912c-.351.116-.721.174-1.096.224-.375.049-.765.068-1.15.076-.008.539-.537.733-.981.49a2.6 2.6 0 0 1-.311.468c-.363.415-5.245 2.212-6.262 2.53l-1.027-.056c.08.696-.155.922-.736.49-.314.996-1.922 1.896-2.942 1.717-.061.917-1.302 1.905-2.207 1.716-.635 1.564-2.402 2.944-3.923 3.923l-.299 1.186c-4.908 6.853-7.95 15.02-10.152 23.02l-.579.557c-1.005.318-2.373-1.601-1.226-2.207 4.323-12.065 8.138-24.444 20.1-31.02 1.951-1.074 4.011-1.917 6.073-2.753 2.596-1.052 5.457-2.111 8.149-2.761l-3.756-2.001c-2.111-1.64-3.305-3.515-3.594-6.212-.096-.883.174-2.106-.054-2.889-.059-.198-1.525-1.777-1.912-2.378-2.44-4.523-1.658-9.682.289-14.218l3.518-7.218c1.599-3.246 2.177-6.818 2.722-10.356l.336-.326c.152-2.93 1.078-6.093 1.937-8.971 1.417-4.747 3.251-9.376 5.908-13.585 2.141-3.793 7.895-9.256 12.014-10.788 2.327-1.106 4.813-1.66 7.341-2.028 2.819-.412 6.109-.652 8.841-.179z"/><path fill="#7b4c27" d="M178.706 35.796c3.798 2.694 8.037 8.414 9.807 12.75 2.298 4.952 3.585 10.368 4.659 15.69a57 57 0 0 0 3.187 10.788c.856 1.587 1.873 3.055 2.697 4.659 3.165 5.273 5.497 11.974 1.961 17.652-.478.954-2.118 2.889-2.206 3.433l-.706.196q.243 1.957-.765 1.765c-1.248-.586-.53-2.812.154-3.763 4.431-4.573 4.315-9.12 1.773-14.762-4.98-8.05-7.897-16.454-9.452-25.884-2.937-14.343-13.379-27.119-29.097-25.952l-.888-.495c.608.135.64-.596.981-.98.135-.138.269-.246.407-.246 6.159-.076 12.678 1.04 17.491 5.149zm7.601 74.534c.399-.601.907-.476.98.245q1.35.81 2.207.49c.132-.674.508-.62.736 0q.492.666 1.566.581l.292.245c-.378.753.937 1.045 1.574.893 9.04 3.155 16.388 5.845 22.27 13.894 3.268 4.47 7.095 12.933 8.868 18.224 1.186 1.069 1.23 3.053-.736 3.187l-.471-.35a158 158 0 0 0-6.448-15.314c-5.117-11.072-15.725-15.093-26.469-18.822a2.04 2.04 0 0 1-.694-.822l-9.748-3.086-.282.26c-.674 4.03-2.766 7.394-5.416 10.427.105.213.012.287-.245.245q-3.142 3.28-7.111 4.413c-.75-.051-.566-.412 0-.735 3.203-1.761 6.194-3.769 8.337-6.865-.197-.929.306-1.729 1.225-1.962.532-.777.866-1.708 1.18-2.611.394-1.142.684-2.248.978-3.41.066-.265.245-.373.542-.353-1.128-1.214.772-.684 1.574-.182l3.643 1.109q.851.58 1.645.299z"/><path fill="#b6ace3" d="M227.006 146.616c-.416.684-.772 1.287-1.226 1.961-.316.474-.657 1.025-.98 1.472a3.6 3.6 0 0 1-.106.698c-.505 1.866-5.788 7.125-7.509 8.78-1.734 1.667-7.169 6.711-9.087 7.125a3.7 3.7 0 0 1-.703.069q-.032-.981-1.219-.182l-.498-.309.366-.667c6.168-4.92 12.354-10.003 16.843-16.61l1.18-.866c.267-.404 1.123-1.03 1.177-1.63-.233-.483-.292-1.109-.442-1.557.441-.684.243 1.047.856.733.233-.118.659-.924.86-1.224 1.094.425-.154 1.557.491 2.207z"/><path fill="#7b4c27" d="M198.811 100.768c-.182 1.12.13 2.52-.059 3.741-.507 3.276-3.805 6.407-6.804 7.54.233.514 1.231.563 1.714.733-.966.811-2.013-.726-2.133-.751-.363-.078-.951.309-1.402.025l.103-.991.228-.541c3.064-.937 6.536-3.899 6.357-7.344l.525-.451c.01-.056.198-.191.228-.39.149-1.068-.336-2.839 1.243-1.571"/><path fill="#e39422" d="M136.045 110.33a41 41 0 0 1 3.124-1.241c.275 7.804 6.544 13.853 13.534 16.54l.26.392c6.07 1.753 13.394 1.221 18.388-2.697q1.335-1.473 2.942-2.697.122-.12.245-.245c2.69-3.111 4.948-6.602 5.402-10.785l10.044 3.185c6.873 2.925 14.142 4.604 19.975 9.569 7.468 6.357 10.933 16.75 14.105 25.736-4.827 7.343-11.3 13.056-18.388 18.143-.449 1.052-2.062 1.999-3.187 1.717l-.469-.508.218-4.085.496-.434-.491-.228v-20.44l.491-.294q-.468.7-1.471.49l-.143 17.023c-.963 1.407-1.681-.63-1.954-1.594-.34-1.883-.725-2.537-2.27-3.638-2.123-3.845-4.926-7.674-9-9.56-.949-.556-1.739-1.368-2.072-2.439-.508.748-5.095 1.537-5.602 1.302-.138-.064-.096-.388-.045-.604l.162-.61 4.156-.775c.726-.125.392-.833 0-1.248a16.3 16.3 0 0 1-2.964-3.099q-.046-2.262.554-4.56-.088-2.265-3.793.956c-.816.549-1.65.559-2.518.118l-3.263-1.621q-2.21-.71-.596 3.803.483 1.658-.562 1.885c-.689.265-.757-.245-.804-.865q.23-2.222-.505-1.677c-.387 2.165-2.515 2.464-4.403 2.552-.976.564-1.689.616-2.67.069-.898.949-3.234-.103-3.661-1.309-1.508.593-3.383 1.103-3.729-.957-1.527.263-2.479-.073-2.859-1l-.262-.071c-1.368-3.719-3.928-3.234-7.076-2.56-3.685.79-7.894 1.837-11.447 3.063-3.254 1.122-4.212 3.552-3.035 6.708a75 75 0 0 1 1.716 6.838l-1.241 3.623c-.591 1.41-1.552 3.099-3.305 2.977l-1.12 2.081c-3.658 1.717-6 6.426-7.532 10.07-.682 3.089-1.753 1.885-1.635-.726q.143-2.77-.368-5.276c-.034-1.415.23-3.099-.245-4.413-.189-4.897-.209-9.812 0-14.711l.039-.52q1.724-.378 1.569-1.544c.711-.552.824-.751.436-1.655-2.993 1.13-2.623-4.818.045-2.658-1.859-1.66.142-3.621 2.066-2.597q-.302-1.768.076-3.709-1.195-.342-.595-2.052c.201-.969-1.783-2.192-2.437-1.537-.93-.005-3.722-1.376-3.502-2.577q-.994.97-2.145 1.184c1.731 1.177-1.177 3.001-1.52.856q.423-1.612-1.736-.726c-.238 1.392-.848 1.571-2.157 1.196q-1.415.738-2.153.157c1.353-1.687 2.273-2.554 3.923-3.923.765 1.131 3.557-.375 2.341-1.078l-.135-.638c.966-.664 1.91-1.164 2.943-1.716l.377-.115q1.113 1.779.358-.375c2.462-1.221 5.058-1.967 7.601-2.943q.776.162.98-.49c4.144-1.547 8.398-2.92 12.504-4.413z"/><path fill="#edb586" d="M128.445 188.541a12 12 0 0 1 .245 3.678c.049.476.245 1.04.258 1.334.009.274-.434.081-.503.137-1.172.819-.608 1.145.49 1.471-.012.118.005.196.128.243.12.02.245-.01.363 0q4.905-.139 9.807-.245c1.419-.101 3.045-.152 4.413-.491 1.692-.264 3.626-.196 5.149.736.076.066.191.172.245.245.346.414.365 1.059 0 1.471a1.5 1.5 0 0 1-.245.245c-1.001.501-2.05.959-3.188.981-.765.243-1.382.53-2.206.736-1.616.561-3.445.924-5.149.98-.994.219-5.839.588-6.129.983-.832-.004-4.009.101-1.886 1.082l2.621.144c1.224-.058 2.404-.493 3.678-.49 1.606-.23 3.258-.679 4.658-.981a47 47 0 0 1 5.149-1.226c.503-.137.914-.402 1.226-.49.51-.326 1.319-.628 1.961-.49.304-.057.696-.243.736-.245 1.194-.39 2.174.257 1.726 1.593-.581 1.741-6.733 4.117-8.591 4.536-3.514 1.439-5.73 2.197-9.317 2.942-4.094.733-2.425 2.015.591 1.057a35 35 0 0 1 4.558-1.057c1.628-.507 3.106-1.096 4.658-1.716 1.015-.54 2.094-.885 3.187-1.226.094-.047.162-.201.246-.245a7.1 7.1 0 0 1 1.961-.736c.39-.176.635-.6 1.226-.49.417 1.346-.527 3.172-1.716 3.923-.17.132-.52.345-.736.49-2.459 1.302-4.972 2.513-7.6 3.433-.094.041-.167.208-.246.245a26.5 26.5 0 0 1-4.883 1.633c-1.082.223-2.349 1.108-1.138 1.302l1.608.009c1.846-.416 4.622-1.797 6.62-2.697a4.2 4.2 0 0 1 1.961-.735c.314-.16.54-.39.736-.491l2.942-1.471c.169.015.182.162.245.246q.125 1.154-.735 2.206c-.064.079-.378.383-.491.491l-2.942 1.961c-1.086.667-2.506 1.086-3.432 1.961-1.327.68-4.614 2.501-5.877 2.827-3.05.79-10.138-2.893-13.73-3.692-14.049-3.129-36.833-.777-35.815-21.088.458-9.125 4.368-18.856 6.67-27.651.128-.365.395-.49.758-.375l21.981 8.687-5.25 14.561c-1.638-1.185-3.209-2.459-5.107-3.227-.882-.358-3.383-1.182-4.212-1.182h-3.678c-.36 0-.66 1.246.037 1.452.427.125.937-.226 1.41-.204 8.012.388 9.733 4.563 15.613 8.172 1.795 1.101 3.668 1.653 5.514 2.601l.718-.257c1.005-2.018 6.279-8.481 8.706-7.598zm79.928 2.452c3.395-2.322 5.815-4.381 10.05-5.274 1.095-.23 2.746-.191 3.508-.414.669-.196.772-1.138.38-1.388-1.724-1.098-11.827 2.732-13.325 4.865-.334-.003-1.243-2.727-1.413-3.242-1.012-3.069-2.579-7.679-3.256-10.719-.073-.326-.176-.645-.102-.98l22.536-8.336c1.599 6.053 3.641 12.062 4.992 18.179 1.638 7.402 3.361 17.518-3.136 23.008-4.945 4.178-20.183 7.135-26.741 7.586-.822.056.154-.689-.226-1.221-.198-.258-.407-.317-.718-.219-.241.076-2.781 3.08-3.465 3.649-.858.713-2.515 1.892-3.547 2.214-4.882 1.515-13.071-.098-17.408-2.452q-1.589-.876-2.206-2.207c-.054-.314-.265-.728-.246-.98a83 83 0 0 1 5.149 1.716c-.012.117.01.194.128.243.093.049.252-.037.362.002a7.5 7.5 0 0 1 2.452.49c-.015.118.01.194.125.243.101.042.248-.027.366 0a16.2 16.2 0 0 1 3.677.49c.753.407 3.124.626 2.947-.593-.11-.762-1.863-.564-2.331-.635-1.503-.225-3.055-.417-4.536-.733-2.518-.262-10.798-2.719-11.582-5.141-.054-.17-.015-.341.058-.498.023-.628-.188-1.228.246-1.716q2.819.888 5.639 1.961c-.013.118.007.194.125.243.1.046.252-.035.365 0q2.953.541 5.884 1.226c1.66.279 3.173.664 4.904.735q3.11.196 1.716-1.226c-.718-.291-.799-.188-1.471-.245-.89.162-1.885.228-2.697-.245-.647-.086-1.316-.145-1.961-.245-3.232-.174-6.566-1.184-9.562-2.452-.128-.047-.297-.172-.491-.245-.605.051-1.559-.319-1.961-.736-.159-.078-.338-.161-.49-.245-3.369-1.13-2.594-4.553.951-3.778a48 48 0 0 0 5.914 1.572c-.015.117.009.193.125.242.1.044.247-.027.365 0q1.224-.18 2.207.245c.107.018.362.192.735.246q2.593-.049 5.149.49c.12.01.471.221.981.245l3.864-.211q1.052-1.407-2.695-.892l-.189-.123c-1.157-.029-2.3-.377-3.187-.49-.966.199-2.042.064-2.942-.245-.875-.125-1.812-.346-2.697-.491a8.9 8.9 0 0 1-3.187-.49c.014-.118-.01-.194-.125-.243-.099-.046-.251.032-.366 0-1.537-.13-3.557-.551-4.658-1.716-.005-.304.314-1.206.49-1.471.824-.635 1.913-1.013 2.942-.736.405-.031.819.02 1.226 0q.91-.305 1.716 0c.959.319 2.325.376 3.433.491 1.466-.086 3.07.007 4.413.49.488.027.983-.012 1.471 0 1.116-.201 2.322-.181 3.433 0q-.046-.702.98-.245.99-1.453-2.196-.836l-.297-.128q.019-1.507.284-2.959l.363-2.937c1.758.534 3.511.897 5.198 1.667.983.449 4.259 2.761 4.83 2.739 2.56-.098 6.632-3.467 8.731-4.901z"/><path fill="#f0eee9" d="M170.37 200.307c-.056.052-.877.035-1.461.38-3.104 1.842.02 4.315.422 5.934.353 1.422-.29 2.319.794 3.864.495.708 2.143 1.655 2.329 2.084.223.512.032 1.059.184 1.532.655 2.025 2.763 2.719 4.109 4.102h-37.264c-.142-.564.105-.402.309-.559 2.098-1.638 7.968-3.815 9.221-6.211.52-.993.539-2.785 1.066-3.837.268-.537.836-.811 1.136-1.316.894-1.501.512-2.685.821-4.082.277-1.256 1.841-1.344 1.314-3.622-.419-1.816-2.086-1.226-2.707-1.954-.38-.446-.419-1.674-.975-2.211-.993-.961-4.276-1.246-5.664-1.221-1.876.032-4.033.618-5.877.74-2.54.169-5.144-.098-7.684.213-.603-4.935-1.576-9.937-1.373-14.909.395-.556.65-1.287 1.447-1.25h56.66c.851-.044 1.695.929 2.1 1.679 0 6.5-.997 11.269-1.717 17.114-.373.473-1.302.375-1.874.353-3.442-.125-11.062-2.043-13.933-.469-.716.393-1.567 1.491-1.621 2.33-.024.397.29 1.27.241 1.314z"/><path fill="#e39422" d="m105.153 126.021 2.15-.672c2.359.628 1.074-.446 1.869-1.071.411-.324 2.221-.613 2.471.015.172.431-.41 2.817 1.353.995-2.52-1.483-.245-1.106.427-1.398.51-.218.618-1.145 1.9-1.061.091 1.898.201 1.221 1.152 1.748.366.203 1.094.838 1.601.907.349.047.547-.453.888-.412.123.015 1.981 1.157 2.101 1.339.603.927-.176 2.336.032 2.545.083.083.691-.152.745.14.211 1.113-.338 2.611-.262 3.417.054.591.821.8.735 1.226-.453.714-1.14-.157-1.662-.296-.924-.251-2.17.693-1.503 1.505.554.672 1.202.917-.149 1.601l-.731-.961c-1.066.669-.838 2.501.275 2.675.402.063.86-1.135 1.262.439.407 1.598-.544 1.289-.635 1.677-.051.215.27.6.101.848-.066.096-1.962.998-2.106.973-.047.216-.13.206-.245 0-.062-.012-.78-.917-.993-.083-.236.917.073 3.44.022 4.631-.25 5.664.024 11.242.233 16.91.085 2.337-.074 4.661.247 6.985q-.653.146-.708-.885l-3.193-1.723-.019-.579c-1.861-.287-3.712-1.559-4.659-3.187-5.16-3.798-9.99-8.334-13.73-13.485.25-2.033 1.038-4.077 1.712-6.012 2.282-6.536 4.965-13.323 9.322-18.751z"/><path fill="#e39422" d="M132.613 148.577a87 87 0 0 0 1.716 5.64l.606-.037c1.549 1.655 4.026 1.27 6.019.797l4.69-1.393.454.385a28.5 28.5 0 0 0 5.082-1.067c1.748-.316 6.11-1.105 6.007 1.523.115.096.677.1.819.049 1.363-.512 3.106-1.356 4.033-2.395q2.203-.827.956 2.16l-.716 3.165c.179.081.449.211.437.358-.108 1.383-.532 3.918-.878 5.261l-.542.265c-.323.437-.574.297-.711-.206l.074-2.702a21.2 21.2 0 0 0-5.872-.076q-1.791-.786-3.859.998c-.621-.056-.748-.174-1.057-.716q-1.551-.058-2.57.915-1.352-.435-2.187.473a35 35 0 0 0-4.903.579l-.542.107q-.782-.794-1.665.383c.125.176.258.4.184.51-.117.179-2.224.571-2.743.272-1.484.039-2.084.11-2.592 1.425-.963.453-2.758-1.793-2.452-2.697-.25-.633-.74-1.498-1.471-1.472q-.831.566-.632 1.163l4.712 5.801.334 1.127q.147.95-1.685.299-1.427 2.262-4.08 3.862c-1.201 1.322-2.317 2.94-1.657 4.678-1.057 2.596-.515 5.32.559 7.843q.601 1.036-.983 1.954c-2.54 1.408-3.778 3.484-5.568 5.573-.152.177.007.464-.562.312-.058-1.258.079-2.54-.004-3.796-.628-9.535-1.736-18.991-1.959-28.565.563.171.473.635.505 1.091.144 2.16-.228 4.374.353 6.509.561-.503.463-1.312.757-1.939 1.17-2.489 2.07-4.668 3.778-6.765.351-.431 2.16-2.518 2.435-2.714.488-.348 1.049-.306 1.368-.593.287-.26 1.042-2.101 1.145-2.165.218-.132.768.015 1.179-.167 1.628-.723 2.33-3.572 2.943-5.151.161-.417-.049-.892.74-.853z"/><path fill="#e39422" d="M161.053 168.927q.768-.212 1.879.564a1175 1175 0 0 0 15.468 3.143c1.581-.11 2.346-1.37 2.694-2.795l.554-.179c.312-.49.388-1.329.246-1.961-.768-.15-.53-.993.245-.736 1.326-1.074 3.344.358 2.452 2.207l.215.274q-.357.758.275 1.442c2.226-.976 5.217 1.334 6.59 3.129 1.861 2.432 1.967 4.386 1.932 7.269-.029 2.535-.289 6.196-1.49 8.351.738.174.904 1.196.078.863-.108.846-1.265.566-1.226-.245-.328-.091-1.039.176-1.209-.4l.719-5.975a12 12 0 0 1 .245-3.678c-.091-.983-.284-1.191-.736-1.961-1.017-1.557-2.618-1.687-4.388-1.743a923 923 0 0 0-20.375.027h-34.815c-.593.041-1.01.436-1.471.735-2.206.986-.93 6.91-.735 9.807-1.067-.161-1.815.248-2.697.736-.513-.319.615-.527.699-.88.125-.527-.741-2.121-.878-2.741-.145-.653-.518-3.065-.559-3.631-.042-.567.713-2.004.696-2.933-.01-.566-.456-.865-.267-1.513.049-.171 1.733-2.75 1.927-2.991.851-1.047 2.645-1.716 3.776-3.089.225-.272.269-.846.48-1.003.525-.382 1.484.557 1.969.143l.51-.162c.473.676 2.802 3.194 2.322 1.132l.355-.48-1.181-1.498q.631-.54 1.811-.027c.993-.39 2.732-1.035 3.538-.191l.594.063c.157 1.14 2.748 3.815 1.772 1.368l.329-.451c-.277-1.174.841-1.549 1.814-1.669q4.848-.148 9.633-.704l3.575.412q1.118-.746 1.809-.152.008 1.434.824 2.111z"/><path fill="#e39422" d="M189.739 164.759c.351-.299.684-.507 1.145-.564.807-1.76 1.866-.247 2.008 1.077q2.625 1.145 4.627 3.731c2.042 1.861 2.834 2.391 2.535-.963.593-.959 1.164-.106.721.64.748.416.696 1.755 0 2.206.495.057.473.302 0 .491l-1.474 22.801c-2-1.353-4.232-2.17-6.372-3.187-.625.368-1.165.223-.735-.491.002-.036.21-.137.247-.24l-1.473-.373c.213-.389.917-.571 1.093-.867.591-.991 1.113-7.731 1.113-9.185 0-3.609-2.231-6.985-5.582-8.392-.714-.299-1.655-.309-2.509-.557.657-1.826 2.254-3.928 3.587-5.453.285-.323.679-.517 1.072-.676zm13.24 8.091h-.736c.035-.809-.049-1.643 0-2.452-.718-.242-.48-.868.245-.735l.148-.537c1.51-.547 2.915-1.479 4.177-2.494l.579.089c6.615-4.274 12.784-10.293 17.408-16.672.125 1.618 4.44 11.91 4.06 12.504-.282.441-7.407 3.601-8.476 4.04-5.629 2.307-11.526 4.036-17.278 6.019-.142.037-.095.152-.127.236zm-96.6-7.846.591-.063a22.2 22.2 0 0 0 4.506 3.133l.054.608q1.471.008 3.001 1.285 1.373.452 1.903 1.412c.034.387.304 1.684-.12 1.709-8.969-3.232-18.092-6.186-26.573-10.577l3.646-9.766c2.17 2.744 5.48 6.096 8.088 8.462 1.474 1.336 3.215 2.743 4.906 3.797z"/><path fill="#d3ceeb" d="M118.145 194.18c-1.52-.287-2.859-1.044-4.146-1.858-.561-.356-3.202-2.231-3.212-2.665l5.519-15.331 1.837 19.854zm84.589-19.614c1.155 4.948 3.905 10.611 4.658 15.446-.836.545-1.625 1.158-2.452 1.717.263.772-1.005 1.591-1.716 1.225-.248.133-2.361 1.077-2.449.981.13-4.697.654-9.402.976-14.1.12-1.738.088-3.354.255-5.144.063-.684.451-.524.728-.125"/><path fill="#b6ace3" d="M112.508 167.456c.53.333 3.524 1.832 3.631 2.008.032.052.27 1.04.292 1.179.035.231-.022.498 0 .736-1.782-.598-3.32-1.719-4.903-2.697-.513-.537.331-1.54.98-1.226"/><path fill="#7b4c27" d="M171.106 205.459c-.25.541-1.02-.165-1.234-.363-.855-.802-1.674-1.905-.733-2.955 1.967-2.194 6.503 1.158 9.079.871-.022.122-.242.203-.247.24-2.141.346-5.836-2.042-7.652-1.41-2.455.856-.748 2.788.787 3.617"/><path fill="#030521" d="M117.167 156.913c-.008 1.101.032 2.212 0 3.315-.008.214.1.883-.248.486v-18.511c.079.017.167-.012.245 0-.022 4.898.03 9.812 0 14.71z"/><path fill="#7b4c27" d="M182.384 214.285c-.375.458-1.25-.002-1.714-.128-2.045-.551-4.298-1.235-6.22-2.113-1.035-.473-3.614-1.665-3.803-2.854-.056-.36.211-.51.214-.544.054.652.407 1.047.86 1.469 1.849 1.718 8.103 3.623 10.663 4.17m-43.151-6.865c-1.4.436-6.061 1.805-7.245 1.613-.258-.041-.446-.333-.586-.539-.177-1 2.14-.961 2.682-1.074l.123.243c-.753.193-2.349-.027-2.33.983 2.138-.03 4.178-.723 6.223-1.255.326-.086.932-.41 1.133.031zm0-12.259c-3.305.233-6.505.589-9.807.245l7.468-.5zm44.377 13.975c-.24.464-.858.196-1.233.135-2.612-.422-5.392-1.319-7.895-2.162-.162-.054-1.047-.187-.432-.425 2.972 1.077 6.436 1.959 9.562 2.452zm-43.397 1.962c-.247.115-.568.424-.983.61-1.101.495-4.548 1.219-5.146 1.721-1.02.856 1.635.209 1.716.613-.804.182-3.317.4-1.966-.863.64-.598 5.247-1.515 6.379-2.079zm7.846-3.678c-1.714 1.135-3.327 1.883-5.227 2.741l-2.373.692c2.52-1.163 5.043-2.349 7.6-3.433m-4.658-2.942c1.804-.738 7.684-2.856 8.395-4.477.563-1.287-.341-1.728-1.53-1.652l-.123-.251c1.407-.071 2.405.16 2.033 1.79-.393 1.719-6.056 3.896-7.738 4.526-.272.103-.875.5-1.04.064zm56.878-10.788c.035.042-.031.471.133.728.125.194.385.179.439.236.711.73-1.954 1.353-2.28.142l1.708-1.103zm-8.088-3.187c-.012.191.527.392.735.49-.831 1.206-3.65.665-1.961-.735.397.11.748.35 1.226.245m9.069-10.295c0 .838.049 1.669-.071 2.508-.056.392-.047 1.103-.662.922.083-.978-.206-2.221.179-3.126.15-.351.064-.37.554-.304m1.964 12.747c.571-.309 1.167-.854 1.716-1.226l.618.735c-.701.77-1.432 1.398-2.334.491m-1.719-17.896c-.223.956.625 3.261-.733 3.43.103-.88.052-2.003.204-2.849.083-.461-.135-.689.529-.581m-69.382 25.987c.277.026.796-.179.733.242-.505.071-3.183-.235-3.18.37 0 .738 2.751.023 3.182.613-.645.032-3.258.199-3.43-.375-.419-1.402 1.937-.922 2.695-.85m45.112 8.09 1.128-.027 4.756 1.253c-2.071-.348-3.827-.571-5.884-1.226m23.782-24.275-.365 3.188c-.728-.827-.238-2.18-.368-3.188zm-11.768 12.752c.895-.245 3.347-.689 2.207.735-.464.197-.432.211-.981.246a22 22 0 0 1-1.471-.246c-.022-.193.262-.681.245-.735m-18.143 9.317c.228-.258.054-.248.483-.14 1.664.422 3.555 1.731 5.403 1.861-.034.108-.242.201-.247.24-1.952-.387-3.837-1.145-5.639-1.961m-24.763-7.356c-1.765.481-3.376.844-5.149 1.226l4.046-1.228h1.103zm27.705 13.485c.042-.512.451-.118.657-.044 1.557.569 3.101 1.214 4.742 1.52-.035.108-.245.201-.248.24-1.782-.287-3.491-1.017-5.149-1.716zm7.355-9.071c1.604-.692 3.565.438 5.274.247l-.125.243c-1.738-.128-3.423-.238-5.149-.49m-32.608-8.582c-1.692-.755-3.367-.679-5.149-.735-.287-.01-1.03.186-.978-.243 2.214.135 4.354-.547 6.127.978m32.363 2.697c1.567-.65 3.445.321 5.146.003l-.733.488c-1.417-.076-2.976-.339-4.413-.491m-37.757.981c.632.27-.297.319-.495.36-1.153.241-2.308.496-3.465.709-.358.066-.954.375-1.186-.088 1.686-.371 3.488-.567 5.148-.981zm32.608 2.452c-.203.444-.804.113-1.132.032-.89-.226-3.514-.795-3.526-1.748 1.344 1.005 3.084 1.245 4.658 1.716"/><path fill="#7b4c27" d="M189.249 194.426c.054.993.042 1.981-.245 2.939.38.322 3.415-1.181 2.954.846-.064.277-.378.084-.503.138l-.61-.248.856-.488h-2.45c-.009-.032-.326-.11-.36-.255-.294-1.216.321-2.376.118-3.668.414-.064.228.461.242.733zm-6.62 21.33c1.331-.581 2.979.52 4.413.248.066.409-.463.233-.735.242-1.187.045-2.528-.215-3.678-.49m5.884-12.259c.9.025 2.57-.453 3.126.061 1.577 1.452-3.44 1.197-4.106 1.165.539-.596 3.587-.635 3.8-.858l.125-.12h-3.07l.128-.245zm-41.435 8.091c-1.194 1.138-1.681 1.192-2.942 1.961zm0-7.11c-1.071.544-2.118.799-3.187 1.226l1.486-.844zm29.422 11.768c-.873-.473-1.557-.647-2.234-1.596-.346-.485.034-.569.027-.61zm13.239-6.374c.091.037.368-.086.454.027.149.196-.012.882.037 1.199-.733-.02-1.476.029-2.207 0l1.964-.246v-.733l-1.226-.002.981-.243zm-10.052-7.601c-.988.63-2.354-.37-3.435-.25.027-.117.243-.201.248-.24 1.086 0 2.128.316 3.187.49m-30.892-4.903c-.68.544-2.254 1.405-3.188.98a138 138 0 0 1 3.188-.98m-.736 11.278c-.645.757-1.947 1.336-2.942 1.471.686-.353 2.197-1.53 2.942-1.471m26.724-11.033c-1.164.091-1.863.292-2.942.735.55-.821 2.126-1.382 2.942-.735m7.601 5.149c.912.13 2.023.127 2.942.245-.883.679-2.084-.086-3.06-.008zm-45.848-.981c-.966.137-1.756.164-2.697.245l-.125-.243h2.822zm52.468-3.432c.461 0 1.206-.165 1.471.245-1.082.068-2.337.029-3.433 0 .402-.432 1.351-.248 1.962-.245m-9.317 16.672c.701-.545 1.817.421 2.699.25-.029.115-.242.201-.247.24a8.3 8.3 0 0 1-2.452-.49m-3.678-17.408c.883-.549 2.195-.115 3.185-.243-.051.454-1.115.236-1.468.243-.569.012-1.148-.029-1.717 0m-47.564-3.923c-.147.123-.615.804-.49.978l1.228.253c-.037.105-.245.198-.248.24-1.365.147-1.868-1.155-.49-1.471m72.285-3.964c-.019.031-.669.316-.691.286-.235-.301.194-1.262.611-1.468.223.157.179 1.03.078 1.182zm-22.269 13.771c.486-.51 3.795.211 2.207.245-.689-.11-1.447-.056-2.207-.245m9.807 6.13c-.574.399-2.344.529-2.697-.246.959.128 1.758.165 2.697.246m-14.71-3.188-.145.204c-.736-.064-1.339-.576-2.062-.696l.245-.243c.532.26 1.363.505 1.962.735m-24.763.491c1.103-1.158 1.738-2.261 1.716-3.923.932.171-.361 2.949-.846 3.449-.375.385-.718.356-.87.474m-1.226 4.168.735-2.207c.736.959-.252 1.616-.735 2.207m1.716-7.601c-.635.289-1.206.763-1.961.736.465-.255 1.549-1.295 1.961-.736m-4.904 7.11c-.708.358-1.409.488-1.961.736.434-.326 1.596-1.246 1.961-.736m5.149-12.013c-.581.11-1.38.326-1.961.49l-.245-.243c.728.123 1.662-.843 2.206-.247m-.49-1.471v-1.471c.147.203.569.132.505.853-.044.51-.414.49-.505.618"/><path fill="#543424" d="M159.828 31.873c10.562.005 16.637 1.954 23.287 10.425 8.024 10.226 6.918 19.774 11.033 30.892 2.684 7.258 10.849 15.138 5.796 23.442-1.359 2.23-3.335 2.849-2.607 6.097-.098.621.057 1.216-.12 1.967-.652 2.763-4.214 5.938-6.99 6.369-.201.032-.517.015-.735 0q-.986.277-2.207-.49c-.316-.083-.677-.159-.981-.245l-.257.181a222 222 0 0 1-8.309-2.738c-2.687-.952-2.793-5.125-1.714-7.302 3.369-4.124 5.404-9 6.838-14.183 8.51.174 12.563-20.774 1.461-18.026l-.431-.088c-.191-2.734-.405-3.972-2.577-5.757a278 278 0 0 0-11.335-8.2c-4.604-3.056-7.975-7.003-10.785-11.52-2.16 4.5-5.769 7.971-9.797 10.982a248 248 0 0 0-13.627 10.153q-.99 1.795-.912 4.08l-.361.569c-2.576-.704-4.543-1.177-6.021 1.72-2.329 4.568.331 15.864 6.693 15.653l.64.382c1.025 5.318 3.072 9.927 7.049 13.715 2.444 3.928-.797 7.795-4.852 8.422-2.006-.09-6.184 2.474-8.459 2.477-1.314 0-5.389-2.035-6.357-2.984-2.673-2.621-1.194-5.1-1.964-7.598-.235-.765-1.559-1.594-2.06-2.354-4.126-6.276.765-14.046 3.605-19.61 2.839-5.562 2.888-12.776 4.575-18.716 4.935-17.386 13.364-27.72 32.481-27.71z"/><path fill="#7b4c27" d="M138.007 108.368c1.307-1.299 3.69-1.517 4.629-3.339.382-.745.667-3.033.458-3.835-.196-.755-3.214-3.692-3.962-4.861-.838-1.312-2.096-3.784-2.606-5.24-.297-.848-.875-4.259-1.084-4.555-.294-.417-1.373-.157-1.917-.29-5.597-1.355-8.947-14.443-3.977-18.086 1.721-1.26 3.006-.768 4.779 0 .245-1.518.024-3.45 1.091-4.671 6.612-5.97 17.395-11.178 22.151-18.793.42-.672.886-2.535 1.643-2.535.598 0 2.339 3.305 2.861 4.014 4.269 5.796 12.169 10.133 17.837 14.526 2.663 2.065 4.754 3.332 4.19 7.211 3.197-1.317 5.879-.049 6.98 3.195 1.672 4.93-1.385 15.647-7.924 15.475-.885 3.8-2.39 7.765-4.496 11.072-1.942 3.051-3.144 2.845-2.624 7.128.182 1.5.721 1.991 2.05 2.608 2.047.952 6.014 2.31 8.221 2.935-.498 1.079-1.155.074-1.717-.122-1.233-.429-2.461-.635-3.675-.981-.399-.113-1.172-.785-1.436-.566-.091.073 0 .414-.035.443q-.274.802-.939-.071l-.532.071c-.875.572-2.376-.787-2.962-1.522-.848-1.067-.988-2.484-1.051-3.81-9.253 7.583-19.948 7.257-28.944-.464-.174 1.344-.556 2.717-1.439 3.781-.544.657-1.704 1.893-2.383 1.035-1.952-.108-.78 3.344-.363 4.533a17.8 17.8 0 0 0 4.041 6.5.744.744 0 0 1 .98.98l1.472 1.226c.706-.296 1.064-.022.98.736 2.957 1.841 6.184 3.273 9.692 3.297 1.069-.046 1.29 1.111.378 1.114-8.981.039-18.761-7.836-19.114-17.035a1.9 1.9 0 0 1-.518-.863c-.225-.069-.696-.243-.735-.246z"/><path fill="#7b4c27" d="M138.742 108.614c.285.085.564-.03.699.402.228.733.12 2.39.402 3.523 1.834 7.367 11.153 14.183 18.759 13.725-.228-1.199-1.415-.616-2.506-.802-3.143-.534-5.247-1.608-7.792-3.364l.822-.135c8.355 4.96 19.185 3.45 25.461-4.165l.93-.358c-2.138 3.094-4.735 5.44-8.337 6.865q-1.085 1.07 0 .735c2.035-.735 3.708-1.642 5.402-3.057.627-.525.706-1.366 1.709-1.356-.996.998-1.741 1.854-2.942 2.697-5.105 3.938-12.291 4.445-18.389 2.697-4.705-1.765-9.135-5.131-11.722-9.486-1.289-2.17-2.228-4.629-2.255-7.183-.944.399-1.986.632-2.94.98l2.057-1.02.64-.696z"/><path fill="#e39422" d="M114.96 118.175c.299.297.689.059.76.601.054.402-.407 1.832.098 1.844.895.024 1.059-2.646 2.575-1.707-.876 1.079-1.089 1.545-.736 2.938-.608-.432-2.437-.196-2.697-.353-.99-.601.304-2.18-.735-2.832.213-.113.416-.334.735-.491m-3.678 2.207c1.118.606 1.403.873.366 1.959-.974 1.02-1.594.544-2.817.49l.245-.733c.74-.615 1.41-1.167 2.206-1.716m11.279-5.149c.284-.11.613-.353.98-.49.425.767-.412 1.209-.98.49"/><path fill="#edb586" d="M141.194 108.123c.243-.132.593-.108.966-.375 1.876-1.341 2.31-3.327 2.469-5.509 4.05 3.271 8.454 6.25 13.84 6.63 6.137.433 11.288-2.509 15.944-6.142.088 3.565.326 4.832 3.558 6.377.22-.164.718-.128.887.061.39.434-1.512 5.549-2.113 6.314a23 23 0 0 1-1.226 1.961c-4.943 6.223-12.009 8.929-19.911 7.529-2.734-.485-4.879-1.647-7.304-2.871-.336-.23-.652-.493-.98-.735l-1.472-1.226c-.468-.38-.6-.51-.98-.981-1.746-1.799-3.205-4.062-4.021-6.441-.446-1.297-1.564-4.607.343-4.592"/><path fill="#7b4c27" d="M174.538 120.382c.834-1.385 1.976-2.528 2.8-3.942 1.221-2.097 2.283-4.644 2.349-7.091l10.297 3.433-9.804-2.943c-.787 4.286-2.692 7.476-5.642 10.543m-7.355 3.923v.735c-2.579.932-4.602 1.27-7.358 1.371-.451.017-.694.078-.735-.51.492-.412 1.321.115 1.799.044 1.601-.238 4.735-1.022 6.294-1.64"/><path fill="#7b4c27" d="M179.442 109.104c-.924 1.849-1.175 3.989-2.158 5.82-.184.344-.515.508-.539.555.257-1.042 2.314-5.443 1.856-6.145-.155-.237-.481-.159-.63-.23.26-.638 1.41.049 1.471 0"/><path fill="#b6ace3" d="M107.85 164.269a77 77 0 0 0 4.658 3.187l-.98 1.226c-1.525-.942-4.058-2.293-5.149-3.678-.191-.24-1.076-1.079-.363-1.226.785-.161 1.182.957 1.834.491m99.542 2.452c-.812 1.012-2.344 1.608-3.356 2.405l-1.548.537c.02-.488-.014-.983 0-1.471-.218-.047-.208-.128 0-.246 1.094-.536 2.087-1.176 3.188-1.716.635-.311 1.351-.524 1.959-.98.14.737.223.89-.243 1.471"/><path fill="#e39422" d="M152.717 134.602c1.038 1.158 2.518-.031 3.278.711.559.55-.468 1.435 1.722 1.226.48-.046 1.441-.495 1.723-.429.348.084.456.741.743.959.395.299 1.439.434 1.944.951.942-1.314 1.297-.169 2.222-.23.409-.027.794-.407 1.255-.481 1.348-.208 2.334.076 3.538-1.12.377-.375.297-1.018.551-1.288.172-.181 1.047-.404 1.168-.301.416.36-.15 2.677.492 3.187q.614.5-.394 1.15-4.016 2.57-1.636 3.143l3.394.366q2.438.79 3.508 3.905c.473.907.807 1.05 1.405.177l1.302-2.751q.482-1.298 1.248-.839c.35.376.74.118 1.137.049.964-.169 3.381-.384 4.007-.909.389-.329.384-1.292.86-1.096.625.257.02.976.235 1.459.895 2.01 3.369 2.366 4.245 3.258 1.252 1.277 2.927 2.677 4.094 4.117.865 1.069 1.856 3.533 2.969 4.633.358.354.934.398 1.108.667.393.608.535 2.254 1.148 3.462.284.559-.4.966 1.037.79l.245-16.917c.78.198.748 2.674 0 2.942.194 2.287.213 4.58 0 6.865.777 5.391.726 11.067-.245 16.426h-.245c-.015-.272.169-.799-.243-.733-.098 1.425.65 3.408-1.53 2.891-.375-.088-1.863-1.52-2.273-1.91-1.113-1.066-1.868-2.233-3.322-3.06-.289-.164-.838-.061-.939-.157-.078-.076-.135-1.708-.89-1.932l-.385.971-1.451.008-.275-.466c5.512-8.307-3.016 2.758-4.009 4.423l-.865.458-.488-1.843-1.964-.363-.466-.515a60 60 0 0 1 1.668-7.321c.657-3.237.436-4.21-2.702-5.031-3.918-1.025-8.689-2.008-12.725-2.472-1.952-.223-3.521-.159-4.092 2.048l-.971 3.636-.571.095c-.066-1.687.676-3.27.98-4.901-1.385-.451-1.475.812-1.966 1.096-.333.194-.836.081-1.201.27-.667.341-1.329 1.022-2.096 1.101-2.016.208-1.003-1.197-1.587-1.623-.368-.27-4.484-.39-5.212-.304-1.16.137-2.7.745-3.913 1.012-.358.079-.949.38-1.184-.083l.134-.54 4.85-1.152c3.153-.848 4.796-1.5 4.139-5.063a119 119 0 0 0-2.842-10.307l.338-.591a14 14 0 0 1 0-1.716z"/><path fill="#feecba" d="M180.177 142.938c-1.297.78-1.846 5.463-3.68 4.543-.735-.367-1.87-3.721-2.846-4.271-1.123-.632-5.08-.205-5.617-1.247-.873-1.7 2.679-2.94 3.314-4.173.871-1.692-1.762-5.392 0-6.26 1.224-.603 4.45 2.146 5.725 2.028 1.511-.14 3.573-3.156 5.066-2.268 1.213.723-.491 4.242-.204 5.585.336 1.564 4.394 3.18 3.276 4.847-.41.611-4.006.596-5.039 1.216z"/><path fill="#7b4c27" d="M201.263 142.448c.345-.64.796-.527 1.471-.49v20.962c0 1.422-.187 3.452-.246 5.026-.002.081-.211 4.717-.211 5.717s-1.189-1.691-1.5-2c.201-5.475.486-13.911.486-19.408.156-2.27.291-4.646 0-6.865z"/><path fill="#e39422" d="M152.717 134.602c.157.559.474 1.226 0 1.717l-.554-.16c-.735-3.278-1.625-4.393-5.107-3.842-3.042.481-11.749 2.415-14.178 3.918-1.189.736-1.9 1.895-1.743 3.317l3.596 14.257-.402.407c-1.191-1.586-1.216-3.77-1.716-5.639-.584-2.169-2.462-7.541-2.454-9.441.01-2.376 2.223-3.783 4.17-4.411 2.271-.731 5.198-1.439 7.549-2.013 1.52-.37 5.267-1.505 6.551-1.496 1.888.018 3.788 1.604 4.288 3.386m-28.197-7.845-.241 1.961c.498-.326 1.751-.463 1.682.326-.11 1.28-1.088.66-1.579.677-1.152.037-.73 2.226-1.449 1.937-.924-.37-.478-2.332-.137-3.031.184-.38.956.167.745-.644-.353-.008-1.677.502-1.709-.123-.002-.059.456-1.057.506-1.091.139-.103 1.674.444 2.184-.012z"/><path fill="#eaa02d" d="M152.963 126.021c6.342 1.341 12.933 1.133 18.388-2.697.532.15-.346.574-.459.645-5.278 3.251-12.084 4.246-17.929 2.052"/><path fill="#e39422" d="M119.126 142.205c-.165 1.126-.395 1.682.485 2.575-.581.747-.488-.008-.701-.211-.804-.768-.412 1.343-1.25 1.559.112-1.407-.645-3.861 1.466-3.92zm2.172-18.177c-.321.583-2.538.824-2.631-.292.133-1.579 3.197-.735 2.631.292m-.206 12.045c-.275-.188-.284-2.02.36-1.713 1.038.495.505 2.312-.36 1.713m-7.115-16.669c.329 1.846-2.356 1.483-1.223.368.279-.275.828-.405 1.223-.368m11.771.98c-.181 1.778-1.375 2.102-1.226 0zm-4.416 21.326c-.353.13-1.468-.368-1.463-.61.007-.528 1.946-1.067 1.463.61m-2.447-20.595c-.105-.105-.235-1.292.608-.976.944.351-.205 1.381-.608.976m10.538-8.086c.395.368-.762.988-1.223.733-.38-.566 1.086-.863 1.223-.733m-15.444 9.072c.04.049-.014.336 0 .485h-1.223c-.38-.667 1.03-.735 1.223-.485m8.089-6.377c.152.162-.054.858-.37.978-.851.324-.094-1.476.37-.978"/><path fill="#feeec9" d="M152.717 136.318c.903 3.141 2.754 8.709 3.126 11.713.148 1.189-.085 2.241-.921 3.118-1.268 1.334-6.782 2.295-8.824 2.822-3.477.898-9.214 3.646-11.769.245l-3.678-14.59c-.25-2.3 1.364-3.793 3.379-4.462 2.349-.782 12.72-3.622 14.647-3.521 3.123.162 3.388 2.405 4.04 4.678z"/><path fill="#fee4af" d="M182.139 166.966c-.265.206-.189.483-.245.735.171.625.044 1.417-.246 1.962-.456 1.824-1.203 3.327-3.307 3.452-4.798-1.454-10.643-1.616-15.331-3.082-.919-.287-1.226-.557-1.956-1.108-.366-.098-.959-1.643-.993-1.959-.072-.65.544-3.543 1.238-3.68l.98-5.885c1.302-2.915.417-6.592 4.747-6.345 3.128.179 8.954 1.542 12.22 2.248 2.086.452 4.839.694 4.874 3.48s-1.932 7.115-1.981 10.177z"/><path fill="#e39422" d="M140.213 162.553c.383-1.006 1.256-.618 2.028-.792 1.275-.287 2.089-.118 2.726-.243.319-.064.498-.64 1.011-.687.377-.034.789.307 1.174.214.321-.076.61-.623.973-.768.363-.144.765.093 1.212.022.5-.081 1.012-1.181 1.176.537.329.314 2.305-1.458 3.021-1.412.387.025.775.378 1.26.392.486.015 1.079-.245 1.729-.228 1.463.04 3.042.346 4.528.268.287 1.037.01 1.885-.02 2.824-.017.554.27.574.268.606-.128 1.743-1.469 3.925-.245 5.639-.015-.01-.133.279-.351.022-.36-.429-.667-1.903-1.013-1.979-.279-.061-.774.454-1.221.483-.926.057-2.684-.402-3.454-.409-.895-.01-2.047.377-2.913.412-1.611.063-6.943-.059-7.961.62-.292.194-.458.623-.74.853a.8.8 0 0 1-.334.052c-.333-.037-2.77-5.12-3.086-5.877zm-7.355 2.696c-.571-1.78 1.194-1.809 2.574-1.912.78-.059 1.484.667 2.21-.537l.164.441c.113.025.184-.201.201-.196a.9.9 0 0 1 .284-.188c.341-.123 2.445 3.942 2.695 4.589l-.282.503-2.55.27c-1.15.811-1.459.208-2.599-.023.427.584.711.729.981 1.469-.174.091-.442.226-.547.125-.485-.444-3.565-3.793-3.518-4.06.039-.218.211-.368.387-.481"/><path fill="#feecba" d="M128.935 161.081c.67-.085 1.251.861 1.471 1.472.78.926 1.417 2.02 2.452 2.696.066.209.049.447.233.616l3.445 3.798c.355.975.497 1.858-.851 1.721-.525-.054-1.871-1.694-2.337-2.212-1.914-2.128-3.564-4.535-5.46-6.688-.34-1.363-.049-1.339 1.047-1.403m11.278 1.472c.638.914 2.697 5.185 3.188 6.374.25.606.929 1.378 0 1.844-1.192.593-2.143-1.873-2.697-2.825-.383-.652-2.423-4.827-2.697-4.903-.066-1.518 1.473-1.542 2.206-.49"/><path fill="#e39422" d="M130.406 162.553c-.446-.53-.85-1.118-1.471-1.471.03 0 .135-.238.324-.204.397.074 1.316 1.135 1.147 1.675"/><path fill="#feecba" d="M189.739 164.759c-1.427 2.084-3.047 4.178-4.658 6.13-1.361-.395-1.253-.452-.49-1.717 1.603-2.662 3.962-5.278 5.744-7.863.432-.409 1.383-.331 1.373.378-.005.267-1.645 2.599-1.969 3.072"/><path fill="#eaa02d" d="M181.894 167.701c.615.557-.113 1.506-.003 2.207l-.243-.245c.125-.498.108-1.346.246-1.962"/><path fill="#edb586" d="M183.139 70.346c.748.51 1.861-1.194 2.614-1.39 3.609-.939 4.413 3.854 4.227 6.433-.197 2.759-2.293 9.516-5.762 9.472-.856-.01-1.425-.863-1.962-.277-2.187 9.584-7.002 17.799-16.48 21.521-11.372 4.465-24.932-5.808-28.191-16.559-.282-.93-.78-4.308-1.169-4.722-.39-.415-1.464.08-2.209.022-4.647-.363-7.66-12.372-4.053-15.343.63-.52.961-.677 1.817-.594 1.912.184 3.157 3.175 3.765-.198.447-2.477-.389-3.215 1.8-5.065 4.578-3.87 10.079-7.037 14.694-11.05 2.63-2.288 5.048-4.801 6.982-7.724 5.826 8.41 15.118 13.166 22.819 19.592.831.836.488 5.463 1.103 5.882z"/><path fill="#7b4c27" d="M141.194 108.123c-.309.169-.647.466-.988.63.316 1.216.383 2.457.736 3.668.676 2.329 2.454 4.906 3.93 6.735-2.55-1.885-5.421-7.789-4.909-10.893.052-.306.937-.074 1.231-.14m6.13 13.24c-.412-.307-1.212-.451-1.471-1.226.333.272 1.257.463 1.471 1.226"/><path fill="#e39422" d="M201.262 152.255v-6.865c.407.255.246.929.251 1.346.019 1.77.183 3.835-.251 5.519"/><path fill="#f1c87e" d="M142.418 139.506c.728-2.999 4.761-4.563 6.757-1.726 2.066 2.939.022 7.407-1.749 10.04-.402.598-2.145 2.893-2.689 2.971s-3.545-1.505-4.202-1.919c-.763-.483-2.151-1.511-2.778-2.126-4.659-4.563-1.528-10.663 4.661-7.238z"/><path fill="#ebbb6b" d="M168.088 154.508c.426-.132.953-.066 1.397-.022 1.984.196 7.137 1.187 9.037 1.751.616.184 1.229.547 1.153 1.25-1.018 3.085-1.153 6.877-2.155 9.886-.429 1.285-.8 1.13-2.057.995-2.102-.225-7.24-1.199-9.18-1.853-.831-.28-1.123-.366-1.052-1.354.133-1.853 1.452-7.635 2.067-9.481.152-.458.26-1.007.79-1.172"/><path fill="#7b4c27" d="M168.575 91.868c-.223.262-1.586 1.15-1.963 1.341-4.195 2.143-12.036 2.405-15.834-.677-.395-.32-1.716-1.51-.61-1.807.326-.088 3.202 1.555 4.033 1.82 3.3 1.049 7.652.904 10.866-.393.628-.252 2.805-1.689 2.976-1.689.721 0 1.038.819.535 1.405z"/><path fill="#543424" d="M166.879 62.584c1.893-.294 5.033-.164 6.87.355 1.218.346 4.396 1.557 3.932 3.082s-2.361-.174-3.15-.431c-2.722-.89-6.399.228-8.586-.486-1.481-.483-.922-2.233.936-2.523zm-13.978.486c.476.468.285 1.365-.193 1.772-.959.811-5.813.172-7.446.397-1.126.155-4.156 2.273-4.458.728-.301-1.544 3.769-3.074 5.036-3.339 1.268-.265 6.179-.434 7.064.439z"/><path fill="#7b4c27" d="M155.167 80.908c.137.091.137 1.93 1.01 2.793 1.449 1.434 4.063 1.28 5.786.444.613-.297 1.319-1.462 2.035-.667 1.01 1.123-2.199 2.609-3.123 2.766-2.352.4-6.292-.282-6.873-3.063-.176-.843.12-2.969 1.165-2.273"/><path fill="#3d2b21" d="M169.698 77.165c-1.103-1.035-.6-6.296 1.229-6.032s1.88 5.561.422 6.22c-.471.214-1.275.165-1.648-.186z"/><path fill="#3c2a21" d="M148.478 71.42c1.013.863 1.219 5.122.074 5.69-3.859 1.915-2.807-8.02-.074-5.69"/><path fill="#7b4c27" d="M155.819 97.603c.456-.143 2.881.738 3.886.735.878 0 4.288-1.41 4.031.074-.28 1.618-6.853 1.713-8.081.524-.39-.377-.373-1.164.164-1.333m-24.52-25.499c2.3-.723 4.521 6.654 3.15 7.086-.448.142-.598-.066-.806-.415-.709-1.179-.773-3.287-1.797-4.822-.182-.275-1.913-1.42-.545-1.851zm55.425.017c.777-.223 1.243.216 1.015 1.015-.098.336-1.118 1.182-1.479 1.964-.451.981-.569 4.208-1.782 3.845-1.383-.412.615-6.353 2.248-6.824z"/><path fill="#3a3161" d="m0 150.135.887 1.251c1.455-.784 3.073-1.534 4.869-2.275a244 244 0 0 0 15.037-5.854c2.155 11.8 15.37 18.133 26.479 15.794 4.751-1 10.162-4.859 11.006-9.878.25-1.486-.044-4.394-1.962-2.785.213 9.988-11.616 12.793-19.526 10.405-6.72-2.028-13.377-6.946-14.166-14.201q1.683-.38 2.143-1.437c1.13.042 1.052-1.522-.245-1.225C18.32 142.794 7.755 145.997 0 150.135"/><path fill="#2b2724" d="M17.654 122.272c.606.221.875-.392.736-.981l.453-.414c-.198-5.556 4.703-4.764 7.057-1.067l.58.008c.626 1.027 2.163.838 1.842-.498-.123-.505-3.038-3.303-3.6-3.651-2.826-1.748-6.698-.917-7.764 2.425-3.106-7.846-4.649-16.005 1.341-23.152 7.174-8.56 23.319-11.288 32.008-3.92a35.2 35.2 0 0 1-8.942 1.228c-6.252.738-17.29 2.832-14.23 11.501 1.471 3.962 2.371 7.356 1.331 11.607-.34 6.737 4.745 12.487 11.131 14.049 3.07.75 4.44-.008 6.262-2.489 3.842-2.364 10.02-4.443 14.51-2.94.343.116 1.937.758 1.966.861.147.515-.01 4.251-.061 5.146-.13 2.268-.28 4.256-1.103 6.409-3.654 9.545-23.334 6.537-28.073-1.027-.584-.689-1.984-1.444-1.711-.103-.746.718.992 3.376 1.961 2.942.711 1.947 3.3 3.173 5.183 3.999 4.345 1.902 9.27 2.405 13.968 2.179l.708-.539c.378.684.782.38 1.216-.123.601.162.934.054.99-.612 1.58-.496 2.639-.633 4.046-1.717 6.034-4.651 4.276-14.45 4.29-21.085l-.55-.042-.05 2.712-.38.272-.162-.574a15.3 15.3 0 0 0-4.496-1.297c1.581-1.588 1.133-3.876-.162-5.496q-3.044-2.795-3.982-6.402c-3.44-.459-.414 4.425.726 5.764 2.015 1.876 4.166 4.124.473 5.772l-.12.514q-.233-.774-1.775-.49-1.787-.303-2.516.49-.692.067-.458 1.185c-3.234.743-5.862 2.395-8.047 4.739-6.146.208-11.361-5.085-11.538-11.148.61-4.879.067-9.165-1.716-13.804-.547-2.314-.615-3.307 1.376-4.66 4.614-3.136 10.238-3.605 15.669-3.774 1.846-.189 3.751-.42 5.391-1.336l.057-.623q.842.356 1.47.245c-1.095-.777-1.112-2.133-1.826-2.954-1.267-1.459-5.105-2.847-6.995-3.303-15.223-3.665-32.807 5.164-31.382 22.557.429 5.249 2.841 9.088 4.898 13.612z"/><path fill="#3a3161" d="M55.414 143.112h-.003c-1.868.439-1.01 1.366-.549 1.557a490 490 0 0 0 14.711 5.806c2.65.87 4.847 1.871 6.65 3.374 1.09.245.991-.874 0-1.594-5.885-4.536-14.466-5.884-20.809-9.143"/><path fill="#4a3929" d="M18.39 121.291c.171.858-.42.187-.476.25l-.26.731c1.24 2.726 1.167 4.783 4.048 6.862.628.454 1.388.559 1.827.871.568.404 1.007 2.677 1.164 3.494.209 1.081.564 3.074.572 4.106 0 .277-.211 2.209-.277 2.302-.067.094-.378-.026-.466.015.98.405.255.937.245 1.226-1.067 1.143.088 3.744.821 5.043 4.651 8.273 20.96 13.264 27.404 4.539 1.947-2.635 1.41-6.198 1.287-7.056l-1.104.123c.368 2.819-.277 4.487-1.716 6.006l-.735.736c-6.642 6.85-23.8.443-24.2-8.82.327-3.658.38-7.252-.82-10.841 1.076.039 2.99-.444 3.292-1.638.137-.544-.142-1.633-.794-1.483-4.342 3.454-8.628-2.018-9.273-6.164l-.537-.299z"/><path fill="#463024" d="m51.489 92.115.267.895c2.694 2.525 4.514 5.796 5.852 9.204-5.046.787-6.632 6.872.189 3.405l.758-.071 1.02 5.779q2.54 5.34 2.728 11.099l.464.827c.218.071.412.331.733.245.046-.858-.06-1.734-.008-2.594.02-.319.255-.562.255-.593.044-3.663-1.772-6.24-2.682-9.455-.559-1.968-.62-4.31-1.1-6.254-.93-3.737-3.752-10.055-7.003-12.244-.196-.133-1.037-.728-1.103-.73-.15-.008-.277.42-.368.485z"/><path fill="#9387cc" d="M54.279 146.126c-.368 4.045-5.5 8.338-10.298 8.725-7.33.591-19.476-5.296-19.214-13.698l-.003-.002-3.19 1.348c1.018.505.864 2.17 1.285 3.376 2.32 6.644 11.016 11.57 17.751 12.161 7.044.615 16.336-2.756 16.081-10.955-.041-1.331 1.172-.924 1.192.812.054 4.688-4.705 8.704-8.78 10.118-10.871 3.776-26.197-2.966-27.774-15.027-.044-.338.14-.426-.36-.36-7.322 3.487-14.65 5.211-20.512 8.349 0 0 11.651 23.225 43.524 21.264s32.613-18.427 32.613-18.427c-6.137-4.587-15.549-6.542-22.286-9.958.02.349.09 1.117-.03 2.274"/><path fill="#4c3e36" d="M31.384 135.266c.253-.566.706-.112.993.113.846.667 1.505 1.908 2.437 2.712 6.355 5.475 23.375 7.87 26.913-1.778 1.341-3.66 1.03-7.826 1.008-11.678-2.258-1.576-4.928-1.865-7.623-1.559-2.013.231-7.556 1.952-9.14 3.119-2.11 1.557-1.6 3.224-4.903 2.939-6-.517-11.472-5.95-12.112-11.913-.243-2.277.605-4.884.463-7.08-.191-2.974-3.3-8.268-1.98-11.303 1.684-3.874 8.887-5.453 12.675-5.958 3.528-.468 7.26-.17 10.62-1.515.766-1.101-4.037-3.308-4.836-3.594-14.03-5.049-33.462 3.334-32.168 20.153.18 2.337 2.075 9.503 3.303 11.408.076.118.314.319.368.243-.358-3.783 3.922-5.325 6.901-3.589.576.335 3.631 3.28 3.636 3.714.005.552-1.21.13-1.466.12l-.117.88a107 107 0 0 1 3.586 12.119q.277 1.748 1.437 2.447z"/><path fill="#916045" d="M51.489 92.115c-2.626 1.903-9.241 1.479-12.602 1.986-2.499.378-10.698 2.871-10.698 5.975 0 3.219 1.859 6.397 2.187 9.349.513 4.616-1.262 7.137 1.123 11.871 1.734 3.44 5.002 6.022 8.895 6.551 2.935.4 2.13-.098 3.732-1.535 2.246-2.015 5.195-2.922 8.096-3.552-.054-.476-.974-.214-1.327-.466-.289-.206-.108-.481-.144-.758h4.29c.675 0 2.428-1.365 2.57-2.091.448-2.283-1.766-3.406-2.896-4.94-.58-.79-3.207-4.955-1.025-4.74-.184 4.122 6.297 6.319 4.678 10.44-.382.976-1.331.897-1.486 1.822 1.928-.584 4.063.632 5.882 1.226.13-2.462-.203-4.948-.907-7.307-.439-1.468-1.3-2.937-1.721-4.408-.574-2.006-.701-4.161-1.157-6.198-.954-1.395-4.688 2.417-5.271.348-.403-1.429 3.41-3.219 4.64-2.905-1.487-4-3.579-7.875-6.862-10.668z"/><path fill="#926145" d="M18.39 121.291c.434 3.629 3.361 8.231 7.47 8.101 1.089-.034 2.472-1.331 2.58-1.236.588.52-.187 1.501-.753 1.817-.878.488-1.768.299-2.68.515a22 22 0 0 1 1.226 5.884c.262 4.212-1.304 6.409 1.515 10.254 4.803 6.546 17.864 10.368 23.74 3.351l-.497-.498c-7.078-.635-14.583-4.739-17.645-11.27-1.187-1.177-1.32-1.496-1.962-2.943-2.079-4.69-2.64-11.04-4.903-15.446-.36-.703-1.999-2.412-2.715-2.802-3.545-1.939-5.813.632-5.376 4.273"/><path fill="#7f4c33" d="M51.489 149.977c.765-.912 1.39-1.697 1.716-2.942.297-1.13.294-2.055 0-3.188-6.693.52-14.924-.752-19.86-5.639-.4.456-.08.638.074 1.015 2.408 5.833 11.877 10.796 18.07 10.754"/><path fill="#926044" d="M59.58 127.421c-.099-.165-.243-.388-.398-.363-.26.039-3.697 1.535-4.008 1.733l-.13.591-.275-.49h-4.528l-.346.49c.027-.838-2.204-1.177-2.33-.245.01.103-.288.659-.264 1.096.306 5.507 9.817 5.283 12.139 1.829.642-.956 1.196-3.168.84-4.249-.134-.412-.649-.338-.7-.395z"/><path fill="#2d2723" d="M47.566 129.137c.728-.258 1.868.245 2.329.245h5.149l4.535-1.961c-.046-.049.422-.947-.608-.979-.402-.012-2.05 1.165-2.755 1.413-.628.223-1.525.446-2.183.514-1.944.204-5.033-.612-6.553-.178-.834.237.074.816.086.943z"/><path fill="#37312e" d="M48.032 106.357c-.599-.855-4.512-.475-5.541-.071-1.104.434-4.526 3.19-2.77 4.105.798.416 1.35-.785 1.975-1.221 2.155-1.506 3.516-.662 5.39-1.231.583-.177 1.323-1.042.943-1.584z"/><path fill="#39302d" d="M58.295 112.404c.993-1.011-.221-4.235-1.758-3.107-1.354.993.28 4.61 1.758 3.107"/><path fill="#38312e" d="M44.683 115.101c1.561 1.581 3.346-2.469 1.235-3.082-1.91-.557-1.888 2.42-1.235 3.082"/><path fill="#482e1f" d="M20.599 120.063c.103.137 2.437.012 3.082 1.226.242.453-.523.927-.626 1.613-.213 1.398 1.324 4.394 2.697 3.423 1.04-.736-.77-1.192-1.13-1.582-1.65-1.782.537-2.447.625-2.863.108-.498-2.402-2.609-3.118-2.749s-1.937.39-1.53.932"/><path fill="#352921" d="M50.508 132.322c.365.529 3.692.804 4.477.679.784-.125 3.393-1.224 3.123-2.266-.252-.975-1.397.439-1.787.66-1.157.657-2.106.792-3.42.62-.515-.066-1.92-.672-2.028-.664-.262.017-.502.767-.365.971"/><path fill="#b6ace3" d="M219.161 71.347c.338.385.649.826.98 1.226 4.779 5.744 8.184 11.469 11.033 18.388.079.191.191.355.245.49.677.42 1.109 1.616.981 2.452 1 2.832 1.68 5.764 2.43 8.669 5.97 1.06 6.644 9.66.537 10.97.76 12.033-2.138 22.884-8.361 33.074-.958.172-.716-.841-.471-1.493l-.019-.714c4.565-6.791 7.277-18.238 7.367-26.344.01-.973.111-3.337-.259-4.119-.128-.27-1.876-.716-2.423-1.069-4.165-2.709-2.461-8.694 1.89-10.189-2.226-10.472-6.98-20.076-13.688-28.397-.843.098-1.714-.897-1.471-1.716-5.524-6.333-11.327-10.84-18.56-15.152-.853-.51-6.325-3.266-6.406-3.626-.064-.287.323-.922.206-1.33 9.78 4.282 18.94 10.835 25.986 18.88zM97.062 74.044c-.368.735-.506.858-.98 1.47-4.698 6.074-7.966 11.875-10.61 19.18-.549 1.52-2.373 6.599-2.15 7.905.14.817 1.538.957 2.23 1.467 1.808 1.343 2.372 3.778 1.926 5.869-.524 2.459-2.822 4.296-5.372 4.07 0 .978.005 1.964 0 2.942-.414.275-.647.167-.76-.299q-.437.834-.956.299c-.044-.848.191-2.542-.12-3.19-.267-.551-1.334-.696-1.765-1.056-.432-.361-1.297-1.969-1.479-2.565-.853-2.805.415-5.595 3.02-6.897.405-.201 1.183-.225 1.283-.311.17-.142.623-3.094.78-3.636 2.481-8.66 7.468-18.64 12.994-25.744.375-.483.827-.998 1.226-1.47 5.708-6.763 13.1-12.314 20.835-16.555 1.435-.787 6.1-3.384 7.358-3.69.812-.199.902.08 1.199.8.069.323-.172.39-.373.534-2.101 1.52-5.462 2.787-7.855 4.16-8.044 4.612-14.527 9.523-20.43 16.714z"/><path fill="#b6ace3" d="M80.39 116.95c.63-.236.4-1.216 1.101-1.229.228-.005.238 1.05.615 1.229-.051 11.285 4.1 22.301 10.18 31.623.098.15 1.128 1.236 1.834 2.211 4.657 5.879 9.382 10.115 14.157 13.879 2.959 5.79-10-5-15.873-13.389-7.966-10.77-11.303-20.916-12.014-34.324"/><path fill="#463024" d="m326.3 105.16-45.393 19.67-35.758-12.048c.102-.285-1.348-.15-.245-2.452 3.761-7.848 7.489-10.907 15.156-14.786.172-.085.839-.132.348-.51-.1-.078-1.819.044-2.302-.027-11.494-1.726-18.462-16.73-17.8-27.308.115-1.843 1-4.256.998-5.889-.003-1.436-.508-3.45-.527-4.898-.017-1.2.49-2.47.255-3.675-.076-.388-1.79-2.347-2.199-3.07-5.796-11.842 3.238-25.543 16.449-24.971 5.393-3.227 12.03-4.779 18.366-4.45 1.13.193 2.3.193 3.432 0 7.5-.108 15.236 2.14 21.331 6.62 2.456 1.6 4.043 3.177 5.639 5.639 3.82 5.212 5.95 11.682 5.884 18.143-.191 1.132-.223 2.3 0 3.432q.169.06.245.49c4.193.116 9.623 1.53 11.524 5.64.75 1.095 1.23 2.463 1.225 3.8.138 1.287.074 2.657 0 3.923q.302 1.15 1.962 1.838c.078.084.164.162.245.246 6.563 5.59 5.936 17.238-2.697 20.35-.444.676-.15 1.718-.304 2.515-.253 1.307-1.02 2.736-1.9 3.736 3.796 2.746 5.309 4.259 7.201 6.907.412.578.336 1.748-1.135 1.135"/><path fill="#0f0804" d="M298.411 27.366c-6.571-4.281-13.465-6.338-21.331-6.62a10.2 10.2 0 0 1-3.432 0c-4.73.127-10.249.836-14.632 2.653-.986.409-2.95 1.76-3.693 1.946-1.012.253-2.871.147-4.075.339-9.147 1.456-15.279 10.616-13.823 19.64l1.41 4.843c-5.84-10.275 1.716-23.571 13.146-24.979.993-.122 2.192.143 3.1-.088.791-.201 2.819-1.581 3.868-2.015 8.39-3.47 20.706-3.477 29.356-.932 3.547 1.045 7.372 2.729 10.111 5.213z"/><path fill="#7567b8" d="m266.043 102.029.004-.007c.682 7.061 5.823 11.028 12.811 9.868 9.623-1.596 19.538-12.78 23.495-21.252 8.959 3.046 17.844 6.826 24.001 14.334-4.215 18.345-35.083 31.865-50.935 31.865-34.342 0-30.175-24.33-30.175-24.33 1.007-2.184 2.2-4.288 3.678-6.268 4.246-5.693 10.677-9.05 17.121-11.687.169 2.41-.231 5.104 0 7.477"/><path fill="#493620" d="M324.49 88.017c-.164.135-.238.434-.488.604-1.083.735-1.983.674-3.177 1.007.257 1.913-.066 3.695-.951 5.416-1.187 2.312-1.729.711-3.514-.184a141 141 0 0 0-8.221-3.793c-6.171-2.596-11.942-3.155-15.093-9.914-.578-1.241-1.544-4.323-1.513-5.623s2.541-2.43 3.306-3.314c3.959-4.585 5.661-18.55-3.18-18.624-1.597-.012-3.041 1.197-4.161 1.248-2.628.123-8.324-1.785-10.83-2.913-9.373-4.22-18.003-12.528-20.185-22.845-1.111.083-.826.679-1.14.993-.459.463-3.619 1.787-4.717 2.586-6.38 4.651-8.545 9.66-9.099 17.386-.091 1.255-.632.42-1.027-.201-5.517-8.67.591-20.862 10.295-22.897 1.606-.336 3.347-.1 4.724-.425 1.204-.282 3.46-1.814 5.004-2.35 20.37-7.055 46.697 1.32 48.193 25.613.066 1.086-.221 6.07.098 6.522.402.573 2.716.397 3.417.505 4.166.637 8.246 2.493 9.153 7.034.289 1.449-.245 5.472.189 6.18.159.26 2.851 1.665 3.435 2.205 4.425 4.077 4.043 12.043-.523 15.784z"/><path fill="#a05b2b" d="M255.502 31.534c3.18 10.246 11.558 18.148 21.338 22.183.834.343 3.352.92 3.815 1.334.302.27 1.211 3.138 1.689 3.95.599 1.015 1.001 1.75 2.239 1.927 1.645.235 1.108.002 1.598-1.045 1.278-2.728 3.109-5.006 6.449-4.545 6.21.855 3.93 13.852.022 16.645-.922-1.69-2.148-3.02-4.24-2.53-4.361 1.02-2.76 7.87 1.665 6.455.478 5.698 3.32 10.129 8.172 13.039.569.34 2.672 1.017 2.594 1.522-4.369 8.148-15.777 21.35-26.026 19.948-5.602-.768-7.519-6.779-7.294-11.705l2.783 4.815c3.979 2.077.012-2.863-.623-4.158-.367-.752-2.02-4.896-1.934-5.41 4.81-1.773 9.302-4.838 12.649-8.727 1.25-1.451 2.898-3.388 2.814-5.396-.429-.086-.605.22-.86.485-4.107 4.26-6.088 7.589-11.722 10.59-15.412 8.206-27.431-4.595-28.573-19.566-.096-1.255.13-8.056.951-8.672.218-.161.775.444 1.118.496 2.945.463 2.163-6.966-1.363-3.44-.025-1.393-.282-2.638-.258-4.058.013-.723.14-2.518.26-3.17.143-.77 1.209-1.18 1.893-1.292 1.228-.204 3.038.709 3.03-.674-.012-1.873-3.481-1.43-4.68-1.103.179-8.096 5.544-14.415 12.499-17.896z"/><path fill="#f9b364" d="M288.285 70.813c3.4-1.012 4.006 4.355.203 3.622-1.62-.312-1.875-3.124-.203-3.622"/><path fill="#493620" d="M286.397 56.054c.248.215-1.601 2.988-2.084 3.182-.39-.01-1.782-3.464-1.591-3.673 1.211.268 2.415.616 3.675.49"/><path fill="#3a2715" d="M266.722 73.765c1.27 1.096-.832 4.877-1.663 5.941-3.498 4.482-9.939 5.12-14.443 1.706-1.307-.99-4.229-4.347-1.809-5.44 3.643.17 6.791.49 10.371-.429 1.537-.395 6.406-2.756 7.541-1.778z"/><path fill="#3a2615" d="M256.485 69.781c.162 1.157-.139 1.307-1.012 1.807-3.619 2.077-12.065 1.469-10.347-4.462.491-1.692 2.7-2.79 3.521-4.325.456-.853.927-5.07 1.969-2.479 1.589 3.955-5.47 6.083-3.908 9.057.931 1.775 4.724 1.69 6.404 1.32 1.152-.256 2.16-1.045 3.371-.918z"/><path fill="#392515" d="M256.24 50.903c-.691-2.736 2.388-2.383 4.301-2.217 2.088.184 5.072 1.496 6.369 3.193.51.664 1.077 1.868-.25 1.873-.787.005-3.702-2.852-5.394-2.852h-5.026z"/><path fill="#392514" d="M293.23 59.7c-.056.078-1.307.426-1.772.801-1.067.86-1.646 2.47-1.849 3.79-.098.643.176 2.121-.26 2.438-.527.382-.973-.13-1.172-.567-1.074-2.356 1.204-7.282 3.847-7.799 1.133-.22 1.728.598 1.206 1.339z"/><path fill="#3a2615" d="M260.585 58.54c2.116-.584 3.288 3.947.831 4.504-2.091.473-2.908-3.933-.831-4.504"/><path fill="#673916" d="M256.363 77.872c2.964-.275 6.129-1.824 8.946-2.697-.74 5.737-8.078 8.584-12.83 5.597-.63-.394-2.604-2.157-2.856-2.782-.294-.726.569-.118.61-.118 1.932 0 4.259.174 6.13 0"/></svg>