<svg xmlns="http://www.w3.org/2000/svg" width="394" height="240" fill="none" viewBox="0 0 394 240"><g clip-path="url(#a)"><path fill="#7b6b38" d="M58.228 193.141c2.668-4.618 5.997-8.753 10.578-11.64.454-1.123 1.573-1.762 2.766-1.855.564-.218 1.115-.601 1.256-1.209 2.494-1.446 5.092-2.697 7.727-3.863 3.532-1.567 10.283-4.508 13.905-5.037a.84.84 0 0 1 .829.391c3.296 15.885 30.481 26.914 39.818 10.289q.495-2.066 1.357-3.768l.161-.686c2.029-1.23 3.956-2.676 5.561-4.43l.69-.018 1.083-.103c8.011 3.406 16.352 7.705 21.457 15.025.775 1.112 2.804 4.148 2.721 5.278a3 3 0 0 1-.123.603l-.284.987c-4.974 5.064-7.275 11.896-9.371 18.345l-.605.188c-.839-.378-.803-3.532 0-3.981l-.544-.203q-.573-3.817-.646.945c.425 4.698.279 8.502-.839 13.119-3.991 12.747-6.321 26.413-4.61 39.897l-.284 1.59h-47.198l-1.024-.454c-6.951-5.725-14.27-10.983-21.97-15.68a274 274 0 0 1 2.501-30.81l.249-4.554c.064-1.176-.174-1.872-.482-.226a2773 2773 0 0 0-3.13 34.981l-1.067-.028c-2.95-1.408-6.107-2.584-9.414-2.576 7.61 1.227 14.242 5.298 20.46 9.657 3.727 2.614 7.53 5.344 10.932 8.406.162.146.272.357.38.578s.187.462.254.706H53.098c-5.297-3.457-5.874-11.984-5.936-17.96-.12-11.527 2.296-23.172 4.756-34.344l.667-.604c-.047-1.23.277-2.494.77-3.596-.64-.632-.078-2.126.769-2.311.115-1.521.685-2.967 1.282-4.366q-.328-.104 0-.257l1.283-3.082c-.395-1.161.408-2.846 1.539-3.339z"/><path fill="#579a9e" d="M152.367 263a5 5 0 0 1-.454-.737c-1.203-2.476-.88-11.111-.713-14.306.585-11.278 3.363-22.157 6.531-32.942 3.865-13.152 6.869-20.978 19.31-27.784 1.701-.93 13.085-6.3 13.828-5.848.236.143.403.305.439.588-.893 4.548 1.206 8.447 4.615 11.337 8.949 7.587 24.124 5.981 31.766-2.764l.603.026c.207-.19.336-.388.243-.701l6.172-1.909c2.198-.791 4.161-2.201 5.674-3.988.836-.815 1.367-.987 2.275-.334 2.696.285 5.869 1.957 8.36 3.359 11.571 6.519 14.539 14.275 17.361 26.901 2.526 11.306 3.906 24.384 2.498 35.934-.341 2.794-1.516 10.743-3.029 12.611a4.5 4.5 0 0 1-.565.56h-27.703c-.136-.28-.287-.601-.223-.92 1.031-5.108 7.013-10.032 11.448-12.153-.21-.632-6.372 3.518-6.8 4.052-.582.065-.985.039-1.018-.595a325 325 0 0 0-.018-39.265 646 646 0 0 1-.683 42.18c-.261.883-2.798 4.821-3.537 5.922-.236.35-.603.578-.964.779h-63.871l-.56-.242c.483-4.004.211-8.226-.402-12.379-2.281-11.92-2.902-23.318.543-34.971 1.337-9.308-1.169-.093-1.762 3.477-1.236 7.428-1.801 15.385-.603 22.831 1.722 6.698 2.088 13.309 1.722 20.197l-.478 1.089h-20.007z"/><path fill="#e06969" d="M264.975 197.507a2.2 2.2 0 0 1-.11-.522c-.172-2.707 8.231-9.282 10.617-10.82 1.613-1.04 11.553-5.987 12.743-5.55.498.182.652.626.647 1.112-.149 5.768 3.594 10.173 9.057 11.732 11.215 3.198 24.387-4.554 28.742-15.071a2 2 0 0 0 .418-.11c.847-.347 9.527 3.688 10.894 4.422 5.444 2.926 10.061 5.422 14.503 9.832 10.148 10.073 10.953 23.002 11.071 36.553.013 1.577.044 12.533-.5 12.991-1.287 1.083-7.957 1.759-10.014 1.9-6.656.455-13.754-.246-20.159-2.065-.118-6.798.118-13.594.449-20.346-.026-5.551-.621-4.115-.759-.244l.133 11.01a49 49 0 0 0-.167 9.824q1.467.744 1.716 1.955l-2.295 18.651-.547.244h-62.332l-.197-.583c3.86-12.31 3.067-24.959 1.972-37.667-.105-1.046.151-1.927.534-2.846q.123-5.991.939-11.997a236 236 0 0 1-1.591 8.622l-.374.036-.467-.611q-1.766-9.982-5.841-18.78c-.169-.768.008-1.829.921-1.67z"/><path fill="#5e3316" d="M351.163 75.51c.328 2.268-.79 8.522.887 10.027.442.395 6.187 2.162 7.385 2.622 14.596 5.635 21.963 9.572 26.68 25.424 2.842 9.547 3.737 19.946 4.543 29.855-.267 1.382-2.363 1.461-2.522 1.71-.379.591.2 3.938.221 4.844-.072.224-.159.221-.257 0-.323.141-.603.165-.677-.172l-.144-3.56q-.353-.068-.718-.38c-.048.172-.11.324-.22.396-.495.313-4.777.878-5.68.888-.723 1.033-2.844 1.333-3.847.771-1.503.444-3.366.552-5.002.514-1.988.164-4.199.274-6.156 0q-.678.53-.575 1.8h-.323c-.252 4.225-.252 8.679 0 13.353.12.511.231 1.022.303 1.538.071.517.138 1.028.123 1.534-.395 12.397-1.724 25.131-3.053 37.218q.369 1.55-.192 2.345a128.7 128.7 0 0 1 2.821 21.831q.521.335.513 1.284l.308.524c-.408.942-.823 4.839.588 2.535l.644.023c.31-.334.579-.362.661.031.231 1.081-1.659 2.46-2.714 2.024q.312.308.472.583l-.546 7.325q-.73 1.406-2.537 1.772c-.277 5.928-1.454 11.801-2.76 17.583-.051.223-.174.429-.308.639-.133.211-.3.414-.474.606h-1.539l-.139-1.461c.952-3.757 1.501-7.6 1.955-11.445.423-.598.705-1.261.749-1.993q-.45-1.286.007-3.205c-8.026.791-16.419 1.264-24.263-.845.303 1.454.193 3.041-.628 4.305a6.7 6.7 0 0 1 .154 3.202c-.326 3.771-.826 7.878-1.95 11.437h-1.539l2.334-18.88c-.048-1.34-1.621-.721-1.831-2.296-.411-3.054.241-6.467.279-9.505s-.551-12.441.303-14.594c.141-.354.259-.711.585-.95.539.48.59 1.246.651 1.911.347 3.791-.194 7.792-.277 11.557-.082 3.807.052 7.616-.22 11.414 9.47 2.132 20.103 2.915 29.486.116.297-2.551.182-5.104.246-7.664.659-25.876-2.316-40.498-27.018-51.801-2.106-.964-6.054-2.813-8.119-3.429-.292-.088-.577-.162-.89-.136-2.439 7.009-10.296 13.114-17.332 15.037-9.114 2.494-19.926-.043-21.286-10.789-.061-.486.288-2.114-.377-1.914-2.719.812-7.133 2.823-9.721 4.138-5.166 2.625-10.546 7.073-13.247 12.292q-.56.967-1.282-.77c-1.098-2.553-.97-6.283-.757-9.103l.5-.914.088-2.484c.246-.264.451-.223.62.106q-.042 5.112.082 10.124l.236-.041q.212-.856.513-.257c4.223-7.756 13.685-12.017 21.853-14.904l1.233.008c.58-.552 2.196.231 2.052 1.027.372.611.634 2.725 0 3.082 1.401 3.488 2.645 6.398 6.234 8.019 9.121 4.119 25.889-3.265 28.547-13.161-3.391-1.279-2.953-5.835-2.599-8.814.008-.062.067-.116.139-.167.184-.439.292-1.1-.093-1.405l.349-.136c.978-1.133 1.496-1.667 1.283 0l.495.298c-.172 1.471-.246 7.083 1.167 7.736l12.708 5.478c7.213 2.848 12.638 7.702 18.055 12.649l.026.55c.003-.198.059-.393.226-.514.195-.139 4.542-.17 4.519.514l-.497-.221c1.377-15.069 2.603-30.353 2.075-45.951q-2.35-.317-3.114-1.982l-.505-23.437c.99-2.162 2.175.606 2.213 1.962q.764 10.22.872 20.56c5.372 1.754 11.731.945 17.261-.013 1.095-.19 9.206-1.72 9.16-2.65-.485-9.429-2.137-21.094-5.03-30.063-4.879-15.122-14.957-19.121-28.788-24.163-1.975 5.347-6.421 9.77-11.23 12.775-10.066 6.29-25.893 4.374-27.132-9.529l-5.989 2.985c-6.049 3.244-12.548 7.782-14.185 14.786l4.037.406.316.547q1.035-.12 1.796.513c0 1.318-2.132 1.706-3.307 1.547q-4.17-1.127-7.895.267l-5.302 2.599-.68-.303.072-.452c-.575.454-1.07.485-1.098-.319-.195.296-1.167-.385-1.503-.714-.588-.57-1.586-1.566-.129-1.577q1.265 1.206 2.658 1.264l.351-.606c.426-.272 5.125-2.325 5.42-2.309.257.013.465.177.644.347q.836-1.802-.261-3.894c1.015-2.252 2.013 1.359 1.772 2.597l.285.269c1.511-7.384 7.516-12.687 13.995-16.096l.626.172c-.436-.819.431-1.61 1.282-1.027 2.748-1.027 6.37-2.648 9.035-3.927.369-.177.713-.37.969-.696.798.31.739 1.931 0 2.312-.656 3.685.524 6.433 3.412 8.789 9.401 7.661 25.418-.83 29.311-10.95-.525-.277-1.033-.572-.659-1.178q.099-.663 1.006-.368c-.542-.267-1.024-.536-1.378-1.055-.892-1.3-1.436-9.27-.297-10.03.11-.074.256-.097.413-.105z"/><path fill="#474133" d="M40.785 231.409q.474 1.12.613 2.33c.2 9.223.223 18.505.152 27.684 0 .259-.085.521-.172.788a6 6 0 0 1-.336.789H17.699c-1.51-14.465-1.903-29.028-1.929-43.57 0-.231.02-.649.105-.84.018-.041.139-.038.285-.023l.577.19c1.065 3.624 2.327 7.87 4.897 10.736 1.306 1.456 2.393 1.816 4.286 1.616 2.386 1.674 3.902 2.28 6.798 1.399 2.021 1.035 3.491 1.074 4.992-.811.795-.586 2.319-1.02 3.073-.285z"/><path fill="#926a4b" d="M40.016 177.474c1.098-.624 2.465.169 3.57.875 2.504 1.603 3.735 4.487 4.253 7.313.929 11.732 1.732 23.95.644 35.985q.309.532.32 1.145c-1.166 7.015-2.26 14.116-2.262 21.251-.002 5.987 1.155 10.792 2.527 16.363q.403 1.788-.587 2.591h-5.9c-.636-6.5-.634-13.019 0-19.519a118 118 0 0 0-.257-7.705l-.34-1.649a1571 1571 0 0 0-.827-42.822q.12-3.887-1.96-6.568l.052-.588-3.52-.927c-1.687.712-2.018-1.687-1.839-3.038.308-2.312 1.016-3.021 3.258-3.36.813-.123 2.678-.269 2.873.648z"/><path fill="#545740" d="M374.505 263h-15.903c1.295-6.305 2.821-12.621 3.065-19.096.077-.341 2.203-.521 2.524-1.633l.564-7.782q2.452.02 4.045-2.718l.675.021q3.032 2.839 6.187-2.425l.636-.015q.428 1.316.518 2.699c-.048 9.457-.785 18.888-1.575 28.304-.038.444-.159.886-.284 1.33a15 15 0 0 1-.454 1.315z"/><path fill="#3d3829" d="M191.613 179.785q1.068-.65 1.026 1.284.372 1.165-.005 2.738c1.393 13.379 19.972 15.654 29.612 9.406q2.166-2.154 4.509-2.643c-.028-1.593 3.135-1.274 1.539 0-.228.203-.49.968-1.021 1.417-6.851 5.82-14.69 8.042-23.56 5.856-6.836-1.685-14.439-7.867-12.918-15.674.074-.386.062-.406-.339-.337-9.408 3.884-19.979 7.687-25.628 16.72-2.69 4.302-4.424 9.524-5.92 14.362-4.917 15.909-9.103 33.387-6.541 50.083h-1.539c-1.616-10.134-.616-20.562 1.408-30.566.983-4.859 3.45-11.295 3.953-15.818.362-3.27-.531-7.967.085-10.959.061-.298.451-1.269.844-.704.154.221.638 2.437.638 2.699v3.981l2.445-7.183c1.908-4.51 4.176-8.979 7.816-12.336-.285-.74.626-1.5 1.282-1.028.044-.2.098-.398.183-.58.543-1.161 9.475-6.477 10.763-6.447.2.006.4.044.597.093-.225-.796.878-1.197 1.539-.771l.578-.816a116 116 0 0 1 7.677-2.987l.977.205z"/><path fill="#474133" d="M39.246 184.151c2.799 1.706 2.416 8.756 2.555 11.697.618 13.093.518 26.765.523 39.927q.007 3.98.257 7.705c.002 6.504 0 13.017 0 19.52h-1.54c-.022-1.841.029-3.688.01-5.532-.081-8.507.163-17.486-.266-26.059q-.716-.423-.513-1.541-.073-2.282-1.626-4.433l-1.437-4.389.241-.935c-.171-.842.38-.732.847-.121q.278 1.83 1.631 2.114c-.094-.334.016-.503.344-.709-.344-3.47-.605-7.001-.597-10.497-.136-2.817-1.942-5.357-3.869-7.302q-1.25-1.277-.408-1.977a626 626 0 0 0-3.196-15.367c-.9-.927 1.373-1.618 1.4-.3l.352.072q.386 2.519 1.029 5.07 1.157.233 1.313 1.022c.377-.84 3.527-.804 3.976 0l-.572-.275-.528-3.272q-.205-2.228-1.719-3.388c-.672.473-2.314-1.402-2.052-1.839.2-.334 3.24.614 3.848.812z"/><path fill="#3c392b" d="M245.994 183.124c.489-.611 1.752.329 1.539 1.027l.926-.125a52.4 52.4 0 0 1 7.182 4.137l.354.871c.605-.349 1.603 0 1.539.77.126-.161.364-.364.475-.28 2.285 1.742 4.645 4.541 5.681 7.215.044.008.359-.308.523-.149.38.367-.01.994.76.919-.221.424-.547.83-.47 1.351.106.709 1.796 3.876 2.201 5.006 1.714 4.754 2.696 9.747 3.655 14.704l.58.272c.28 1.015.429 2.096.447 3.067.048 1.148-.072 2.317 0 3.465.697 10.815 1.834 19.288-.336 30.232-.496 2.496-1.327 4.941-1.976 7.397h-1.795c4.576-12.493 4.217-26.837 2.229-39.859-1.26-8.244-3.232-18.651-7.572-25.807-3.902-6.433-12.215-11.046-19.151-13.445a.234.234 0 0 1-.131-.252c-1.647-.138-.919-1.774.256-1.284.149-.94 3.209-.133 3.078.771z"/><path fill="#3d3829" d="M72.336 177.731c2.214.326-.475 1.954-1.64 2.273-.515-.532-1.456.737-1.628 1.325-4.681 2.897-8.121 7.076-10.84 11.812-.539 1.089-1.103 2.203-1.54 3.339l-1.282 3.082c-.023.079.023.177 0 .256a13.3 13.3 0 0 0-1.282 4.367c-.216.77-.572 1.543-.77 2.311-.5 1.007-.803 2.391-.77 3.596-2.893 12.32-8.203 38.317-2.105 49.495.692 1.268 1.998 2.095 2.619 3.413H48.48c.582-3.637-1.062-6.567-1.72-9.965-1.8-9.318.073-21.98 1.72-31.386.954-11.123 3.957-22.642 9.74-32.266l1.033-.609a2.6 2.6 0 0 1 .013-.603c.318-2.039 10.476-10.392 12.479-10.489.195-.011.392.015.59.049M101.322 263c-2.73-2.586-5.836-4.924-8.899-7.143-7.418-5.38-15.303-10.887-24.704-11.865l.767-.257-.51-.509c3.909-.49 8.061 1.102 11.537 2.823.32-9.334 1.283-18.603 2.309-27.869.24-2.176.095-6.195.9-8.088.86-2.016 1.19.395 1.175 1.41-.108 6.611-1.55 14.098-2.073 20.806-.37 4.764-.487 9.567-.782 14.337 8.003 4.7 15.709 10.145 22.583 16.352h-2.309z"/><path fill="#6f1900" d="M237.785 263c1.152-2.391 2.57-4.631 4.025-6.84-.098-3.914.495-7.879.603-11.77.282-10.122-.342-20.344.12-30.443l.765-.519c.289-.008.628 5.114.656 5.769.362 8.84-.041 17.904-.279 26.713-.072 2.617.218 5.26-.244 7.844 1.983-1.348 5.348-4.369 7.813-4.379.305 0 .852-.113.647.393-.144.352-4.312 2.527-5.107 3.108-3.389 2.473-5.905 6.143-7.203 10.124zm-63.871 0h-1.539c-.169-3.58.228-7.356-.003-10.913-.313-4.823-1.949-9.59-2.303-14.388-.475-6.436.569-19.882 2.883-25.871.521-1.346 1.539-1.831 1.48-.08-.154 4.639-2.311 10.962-2.796 15.971-1.044 10.763 2.501 21.047 2.532 31.814.003.994-.508 2.332-.257 3.467z"/><path fill="#51371f" d="M377.583 242.967 376.301 263h-1.796c.952-11.193 1.901-22.409 1.796-33.645-1.011-.388.415-2.415 1.282-2.055q.123 7.92 0 15.667"/><path fill="#140a05" d="M16.16 218.567c0 .047-.27.401-.274.868-.154 14.578.785 29.041 1.813 43.565h-.256c-.77-8.152-1.17-16.343-1.542-24.525-.37-8.139-.213-15.644-.254-23.76.07-.242.318-.498.487-.391.454.298.878 3.796.026 4.243"/><path fill="#442a19" d="M198.026 10.53q1.377.45 2.565 0 3.06-.223 6.156.77c5.944 1.162 11.982 5.749 14.878 11.045a33.7 33.7 0 0 1 4.166 9.492 64 64 0 0 0 3.273 11.055c.908 1.155 1.952 2.106 2.821 3.338 2.976 3.409 4.389 7.826 3.061 12.254-2.481 5.163-.985 9.105 1.174 13.995 1.227 4.929-.602 8.828-3.722 12.534-.076.174-.177.339-.256.513l-.233.537q-1.293-.004-2.332.234l-1.093.203-8.932-2.147q-.225 1.444-1.005 1.687-1.408.2-.385-2.296c-1.944-1.775-.818-1.857 1.124-1.587l3.365.801c.554-.632 1.619-.285 1.796.514 1.667 1.446 4.276 1.864 6.156 1.284l.031-.807c3.416-3.665 5.222-8.578 3.073-13.363-2.673-4.39-2.917-7.576-.619-12.179 1.103-2.933.678-6.08-1.054-8.676-4.101-4.862-6.797-9.598-7.572-16.147-1.88-7.49-5.933-14.152-12.587-18.264l-.508-.937-2.565-1.027-1.064.238c-5.564-1.666-11.133-1.759-16.684-.27-16.768-1.766-27.572 13.615-26.4 29.241q-1.34 7.668-4.843 14.9c-2.814 7.7-.849 18.515 4.984 24.358 3.358 3.364 4.728 3.077 8.757 1.967q2.736-1.248 5.541-1.474c1.503 1.233 2.191-2.828 1.324-3.773-3.52-4.079-6.811-8.083-8.611-13.296-6.618-2.289-9.779-12.023-6.675-18.077 1.255-2.445 3.602-3.736 5.967-1.797.454.226.828-.91.956-1.308.377-2.925 1.437-4.72 4.174-6.043 7.328-3.647 13.169-8.036 15.875-15.875.38-.945 1.096-1.526 1.963-.758 2.534 4.667 6.456 8.283 11.337 10.45l8.742 3.825q3.343 1.57 3.748 6.02l1.18 2.636c2.216-1.911 4.342-1.832 6.31.308l-.162.573 1.026 2.311q1.113 1.264.806 3.598.3 2.329-.806 3.593a47 47 0 0 0-1.795 5.137c.492 1.027-1.324 2.684-2.16 3.27-.775.542-2.168 1.43-2.714.326q-.853.738-1.026 2.055c.559.516.036 2.144-.77 2.054-.359.873-1.908.843-1.539 0-.184-.082-.454-.236-.42-.372.22-.912 2.134-7.207 2.467-7.415 1.032-.637 1.932.86 1.999 1.75 3.801-2.515 4.784-8.77 3.993-13.028-.561-3.03-2.521-4.024-4.329-1.045-1.778 1.67-2.873-1.015-3.43-2.468-.757-2.165-1.485-4.415-1.97-6.614-7.995-2.283-15.87-6.213-21.165-12.813-3.306 7.956-11.012 12.508-18.391 16.137a16 16 0 0 1-1.055 4.338c-1.087 2.678-2.719 5.45-4.253 1.12-3.234-1.472-3.432 5.267-3.134 7.209.41 2.668 1.695 6.873 4.62 7.55.107-1.242.992-1.746 1.944-.877 1.757 5.465 3.819 10.79 8.626 14.552l.385.96c.295.815.942 1.251 1.796 1.285l1.031.025c6.361 3.817 13.869 3.873 20.39.637l.639.365c-.07.31-.167.64-.416.855-.946.817-6.166 2.474-7.346 2.268-.162-.028-.306-.149-.447-.298q-1.015.585-.256.77l.346-.37c2.227-.277 4.389-.878 6.474-1.702l.872.272c-.702 1.536-5.06 2.64-6.679 2.51l-.759-.455a8.6 8.6 0 0 1-3.591 0c-1.64.85-4.374.015-6.164-.573a19.5 19.5 0 0 1-4.864-2.36l-.515.362c.854 2.07-.957 4.392-2.56 5.612 1.998 15.983 24.268 17.138 33.254 5.958l.856-.27q.277.695.257 1.542c-.375 1.944-2.747 3.693-4.41 4.841a19.6 19.6 0 0 1-4.881 2.443c-1.949.655-4.784 1.52-6.613.678a6.5 6.5 0 0 1-3.078 0c-1.516.873-4.23 0-5.943-.565-6.864-2.273-11.964-7.937-11.73-15.244-13.267 3.185-27.255 8.54-32.267 22.497l-.846.76c-.801.149-1.396-.835-1.026-1.541a3 3 0 0 1-.116-.614c-.079-1.395 2.909-5.979 3.914-7.366 3.384-4.67 7.58-7.86 12.721-10.325l-16.381-6.564c-.008 6.862-3.971 12.438-8.498 17.23l-.875.19c-.526.56-1.485.288-1.539-.513l-.228-.514c3.188-3.41 6.292-6.9 7.885-11.47.998-2.861 1.08-5.257-.877-7.628-7.514 4.63-16.643 3.35-23.794-1.472-2.06-1.39-4.735-3.295-5.559-5.627.575 1.084.99 3.498 0 4.238l.47.365c-.321 1.695-.711 3.102-2.006 4.278-.023.327.908 3.09 1.118 3.506 2.383 4.708 5.423 8.25 9.006 11.902l-.123.624c-.218.776-1.534.722-1.796 0l-.887-.213c-3.045-2.717-5.851-6.043-7.67-9.729-.81-1.641-1.883-3.876-1.608-5.62-6.685 2.445-13.3 5.245-19.562 8.718 4.72 2.73 8.435 6.842 11.615 11.429l.157 1.068c.138.822-.752 1.587-1.54 1.284l-.718-.318c-3.285-6.668-9.226-10.402-15.639-13.538l-.316-.78q-1.043.246-2.136-1.288c-2.894.327-4.266-4.086-3.496-6.177.459-1.245 1.898-1.5 1.528-.243-.63 3.672.267 6.1 4.684 5.123 3.478-.768 5.133-3.847 5.271-7.188 3.179-1.3 1.945 3.392 1.283 5.023 2.157.694 4.148-1.269 5.392-2.904l.556-.057q.316-3.667-1.57-7.376c-.407-1.377-.305-2.8.347-4.094 4.412-5.59 3.209-10.02-.913-15.177-1.106-1.952-1.347-4.222-1.329-6.46l.439-8.287c.58-12.03-10.715-24.037-23.012-20.997-10.637-2.81-25.5 1.909-29.906 12.688-1.073 6.305-4.854 10.222-9.722 13.91-3.691 2.967-5.274 7.508-4.035 12.133 2.144 4.978 1.924 8.16-1.734 12.241-2.419 3.701-1.172 9.534 3.409 10.756-.087-2.237.136-3.973 1.05-6.094 2.108-4.896 5.953-4.295 2.287.526-2.14 4.359.151 9.418 5.015 10.268l.418.586.367.146c1.518-.074 4.23-.195 1.872 1.505-.5.36-3.809 1.78-3.268.404.44-.219 1.116-.229 1.283-.768-1.67.046-3.917-.804-5.258-1.8-.621-.463-1.673-1.95-2.188-2.176-.744-.329-2.047-.326-3.07-.778-4.38-1.93-6.057-6.94-4.69-11.373.762-2.468 3.827-5.39 3.93-7.387.102-1.995-1.593-5.093-1.803-7.443-1.111-12.5 9.593-12.477 12.946-21.189.702-1.828.902-3.826 1.787-5.658C39.85 22.92 50.54 16.95 57.973 16.422c3.35.026 6.41.154 9.644 1.076 4.902-1.31 9.224.036 13.698 2.006 3.506 1.937 6.77 5.234 8.721 8.732 3.04 6.19 3.083 12.737 2.296 19.474-.11 2.42.208 5.427 1.808 7.237 2.037 3.668 3.756 4.513 3.345 9.385-.315 3.724-3.67 5.985-3.28 9.167.15 1.23 1.01 2.52 1.344 3.796.8 3.061.012 5.242-2.178 7.443 2.398-.935 4.722-2.065 7.118-3.015 1.89-.75 5.851-1.765 7.321-2.687.444-.277.49-.429.631-.91.349-1.18.628-6.61.503-7.863-.067-.65-1.455-2.625-1.84-3.509-.695-1.6-1.469-3.395-1.685-5.116-2.739.216-4.758-.734-6.146-3.092-1.906-4.777-3.278-11.09-.256-15.667.133-.226 1.21-1.32 1.305-1.328.608-.046.685 1.325-.023 1.585l.108.575c-2.234 3.126-1.36 8.786-.136 12.254 1.262 3.582 3.05 3.693 6.459 3.84 5.576 23.785 36.111 27.599 42.16 1.962l.662-.653.254-.239q.661-4.356.679-8.84c.495.098.511-.979.516-1.372-.785-3.197-.757-6.451-.351-9.821-.508-.049-.778-4.07-.688-4.281.031-.072 1.19-.699 1.388-.617.072.17.131.342.144.516.169 2.3.082 4.462-.018 6.753 0 .02-.047-.309.13-.334 4.317 2.781 2.895 13.284.329 14.814-.434 2.97-.626 3.3-1.606 6.123-1.283 3.696-2.598 6.958-5.143 10.004-.541.65-3.045 2.822-3.186 3.205s.305 1.587.105 2.157c5.405 1.875 10.799 3.73 16.009 6.113.88.4 4.24 2.4 4.699 2.479.554.095 3.281-1.539 4.187-1.493-1.36-1.227-2.843-2.242-4.105-3.593-6.887-8.409-8.575-20.4-3.078-30.306 1.539-3.298 2.568-6.308 2.996-9.935.108-7.232.949-13.949 4.956-20.115 2.26-3.38 5.382-6.285 8.978-8.219 4.774-2.137 9.624-3.452 14.885-2.756a54 54 0 0 1 6.405-.84z"/><path fill="#462b19" d="M283.188 15.924c.777.398 2.09 1.204 2.69 1.8.411.409 1.142 1.767 1.416 1.921.395.219 2.065.388 2.886.707 7.562 2.938 9.298 14.272 10.45 21.255a182 182 0 0 0 1.919 14.322c.923 5.483.326 10.833-1.149 15.985-1.134 2.563-4.584 6.978-7.426 7.595-1.88.408-1.332-.504-2.193-1.683a12.6 12.6 0 0 1-3.976 2.826c-.08.118 1.049 1.045 1.282 1.279a674 674 0 0 0 16.417 7.962 37 37 0 0 1 3.848 2.825c-1.327.495-.465.372-1.283 1.027l-1.172-.262a90.2 90.2 0 0 0-16.271-8.727q1.193 7.22-.256 14.64l.423.433-.893 3.275c2.373.899 4.738 4.02 3.548 6.565-.352.221-.377.352-.475-.167-.102-.552.018-1.13-.097-1.7-.069-.342-.31-1.374-.706-1.469-.879 1.019-.151 1.127-.025 2.201.041.344.084 2.077.02 2.162-.041.054-.366-.038-.51 0q-.504-.477-.295-1.533c-1.398-9.151-13.798-.922-6.321 3.488l.203.614c-.072.012-.164.282-.564.22-.708-.11-1.549-1.071-2.511-.988.028 1.119 1.472 1.107 2.049 1.798.39.688-1.454 2.034-2.052 1.541q-.53-.521.598-1.323c-3.579-2.363-3.284-7.23-.47-10.094.626-.637 1.932-1.888 2.694-1.168 3.186.141 3.362-.206 3.842-3.211 1.047-4.536 2.329-11.547.005-15.539q-.862.185-1.629-1.21-.512 3.105-1.536 6.09l-.682.514c-.072.224-.159.221-.257 0l-.372-.567.893-3.324c-.457.095-.688-.041-.518-.475l-.444-.514q.327-2.747-.695-5.486l.367-.935c-.985-.331-.557-1.882 0-2.568-.501.059-.578-.149-.585-.578-.421.421-.819.637-1.211.064l.305-1.078c2.817-3.052 4.856-6.701 6.133-10.585l.508-.31c5.274 2.118 7.752-4.85 8.15-8.982.259-2.697-.442-7.055-3.992-4.906-.815 2.687-2.998 2.189-5.158 1.523-1.365 13.659-20.726 13.012-20.331-.957l-2.752-.134q.052.92-.56 1.03c.472 1.163-.279 2.676-.831 3.752-.515 1.005-1.721 3.085-2.76 3.182-2.647 2.456-7.387 1.768-10.594.625-.282 6.831 2.337 14.462 8.168 18.55l.377.859c.446.5.428 1.289-.257 1.54.698.769.708 1.804 0 2.569q-.035 2.385-.816 4.831.077 1.492-.466 2.36.09 1.117-.513 1.285l.089 2.555c-1.251 11.106-.5 22.787 3.353 33.145.736 1.931.539 3.115-1.349 4.148l.487 3.96q.18 1.09-.528 1.395-.416 1.499-.27 3.251.109 1.631-.756 2.399l-.524-.136-.695-9.482c-3.552 1.818-7.203 3.672-11.186 4.312q-.623-.563.036.503l4.771 18.557c1.562 6.957 2.465 14.293.78 21.314-.611 2.538-1.475 5.939-3.443 7.567-.674-.319-1.113-.817-1.539-1.027l.028-1.03c4.707-8.404 3.604-18.523 1.527-27.561-2.763-8.702-4.784-17.545-6.521-26.398-2.024-7.353-6.397-14.786-14.526-15.215-3.902-3.295-9.391-4.104-14.439-4.094-14.265.028-22.206 10.543-27.182 22.753-2.891 7.097-5.5 14.681-7.709 22.032-2.99 9.96-4.804 22.372 5.059 28.986l.146.783c-.295.131-1.054.54-1.539.771-1.662-.09-3.309-2.073-4.371-3.388-7.113-8.807-3.899-20.673-.739-30.386 1.991-6.11 4.263-12.685 6.559-18.685 3.184-8.311 6.528-14.837 13.88-20.272 8.657-6.4 22.334-7.209 31.279-1.151 3.494.653 6.449 1.842 8.819 4.647-.862-4.742 2.06-7.271 2.873-1.02.033 2.365.172 4.053 1.162 6.187 2.585 4.192 4.55 9.159 4.365 14.172l.621-.467c4.417-1.387 8.845-3.056 12.567-5.864l-4.274-15.281c-3.393-11.751-11.104-21.654-23.011-25.47l-.993-.877-.257-.51 2.822-.26 8.083 3.842c4.13-2.712 9.28-3.637 13.636-5.594.815-.367 4.048-1.98 3.132-3.102-3.027-.704-5.764-2.335-8.055-4.392-.608 2.455-1.569 1.854-3.183.619-1.931-1.48-4.204-4.546-5.153-6.783-4.156-13.274-.795-28.56 5.643-40.837 3.378-5.568 8.113-10.184 14.108-12.842 7.524-2.73 15.27-3.835 22.83-.514z"/><path fill="#38271c" d="M140.568 15.153c2.852 1.5 5.317 3.801 7.182 6.421 2.501 4.056 3.907 9.23 3.591 14.383.021.735-1.295 1.066-1.288 1.16.031.368.398.553.447.805.087.46-.354 1.515-.2 2.263.064.308.744-.029.805.28.377 1.944-1.021 3.968-.536 5.842.069.27.611.234.734.599.184.555.677 2.779.551 3.26-.169.646-.31-.17-.251 1.587.036 1.068-.023 2.142-.003 3.207-1.205-.562-.046-2.316-1.021-2.825.193 1.777-.202 3.521-.279 5.27-.062 1.4.377 2.312-.459 3.886l-.29-.167q-.529-1.684.013-3.788c.684-8.588 1.185-26.857-6.052-32.919-3.532-2.958-12.217-2.758-16.719-2.627-9.134.27-16.37.724-17.445 11.393l-2.083 12.83c-.344 1.127-1.572.803-2.055-.05-.641-1.79-2.465-3.51-4.394-2.542l-.518-.275v-1.284l-1.282 1.027v-.257c.333-.406 1.267-1.122 1.287-1.21.185-.767-.069-2.334 0-3.282.757-10.756 3.82-19.373 14.106-24.273 8.488-3.303 18.076-3.683 26.164 1.284z"/><path fill="#402d20" d="M40.272 85.783c1.147.016.341.912-.636.922q.08.998-.646 1.133l.015.347c-5.892 2.527-12.449 5.547-17.073 10.484-7.673 8.188-12.415 22.712-14.014 33.738-.115.798 7.36 4.05 8.53 4.479 5.517 2.019 10.994 2.635 16.819 2.288q.48-9.92 2.632-19.27c.992-2.622 2.431-.93 2.09 1.086l-2.634 18.975q-.52 1.454-2.514 1.631c-1.031 5.288-1.919 10.664-2.699 15.996-.856 5.874-.636 11.172 1.173 16.841a99 99 0 0 1 6.482.01 6.2 6.2 0 0 0 3.535 1.246c.651.113 1.105.287.992 1.014q-.223.71-1.503.424.242.593-.805.347c-1.375-.28-4.046-.386-4.99.783-.728.899-.974 3.852-.143 4.487.438.334 3.309.765 4.363 1.41l-3.591-.768 1.795 1.795c.072 1.274-3.334 1.842-3.847.771-.418-.013-1.326-.786-1.27.603.167 4.187 2.776 9.927 3.276 14.257.102.54-.216.763-.21.804l-.552-.126-3.186-14.706a274 274 0 0 1-8.075-.134c-6.064-.575-8.116-8.295-2.562-11.336.559-.306 1.87-.845 2.193-.155.054-.2.138-.5.292-.513 1.362-.123 4.007-.121 5.369 0l.367.513-.662-.816c-1.919-7.662-1.652-15.208-.07-22.969l1.234-7.212q.644-.63.78-1.623c.041-.265-.197-.75-.24-.753-6.293-.357-14.517-1.186-19.868-4.887-.274-.19-.52-.373-.643-.702.292 1.136.005 2.397-.796 3.257a66 66 0 0 1-.972 10.798 50 50 0 0 1-1.08 8.979 8 8 0 0 0 0 3.338c.821 1.13.88 3.637.257 4.88.013.971-.464 1.187-.693-.033-.795-6.085-.272-12.256.313-18.313l-.39-.146q-.21.285-.256-.257c.5-4.502 1.28-8.997 2.072-13.453-.04-.275-2.572-.912-2.531-2.26.087-3.023 1.752-8.956 2.642-12.022 4.607-15.87 10.342-25.14 25.266-32.619.187.478.788.031 1.072-.082.59-.233 3.22-.98 2.522-1.715h-2.699l.134-.257.371-.478c1.616.08 3.245-.116 4.823-.452l.446.419z"/><path fill="#4e5235" d="M348.854 21.317a20.4 20.4 0 0 1 6.156 2.569c3.72 1.96 6.688 5.869 8.209 9.76 1.187 4.004 1.582 7.9 1.539 12.07-.118 1.614-.639 3.006-1.026 4.367a36 36 0 0 1-1.873 4.675q.412 2.166-1.462.719-.561.312-1.816-.416c-1.3-.232-4.289 2.411-5.184 3.272-2.66 1.96-3.673-.74-4.079-2.998-1.305-7.155-2.588-14.084-5.617-20.916-1.721 3.18-7.275 5.08-9.26 1.166-4.481 7.576-11.02 7.97-14.416-.966-.369-.044-5.492 2.792-6.151 3.331-1.547 1.269-2.375 2.648-3.135 4.446l-.615-.018c-.303-.108-.413 1.705-.257 2.312.949.272.485 1.458-.256.77-.159.139-.254-.033-.218-.038.192-.029.084 3.526-1.293 2.46q.33-2.502.485-4.988c-.708-1.864 1.223-4.674 2.619-6.035 1.156-1.128 7.969-5.307 9.598-5.14.706.072 1.093.545 1.372 1.166 1.981 5.53 5.572 8.414 9.263 2.453l2.955-4.212c2.057-1.567 2.363 1.04 2.201 2.635.477 3.229 4.361.388 5.433-1.05 1.713-3.568 2.26-3.383 3.714-.064 3.206 7.317 5.053 15.384 6.313 23.359q3.1-3.069 6.8-3.573c1.978.971 2.203.434 2.747-1.577 1.221-4.518 1.706-10.355.249-14.868-2.303-7.135-8.521-13.001-16.178-13.004-8.301-6.683-21.714-9.254-28.701.665l-1.021.193c-4.556-.932-12.41 1.688-7.4 7.202q.635 1.21-.788 2.311c-2.47 4.983-1.364 10.61.057 15.703l.502.275c.188 2.325-.382 3.835-1.785 1.01-2.393-5.944-3.483-10.76-.99-17.044.185-.462.926-1.446.957-1.626.041-.26-1.583-1.728-1.742-3.059-.654-5.506 6.772-7.96 11.097-6.762 6.784-9.234 19.161-8.296 28.057-2.646.556.355 1.962 1.703 2.303 1.803.824.25 1.932-.28 2.642.308z"/><path fill="#724628" d="M6.413 148.965c0-.023.197.051.246-.385.487-4.351 1.126-8.656 1.808-12.973h.767c-1.585 10.715-3.657 21.625-2.308 32.49l.256-.643c.288.386.593.794.693 1.272 2.165 10.276 4.522 20.531 8.242 30.33 1.526 5.159 1.626 9.641 1.56 14.973.358 5.178 1.62 12.333 6.294 15.256l-3.117-7.453c-.274-3.162 1.734-2.106 2.517-.011l2.206 5.212c.897 1.998 2.2 4.099 4.499 4.538-1-1.621-5.59-9.68-4.481-11.321.959-1.418 1.839.313 2.272 1.304l2.465 5.494c.985 1.854 3.176 5.781 5.672 4.258-2.116-.493-6.46-11.064-5.926-11.996.688-1.207 2.132-.008 2.535.968l2.529 5.851c.92 1.803 2.226 4.243 4.607 3.395l.523.339c-.082.185.428.188.51.452.093.301-.015.745 0 1.089-.628.195-1.556.126-2.12.319-1.27.434-1.437 2.152-3.915 2.011-1.029-.057-1.537-.671-2.083-.725-.757-.074-1.926.655-3.494.388-1.418-.241-2.624-1.623-3.514-1.839-.4-.097-.892.167-1.395.1-4.348-.588-7.195-9.469-8.106-13.096.02-1.374-.128-2.622-.264-3.978l-.249.126c0-.188-.249-.917-.256-1.541a63 63 0 0 0 .128-9.049c0-.028.267.46-.128.059-.421-3.719-3.207-10.17-4.361-14.126q-1.14-5.516-2.822-10.787c-.72-2.997-1.57-5.93-2.052-8.989-.605-6.878-1.034-14.293.257-21.317z"/><path fill="#8b5427" d="M388.1 149.992q.183 5.205.257 10.274c-.331 9.911-2.306 20.207-4.743 29.795-1.101 4.325-3.999 11.391-3.717 15.534.38 5.56 1.354 8.884.085 14.732-.393 1.808-1.562 4.076-1.824 5.622-.298 1.757.308 3.788-.318 5.46a177 177 0 0 0-.257-4.109c-.151.257-.705.752-.987 1.207-.182.293-.211.724-.295.847-.813 1.205-2.742 3.594-4.094 3.994-2.034.601-2.688-1.294-3.209-1.168-.893 1.276-2.57 3.793-4.24 2.311.862-.521 1.983-.837 2.311-1.921l-.259-.133-.108-.666q4.151-5.755 6.267-12.744c.628-.719 1.426-.501 1.734.375.738 2.109-2.863 9.578-4.289 11.509 1.821 1.258 3.824-2.14 4.632-3.578 2.617-4.654 4.135-10.35 3.476-15.703-.867-4.859-.962-9.385.613-14.115 5.387-16.333 8.101-33.715 7.27-50.99-.677-.188-.457-.406.159-.64.225-.043.515-.357.867-.244.731.237.346 2.91.405 3.732.023.332.264.588.267.622z"/><path fill="#995623" d="M310.121 74.996c-.41-1.189-2.657-9.84-2.239-10.147.454-.337.972.192 1.008.65q.577 3.995 2.001 7.443c.195-.134.397-.167.602-.075 7.609 20.958 31.826 16.44 39.577-1.736.326-1.094 1.955-2.381 1.888-.758.77.25.983.519.711 1.307-.841-.018-1.265.76-1.224 1.518-.382.689-.974 1.654-1.282 2.312-.829 1.772-.857 8.193.295 9.85.71 1.022 1.816.58 1.498 1.964l-1.539-.254c-.565.488-.921.12-.513-.514q-1.15-1.994-1.283-4.109c-.315.018-.618.01-.656-.29l.23-2.4q.065-.764-.343-.651c-.678 2.198-3.314 4.17-5.218 5.573-4.55 3.352-9.868 5.221-15.552 4.759-2.003-.162-4.825-.406-6.161-1.86-.454.031-.631.085-.89.478-.236.362-.006 3.599.146 4.161-1.716 1.443-2.37-.105-1.821-1.813-.036-.83.046-1.534 0-2.312-.006-.085.005-.172 0-.257.233-.719.315-1.728-.513-2.054-3.702-1.934-7.096-7.004-8.722-10.787z"/><path fill="#5e3a1c" d="M308.582 42.892c.816.693-.618 4.273-.254 4.623.054.051.559-.031.767 0l.262-2.317c.113.036.21.257.251.26q.347.535.405 1.168c-.792 8.345-1.467 16.946 1.011 25.078l-.136 1.235c-.018 0-.085.408-.254.257-.516-.468-1.58-6.18-1.824-7.243l-.744-.974 2.05 10.017c-2.932-6.819-2.86-13.396-2.834-20.685 0-.537.287-1.056.259-1.518-.024-.378-.785-1.883-1.016-2.453.415-.755.749 2.17 1.159 1.032.267-.742.075-1.556.123-2.316-.59-1.84-.515-4.721.77-6.164z"/><path fill="#563c25" d="M363.732 50.083c-.218.765-.293 1.564-.572 2.38-.485 1.421-1.273 1.601-.967 3.27q1.695 4.732-.257 9.76c-.975 2.24-3.906 5.8-6.397 6.308-.67.136-2.316.016-2.54.157-.056.036-.405.976-.554 1.243-.659-.706.739-1.603.767-1.71.29-1.051-.795-.75-.254-1.115l.367-.501c5.882.103 9.55-9.046 6.89-13.764l.18-.634s-.021-.296.128-.252c.551.164 1.264 1.094 1.054-.519z"/><path fill="#140a05" d="M232.398 85.013c1.191-2.751 3.381-4.138 3.82-7.862.515-4.369-.824-5.776-2.152-9.349-2.191-5.892 1.747-8.537 1.121-14.22-.262-2.374-1.383-4.293-2.619-6.224-.208-.324-.603-1.017-.683-1.127 3.15 2.897 4.328 7.399 3.474 11.567-.755 3.686-2.56 5.173-1.109 9.305 1.447 4.118 3.096 5.849 2.186 10.78-.462 2.504-2.016 5.563-4.04 7.127z"/><path fill="#180b05" d="M240.607 70.116c-4.812-11.342-.593-30.558 5.643-40.837.544.167-.01.755-.151 1.005-5.259 9.312-7.593 20.546-7.029 31.223l1.537 8.607z"/><path fill="#150905" d="m301.4 71.914 1.559-9.118c-.146-6.667-2.006-13.193-2.585-19.781-.036-.419-.157-1.148.256-1.408 1.424 8.625 4.299 22.317.77 30.307"/><path fill="#140905" d="M159.806 52.395v-.257c1.211-3.054 2.593-6.303 2.832-9.621.608-8.5.095-12.66 5.12-20.172-.436 1.733-1.642 3.292-2.352 4.964-2.658 6.229-1.886 10.361-2.591 16.669-.305 2.725-1.734 6.002-3.006 8.42z"/><path fill="#140a05" d="M206.747 11.3c-1.754-.34-4.386-.685-6.156-.77q-1.17.463-2.565 0c-2.283.118-4.863 1.197-6.559 1.27-.954.04-2.591-.494-3.573-.5-3.206-.017-7.239 1.336-10.13 2.7-.261.123-.874.642-1.028.126 4.047-2.175 7.854-3.136 12.451-3.092 4.596.043 8.434-1.13 13.079-.768 1.398.108 3.168.526 4.479 1.037z"/><path fill="#100905" d="M159.806 52.395c-3.573 7.479-4.304 15.877-.89 23.62l3.968 6.686c-6.587-7.052-8.17-18.1-4.812-27.034.441-1.177 1.29-2.404 1.734-3.53z"/><path fill="#170c07" d="M94.14 54.963c-.373.344-.526-.257-.65-.504-2.762-5.452-.466-10.584-.892-16.316-.22-2.949-1.18-6.193-2.437-8.861-.123-.262-.642-.876-.126-1.03 2.786 4.995 3.004 9.68 2.832 15.292-.146 4.739-1.28 6.827 1.272 11.419"/><path fill="#0e0805" d="M140.568 15.153c-8.111-4.266-16.532-4.77-25.046-1.32-.328.134-.867.575-1.118.036 7.849-3.74 18.922-3.809 26.164 1.284"/><path fill="#1b0f08" d="M283.187 15.924c-.931.424-2.29-.663-3.278-.956-6.415-1.903-12.335-.703-18.43 1.433-.328.116-.87.578-1.118.034 7.066-3.13 15.762-4.138 22.829-.514zM81.314 19.52c-.157.518-.767 0-1.029-.126-3.478-1.626-6.212-2.404-10.124-2.18-.824.045-1.768.51-2.547.485-1.237-.042-3.222-.845-4.674-.971-1.629-.142-3.447.251-4.969-.29 1.563-.11 3.96-.129 5.51.005 1.324.113 3.204.899 4.366.896 1.275 0 2.763-.699 4.356-.645 2.847.098 6.628 1.454 9.11 2.826"/><path fill="#371306" d="M6.413 148.965c-.58 5.375-.995 11.714-.51 17.077.115 1.284.777 3.046.253 4.24-1.164-7.376-.818-14.19 0-21.574z"/><path fill="#160c07" d="M305.504 89.893c-.167.544-.754-.01-1.003-.152-1.616-.927-3.106-1.831-4.804-2.638-3.058-1.448-8.514-3.071-10.61-5.172 5.382 2.863 11.253 4.682 16.417 7.962"/><path fill="#110905" d="M99.013 42.892c-2.16 3.57-1.69 7.638-.906 11.565l1.162 4.102c-2.336-3.974-3.309-12.226-.256-15.924z"/><path fill="#120804" d="M377.84 231.409c.02 3.863-.108 7.703-.257 11.558-.243-.239-.282-.545-.274-.868.113-4.937.344-9.863.274-14.799.108-.185-.246-.845.254-.768.011 1.623-.005 3.254.003 4.877"/><path fill="#3d1709" d="M11.03 190.059c-1.05-3.591-1.947-7.156-2.822-10.787l.267-.144c.58 3.315 1.757 6.469 2.634 9.698.103.375.413.978-.08 1.233"/><path fill="#181c0b" d="M364.758 45.717c-.562-1.608-.134-3.557-.259-5.263-.146-1.939-.731-3.803-1.288-5.648-.103-.339-.487-.932.008-1.16 1.477 3.78 1.836 8.033 1.539 12.07"/><path fill="#1e1209" d="M361.936 65.493c-.495-.228-.11-.822-.007-1.16 1.285-4.26 1.015-4.454.264-8.6 1.906 2.433.887 7.13-.257 9.76"/><path fill="#1c230d" d="M348.854 21.317c2.106.2 4.517 1.21 6.156 2.569-2.654-1.397-5.648-2.607-8.718-2.314z"/><path fill="#580f00" d="M388.357 160.266c-.426-.267-.257-.976-.262-1.41-.031-2.923.144-5.969.005-8.864h.257c.082 3.336.11 6.945 0 10.274"/><path fill="#140a05" d="M15.39 213.174c-.035-2.784.3-6.339 0-8.989l.257-.134c-.028 2.571.036 5.142.005 7.713-.005.434.164 1.143-.261 1.41"/><path fill="#5e3316" d="M319.355 87.838c-.053-.77.149-1.43-.513-2.055.206.108.575-.067.731.419.129.403.177 1.395-.218 1.636"/><path fill="#472b18" d="M147.75 129.702c1.88-1.731 3.199 2.959 1.524 4.109-.678-.043-1.18 1.778-.975 1.976.249.238 6.574 1.756 6.762 1.466q.644-11.584 1.182-23.323c.128-1.04.636-3.28 2.001-2.294.746.54.615 4.518.564 5.53a241 241 0 0 0-.926 24.345c1.116 11.591 1.601 23.388-.736 34.889 3.481 1.094 12.295 11.031 12.241 14.085-.003.2-.041.403-.09.603-.403.324-.924.696-1.283 1.028-4.345-10.993-14.829-16.517-25.138-20.804-.487-.632.644-2.779 1.539-2.568l.519.264c-.806 1.128 2.967 2.366 3.037 2.168 2.159-6.031 3.976-12.95 5.586-19.173.395-1.528 2.827-11.17 1.686-12.112-.277-.231-6.752-1.603-7.024-1.367l-.956 3.064-.542.188q-.293 2.235-1.539 2.055c-.836 2.321-4.994 3.007-7.287 3.097-1.185.046-3.614.144-3.999-1.043q-.746.59-1.847-.575l-.462.062-.697-.321c-1.668-2.972-3.286-6.714-3.427-10.135-.059-.18-3.012-.093-3.197.136-.292 6.457-2.026 11.838-9.401 12.796-8.716 1.132-12.443-4.272-12.505-12.367l-2.96-.357-.384-.539c-.406.69-.88.696-1.283 0-.354.747-2.055.927-2.565.256-.085.72-.939.427-1.283 0a30 30 0 0 1-2.383-.68q-1.418.065-2.49-.347c-.606.144-.652-.044-.418-.598.32-.761 3.722-.198 4.412.107l.364-.279a45 45 0 0 1 7.241-.735c2.365-1.425 4.586-1.705 7.359-1.883 4.859-.31 10.233-.138 14.898 1.077l.526-.298c.539.482 4.181.475 4.612.249.639-1.433 1.988-1.85 3.42-2.165 4.247-.935 9.416-.804 13.695-.301q.899-.246 1.352.2c-.283-1.412 1.113-.364 1.282.514z"/><path fill="#a06c3b" d="M95.165 134.839c.767.013.837.241.967.906l1.388 13.256c1.036 14.208 7.988 26.256 23.032 28.244 16.614 2.196 25.649-9.331 25.22-24.952-1.418 2.035-3.991 1.97-6.156 1.382l-5.32-1.497q-1.524.02-2.193-.642c-.554-.486.649-1.873 1.282-1.541q.786-.924 2.483-.211l4.869 1.431c3.258.516 3.524-1.259 3.848-4.053q-.14-1.907.6-3.331c.603-.576 1.016-1.418 1.539-2.055l.487.488c-.012.883.049 1.767.159 2.645.967 7.834 1.283 11.748-.826 19.836-.331 1.269-1.133 3.351-2.131 3.999-.575.593-1.106 2.034-1.539 2.568-1.498 1.842-4.263 3.932-6.413 5.137-.223.793-1.134 1.718-1.796 1.027-1.249 1.605-4.204 2.106-6.258 2.455-12.038 2.047-24.941-4.71-29.91-15.81l-.543-.373a34 34 0 0 0-.74-4.25l-.56-.478c-.211-.837-.924-5.142-.74-5.615.05-.125.154-.228.272-.326q-.769-.53-1.026-1.798-.593-.573-.246-1.895l-1.513-14.182.477-.36c.433-.367 1.087.015 1.282 0z"/><path fill="#3d3829" d="M95.881 167.331q1.378-3.294.852-7.389l.484-.444c.7 1.286 1.204 3.172 1.283 4.623.795.662.688 3.829-.513 3.852l.164.668c-1.816 1.05-1.731 1.482-.82 3.413 5.904 12.524 25.037 20.778 35.798 9.275q-.258-.905.762-2.163.165-1.08.777-1.69c.362-.167 1.311-.755 1.796-1.027-.339 8.208-8.835 12.598-16.289 12.6-9.663.005-22.416-7.957-25.15-17.467-.147-.511.107-1.731-.493-1.549-10.486 3.195-24.633 8.645-31.938 17.08-1.632 1.882-2.85 4.071-4.369 6.028 2.373-4.798 6.095-9.105 10.758-11.848-.756-.773.947-1.916 1.473-1.986.33-.043.533.458.849.355.087-.028 1.382-.832 1.434-.902.102-.141-.31-.816-.403-1.032.174-.254.36-.504.57-.727s.415-.424.659-.57c6.135-3.639 13.18-6.156 20.015-8.096.42-.119.952-.362 2.301-1.004"/><path fill="#4b3827" d="M54.124 204.185c-.493-.229-.11-.822-.008-1.161.32-1.043.639-2.332 1.29-3.206-.425 1.454-.874 2.913-1.282 4.367m-.77 2.311c-.303 1.174-.492 2.412-.77 3.596-.497-.789.18-2.204.396-3.074.053-.216.087-1.185.374-.522m2.052-6.934c.303-1.046.534-2.266 1.283-3.083-.352.917-.441 2.482-1.283 3.083"/><path fill="#4a2d1a" d="M191.613 179.785c-.346-.711.516-.899 1.137-1.012q2.934.25 3.321-2.209c-9.862-8.845-10.668-21.738-9.421-34.051.269-2.668.569-3.691 2.283-5.776 1.244-1.513 11.348-11.406 12.5-11.386.961.016 1.413.727 1.069 1.595a28 28 0 0 0-1.406 3.809c.339.537 5.615-2.255 6.326-2.638 2.586-1.268 2.557.401 2.388 2.327 3.773-.367 10.204-8.86 12.387-12.246.477-.403 1.013-.192 1.377.268-.043 8.259 4.52 14.76 9.153 21.011 4.956 10.192 3.976 24.418-3.373 33.212.056 5.576.107 11.039-4.092 15.492 8.101.136 15.812-3.734 17.464-12.256.041-1.169.718-6.28 2.431-3.801 1.152 1.664-1.059 8.578-2.244 10.232-.144.039-.998.799-.77 1.027l.778.006c-.029.123-.26.213-.265.251-1.608-.29-2.367 1.415-3.47 2.304-.906.729-2.242 1.608-3.281 2.109-1.531.737-7.046 2.024-7.613 2.522l.256-.511c-.854-.216-1.198.213-1.795.511-1.763.406-7.288.976-5.438-2.286 3.416-2.538 5.037-6.285 5.745-10.507.157-.935.344-2.491-.307-3.131-.288 1.284-2.506 2.943-3.725 3.619-5.869 3.246-11.671 4.322-18.251 2.599-2.182-.573-5.348-1.508-6.5-3.393l-.5.355c-.033 1.941-.854 2.773-2.66 3.398-.703.244-2.278.729-2.483-.157-1.208-.044-.013-1.5-1.026-1.284z"/><path fill="#572f14" d="M271.388 221.906c-.038-.005-.131-.228-.251-.259l-.259 1.287c.274-1.642-.229-2.887-.516-4.364.51-1.261.908-9.269 1.926-9.503.293-.067.498.172.595.424l-1.241 12.287c-.031.126-.141.141-.254.128"/><path fill="#7567b8" d="m300.63 110.439-5.13-.516c2.493-10.109 12.849-14.901 21.419-19.003.533 13.43 15.011 15.996 25.179 10.571 5.499-2.933 9.975-7.759 12.551-13.42 11.858 4.156 22.75 7.868 27.926 20.319 4.45 10.705 5.376 22.83 6.551 34.28-.002.331-.187.439-.415.616-2.175 1.703-12.069 3.095-15.111 3.362-3.981.352-8.055.488-11.892-.801l-.549-18.328c-.4-1.515-.098-3.303-.959-4.682-.165-.265.01-.449-.575-.326l.508 23.757c.179.974 2.355 1.31 3.183 1.639.164 8.193-.261 16.566-.351 24.823l-1.806 21.692h-4.745c-.732 0-5.321-4.756-6.421-5.642-7.28-5.861-16.186-8.843-24.62-12.591-1.842-1.294-1.552-6.336-1.408-8.478q-.431-1.742.064-3.087c4.52.699 7.939-3.932 9.229-7.823 1.173-3.544.862-5.959-.559-9.231 7.213-18.215-7.944-46.153-29.647-37.988q-1.296.858-2.429.855z"/><path fill="#f8b574" d="M386.561 145.883c-.177 1.019.221 1.983.267 2.943.59 12.03-.764 24.089-3.471 35.844-1.236 5.371-5.345 16.158-5.002 20.925.272 3.742 1.08 6.775.762 10.787-.331 4.194-3.255 12.824-6.943 15.153-.775.488-2.378.064-2.255-.719.036-.224 1.898-3.175 2.237-3.937.556-1.246 2.59-6.581 1.967-7.549-.18-.28-.357-.323-.657-.128-.356.233-2.475 6.698-3.106 7.933-.846 1.657-2.332 3.912-3.555 5.302-.6.683-.916 1.494-2.052 1.284.064-1.688-.331-2.859.513-4.367l-.17-.395q3.001-4.662 3.333-9.793-.905 4.358-2.984 8.093l-.692.041c-.285-7.109-1.365-14.121-2.822-21.061-.582-2.486-.269-2.167-.033-4.528 1.267-12.651 2.57-25.38 2.855-38.107-.195-4.435-.231-8.919 0-13.355.561-.272.087-1.849.259-2.055.277-.097.559.257.638.257h6.157c1.262 0 3.568-.365 5.002-.513.959-.036 1.144.48-.016.829-1.431.434-9.603.771-10.814.306a4.5 4.5 0 0 1-.713-.365c.846.203.78 3.241 0 3.596l1.075-.355c5.314.63 10.722.124 15.836-1.317.408-.116 3.566-1.243 3.651-1.421.046-.095.018-2.065-.067-2.126l-4.687.85c-.59-.008-.738-.265-.418-.768 2.029-.136 3.928-.902 5.9-1.284z"/><path fill="#d8913d" d="M302.426 110.953c1.072-1.423 3.958-1.931 5.779-2.147 18.784-2.224 30.476 22.686 23.912 38.161-2.742-1.462-5.046-.755-6.782 2.036-2.122 2.181-2.914-.221-3.368-2.098s-.521-4.03-.534-5.858c-8.067-3.388-12.761-10.266-16.668-17.452-1.054 2.255.47 6.148 1.555 8.586 2.611 4.548-4.105.942-5.397-.812q-3.793-4.61-5.808-10.553c-4.289 4.88-8.865 9.492-14.146 13.245-.826.703-1.634 1.438-2.283 2.303l-.631.018a26 26 0 0 0-1.411 6.385c-1.201 1.053-2.132-4.35-2.206-5.026-.695-6.282 1.821-12.798 5.482-17.817.797-1.091 3.419-4.361 4.463-4.823.274-.121.569-.103.854-.033 3.014-.992 5.597-3.337 8.852-3.591 2.106-.164 4.345.678 6.151.521 1.062-.089 1.483-.765 2.181-1.04z"/><path fill="#feefce" d="M288.831 84.499a.7.7 0 0 1 .274.144c2.252 2.057.2 15.428-1.195 18.374l-2.927.231c-4.591 1.649-6.336 8.969-1.282 11.047l-1.54 1.538-.269.868c-3.655 3.051-5.435 7.582-6.954 11.964l-.728.526q-.643 4.059-3.971 7.469c-.983 1.186-1.493 3.562.059.863l2.55-3.414.59-.038.543.537c-.238 1.929-.113 3.75.383 5.463l-.413.421a181 181 0 0 1 2.429 5.119c-.685 7.545-.403 15.402 2.188 22.619l.759.447c1.839 3.937 4.556 7.577 8.344 9.806l.385.794c-4.594 2.119-9.486 3.685-13.831 6.313-2.516 1.523-4.574 3.349-6.564 5.499-.767.827-1.626 2.447-2.332 3.1-.292.269-.336-.021-.356-.016-.362-.329-.352-.691 0-1.027l-.257-3.596c-.254-11.555-.374-23.105-.274-34.663.046-5.18.384-10.553 1.557-15.42q-.511-1.165.274-2.584c.465-1.515 1.126-3.66 2.291-4.607 1.062-3.968 2.703-7.798 4.361-11.558 1.103-3.393 2.352-6.778 3.847-10.017.126-2.229 1.506-4.977 2.632-7.024.218-.398.595-.681.959-.937l4.618-12.842c.713-2.53 1.675-5.024 1.798-7.705.905.56 1.328 1.569 2.049 2.311z"/><path fill="#9387cc" d="m283.188 90.663.046.989a255 255 0 0 1-10.014 25.306q-5.837 12.928-8.83 26.541a300 300 0 0 0-.513 40.254q-.575 1.368-.441 2.967c.075 3.336-.225 6.716.257 10.016-.293-.061-2.414-3.269-2.948-3.855-.354-.393-3.011-2.982-3.208-3.079l-.231-1.477c.869-5.026 1.31-10.186 1.546-15.397.526-11.579.177-22.412-.302-33.949-.044-1.045.092-2.085.269-3.113-.051-.632.056-1.284-.003-1.923-.082-.851-.728-3.17-.384-3.727s1.675-.712 1.688-1.919c.01-1.068-1.899-6.133-2.306-7.736-2.163-8.478-2.722-21.312-1.047-29.9.256 0 .562.056.613.261.695 2.705.929 3.296 2.383 5.761.977 1.654 5.071 7.777 6.895 7.865 1.326.064 6.372-4.4 7.59-5.52l8.36-8.509z"/><path fill="#754820" d="M300.63 110.439c1.265-1.42 6.182-2.681 8.083-2.822 17.804-1.313 28.488 19.093 25.997 34.763-.249 1.561-1.454 4.112-1.495 5.198-.031.804 1.039 2.214 1.208 3.38.813 5.609-3.432 14.909-10.194 13.928-.054.722.082 1.49.013 2.206-.033.327-.264.589-.267.622l-.254-1.025c.064 2.091-.092 4.207-.013 6.3.041 1.087.96 2.469-.243 2.944-.649-2.284-.488-4.472-.511-6.809-.005-.434.164-1.143-.261-1.41q-.793-.463-.177-2.083.284-.858.177-1.513c-.806-.686-.057-1.741.903-1.644 6.135 2.371 10.858-9.081 7.977-13.296-1.996-2.923-4.217-.437-5.582 1.667-4.524 4.243-6.702-5.918-6.099-8.797-4.82-2.237-8.865-5.997-11.995-10.268q2.166 2.173 1.724 4.41c-7.426 1.135-13.054-6.293-14.973-12.703a82 82 0 0 1-13.772 12.854q-.672 1.087-1.536 1.064-.57.346-1.283-.771v-.257c1.521-2.427 6.493-5.542 8.858-7.697 3.001-2.735 5.612-5.876 8.2-8.992 1.95 3.58 2.66 7.281 5.413 10.5 1.431 1.672 4.019 3.767 6.256 3.752-1.583-1.98-3.791-8.63-2.537-10.761.092-.157.305-.53.487-.291.908.386 3.284 5.456 4.097 6.691 3.116 4.731 7.867 8.737 12.964 11.162.267 1.729.277 7.803 1.924 8.622.767.383 2.372-2.306 3.093-2.823 1.38-.988 2.776-1.012 4.366-.547.628.185.305.614.744.655 4.979-13.792-2.714-34.295-18.194-37.125-4.287-.784-7.347-.139-11.302 1.428-.931-.07-1.521.757-2.429.775-1.303.026-3.048-.86-4.5-.521v-.768c.472-.496 4.01.55 4.756.519.826-.034.349-.488.377-.522z"/><path fill="#f8b270" d="M349.624 82.444a9.3 9.3 0 0 0 1.282 4.11c.193.236.267.32.513.513.454.355.67.897 1.539.773-4.042 9.95-17.409 18.174-27.88 13.402-3.86-1.76-8-6.444-5.725-10.833.01.223.213 1.72.29 1.764.141.082.921.072.977.02.331-.297.264-4.137.272-4.864.067-.074.834.188 1.023.257l.134.332c-.824.233-.564 3.46-.041 3.93 1.352 1.206 7.972 1.52 9.578 1.311 7.082-.927 15.491-6.947 17.263-14.046.098-.113.036-.763.511-.77.156 1.297-.326 2.912.259 4.109z"/><path fill="#f8ab66" d="M322.434 169.255c.051 1.998-.1 5.622 1.023 7.322 1.075 1.629 2.686.416 1.585 3.123-5.135 12.634-32.474 20.671-34.929 3.681q.093-1.22 1.462 1.253c8.075 6.038 18.856 1.932 25.544-4.425 3.101-2.949 4.24-6.917 4.545-10.954-.775-1.816 1.56-2.363.77 0"/><path fill="#fbead3" d="M308.069 93.745c-1.231.989-3.409 1.934-4.845 2.982-3.158 2.301-5.962 5.139-7.768 8.661-.51.993-1.354 3.87-2.008 4.281.105-2.312-.995-4.433-2.886-5.715-.451-.305-1.175-.405-1.221-.452-.146-.154.901-3.457 1.026-4.106q1.485-7.505.257-14.64c.346-.352.292-.218.687-.062 3.24 1.28 7.814 3.385 10.861 5.065 2.067 1.14 4.048 2.52 5.895 3.986z"/><path fill="#de8946" d="M321.664 169.255c.823-.085.559.842.454 1.351-.377 1.826-1.406 6.012-2.393 7.363-5.541 7.577-17.625 13.05-26.541 8.376-1.142-.599-2.899-1.703-2.799-3.108l-.269.144c-.149-1.033-.534-1.937 0-3.082l1.018-.131c11.089 4.489 23.191-.938 29.632-10.489l.898-.427z"/><path fill="#5b3f25" d="M284.727 89.893a171 171 0 0 1-4.361 12.841c-1.1 2.682-2.506 5.289-3.591 7.962a455 455 0 0 0-4.104 10.017 163 163 0 0 0-4.105 11.558c-.82 2.355-1.949 4.787-2.565 7.191q-1.582 7.443-1.559 15.518a1435 1435 0 0 0 .292 38.477l-.272.968c-.013.37.226 1.294-.51 1.538-.277-.955.292-2.178.269-2.966-.015-.558-.454-.894-.541-1.513-.308-2.18.259-5.067.01-7.333l-.254 2.566c-.295-13.327-1.039-28.491.259-41.733.806-8.232 4.992-17.85 8.014-25.622 3.714-9.547 8.467-18.973 11.479-28.701l-.288-.789c.331-1.279.916-2.435 1.57-3.578-.7-.28-.482-.832.257-.77l.292.17.48-4.023c.29.075.631.427.715.696.375 1.213-1.074 6.03-1.487 7.523z"/><path fill="#975522" d="m279.34 137.407.267.558c-5.01 16.987-.819 45.326 22.934 41.928 9.286-1.328 15.645-8.147 19.762-15.872l.387.097c.041 0 .136.213.241.254.18-1.839 1.08-.493 2.452-.49.734 0 1.262-.355 1.927-.403-.028.221-1.131 1.13-1.213 1.148-.816.179-2.096-.542-2.653-.142-.328.237-.692 2.648-.754 3.229-.049.48.205 1.253-.256 1.541-.008-.298.11-1.279-.129-1.287-.29.36-.379.881-.641 1.287-6.762 10.487-19.538 16.34-31.551 11.044-.426-.188-1.511-.75-2.052-1.028-4.327-2.211-7.595-6.634-9.491-11.043-2.401-6.953-3.044-14.779-2.157-22.052a9 9 0 0 1-.151-1.577c-.185-.766-.306-1.796.454-2.189q.206-3.067 1.341-5.773c.624-.54.834.4 1.283.77"/><path fill="#e49957" d="M380.662 147.167c.023-.003.023.308.389.259 1.77-.233 3.492-.698 5.251-1.03-.108.571.167 3.093-.025 3.314-.057.066-1.273.277-1.696.485-3.168 1.569-6.618 2.039-10.212 2.36-3.05.273-6.087.27-9.103-.254v-3.596c4.086.155 8.121-.159 12.184-.511l-.641-.259c1.146-.118 2.639-.606 3.847-.771z"/><path fill="#724b23" d="M284.214 114.292c.102-.036.497.236.774.116.798-.345 2.432-1.654 3.668-2.217.967-.439 3.24-1.844 3.763-.729-2.424.935-5.148 1.995-7.182 3.598-7.046 5.555-12.679 17.139-9.496 26.071.139.386.357 1.287.772 1.408.29-2.088.421-4.372 1.542-6.164v.257c-.99 2.57-.731 5.439-1.796 7.961a13.5 13.5 0 0 1-2.308-4.109c-.17-.65-.439-1.166-.508-1.931-.134-1.477.125-3.026-.005-4.49-.375-.367-.357-.922-.293-1.41q1.047-1.741 1.062-3.47c1.744-4.987 3.555-10.047 7.952-13.355.3-.226 1.929-1.5 2.052-1.541z"/><path fill="#d3ceeb" d="M291.652 110.696c-2.195.565-4.235 2.16-6.412 2.569-5.746-1.793-2.558-9.58 2.934-8.715 2.329.367 4.425 3.925 3.478 6.146"/><path fill="#421d0a" d="M266.001 139.462c-.849 3.316-1.159 7.713-1.293 11.162-.489 12.708-.023 26.141.011 38.921l.256 3.596v1.027c-.172.051-.341.19-.513.257.67-18.21-1.682-37.003 1.273-55.107z"/><path fill="#955828" d="M365.271 229.355h-.511c-.012-.427.008-.858 0-1.285q-.138-.43 0-.77c.921-1.061 1.642-2.633 2.06-3.973.303-.971.652-4.839 1.662-4.693 1.101.159.249 3.036.049 3.837-.759 3.044-1.847 4.356-3.26 6.881z"/><path fill="#52543e" d="M360.91 195.966c-.164 1.297-.149 2.661-.287 3.95-.039.357-.136 1.562-.48 1.698l-3.081-5.905 3.848.254z"/><path fill="#2a1007" d="M364.758 227.3c.005.257-.008.513 0 .77-.744-2.191-.341-4.564-.516-6.803-.364-4.641-1.231-9.295-2.38-13.8-.095-.375-.426-.968.074-1.228 1.729 7.389 2.701 13.41 2.822 21.061"/><path fill="#250601" d="M364.758 150.249c-.075 4.446.1 8.912 0 13.355-.426-.267-.257-.973-.262-1.41-.056-4.535.051-9.079.003-13.614l.256 1.669z"/><path fill="#474133" d="M42.324 176.703c1.883-.986 4.25 1.659 5.205 3.283.97 1.654 2.496 6.803 2.196 8.627-.07.421-.272.328-.25.326 2.332-.324 5.924-.529 8.307-.501.513.005 1.003.136 1.475.336-6.157 8.743-8.968 22.561-10.774 32.875-.105-5.344.136-10.715.01-16.062-.069-2.951-.372-6.031-.52-8.982-.35-6.896.956-17.323-7.955-19.131 1.311-.095-.467-.234 0-.768.151-.172 1.993-.054 2.306 0zm.256 66.777c-.425-.267-.256-.973-.26-1.41-.027-2.095.004-4.201.004-6.295.426.267.257.974.262 1.41.026 2.096-.005 4.202-.005 6.295"/><path fill="#9387cc" d="M229.577 86.297c13.367 4.315 20.333 13.06 24.497 26.197l4.381 15.665c-4.148 3.125-9.07 4.933-13.998 6.42-.323-3.187-.918-6.377-2.05-9.379-.82-2.178-2.793-4.79-3.324-6.688-.482-1.721-.241-3.778-.595-5.568-.149-.761-.551-2.828-1.485-2.137-.593.439-.128 4.577.01 5.535-2.632-2.466-3.891-4.297-7.636-5.065-2.791-.573-1.86-.452-4.158-1.744-8.242-4.644-20.693-3.406-28.301 1.977-10.843 7.672-13.508 18.603-17.61 30.397-3.524 10.13-8.898 21.849-5.527 32.739 1.257 4.06 3.675 7.017 7.056 9.5-3.876 1.844-8.195 4.246-11.543 6.935-2.78-5.871-6.928-11.216-12.576-14.532 1.236-7.361 1.764-14.599 1.557-22.078-.149-5.365-.924-10.794-1.049-16.157-.16-6.858.843-13.72 1.049-20.55.036-1.184.215-5.067-.395-5.789-.657-.775-1.109 1.755-1.152 2.186-.562 5.774-.485 12.148-.762 17.986-.087 1.87-.477 3.825-.269 5.769-.957-.242-7.67-1.503-7.952-1.798-.069-.072.264-1.911.313-2.001.2-.352 1.429-.668 1.506-1.977.025-.417-.339-1.865-.596-2.124-.32-.324-.9-.201-1.223-.316l-.439-.468c.677-6.729 1.006-13.728-2.647-19.894l.008-.956c2.224-5.91 5.771-11.177 10.95-14.848 5.831-4.132 15.327-7.353 22.299-9.01.487-.115.315.011.354.355.233 1.965-.041 3.118.72 5.19 2.537 6.902 9.463 10.549 16.466 10.868a6.6 6.6 0 0 0 3.078 0c6.713-.334 11.753-2.854 15.904-7.962-.203-.938.579-1.996 1.539-2.055l1.026-1.798c-.247-.976.623-2.679 1.539-3.082.123-.354.415-2.299.656-2.322 3.345.986 7.08 1.516 10.374 2.579z"/><path fill="#4e2d17" d="M245.994 183.124c-.375-.185-2.735-.863-3.079-.77-.289-1.195.79-2.623 1.157-3.85.262-.879 1.793-6.799 0-6.424-.505.105-.615 2.977-.762 3.606-1.192 5.078-3.398 8.524-8.085 10.91-3.804 1.937-7.121 1.911-11.291 2.176 2.824-2.604 4.524-6.295 4.868-10.148.159-1.764-.326-4.553.067-6.097.156-.611 2.314-3.09 2.86-4.071 3.614-6.495 4.027-14.378 2.904-21.6-1.101-7.073-3.078-7.72-6.603-13.165-3.037-4.695-4.858-9.316-4.868-15.033l-.508-.254-3.089 4.484c-3.027 3.303-6.141 7.428-10.765 8.353.412-.815.648-1.78.515-2.7-.049-.339.136-.46-.385-.382-2.044.3-5.625 3.421-8.336 3.084-.316-1.055 1.654-4.397 1.526-4.99-.046-.213-.375-.414-.634-.414-.502.005-6.692 5.712-7.569 6.555-1.583 1.525-5.608 5.242-6.21 7.137-.352 1.102-.567 3.2-.708 4.428-1.347 11.624.482 24.225 9.501 32.41-.367 3.229-1.68 2.515-3.94 2.959-.472.092-.693.37-.949.457-2.919.989-6.426 2.337-9.235 3.596-2.183-1.788-4.604-3.714-5.94-6.252-3.533-6.716-2.052-15.518-.088-22.514 1.914-6.808 5.036-15.279 7.562-21.964 3.874-10.246 10.492-20.771 21.806-23.627 5.279-1.333 13.665-.819 18.569 1.703.723.373 2.05 1.603 2.393 1.713 2.232.701 3.75.103 6.103 1.852 8.793 6.536 9.006 15.49 11.076 25.124 1.223 5.689 3.46 11.321 4.627 16.941 1.814 8.727 2.481 18.99-2.496 26.77z"/><path fill="#f8b06b" d="M226.755 174.648c.108-.064.475-.308.511-.256.184 3.642-.508 8.521-2.709 11.539-.716.981-3.291 2.543-3.206 3.478.118 1.304 3.709.927 4.745.886.444-.018.746-.635.659.277-1.544.771-3.132 2.476-4.868 3.473-7.013 4.019-17.145 4.184-23.94-.437-3.905-2.656-7.116-7.767-5.308-12.536 2.442.087 5.413-1.205 4.877-4.109.048-.07.6.405.767.513.577 7.055 8.685 9.244 14.805 8.656 5.033-.483 14.555-4.618 13.308-10.906l.359-.575z"/><path fill="#f7b372" d="M8.978 139.462q1.031-.445.739 1.454c6.056 2.743 13.338 3.821 19.946 2.36.005-1.097.836-2.386.862-.732-.957 6.151-2.527 13.54-2.832 19.638-.229 4.525.81 8.581 1.55 12.98h-6.029c-.095 0-1.38.373-1.598.455-2.819 1.084-4.053 4.343-2.863 7.091 2.235 5.168 8.901 3.085 13.308 3.498l3.337 15.408c.224 1.556 1.504 2.142 2.265 3.254 3.117 4.559 2.417 4.939 2.599 10.24.066 1.954.713 4.328.01 6.282-.857-.105-2.047-2.245-2.39-3.141q-1.006-3.688-2.191-7.263c-.503.069 1.477 7.497 2.006 8.244l-.25.873c.552 1.675 1.014 3.504 1.673 5.132.54 1.333 1.952 2.812 1.614 4.199-.087.355-.45.401-.462.429-5.592 2.576-6.828-9.629-9.147-10.492-.172-.064-.585-.154-.603.09-.102.876 2.273 6.56 2.855 7.672.772 1.474 1.89 3.516 3.56 4.017-3.08 3.362-6.14-2.011-7.402-4.536-.454-.912-2.591-6.49-3.243-6.508-.9.966.129 2.779.521 3.84 1.067 2.868 2.565 5.835 4.481 8.223-5.325.173-6.395-6.066-8.244-9.849-.605-1.241-1.921-3.632-1.698-.611l3.53 8.406c-3.094-.213-5.328-5.109-6.229-7.759-2.162-6.375-1.27-10.967-1.71-17.293-.285-4.081-2.486-8.774-3.671-12.762-2.311-7.785-5.071-16.828-6.087-24.854-.216-1.706-.205-3.185-.257-4.88a8.05 8.05 0 0 1 0-3.339c.098-6.693.996-13.186 2.052-19.776z"/><path fill="#7567b8" d="M37.45 185.179c.124-.072.362-.255.385-.249 1.762.346 2.132 5.776 2.437 7.183h-3.976c-.143 0-1.56-.503-1.685-.688-.685-.986-.852-4.187-1.008-5.476 1.695.054 2.419.049 3.847-.77"/><path fill="#754625" d="M40.272 221.393c.22.631.354 1.104.254 1.797l-1.539-1.153c.52.904.582 2.055 1.536 2.62l-.246 2.386-2.537-7.096-.287.161c-.854-2.599-1.937-5.126-2.237-7.902-.256-2.374.48-2.831 1.332-.566.738 1.958.902 4.308 1.805 6.411.516 1.202 1.583 2.378 1.92 3.344z"/><path fill="#ba642a" d="M257.793 141.517c.267.801.518 1.62.567 2.47.81 14.563.464 30.5-1.678 44.623l-.682.424c-2.942-2.06-5.23-3.349-8.465-4.88 8.555-15.698.611-32.441-2.821-48.283 4.35-.747 8.516-2.686 12.309-4.882l.773 10.53z"/><path fill="#553922" d="M257.793 141.517c-.015-.722.303-2.127.267-3.221s-1.044-7.055-.78-7.31c.051-.048.559.031.767 0l.516 5.908.253-1.025c1.219 14.855 1.291 29.893 0 44.815-.264 3.044-.654 6.138-1.28 9.12-.497-.244-.638-.141-1.539-.77.662-1.79.829-3.868 1.024-5.782 1.449-14.118 1.07-27.645.772-41.733z"/><path fill="#7567b8" d="M80.8 89.379c5.341 3.19 8.307 3.74 12.819 8.868 1.441 1.64 2.96 3.773 3.855 5.772l-.346.983c-7.87 6.578-9.227 16.582-7.724 26.244l-.395 1.024.12.524c-7.446 3.591-2.962 19.196 4.166 20.601 0 0 1.3-.945 2.705 0 1.404.946 1.5 14.268 0 14.768s-16.787 5.538-23.664 9.567c-4.846 2.838-9.796 6.378-13.082 11.044-3.301.455-6.66.583-10.001.511-.267-4.617-1.434-11.657-6.929-12.582-.805-.758-2.273-.529-3.145-.832-.559-.195-.74-.812-1.616-.95-1.038-.167-6.5.177-6.756-.041-.377-2.353-1.172-4.757-1.496-7.107-.436-3.169-.146-6.228.221-9.4.649-5.628 1.968-11.332 2.835-16.939.292-.75 2.1-.287 2.462-1.387l2.619-18.951c.167-.537-.01-2.977-.734-1.765-.9 1.505-1.495 6.719-1.793 8.735-.556 3.768-.854 7.613-1.318 11.393-8.116 1.118-16.545-1.004-23.602-5-.815-.463-2.552-1.159-2.583-2.058 1.809-11.218 5.505-22.92 12.382-32.065 3.045-4.05 9.355-8.304 13.972-10.41 1.026-.468 4.333-1.924 5.223-2.09.618-1.118 1.731.156 2.28.919 6.56 11.932 35.909 19.548 38.938 1.292l.593-.67z"/><path fill="#6f4a31" d="m208.799 13.356 2.566 1.027c7.107 4.459 10.629 9.516 13.156 17.519.97 3.071 1.277 6.387 2.445 9.366 2.085 5.314 7.541 7.947 7.236 14.347-.136 2.861-2.278 6.485-2.324 8.455-.057 2.4 2.152 5.312 2.814 7.731 1.436 5.252-.703 9.205-4.089 12.955-1.95.372-4.605-.08-6.156-1.284-.654-.17-1.203-.355-1.796-.514q-.91-.285-1.552-.023c-.48-.727-2.809-1.215-3.486-.606-1.434-.098-2.878-.206-3.704-1.539-2.367-3.816 1.134-9.58 3.096-12.752.316-.077.575-.236.772-.49.275-.67.416-1.277.77-2.055q.145-1.748 1.026-2.054c1.865.454 4.053-2.132 4.874-3.596a46 46 0 0 1 1.795-5.137c.385-2.18.395-5.008 0-7.191l-1.026-2.312c-1-1.073-2.311-2.1-3.855-1.677-.69.19-2.111 1.605-2.565 1.31a15 15 0 0 1-1.393-2.982c-1.124-3.28-.093-4.104-3.679-5.82-7.087-3.395-12.104-4.117-17.627-10.602-1.049-1.233-1.595-2.622-2.414-3.698-.187-.247-.408-.234-.641-.137-.336.139-2.588 5.445-3.27 6.485-4.143 6.288-9.15 7.513-14.804 11.376-2.621 1.79-1.616 3.143-2.721 5.496-1.008 2.142-1.714.17-3.107.005-2.203-.262-3.657 2.163-4.181 4.002-1.523 5.35.595 12.145 5.384 15.102.542.334 1.352.285 1.786.78.523.594 1.57 3.691 2.162 4.77.839 1.536 2.104 3.39 3.219 4.738 1.97 2.384 5.508 4.523 2.922 8.335-.721 1.063-1.031-.01-1.967.067-1.08.09-3.905 1.338-5.272 1.677-2.26.56-3.66 1.202-5.784.036-6.413-3.522-9.658-13.217-9.414-20.134.277-7.782 4.114-11.917 5.736-18.913.743-3.21.313-6.567.7-9.821 1.326-11.127 9.786-21.734 21.406-22.748 1.623-.142 3.345.105 4.868-.006 1.914-.138 3.717-.899 5.636-1.035 4.463-.316 8.229.35 12.453 1.554z"/><path fill="#7c4624" d="M149.546 61.127c-2.191 11.262-11.32 20.57-23.402 18.68-9.834-1.539-17.784-10.073-19.718-19.682-2.732.118-4.23.167-5.833-2.252-1.865-2.815-3.33-12.531-.3-14.724 1.598-1.159 3.535-.257 4.617 1.155.582.76.654 2.109 1.796 1.926l2.134-13.144c.934-4.094 1.531-8.019 5.723-9.937 5.215-2.389 19.889-2.286 25.553-.994 8.388 1.916 9.925 15.06 10.209 22.139.198 4.939.154 12.028-.779 16.833"/><path fill="#be5b24" d="M93.883 81.674c-.26.298-.518.32-.641-.049l-.065-2.121c-2.803-3.039-5.376-6.555-7.759-9.901l-.328-.632c1.857-6.711 2.89-14.147 2.406-21.133-.4-5.768-1.804-7.435-6.487-10.558q-5.82-2.919-10.36-7.371c-3.212 6.11-6.914 10.586-13.85 12.546-1.077.306-4.85 1.112-5.697.87-.754-.215-.577-.546-.177-1.196 4.479-2.527 8.647-5.666 11.948-9.655.94-1.135 2.242-2.745 2.158-4.235-4.274 7.43-11.064 11.946-18.595 15.52l-.182.53c.813 2.042.534 4.69-.344 6.716-1.331 3.08-1.929 2.56-3.537.275-3.15-3.92-7.267-1.359-7.736 3.228-.544 5.312 2.188 12.526 8.452 12.028l.713.47a55.3 55.3 0 0 0 4.802 8.432c.346 5.897-2.058 9.071-7.714 10.692l-.618-.347c-1.465.39-4.168.704-5.643.514-5.654-.73-8.326-6.295-5.782-11.311.157-.308 2.36-3.02 1.037-3.067-.426-.015-1.445 1.444-1.727 1.862-1.629 2.404-2.16 5.027-1.483 7.89-4.737-.506-6.874-5.49-5.57-9.816.764-2.54 3.713-4.931 4.008-7.286.313-2.51-1.534-5.525-1.77-8.201-.956-10.872 8.678-11.512 12.357-19.211 1.085-2.273 1.262-4.762 2.475-7.025 4.525-8.447 16.114-12.855 25.307-12.154 1.367.106 3.158.781 4.366.787 1.208.005 2.632-.568 3.845-.555 10.17.095 18.84 9.56 19.62 19.417.362 4.558-.887 9.913-.138 14.264.957 5.55 6.66 7.068 4.317 14.311-.698 2.157-2.727 3.704-2.901 6.097-.228 3.147 3.06 5.995 1.29 9.37z"/><path fill="#c2672b" d="M182.122 76.537c-3.257-2.47-5.787-5.853-7.482-9.588-.431-.95-1.744-5.537-1.993-5.709s-.505-.118-.78-.113c-.292.968.059 1.482-1.095 1.228-2.93-.648-4.584-5.933-4.802-8.55-.175-2.104.236-8.915 3.845-7.187 1.008.483.528 2.951 2.05 2.052 1.113-.657 2.749-5.822 2.608-7.276 7.516-3.803 15.935-8.432 18.687-16.992 5.23 7.14 13.418 11.041 21.693 13.59.739 1.812 2.103 8.398 3.694 9.405 1.026.65 1.724-1.942 2.957-2.186 4.32-.855 3.635 7.592 3.138 10.073-.406 2.011-2.309 6.244-4.43 6.868-.529.154-.313-.154-.383-.373-.215-.685-.261-1.656-1.277-1.677l-2.311 7.448c.41.666-.901 2.736-1.429 3.457-1.752 2.381-5.6 6.994-8.344 7.937-.136.046-.305-.008-.488-.093-1.672.373-3.075 1.338-4.766 1.778-6.092 1.594-12.038.516-17.293-2.805-.732.097-1.668-.565-1.796-1.284z"/><path fill="#874c26" d="m118.764 97.084-4.866-5.273c-1.626-2.25-3.44-4.456-4.491-7.06-.231-.568-1.165-3.344-1.147-3.732.026-.55.895-1.01 1.211-1.59.215-.398.828-2.648.828-3.023v-4.238c6.541 7.536 16.61 11.84 26.416 8.085l3.594-1.92c-.175 1.196.692 1.949 1.074 2.904 1.591 3.956-2.347 10.597-4.93 13.654l-3.583 3.988-.877.203c-3.984-1.697-8.204-1.908-12.467-1.536l-.764-.465z"/><path fill="#bd652a" d="M210.852 77.308c-.608-1.012 1.138-2.132 1.618-.758.051 3.452 1.039 6.39 4.984 6.467 1.029.627.357 3.537-.703 3.794q-.6 2.131-2.052 3.595c.665.409.252 1.138-.513 1.028-6.028 8.139-19.389 10.851-27.939 5.244-2.896-1.9-6.179-6.03-6.623-9.549-.292-2.324.149-1.53 1.226-2.748s1.534-2.59 1.783-4.25l.908.356c6.074 8.635 18.669 9.624 25.569 1.613.864-1.004 2.904-3.747 1.739-4.795z"/><path fill="#4b2e1c" d="M40.272 85.783c1.437-.383 5.194-2.114 6.154-3.213.618-.709 1-1.728 1.213-2.637.187-.8.587-3.833.454-4.46-.085-.395-2.74-3.944-3.252-4.925-.467-.892-1.04-3.367-1.876-3.516-1.475-.262-2.51.01-4.063-.812-4.712-2.486-7.09-14.057-1.95-16.769 3.546-1.87 5.429.868 7.296 3.447 1.537-2.086 2.121-4.484 1.931-7.066-.064-.886-.874-1.456-.12-2.419.387-.496 5.713-2.961 6.862-3.66 2.975-1.808 5.848-4.122 8.123-6.762.7-.815 3.453-5.109 3.75-5.237.855-.365.896.796.688 1.44-1.147 3.555-7.264 8.859-10.353 10.97-1.395.953-3.055 1.639-4.337 2.717 3.255-.29 6.081-.7 9.07-2.088 5.315-2.468 8.216-6.842 10.553-12.03 1.274 1.78 2.896 3.064 4.666 4.312 3.711 2.625 9.921 4.975 11.81 9.236 2.541 5.738.676 21.22-1.47 27.284.153.282.248.59.205.914-.254 1.968-3.589 6.516-4.948 8.193-.867 1.071-2.645 3.167-3.979 2.962-.203-.537-.852-.262-.985.17-.28.9-.007 3.692.503 4.55.705 1.184 1.962.822 2.716 1.264.36.21 1.198 1.32 1.87 1.72-.58 6.113-3.935 10.205-9.993 11.44-9.643 1.962-22.135-1.865-28.476-9.52-.908-1.097-1.918-3.727-3.342-3.46.352-1.567-.628-1.51 1.45-1.762l-.167-.293z"/><path fill="#b6ace3" d="M98.823 102.734c-2.655-3.56-5.179-7.127-8.742-9.867L86 90.152c6.698-3.436 13.505-6.947 20.775-8.994 1.013 6.282 5.44 11.755 10.006 15.923l-.882.599c-5.62.503-11.289 1.662-16.006 4.923l-1.067.129zm35.588-2.836c4.746-5.093 9.319-10.781 8.724-18.235l17.954 7.194c.118.67-.098.396-.365.534-2.375 1.22-4.658 2.343-6.795 3.981-4.689 3.59-8.059 8.54-10.283 13.975l-.967-.396c-2.111-2.563-4.743-4.646-7.68-6.182l-.588-.868z"/><path fill="#9f6f40" d="M132.872 98.882c.454.187 1.114.308 1.539.513 3.607 1.729 6.821 4.264 9.235 7.449.303.398.723 1.081 1.026 1.541 2.916 4.43 3.891 10.522 3.601 15.805-.1 1.806-.726 3.663-.523 5.512-1.213-.442-.723-.516-1.029-.77-.156-.129-.23.241-.254.257q-.957-.235-1.023-1.644c-.326-1.218-.782-3.511-.259-4.521.259-1.6-.074-3.22-1.003-4.869-.051-.614.21-.853.746-.524q.935.342 1.193 1.595c-2.483-18.23-18.664-22.355-34.572-19.489-15.91 2.866-23.622 16.307-20.372 31.694l-.375.837q-.419.174-1.026 0c-.08.753-.549.66-.77 0-.661-5.476-1.12-10.792.385-16.181 1.375-4.923 4.228-8.801 8.08-12.071.5-.424 1.016-.896 1.54-1.284 5.412-4.014 11.401-5.073 17.955-5.65.59-.052 1.203.038 1.796 0 5.74-.375 8.711-.414 14.108 1.797z"/><path fill="#a54f1e" d="M93.883 81.674c-.126.87-2.624 2.974-3.489 3.313-1.162.455-2.219.26-3.437.28.82-.758 1.714-4.77.995-5.358-.164-.133-.713.016-.992-.036.454 5.075-4.764 9.062-9.491 7.066-1.64-.693-1.552-3.072-1.28-4.626.097-.552.315-.439.51-.637.539-.552 1.37-.996 1.932-1.533 2.95-2.835 5.463-6.793 6.79-10.538l.51-.254c.387 1.459 1.908 2.56 2.819 3.727 1.162 1.49 2.16 3.133 3.347 4.61 1.45 1.805 1.906.888 1.576 3.608-.021.177.215.355.212.38z"/><path fill="#975223" d="M182.635 80.133c.057-.38-.159-1.01.129-1.282 3.314 2.507 7.305 3.65 11.414 3.85a8.6 8.6 0 0 0 3.592 0c2.606-.167 5.204-.76 7.438-2.054-.146-.663.026-.725.513-.257.706-.265 1.316-.594 1.683-1.284h.626c-.126-.856 2.088-2.173 2.822-1.798.836-.548 1.036.143.895.898-.711 3.807-5.261 7.575-8.786 8.795-8.264 2.86-15.365-.016-20.328-6.87z"/><path fill="#462b19" d="M216.238 67.548c.021-.003.126.216.231.249l.667-1.536c.328.59-.803 2.137.641 1.287-.972 2.378-2.483 4.44-3.588 6.603-.649 1.269-.536 5.725.397 6.737 1.093 1.186 3.771.806 5.308 1.107.897.177 1.905.732 2.757.96h-1.539l.256.768c-.089.075-1.559-.02-1.536-.508l1.023-.514c-.456-.056-2.967-.63-3.075-.516-.546.575.949 1.184 1.008 1.436.079.336-1.111 1.79-.241 2.414-.39 1.127-.89 2.083-1.539 3.082l-1.026 1.798a39 39 0 0 1-1.539 2.054l-.511.257c-.231-.755-.049-1.125.254-1.797.282-.38.349-.774.513-1.028q1.448-1.487 2.052-3.596c.331-1.091.821-2.183.772-3.338-2.106.164-4.26-1.092-4.996-3.09-.519-1.41-.247-2.707-.652-4.102-.221-.162-.875.907-1.023 1.027-.744.601-1.999 1.264-2.822 1.798a92 92 0 0 0-2.309 1.285c-.22.156-.366.172-.513.256-2.537.755-5.02 1.636-7.695 1.798-.731-.305-.41-.619.257-.77a18.46 18.46 0 0 0 8.208-2.825c3.057-1.963 6.251-4.98 8.313-7.985.324-.47 1.747-3.28 1.947-3.316z"/><path fill="#d3ceeb" d="m89.007 87.07-4.269 2.242-2.14-.706 3.307-1.929c1.04.236 2.009.54 3.104.393z"/><path fill="#462b19" d="M230.603 84.756c-.049.054.156.457-.151.526-.254.057-2.396.2-2.735.183-1.205-.07-2.709-1.084-4.04-.969l1.539-.256-.769-.768c2.031.524 4.117.796 6.156 1.284"/><path fill="#4e2d17" d="M194.948 100.68c-.059-.486.508-.157.841-.262.236-.075.08-.465.552-.53.892-.118 2.036.124 2.968.021v.771h-4.364zm2.822-19.006-.257.77c-.287.018-4.368.134-3.332-.768 1.165-.082 2.444.108 3.589 0z"/><path fill="#462b19" d="M224.447 59.843c.41-1.6.546-4.015 1.795-5.137-.272 1.541-1.034 3.78-1.795 5.137m-4.874 3.596c-.305.693-.716 1.368-1.026 2.054-.174-.424.233-1.189.192-1.433-.054-.3-.72-.27-.723-.521-.013-1.693 1.116-.206 1.557-.1"/><path fill="#4e2d17" d="M183.918 77.821c-.729.714-2.286-.578-1.796-1.284.524.396 1.257.943 1.796 1.284"/><path fill="#462b19" d="M211.365 14.383c-.844-.275-1.935-.39-2.566-1.027 1.46.415 1.193.166 2.566 1.027"/><path fill="#4e2d17" d="M197.77 82.701c-.914.437-2.732.43-3.592 0 1.114.054 2.486.07 3.592 0"/><path fill="#462b19" d="M200.591 10.53c-.349.92-1.89.35-2.565 0a28 28 0 0 1 2.565 0m25.651 36.985c-.616-.583-.828-1.508-1.026-2.312.834.894.811 1.12 1.026 2.312m-6.928 13.358c.267.483-.382 1.695-.767 1.281-.136-.144.174-1.68.767-1.281"/><path fill="#4e2d17" d="M198.539 100.937c-.736.436-2.393.428-3.078 0a35 35 0 0 0 3.078 0"/><path fill="#9d5e2f" d="M285.496 74.097c.133-.513 3.096-4.928 3.714-6.297.177-.393.565-1.986.652-2.052.067-.052 1.144.287 1.647.267 7.364-.311 10.896-17.383 4.455-19.096-1.983-.527-3.288 1.076-4.05.734-.28-.125-3.047-2.994-3.473-3.475-3.427-3.862-7.619-10.658-8.329-15.803-.067-.483.21-2.697-.39-2.686-.408.007-1.919 3.197-2.332 3.824-2.783 4.22-6.402 7.466-11.648 7.982 1.729-2.73 3.594-5.393 4.363-8.598.021-1.554-3.339 2.76-3.539 2.95-3.622 3.45-9.771 6.501-14.424 8.343-.872.344-5.805 1.759-5.895 2.06-.392 1.33 1.919.762 2.053.896.179 2.1-.049 1.222-1.214 1.739-1.362.606-2.352 1.67-2.111 3.249.157 1.027 1.011 1.184 1.021 1.328.067 1.088-.213 1.998.167 3.397.379 1.4 1.862 3.11 2.08 4.081.385 1.706.044 4.765.341 6.85.58 4.071 2.455 8.913 5.223 11.98.503.556 3.67 3.035 3.206 3.592-2.296-1.114-4.579-2.232-6.646-3.744-.549-.404-1.229-1.418-1.744-1.593-1.688-.573-.896.827-1.48 1.742-4.074-2.784-5.862-7.215-6.511-11.977-1.854-13.614 2.981-32.546 13.696-41.694 7.269-6.208 20.095-9.408 28.765-4.415 1.672.963 2.198 2.303 3.329 3.087.936.647 2.378.637 3.486 1.132 6.036 2.702 7.826 12.056 8.845 17.856 1.367 7.792 4.14 22.057 2.005 29.338-1.054 3.59-3.919 7.338-7.315 8.982-.482-.65 1.7-5.828-.128-5.394-.157.036-1.162 2.265-1.565 2.802-.893 1.187-4.24 4.271-5.674 4.35-.218.014-.588-.19-.588-.346 0-1.24-.243-4.464 0-5.393z"/><path fill="#f8b675" d="m282.161 75.51-.364.85c-6.815 4.805-14.895 7.464-22.493 2.604l-.482-.886c-6.806-4.202-9.276-12.623-9.232-20.29 3.332 1.708 7.887 1.829 11.284.257l.215.616c-2.506 3.945 4.102 6.38 6.71 4.364-2.901.208-7.867.442-6.228-4.127l2.265-4.035c.619-1.136.911-2.484.631-3.753.121-.423-.269-1.273.421-1.505.446-.149 3.194-.005 3.401.247.077 4.885 1.84 9.547 7.196 10.389 7.397 1.166 11.448-2.702 12.071-9.901.854.596 3.83 1.217 4.494.521s.151-1.623 1.96-2.147c1.151-.334 1.808-.288 2.631.614 3.073 3.35-.23 15.174-5.368 15.156-.649 0-1.909-.63-2.191-.43-.282.201-.662 1.935-.893 2.459a30.5 30.5 0 0 1-6.022 8.994z"/><path fill="#f7b271" d="M284.727 85.526c-.016.093-.193.434-.257.77-3.496 5.703-8.619 10.529-13.631 14.936-1.059.932-3.335 2.918-4.725 2.45-2.134-.716-8.434-10.926-8.934-13.327-.069-.329-.098-.694.1-.979-.623-2.013.762-5.172 1.283-7.191q.7.118.992 1.407c8.196 5.379 17.433 1.921 23.599-4.854l.803-.149c.39 2.998 1.362 3.147.77 6.935z"/><path fill="#f8b575" d="M252.15 44.176c-.511.033-1.529.519-2.309.257.046-.601-.197-1.493.252-1.934.284-.28 3.957-1.49 4.796-1.875 3.663-1.672 7.701-3.58 10.73-6.208.413.239-.097.575-.233.794-.298.483-1.611 2.047-1.657 2.211-.488 1.736 2.285 1.44 3.396 1.325 5.074-.521 9.188-5.044 11.956-8.958.243 2.7 1.721 5.509 3.037 7.877 2.332 4.2 5.374 8.142 9.016 11.257-.002.963-3.196.25-3.319.118-.08-.087.031-.973-.064-1.346-.367-1.42-2.165-1.538-3.281-1.98l-1.813-2.24c-2.263-1.926-8.045-2.694-9.691.057 3.542-.288 6.923-.323 10.224 1.282l.254.642c-.844.113-2.257-.514-2.95-.514h-7.439c-.11 0-1.716.308-1.939.37-2.167.606-2.273 2.422-2.45 2.47-.682.193-1.793-.259-2.539-.297-.487-.023-1.034.305-1.265.288-.159-.013-.638-1.893-1.941-2.448-2.263-.963-6.513-1.194-8.978-1.156-.298-1.574 2.734-1.58 3.95-1.53 1.354.374 5.897.862 2.368-.666-2.324-1.004-5.831-.203-7.357 1.87l-.757.326z"/><path fill="#f8b575" d="M274.415 46.564c1.988-.17 10.245.062 11.458 1.472.954 1.11-.428 5.81-1.1 7.102-2.306 4.425-9.799 4.974-13.005 1.371-1.56-1.754-2.114-6.082-1.609-8.296.334-1.459 2.999-1.54 4.253-1.649z"/><path fill="#f8b675" d="M258.819 45.974c1.103.159 3.791.552 4.048 1.726.467 2.118-.59 6.71-2.116 8.3-1.942 2.02-6.726 1.883-9.186.961-.675-.254-1.778-1.19-1.98-1.228-.408-3.01-.637-6.598-.031-9.592.164-.81 8.352-.714 9.265-.167"/><path fill="#df9553" d="M283.957 76.023c.064.825-.103 1.778 0 2.569-3.935 4.746-10.945 8.799-17.284 8.188-2.624-.252-5.061-1.713-7.42-2.795-.249-.113-.013-.732-.688-.254.323-.637.008-1.243 0-1.543a41 41 0 0 1 0-2.569l.906-.013c7.836 4.68 17.578 2.073 23.891-3.767l.598.184z"/><path fill="#fcecd1" d="M256.254 84.758c-1.144 3.62-1.257 7.44-1.793 11.173v13.222c-1.124-4.264-3.727-7.847-5.838-11.638 1.616-3.464 2.983-8.033 5.448-10.964.262-.31 1.878-2.044 2.183-1.793"/><path fill="#5b3f25" d="m283.187 90.663-8.585 8.74c-1.388 1.269-6.32 5.653-7.957 5.658s-4.509-3.973-5.469-5.327c-1.113-1.571-3.442-5.098-3.953-6.829-.243-.824-.028-1.597-.456-2.24.092-.475-.013-.983.513-1.284 1.149 3.707 5.679 10.739 8.465 13.484 1.169 1.154 2.678-.454 3.827-1.304 5.594-4.143 10.301-10.076 14.901-15.259-.306 1.564-.821 2.871-1.283 4.366z"/><path fill="#985422" d="m283.957 76.023-3.968 3.09c-6.231 3.927-15.201 4.908-21.427.506.018-.534-.066-1.063.257-1.54 9.05 5.585 15.486 2.56 23.342-2.57.103-.066.395-.09.644-.243.234-.147.647-.77.767-.778.236-.016.37 1.348.385 1.535"/><path fill="#fbebd3" d="M252.406 86.043c-2.011 3.123-3.57 6.541-4.879 10.014-.356.074-.325.051-.531-.165-.333-.349-.713-1.176-1.128-1.636-1.183-1.307-2.645-2.833-4.235-3.596-.367-.541 9.87-4.625 10.773-4.617"/><path fill="#ac5f27" d="M284.47 45.717c-.164-.064-.572-.088-1.026-.257-3.748-1.392-4.063-1.641-8.347-1.551-.631.013-3.006.79-2.585-.766.538-1.99 5.302-1.977 6.895-1.73 1.592.246 5.486 2.236 5.063 4.304"/><path fill="#a95b24" d="M264.462 51.11c.854.378.562 1.844.4 2.584-.605 2.769-6.335 7.852-.669 8.858 1.2.214 3.309-.223 3.699-.12 1.157.3.02 1.523-1.054 1.715-3.692.67-8.909-1.81-5.967-6.102 2.05-2.99 2.504-3.1 3.591-6.935"/><path fill="#af6128" d="M253.945 44.176c-.595.01-1.205-.039-1.795 0 1.275-3.046 6.985-4.169 9.324-2.016 2.614 2.404-2.491 1.099-3.327 1.022-1.352-.126-3.217-.088-4.202.994"/><path fill="#150a05" d="M284.983 103.248c.775-.277 2.722-.285 2.837-.37.726-.539 1.985-9.865 2.05-11.303.105-2.4.202-4.944-1.039-7.076.02.023.179-.355.477.133 1.539 2.535.91 8.057.513 11-.136 1.013-1.262 7.177-1.747 7.498-.218.144-2.614.365-3.088.118z"/><path fill="#1e110b" d="M249.585 55.734c-.018-.003-.085.285-.252.259-.241-2.402-.433-4.908-.272-7.333.029-.418.29-2.55.385-2.697.639-1.004 8.48-.357 10.014-.246l-.641.26c-1.665-.24-4.361-.368-6.038-.268-.49.028-2.95.316-3.084.509-.338 3.195-.297 6.32-.112 9.518z"/><path fill="#140b07" d="M290.37 99.396c-.505-.263-.18-.894-.131-1.285.598-4.803 1.288-7.797.308-12.654-.077-.383-.277-.339.079-.701.416.737.683 1.597.767 2.442.359 3.658-.315 8.571-1.023 12.198"/><path fill="#29150d" d="M280.366 102.734c-.539-.251-.095-.791.036-1.119 1.598-3.99 3.163-7.544 4.325-11.722h.256c-1.288 4.576-2.811 8.444-4.617 12.841"/><path fill="#9d5e2f" d="M248.046 49.57v3.852c-.388.036-.413-.63-.493-.92-.251-.92-.331-1.872-.539-2.802zm-.003-3.083v1.025h-.767c-.059-.473-.015-.752.387-1.022h.38z"/><path fill="#df9555" d="M8.978 139.462c.192-1.194.392-2.412.639-3.593a39.9 39.9 0 0 0 21.164 5.393c.226.517-.215 1.015-.256 1.285l-.26-.643c.183 1.816-.06 1.891-1.695 2.153-5.022.804-10.342.316-15.172-1.187-.844-.262-3.427-1.138-4.007-1.582-.464-.354.185-1.449-.416-1.824z"/><path fill="#724628" d="M6.926 162.577c-.429-.773-.436-2.514 0-3.339-.016 1.105-.034 2.235 0 3.339"/><path fill="#f8b675" d="M310.121 42.378c.128.013.967-1.95 1.175-2.291 2.152-3.524 5.546-4.243 8.96-6.182 1.003 2.019 1.862 4.343 3.709 5.781 4.635 3.614 8.285-1.808 10.653-5.27.882 4.12 5.489 3.177 7.831.907.377-.365 1.144-2.045 1.526-1.677 1.229 3.675 2.789 7.224 3.779 10.987.651 2.478 1.967 12.243 3.037 13.397 1.38 1.492 3.006-.933 4.135-1.742 1.011-.724 2.86-2.042 4.135-1.68.61.175.887.663 1.336.866 3.004 3.92.172 11.573-3.614 13.974-1.444.915-2.114.997-3.825.923-.038 0-.225-.334-.577-.232-.51.15-1.821 3.357-2.293 4.164-8.288 14.159-27.562 19.108-36.932 3.174-.377-.642-2.011-4.528-2.265-4.538-3.063-8.825-2.14-18.348-1.283-27.482.121.01.21-.002.254-.133.031-.208-.023-.434 0-.637-.197-.768-.061-1.603.257-2.312z"/><path fill="#a8b888" d="M307.813 49.056c-.493-.165-.501-.627-.649-1.02-1.629-4.346-2.081-10.597.082-14.827.243-.478.985-.992 1.039-1.266.133-.694-1.85-2.682-1.955-3.876-.277-3.177 4.225-4.767 6.744-4.944 1.159-.082 2.826.431 3.655.082.272-.115 1.749-2.234 2.367-2.787 6.067-5.419 15.504-4.53 22.235-.94 1.028.55 4.055 2.91 4.627 3.072.713.203 1.629-.033 2.445.12 8.108 1.519 14.154 9.493 14.811 17.533.21 2.558-.354 11.632-2.43 13.244-.353.275-1.395-.485-2.08-.508-3.006-.103-4.62 2.81-7.028 3.827-.875-4.47-1.478-8.961-2.696-13.356-.426-1.535-4.207-12.682-4.876-12.841-.562-.134-1.291 1.931-1.665 2.437-1.116 1.513-4.861 4.24-6.123 1.764-.703-1.381.464-3.814-1.283-3.652-3.988 5.25-7.297 13.227-12.648 3.732-.408-.724-.703-2.818-1.767-2.61-.968.188-4.089 1.755-5.118 2.302-3.86 2.052-5.884 3.937-6.921 8.352-.471 2.011-.633 4.117-.769 6.164z"/><path fill="#5e3a1c" d="M310.121 42.378c-.103.765-.162 1.546-.256 2.312-.67-.676.092-1.755.005-2.572.115.034.213.257.251.26"/><path fill="#e09250" d="M348.854 79.106c.939 2.095-1.836 5.134-3.204 6.68-4.678 5.298-11.263 8.653-18.471 7.957-.813-.08-4.82-1.136-5.451-1.477-.823-.45-.726-3.131-.6-4.058.074-.565.477-.314.79-.627 10.622 3.768 19.869-.339 26.934-8.475z"/><path fill="#5e3316" d="M350.906 86.554c-1.049-1.285-1.405-2.353-1.282-4.11l.254-2.565c-.095 2.344.007 4.545 1.028 6.675"/><path fill="#fde3bb" d="m97.73 134.582.524.545c.233 5.034.964 10.951 3.976 15.148 3.614 5.034 6.884 4.173 11.62 1.787a21 21 0 0 1 2.536-.675c1.94-.383 3.309-.159 5.202.149l.501-.414q5.033 1.946 9.38.244l.634.17c3.809-.671 11.512 5.049 13.608-.373.218-.562.066-1.453.497-1.682.619 11.478-2.339 23.739-14.562 27.407-10.468 3.141-22.478-.552-28.844-9.498-6.026-8.462-5.839-21.325-7.147-31.37-.056-.426-.148-.883-.49-1.179.819-.069 1.524-.274 2.565-.256z"/><path fill="#ffb77a" d="M145.185 123.024c.518 1.922.485 4.277 1.282 6.164-1.115.704-2.542.016-3.709-.01-2.862-.064-11.545-.182-13.61 1.546-.395.332-.659 1.015-.895 1.159-.347.21-3.615.215-4.246.141-.661-.08-.772-.388-1.141-.524-6.433-1.456-13.795-1.705-20.216-.231q-1.67 1.352-3.383 1.002c-.344-.152-.61-.355-.554-.72l.564-4.818c-1.187-7.448 2.732-18.816 11.813-17.668 7.187 4.107 15.211 3.843 21.952-.996 4.727-1.405 11.779 10.024 12.363 13.954.054.362.042.727-.223 1.001zm-46.172 11.558c1.288.051 2.539.411 3.848.254.054 7.479 2.511 13.125 10.909 12.596 5.271-.332 8.529-2.951 9.532-8.178.18-.94.303-4.14.567-4.51.459-.642 3.304-.357 4.127-.424-.287 3.976 2.096 7.52 3.589 11.044 1.436.904 1.339 3.121.3 4.436-2.152 2.727-7.58.991-10.348.036l-.728.151-.501.439q-5.06-.111-9.701 2.325c-4.489 1.695-7.705-1.356-9.501-5.345-1.71-3.799-2.165-8.191-2.567-12.29l.469-.539z"/><path fill="#ca6327" d="M146.724 141.773c.097-1.225 1.159-2.732 1.029-4.109 1 .545 7.633 1.541 7.903 1.847.269.305.328 2.599.297 3.159-.241 4.297-2.937 13.16-4.171 17.652-1.085 3.945-2.503 7.795-3.522 11.758-.548-.645-3.185-1.258-3.527-1.6-.184-.185-.338-1.389-.315-1.739.074-1.145.911-1.898 1.206-2.774 1.459-4.345 2.347-9.456 2.126-14.046-.141-2.972-1.241-7.399-1.023-10.148z"/><path fill="#ffb77a" d="M119.277 132.27c3.096.486 2.699 3.871 2.281 6.265-.618 3.544-2.319 5.82-5.872 6.706-5.394 1.348-10.217-.748-10.771-6.683-.097-1.043-.172-3.932 0-4.87.185-.984 1.455-1.312 2.301-1.42.965-.355 2.232-.493 3.207-.257 1.939-.211 4.194-.203 6.156 0 .785-.28 1.857.018 2.693.257zm11.543 6.678c-.272-.539-.862-1.471-.967-1.985-.246-1.194-.166-4.389 1.037-5.011 1.169-.604 5.012-.917 6.461-.979 1.167-.048 7.903.031 8.37.689 1.029 1.451.162 7.05-.487 8.742-1.704 4.449-8.334 5.158-12.105 3.162q-1.84-2.068-2.309-4.623z"/><path fill="#fbb069" d="m93.883 134.839 1.55 14.524c.007.46-.106 1.518-.268 1.913.675 1.3-1.23 1.729-2.36 1.508-4.683-.912-6.974-11.034-6.307-15.236.203-1.284.913-4.489 2.509-3.737 1.215-.544 4.222-.195 4.873 1.028z"/><path fill="#b6ace3" d="m155.443 175.676-5.215-2.61-.636-.806 6.874-23.809c-.097 5.26.541 10.541.27 15.806-.198 3.806-1.08 7.607-1.296 11.416z"/><path fill="#ffb77a" d="m133.385 149.992-.259-.239q.204-1.993.403-3.801l.369-.067c3.24 1.192 8.74.373 11.287-2.054.087 1.674-.018 6.395-1.442 7.417-2.665 1.916-7.408-1.59-10.358-1.253z"/><path fill="#ab7e4d" d="M99.013 134.582c.42 5.083 1.352 13.851 5.915 17.064 3.879 2.73 6.811-.47 10.704-1.32 1.58-.344 3.62-.645 5.182-.334.672.051.831.953.769 1.541-2.575-.162-5.135.203-7.577 1.017-3.809 1.269-5.269 3.434-9.432.732-5.358-3.475-6.78-12.772-6.846-18.7.426.008.857-.018 1.282 0z"/><path fill="#3d3829" d="M89.779 132.271a11.3 11.3 0 0 1 3.078.513l.513.257c.087.105.325.935.254 1.027-1.273-.904-2.46-.829-3.95-.744-.119.007-1.263.166-.665.488-2.357 1.055-2.237 5.904-2.021 8.059.295 2.949 3.083 11.172 7.013 10.433.482-.09.982-.578 1.164-1.025l.767-.257c-.13.737.15 1.377.26 2.055-.019.892-1.345.394-2.566.77-1.78.532-4.099-1.674-5.125-2.958-2.973-3.727-5.479-12.734-2.062-16.692.208-.242 2.403-1.87 2.57-1.921.18-.057.531.025.77 0z"/><path fill="#82471c" d="M133.898 145.883c-.243.835.09 1.718-.023 2.676-.054.444-.274 1.04-.49 1.433-.151.28-1.056 1.359-1.282 1.541-2.85 2.296-7.362.691-10.517 0-.108-.023-.362-.344-.618-.267l-1.688.008 1.793-.257c-.154-.352-.264-.622-.257-1.025.023-1.379 1.696-.269 2.509-.072 2.355.57 6.592 1.819 8.265-.57 1.144-1.633.274-2.504 0-3.981-.01-.056.223-.57.128-1.027.477.467 1.614 1.33 2.18 1.541"/><path fill="#1a0d08" d="m122.868 131.5-3.981-.765c-4.663.169-11.376-.732-15.831.577-.893.262-1.547 1.1-2.127 1.21-.808.154-1.924-.067-2.814.008-1.572.131-3.175.362-4.748.511-.038-.044-.467.039-.513-.257.064-.128.151-.118.257 0 .256-.781 4.31-1.073 4.591-.835.108.09.198.203.282.321.188-.752 1.078-.724 1.283 0 2.283-.138 2.493-1.114 4.291-1.481 5.01-1.02 14.57-1.046 19.308.711z"/><path fill="#904819" d="M133.129 143.571c-1.683-.888-2.878-2.684-2.309-4.623.77 1.523 2.014 2.882 2.309 4.623"/><path fill="#0d0604" d="M107.221 132.271c-.395-.031-.862.166-.767-.255.69.275 1.778-.259 2.178-.259h8.978c.403 0 1.49.534 2.178.259.079.368-.164.252-.511.255-.464-.072-2.321-.257-2.693-.257h-6.156c-.6 0-2.501.169-3.207.257"/><path fill="#df8744" d="M134.668 177.474c.167 1.636-.734 2.686-1.539 3.852-1.511 1.644-3.571 2.301-5.679 2.81-8.288 2.006-17.117-.84-23.184-6.719-1.454-1.41-6.35-7.204-6.356-8.871 0-.193.033-.383.077-.575.47-.953.572-2.784.513-3.853.777-.526.367-.115.582.308 6.421 12.691 22.383 19.106 35.586 13.048"/><path fill="#ffb77a" d="M133.129 181.326c-6.816 9.858-21.896 6.146-29.758-.639-2.591-2.235-7.11-7.526-7.174-11.075-.008-.488 1.33-.709 1.79-1.641 2.719 5.044 6.438 9.865 11.463 12.793 7.273 4.232 16.281 4.838 23.679.562"/><path fill="#f8b06b" d="M188.792 141.26c.897-4.289 7.292-8.098 10.132-11.301-.749 4.893 5.661 2.037 8.077 1.027.131 4.618 6.452.039 8.214-1.41 2.339-1.921 4.979-4.751 6.541-7.325.633-.195.351 1.618.449 2.119 1.231 6.377 5.543 11.715 9.424 16.633 2.593 6.228 2.855 13.795 1.282 20.29-1.839 7.492-8.375 15.241-15.906 17.334-15.344 4.266-26.179-6.475-28.47-20.93-1.044-5.301-.816-11.154.257-16.437"/><path fill="#dc8341" d="M198.283 177.474c7.692 4.946 18.104 4.954 25.627-.409.937-.668 1.955-1.893 2.845-2.417 1.993 5.71-5.54 9.794-9.947 11.229-5.98 1.95-15.25.822-18.315-5.406-.457-.93-1.136-2.147-.21-3z"/><path fill="#130806" d="M231.629 141.003c2.888 3.66 2.619 15.225 1.66 19.771-.044.208-.093 1.184-.378.519 1.573-6.403.806-14.09-1.282-20.29"/><path fill="#100906" d="M188.792 141.26c-.942 4.494-.978 11.896-.257 16.437l-.246.124c-.957-5.53-.49-11.155.256-16.685z"/><path fill="#402a1a" d="M273.44 134.068c-.651 1.477-2.934 3.534-3.586 5.271h-.782c-.298-.206-.3-.678-.249-1.015.249-1.628 3.986-5.519 4.833-7.25.32-.655.336-1.261.556-1.886.811.876-.338 1.94-.5 2.71-.162.771.128 1.266-.269 2.17z"/><path fill="#662106" d="M276.262 144.599c.662 1.415.015 3.043-.013 4.481-.118 6.254.026 12.162 2.255 18.059.107.285.52.919.064 1.089-2.837-6.599-2.696-13.366-2.576-20.429.013-.691.352-1.315.265-2.021-.098-.794-1.873-3.619-2.306-5.289l.261-.136c.062 1.623 1.503 3.085 2.047 4.246z"/><path fill="#26160b" d="M272.927 120.713c-1.495 3.837-3.001 7.667-4.361 11.558-.543-.25-.082-.794.034-1.123 1.249-3.536 2.724-6.952 4.071-10.435.074-.193.159-.19.256 0"/><path fill="#26130a" d="M276.775 110.696c-1.342 3.306-2.552 6.691-3.848 10.017h-.256c1.218-3.157 2.439-6.38 3.665-9.56.069-.179.18-1.104.439-.457"/><path fill="#5e3316" d="M264.975 193.141c-.474-.969-.254-2.463-.256-3.596.472.966.256 2.463.256 3.596"/><path fill="#f8b06b" d="M279.34 137.407c1.629-2.555 6.425-5.47 8.857-7.697 2.368-2.17 4.797-4.795 6.539-7.454l1.572 4.2c2.283 4.892 7.203 10.003 13.046 9.41.177-1.638-1.413-2.804-2.098-4.191l-1.367-4.025c3.298 6.041 8.218 10.99 14.369 14.121-.028 2.296.678 10.687 4.5 9.397 1.554-.523 2.855-5.401 6.13-3.346 4.887 3.067.375 16.044-6.018 15.526-1.244-.101-1.841-1.172-2.18.77-.202-.013-1.649 3.103-1.944 3.575-5.877 9.406-15.999 15.097-27.242 12.164-16.527-4.31-17.737-25.347-15.149-39.198.226-1.207.315-2.201.985-3.252"/><path fill="#b6ace3" d="M285.686 106.885c2.332-.447 4.422 3.878 1.252 3.796-3.15-.082-3.286-3.408-1.252-3.796"/><path fill="#442a19" d="M215.982 90.92c-.018-.858.713-1.315 1.026-1.798 0 .866-.67 1.292-1.026 1.798"/><path fill="#453f30" d="M72.77 142.331c1-.09.992.935.048 1.595-2.647 1.859-13.641 5.519-16.806 5.532-.883.002-1.242-.414-1.627-1.138.02-.431 3.917-.865 4.612-1.022 3.35-.765 7.044-2.088 10.253-3.347.86-.336 2.788-1.556 3.517-1.62z"/><path fill="#2a170a" d="M133.893 43.151c.031.026.067.434.254.634.965 1.036 5.048 8.093 5.451 9.452 2.288 7.713-12.543 6.976-13.78 4.294-.241-.524-.231-.935.262-1.284 3.081 1.608 6.918 1.983 10.196.712 2.455-.953 2.168-2.153 1.337-4.303-.937-2.427-3.843-6.035-4.379-8.223-.128-.53.133-1.729.659-1.282M119.531 60.1c.041.043-.038.696.244 1.168.449.755 2.45 2.165 3.273 2.633 5.058 2.881 10.807 2.768 15.906.102.526-.274 2.327-1.823 2.137.067-.174 1.752-6.033 3.337-7.58 3.475-5.145.46-9.242-.467-13.326-3.598-.418-.321-1.126-1.29-1.418-1.423-.264-.12-.895.673-1.28.4-.998-.706 1.318-3.567 2.047-2.824zm-1.085-24.59c1.478-.185 4.674-.249 6.01.27 1.337.519 2.234 1.967.86 2.9-2.448-.332-4.92-.216-7.331.223-.991.18-4.107 1.328-4.697 1.135-.677-.218-.313-1.361-.098-1.828.734-1.59 3.64-2.497 5.254-2.7zm22.327-.76c1.683-.108 5.469.267 6.092 2.219.267.835.328 1.87-.754 1.808-1.219-.07-3.086-1.04-4.646-1.045-1.213-.003-5.448 1.358-5.507-.614-.046-1.595 3.635-2.294 4.815-2.37zm-20.803 8.958c3.358-1.027 3.219 5.527 1.218 5.864-3.137.526-2.719-5.404-1.218-5.864m21.554-.262c2.817-.426 2.466 6.81-.438 5.476-1.806-.83-1.347-5.206.438-5.476"/><path fill="#412819" d="M127.393 71.452c.326-.064 2.827.93 3.804.983 1.265.07 4.012-.819 4.571-.477.803.488.275.927-.341 1.356-1.762 1.222-5.902 1.15-7.669 0-.68-.442-1.622-1.61-.362-1.862z"/><path fill="#3d2618" d="M101.455 45.717c.726-.136 2.516 2.093 2.87 2.771.406.778 1.865 4.826.713 5.188-1.241.393-1.087-2.193-1.267-2.835-.295-1.059-.718-2.091-1.423-2.941-.329-.396-1.091-.56-1.244-1.074-.111-.37-.018-1.042.351-1.112z"/><path fill="#432614" d="M184.695 63.184c.18-.128 3.604.827 4.304.943 4.607.768 8.006.837 12.557-.365 1.105-.293 3.809-1.567 4.573-1.613 2.989-.182-.013 4.662-1.039 5.666-4.563 4.474-13.289 4.852-17.966.244-.597-.59-3.398-4.176-2.429-4.875"/><path fill="#432613" d="M211.619 42.121c-.885-.285-1.596-.878-2.496-1.222-.901-.345-2.088-.699-3.048-.802-1.975-.21-4.119.506-5.758-.205-.847-1.718 1.398-2.489 2.739-2.623 2.509-.249 9.935 1.04 8.563 4.852"/><path fill="#432513" d="M183.533 40.837c-.885.105-2.424.714-3.34 1.022-.854.29-2.385 1.192-3.073 1.292-.628.09-.436-.704-.328-1.104.816-3.01 8.919-4.944 11.225-3.131.882.693.38 1.92-.123 1.92-1.344 0-3.089-.15-4.361 0"/><path fill="#442613" d="M198.2 58.738c-1.526 1.71-7.623.922-8.436-1.535-.418-1.262-.241-2.646.069-3.892.149-.593 2.298-5.611 2.563-5.783.487-.319 1.062.205 1.013.865-.167 2.258-4.83 7.45-1.211 9.195.395.19 2.011.629 2.437.665 1.049.085 3.065-.822 3.496-.709.59.152.357.873.067 1.2z"/><path fill="#402513" d="M204.865 46.012c3.008-1.017 2.742 5.671.718 5.874-2.729.272-2.145-5.391-.718-5.874"/><path fill="#412513" d="M183.331 46.528c2.873-.852 3.019 5.065.956 5.36-2.362.34-2.501-4.902-.956-5.36"/><path fill="#6f3916" d="M199.05 74.485c.197.195-.075 1.01-.37 1.297-1.159 1.135-6.3 1.158-6.307-.657-.006-1.161 1.331-.206 1.954-.15.672.06 1.644.1 2.301.034.549-.057 2.227-.72 2.422-.527z"/><path fill="#3a2211" d="M168.14 50.088c1.501-.072 3.399 5.607 1.793 6.67-.906.206-.569-1.723-.641-2.18-.093-.591-.193-1.385-.385-1.927-.157-.441-1.857-2.511-.77-2.563z"/><path fill="#372011" d="M222.392 48.799c.295.29-.654 2.864-.741 3.495-.108.784.41 3.596-.924 3.18-.98-.306.131-5.822.883-6.506.213-.192.674-.272.779-.17z"/><path fill="#442a19" d="M214.699 90.406c.752-1.166 1.375-2.388 2.052-3.596-.364 1.2-.541 3.05-2.052 3.596"/><path fill="#f9b877" d="M76.44 79.876c-.66.868-1.94 1.726-3.078 1.798-11.792 5.309-26.128-5.009-28.996-16.687-5.074 2.027-8.28-3.167-8.678-7.618-.251-2.815.231-7.502 4.19-6.76 2.305.435 2.664 5.27 5.265 3.447 2.163-1.518 3.145-7.189 2.314-9.623 3.701-.103 7.488-.211 11.017-1.426 5.728-1.97 9.609-6.192 12.451-11.414 3.348 4.259 12.205 6.465 14.462 11.198 1.803 3.786 1.083 13.091.508 17.396-1 7.487-3.29 14.894-9.455 19.684z"/><path fill="#f7b372" d="m49.507 78.335.743.234c3.684 5.91 16.981 14.141 23.066 8.203.785-.765 1.08-2.119.105-2.671-.208-.118-.185-.39-.059-.63q.194-.512 1.026-.513c.072.028.177-.02.256 0-.02 3.868 1.173 5.247 4.764 6.513-.095 2.032-.729 4.438-2.198 5.815-3.833 5.327-13.257 5.06-18.982 3.724-6.634-1.546-13.51-5.838-16.932-11.812 3.052-1.158 6.482-2.66 7.556-6.05.262-.828.513-1.963.655-2.813"/><path fill="#dc8e4d" d="M70.54 84.242a9.2 9.2 0 0 1 2.822-.77c.103.431.644-.1.78.13.91 1.56.14 3.268-1.206 4.192-6.661 4.575-17.37-2.08-21.896-7.27-.59-.679-1.077-1.424-1.53-2.192.06-.377-.163-1.011.127-1.284 5.674 5.538 12.903 8.833 20.906 7.192z"/><path fill="#442a19" d="M74.645 82.958c.674.724.402 2.24.572 3.151.425 2.289 4.178 2.648 4.309 3.188.187 1.972-.623 3.89-1.59 5.563-.07.12-.585.968-.729.429 1.175-1.631 1.88-3.732 2.07-5.74-3.524-1.223-5.102-2.566-4.635-6.588zm-.257 0c-.349.152-.675.367-1.026.514-1.003.413-1.783.557-2.822.77l-.143-.27c1.285.108 3.037-1.381 3.991-1.014m-1.026-1.284c1.124-.506 2.085-1.028 3.078-1.798.541.146-.305.64-.428.727-.577.406-1.983 1.67-2.65 1.07"/><path fill="#fde5be" d="M90.805 132.271c-1.375-7.469-1.214-17.057 3.973-23.118 7.305-8.535 13.6-10.081 24.63-10.782 14.124-.897 26.631 7.386 27.326 22.203l-.264 2.45c-.231-1.831-.823-3.698-1.542-5.391l-.649-.197c-1.036-3.29-8.359-11.799-11.999-10.199-5.059 4.705-12.574 5.455-18.761 2.437-8.935-6.85-16.225 8.496-14.755 16.05l-.295 5.766-.485.783c-1.575.111-3.455.475-4.873.514q-1.17-.307-2.309-.514z"/><path fill="#ac7f4e" d="M144.928 117.631c-.541.249-.082.793.034 1.122.441 1.246 1.708 3.516.223 4.271-1.262-4.684-5.677-13.232-10.825-14.467-1.724-.414-2.601 1.025-4.042 1.764-5.11 2.623-10.633 2.833-15.984.827-1.09-.408-2.503-1.407-3.509-1.623-5.884-1.271-10.555 6.287-11.043 11.319-.182 1.877.11 4.001.008 5.915-.097 1.803-.726 3.662-.523 5.512-.426.025-.86-.029-1.283 0-.13-2.202.208-4.369.267-6.563.049-1.831-.264-3.243.06-5.311.825-5.304 5.66-14.082 12.053-12.978 1.303.226 2.352 1.325 3.527 1.86 5.502 2.504 11.065 2.273 16.242-.938 1.393-.863 1.403-2.037 3.57-1.695 4.684.74 9.476 6.86 11.22 10.982z"/><path fill="#472b18" d="M90.805 132.27c.79.018 1.782-.208 2.308.514h-.256c-.867.005-2.314-.246-3.078-.514.32-.033.697-.007 1.026 0"/><path fill="#442a19" d="M208.03 79.106c-.726.47-1.357 1.204-2.309 1.284.29-.208 1.191-.778 1.234-.84.257-.357-.328-1.184 1.075-.444"/><path fill="#9c5320" d="M277.834 66.739c-.097-.057-.213-.717-.415-.727-.108-.005-1.185 1.228-1.583 1.495-3.345 2.247-8.285 3.164-12.2 2.283-1.103-.25-5.079-1.852-5.081-3.139-.005-1.636 2.904.807 3.542 1.084 3.171 1.385 6.759.979 9.94-.182.788-.288 3.83-1.806 4.173-2.376.26-.429-.3-.991.444-.978 2.337.046 2.694 3.413 1.183 2.537z"/><path fill="#9f5520" d="M291.97 58.494c-1.21-1.35 1.196-8.023 3.633-7.373 1.431.382-1.316 2.195-1.693 2.889-.254.465-.513 1.374-.652 1.916-.097.38-.136 3.85-1.288 2.568"/><path fill="#432817" d="M277.216 49.092c2.511-.696 2.401 5.386-.057 5.383-2.272 0-1.667-4.906.057-5.383"/><path fill="#442917" d="M257.213 48.575c2.196-.316 2.311 5.774-.559 5.368-2.042-.29-1.123-5.124.559-5.368"/><path fill="#a05622" d="M337.309 69.865c-.034-.057-.798.038-.765-.917.059-1.634 3.291.544 3.058 1.528-.049.208-2.732 1.384-3.058 1.828-4.514 2.481-9.958 3.52-14.942 1.852-.697-.234-3.285-1.376-3.288-2.111-.005-1.52 2.539.167 3.211.388 4.069 1.348 7.847.906 11.81-.514.429-.154 4.184-1.705 3.968-2.054z"/><path fill="#a25823" d="M329.616 66.01c.236.24-.072.99-.411 1.255-1.831 1.444-8.175 1.344-8.965-1.243-.864-2.835 2.065-6.996 3.266-9.6.226-.49 1.108-3.15 1.254-3.241 1.083-.697 1.093 1.381.949 2.11-.487 2.49-3.317 5.836-3.922 8.142-1.382 5.263 7.465 2.207 7.829 2.579z"/><path fill="#4b5035" d="M314.42 45.527c1.778-.26 5.738-.362 6.988 1.086.495.573.802 1.675-.118 1.824-.865.141-3.679-.71-5.154-.678-.808.018-1.924.2-2.744.331-.703.11-1.609.97-1.873-.298-.236-1.133 1.967-2.127 2.901-2.265"/><path fill="#4a4f34" d="M335.203 46.29c2.16-.232 6.741 1.327 8.118 3.038.352.434.729 1.875-.123 1.672-.851-.203-2.537-1.413-3.586-1.81-1.465-.555-3.163-1.028-4.738-.902-.564.046-1.875.593-2.183.4-1.569-.983 1.516-2.293 2.512-2.398"/><path fill="#462b18" d="M337.227 53.232c2.149-.103 2.3 5.822-.301 5.825-2.424 0-2.4-5.697.301-5.825"/><path fill="#492e19" d="M316.719 52.44c2.806-.819 2.675 5.582.2 5.587-2.165.002-1.801-5.119-.2-5.586"/><path fill="#9d531f" d="M358.525 57.583c.359-.003.928.472.846.842s-1.282.627-1.67.902c-.741.523-1.413 1.839-1.649 2.714-.192.72-.205 3.658-1.165 3.452-1.072-1.6.134-5.766 1.532-6.937.356-.298 1.7-.97 2.106-.973"/><path fill="#472e1d" d="M115.686 156.156c5.484 3.064 12.826 4.325 18.469 1.028.649-.517 1.908-2.304 2.832-1.68.721.488-.49 1.811-.908 2.191-4.802 4.392-14.952 3.113-20.311.303-.764-.401-3.037-1.554-2.278-2.628.955-.78 1.575.324 2.196.786"/><path fill="#150a06" d="M134.155 157.184c-4.466 3.546-14.077 2.242-18.469-1.028 5.874 2.754 12.4 4.076 18.469 1.028"/><path fill="#b38754" d="M112.29 125.916c1.796-.226 6.672-.326 7.775 1.331.231.347.323.565.202.989-.312 1.104-1.423.436-2.134.429-1.993-.026-4.455-.149-6.392.043-.998.1-4.289 1.333-4.612 1.23-1.347-.428.569-2.275 1.134-2.658.892-.603 2.952-1.227 4.024-1.364z"/><path fill="#b18654" d="M143.133 128.675c-3.478-.416-6.857-.64-10.399-.524-1.075.036-4.276.799-1.924-1.413 2.114-1.99 9.147-1.808 11.389-.079.598.459 1.044 1.248.936 2.016z"/><path fill="#422816" d="M113.819 135.139c3.496-1.022 3.365 7.67-.116 6.185-2.013-.858-1.764-5.635.116-6.185"/><path fill="#442a18" d="M136.125 134.135c2.67-.108 3.214 7.32-.187 6.241-2.047-.649-2.234-6.143.187-6.241"/><path fill="#994c19" d="M90.425 137.407c1.354.619 2.18 2.227 2.563 3.593.251.902 1.077 5.145-.003 5.394-1.02-.175-.552-1.6-.67-2.407-.138-.945-.31-2.085-.615-2.979-.244-.709-2.355-3.372-1.272-3.601z"/><path fill="#9a5422" d="M197.772 163.345c.149.596-.474 1.384-1.026 1.027-.587-.38-.395-4.083 1.154-4.363 1.396-.252.2 1.536.385 1.78.085.11 2.152 1.063 2.506 1.225 6.375 2.897 13.493 2.242 19.031-2.109-2.05-1.854-.662-3.031 1.413-1.41 1.193.932 1.97 2.566.767 3.85-.533.128-.772-1.014-1.021-1.022-.092-.003-1.134.865-1.495 1.066-7.011 3.865-14.829 4.464-21.716-.047z"/><path fill="#9e5623" d="M206.881 145.112c.615-.136.918.794.849 1.344-.177 1.412-2.242 4.713-2.786 6.482-.99 3.216-.202 4.98 3.44 4.726.787-.054 4.025-1.045 4.271-.873 1.534 1.081-2.737 2.329-3.496 2.419-3.758.444-6.772-.568-6.19-4.916.149-1.12 3.427-9.074 3.914-9.182z"/><path fill="#402616" d="M197.967 135.681c1.134-.11 5.946.298 5.584 2.004-.302 1.425-2.034.141-3.116.007-.785-.097-2.009-.102-2.801-.038-.942.077-4.01 1.107-4.33 1.027-.216-.054-.398-.323-.377-.593.107-1.346 3.947-2.301 5.04-2.407"/><path fill="#3c2414" d="M219.529 136.442c1.888-.039 5.105.734 6.467 2.113.574.583 1.265 1.891-.021 1.567-.767-.193-2.026-1.061-3.011-1.356-2.219-.665-3.499-.652-5.759-.262-.667.116-1.895 1.002-1.744-.444.131-1.238 3.091-1.598 4.068-1.618"/><path fill="#452916" d="M219.76 143.617c2.722-.572 2.699 4.498 1.239 5.363-3.383 2.009-3.527-4.882-1.239-5.363"/><path fill="#442816" d="M199.755 148.125c-.965.907-2.452.185-2.693-1.146-.947-5.198 4.745-5.283 3.196-.015-.088.293-.313.984-.503 1.161"/><path fill="#985220" d="M309.385 163.05c-.141-.082-.164-.886-.67-.73-5.002 4.521-12.879 6.619-19.125 3.478-1.116-.563-2.95-1.546-2.552-2.964 1.831.347 3.116 1.659 5.074 2.237 5.879 1.739 10.881-.627 15.7-3.786.265-.673-.446-.475-.638-.755-.888-1.297 1.18-.57 1.757-.228 1.97 1.163 1.652 3.444.456 2.748z"/><path fill="#9e5622" d="M293.461 144.095c.733-.49 1.321.832 1.223 1.59-.264 2.029-3.252 5.769-3.999 8.088-1.313 4.073 2.514 4.787 5.685 4.41.659-.08 4.368-1.613 3.368.29s-11.272 2.586-10.912-3.465c.148-2.522 2.544-5.817 3.642-8.18.203-.437.872-2.651.993-2.733"/><path fill="#a35a24" d="M302.169 139.719c-.708-.473.316-1.893.937-2.273 2.385-1.456 7.987-.206 9.714 2.011 2.485 3.192-4.007.262-4.879.262s-5.531.159-5.772 0"/><path fill="#a85d25" d="M280.879 138.691c-.508-.513.459-1.664.905-2.047 2.289-1.957 7.424-2.206 9.74-.267.68.571.98 1.511-.051 1.757-.611.147-4.184-.814-5.602-.737-1.05.057-4.707 1.582-4.992 1.292z"/><path fill="#492b17" d="M306.202 144.124c2.783-.763 2.803 5.655.159 5.794-2.976.156-1.97-5.296-.159-5.794"/><path fill="#4a2c17" d="M286.199 143.096c2.606-.506 2.58 5.717.174 5.864-2.596.159-2.295-5.453-.174-5.864"/><path fill="#934d1c" d="M329.544 150.801c2.486-.393-1.19 2.841-1.426 3.213-.27.424-.475.945-.631 1.423-.231.704-.223 3.123-1.331 2.771-1.652-.524 1.203-7.063 3.388-7.407"/><path fill="#fdeac6" d="M205.462 64.209c-1.436 4.235-7.603 6.033-11.599 5.576-3.001-.342-5.148-2.343-7.123-4.423l5.771.9c4.553.274 8.711-.474 12.949-2.053z"/><path fill="#492d1c" d="M58.156 65.537c1.044-.306 2.776 1.04 3.853 1.438 3.16 1.164 6.564 1.885 9.952 1.61 2.555-.208 6.721-2.437 3.194 2.428-3.891 5.37-11.204 4.761-15.262-.124-.708-.852-3.592-4.81-1.737-5.355z"/><path fill="#9e531f" d="M70.528 50.61c.497.464-.295 3-.083 3.785.5 1.831 3.548 2.628 3.92 5.6.498 3.957-2.511 5.21-5.98 4.705-.776-.113-2.377-1.048-1.44-1.652.746-.483 5.422 1.359 5.889-1.549.68-4.248-4.759-4.402-4.03-8.91.097-.605.867-2.776 1.724-1.977z"/><path fill="#9e521e" d="M56.627 43.986c1.19-.172 7.098-.247 6.69 1.823-.236 1.2-2.511.005-3.424-.09-1.393-.144-3.638-.092-4.92.463-.488.21-3.348 2.714-2.853.744.347-1.374 3.184-2.75 4.507-2.94"/><path fill="#9d511e" d="M83.876 46.742c-1.89-.283-3.162-1.901-5.294-2.037-1.608-.105-3.186 1.027-4.086 1.007-1.809-.042-.044-2.335 2.329-2.559 2.488-.236 6.754.689 7.051 3.591z"/><path fill="#442918" d="M78.682 55.407c-2.016 1.893-3.973-2.632-1.978-4.417 1.996-1.785 3.533 2.958 1.978 4.417"/><path fill="#402716" d="M57.884 50.892c2.858-.97 2.699 4.81.972 5.098-2.816.47-2.131-4.705-.972-5.098"/><path fill="#984d1b" d="M40.808 60.588c-.51-.337.308-3.416-1.688-4.857-.91-.658-1.69-.162-1.413-1.539 2.473-.352 4.07 1.74 4.332 4.007.083.709.183 3.32-1.228 2.386z"/><path fill="#fce6be" d="M73.619 70.116c-2.981 4.31-8.553 3.783-12.067.396-.297-.288-1.929-2.314-2.039-2.584-.049-.118-.067-.421.123-.38 1.044.775 2.522 1.245 3.781 1.608.86.246 3.455.96 4.17.96h6.031"/><path fill="#666f40" d="M207.722 208.724c1.595-.307 2.189.981 2.796 2.197 1.713 3.442 4.438 13.918.146 16.095-1.985 1.006-6.466.465-8.222-.854-3.065-2.299-.316-9.395 1.041-12.213.717-1.489 2.572-4.906 4.239-5.225"/><path fill="#3d3829" d="M207.434 207.219c.618-.119 1.224-.097 1.796.094a3.4 3.4 0 0 1 1.357.869c.628.645 1.038 1.527 1.301 2.054l.001.002c.942 1.894 2.099 5.551 2.476 9.04.189 1.747.195 3.564-.183 5.146-.368 1.535-1.152 3.039-2.677 3.88l-.149.079c-1.394.707-3.375.787-5.056.602-1.693-.186-3.575-.694-4.777-1.596-1.19-.894-1.727-2.198-1.917-3.485-.188-1.273-.058-2.655.196-3.949.509-2.594 1.595-5.204 2.302-6.672.376-.782 1.061-2.092 1.891-3.269.415-.588.895-1.185 1.422-1.674.504-.466 1.188-.963 2.017-1.122zm3.084 3.702c-.607-1.216-1.202-2.503-2.796-2.197l-.079.017c-1.645.409-3.454 3.742-4.16 5.208-1.358 2.818-4.106 9.914-1.041 12.213 1.728 1.298 6.097 1.843 8.127.9l.095-.046c4.292-2.177 1.567-12.653-.146-16.095"/><path fill="#3d3829" d="M196.65 179.594c-1.314 3.109-1.367 7.156.027 11.742.687 2.261 2.211 5.295 4.052 8.433a114 114 0 0 0 5.788 8.843l-1.24.899a116 116 0 0 1-5.868-8.966c-1.853-3.159-3.455-6.322-4.197-8.763-1.464-4.816-1.466-9.251.027-12.786zm28.935 10.188c-.241.721-.879 1.953-1.617 3.268-.727 1.296-1.508 2.6-2.008 3.453-1.09 1.858-2.93 4.039-5.066 6.267-2.127 2.219-4.512 4.449-6.664 6.405l1.03 1.135c2.159-1.964 4.575-4.221 6.739-6.479 2.155-2.248 4.097-4.534 5.281-6.552.49-.836 1.287-2.165 2.023-3.478.726-1.294 1.438-2.65 1.734-3.531z"/></g><defs><clipPath id="a"><path fill="#fff" d="M0 0h394v263H0z"/></clipPath></defs></svg>