<svg xmlns="http://www.w3.org/2000/svg" width="299" height="200" fill="none" viewBox="0 0 299 200"><path fill="#7567b8" d="M137.944 220.245a269 269 0 0 0 4.831 35.733 4.5 4.5 0 0 1-.441 1.938H28.744a4.04 4.04 0 0 1-.56-1.806 265 265 0 0 0 3.125-29.394l.663-1.763.666-1.229c12.14-8.198 17.902-22.711 23.009-35.93l8.675-25.656c3.823-11.449 7.614-22.453 15.06-31.959a33 33 0 0 0 2.09-6.031c8.126.928 15.587-.616 21.904-5.776 5.329 1.404 10.747.118 15.376-2.949 4.97.075 9.661-1.724 13.086-5.58l1.179-.272c2.878-.584 6.586 1.996 8.966 3.784 7.564 5.683 12.806 15.863 16.576 24.47 3.795 8.668 7.733 17.745 10.918 26.639.137.383.054.72-.06 1.096-.559 1.871-15.645 8.675-17.035 9.177-11.676-.693-7.863-31.826-14.438 45.508"/><path fill="#4a301d" d="m30.531 103.47 1.018.326c2.171 3.551 5.332 6.579 9.263 8.055-2.77-4.077-5.565-9.241-5.637-14.279-.032-2.397 1.716-4.07 2.988-1.566 1.316 7.916 4.118 14.753 11.628 18.931.806.448 6.135 2.651 6.665 2.3.34-.226 1.516-7.149 1.312-8.037-8.496-12.771-5.82-27.903-1.803-41.86-8.8-.043-14.433-10.302-13.562-18.257 1-9.148 10.66-11.492 15.39-3.662.63-6.648 2.225-11.413 9.23-13.502 9.12-5.55 16.186-13.72 21.088-22.898 2.444-2.34 2.727.097 2.623 2.383-.2 4.505-2.175 10.173-4.97 13.685 6.414-3.54 11.442-10.954 13.212-18.028 1.168-2.795 1.859-3.34 4.572-1.702 5.074 3.06 11.678 11.689 13.595 17.343 5.611 16.566 4.246 40.825-4.594 55.922 4.064 12.803 5.97 27.39-4.002 38.43 10.832-.989 16.952-10.595 17.404-20.7 1.899-3.243 3.232-.645 3.132 2.1-.19 5.163-2.469 10.008-5.25 14.257 12.147-4.31 14.674-19.97 9.471-30.558l.426-.892c1.777-.015 2.824 1.404 3.136 4.246l.447.412c.083.305.248.588.359 1.075.494 5.124.319 10.352-.717 15.408-.107.301-.276.509-.358.717-1.172.846-2.182 3.25-2.15 4.658.616 1.043-.301 2.018-1.434 1.792-2.751 3.361-6.356 5.536-10.663 6.357-1.147.218-.275-.865-1.354-.6-.67.165-3.925 2.026-4.752 2.377-3.519 1.505-6.418 2.189-10.313 1.924-.96-.064-.893-.357-1.223-.332-.501.04-3.934 2.258-4.79 2.738-5.662 3.189-11.732 3.657-18.15 2.582-.397 6.196-5.063 10.137-7.814 14.943-3.086 5.389-5.752 13.974-7.963 19.987-7.138 19.415-15.178 54.771-34.034 65.403-.154.086-2.11.913-2.508 1.075-10.363 4.242-17.365-4.128-21.092-12.771C3.13 201.126 5.1 188.91 5.082 176.215c-.95-.828-.763-2.376.359-2.867-.889-.562-1.072-2.114 0-2.508-.387-1.799 1.024-3.189 2.15-1.434.931 3.39.573 7.486-.717 10.75l.656 1.194c-.563 13.344-.95 28.748 8.614 39.276 12.968 14.269 30.085-13.792 33.952-24.273 4.55-12.345 9.051-24.682 12.968-37.256 3.393-9.972 7.052-19.654 13.505-27.896q3.354-6.749 4.139-14.616c-.007-2.928 3.293-5.142 5.938-5.432 4.27-.47 1.494 4.07-1.301 4.479-2.881 5.819 2.515.914 3.802-1.412 4.343-7.844-4.175-7.081-9.11-6.407-1.41.115-3.582-.064-3.149-1.942.52-2.25 9.833-1.638 11.986-1.441.71-.043.445-1.2.169-1.745-.853-1.673-11.84-1.082-14.025-.612-4.999-2.308 1.182-4.085 3.941-3.695l8.421.058c-.545-2.29-2.867-2.3-4.927-2.262q-6.042.506-12.094.807a1.6 1.6 0 0 1-.634-.448c-2.956-3.462 6.443-3.247 7.966-3.125 2.4-2.114 5.117-3.146 8.367-2.82.802.194 10.872 1.387 10.42.122-.43-1.2-12.893-3.709-14.555-3.773-3.95-.15-10.618 4.307-13.918 6.579-5.052 3.48-5.991 6.213-6.59 12.477-.308 12.097-4.722 23.259-11.251 33.514-7.629 12.241-15.881 24.048-24.349 35.722-4.826 6.554-8.818 13.653-11.402 21.156-1.114 1.075-2.286.792-2.82-.702-1.11-3.125 8.776-18.422 10.743-20.851l1.38-.767-.344-.746 1.838-2.537c-.473-1.107-13.563-1.447-16.075-.949l-.47-.785.262-.863q8.136-1.38 16.444.275l2.286-.129-.459-.601 8.697-12.843q.039-5.954-.509-11.925c-.494-2.559 1.796-3.845 2.946-1.254q.381 4.237 1.01 8.173l14.63-23.929c.352-.674 2.205-4.924 1.99-5.278-4.229-1.09-7.823-2.505-11.148-5.332-2.566 2.038-12.688-3.964-13.233-5.569a1.4 1.4 0 0 1 .021-.924c-1.16.401-1.773-.918-1.075-1.792-.247-.348-.49-.713-.716-1.075q-1.124-3.638.716-2.508z"/><path fill="#382414" d="m137.314 85.91-.441.27c-.491-.825-.67-2.892-1.183-3.494-.261-.308-1.594-.624-1.96-1.434l-1.189-1.067c-5.519-11.65-9.937-23.342-9.399-36.403.426-8.976-.101-17.82-1.57-26.538-3.035-12.29-11.699-21.385-24.313-22.095-14.795-7.184-33.002-2.78-43.938 9.496-7.106 7.977-10.09 18.271-11.41 28.691-.917 15.81-5.012 29.975-11.337 44.265-2.881 7.955-3.988 16.73.057 24.51l-.096 1.351c-2.036.863 1.444 2.393-.717 2.508-10.005-16.182-1.122-29.14 4.21-44.343C40.217 43.972 36.67 24.866 47.23 8.178 56.997-7.259 75.967-14.583 93.68-9.308c1.545.458 3.724 1.741 4.842 1.967 6.321 1.293 8.836.996 14.243 5.464 19.64 16.236 9.811 39.972 14.699 61.268 2.139 9.316 7.396 17.432 9.858 26.513z"/><path fill="#3a3161" d="m31.606 108.845-.964 1.222c-13.069 5.676-17.741 17.655-21.393 30.62a866 866 0 0 0-6.106 26.656c7.762-1.426 14.957-1.563 23.224.018.233.043.448.197.674.365.225.169.43.384.623.602-1.658 1.61-2.069 3.746-4.122 3.663-3.082-.126-12.214-4.078-14.87-2.946.391 1.018-.664 1.334-1.144.345-1.172.162-1.506.274-2.08.548-.794 1.369-1.842 1.354-.29 2.608l.29.799c-.086 1.562-.362 1.526-.359 2.866-2.583-1.702-5.622-4.239-5.01-7.7 4.892-17.59 6.623-45.189 22.457-56.734l7.998-4.723c.448.627.506 1.304 1.075 1.791zm136.166 60.199c-.072.064-.753-.197-1.792.358l-.756 1.222c-2.164 1.34-11.338 6.303-13.19 5.873a3.4 3.4 0 0 1-.746-.286c-.405-.473-.573-1.265-.716-1.434 4.013-1.895 8.17-3.519 12.065-5.672 1.071-.591 5.314-2.86 5.851-3.476.283-.326.459-.502.305-.975-4.512-11.033-8.604-22.359-13.972-33.009-4.815-9.549-10.979-18.866-21.808-22.087.477-.585 1.025-1.161 1.434-1.792 1.91 1.229 4.762 2.186 6.919 3.651 15.992 10.865 21.633 36.511 29.559 53.234.591 2.135-1.476 2.376-2.641 3.304-.448.358-.469 1.046-.512 1.085z"/><path fill="#382414" d="m136.955 102.396.717-15.409c1.225 5.44 1.147 10.109-.717 15.409m-.36.715c-.634 1.609-1.189 3.175-2.15 4.658-1.408-.903-.179-1.548.083-2.254.401-1.089.304-1.218 1.003-2.218.326-.466 0-1.265 1.064-.186"/><path fill="#3a3161" d="M143.404 166.895c-.505-.58-1.82-.967-2.15-2.508-.304-1.416-.161-3.913-.405-5.508a304 304 0 0 0-2.476-14.039c-.121-.907.642-1.645 1.469-1.075 1.111.763 3.695 20.382 3.562 23.134z"/><path fill="#be5b24" d="M133.73 81.252c1.028 2.688 2.447 6.418 2.766 9.238 1.115 9.753-3.967 21.836-14.591 23.366 3.644-4.221 6.529-10.635 6.479-16.293-.018-2.16-1.247-2.716-1.746-1.007-.43 1.477-.444 4.096-.895 5.913-2.143 8.585-8.854 16.415-19.393 15.32 8.76-7.117 10.187-19.448 7.922-30.159-.476-2.26-2.547-7.21-2.433-9.07.072-1.174 2.863-5.288 3.53-6.89 5.235-12.627 5.998-39.348-.133-51.653-2.379-4.773-8.496-12.23-13.211-14.745-2.168-1.154-2.752 3.973-3.501 5.837C96.729 15.566 90.22 24.7 85.466 26c-.433.118-1.107.215-.82-.462.286-.678 1.895-2.505 2.454-3.637 1.552-3.136 3.336-9.414 2.92-12.846 0-.316-.73-.237-.888-.172-.373.157-3.526 5.93-4.2 6.908-4.31 6.282-10.674 12.502-17.16 16.523-1.842 1.14-5.286 2.25-6.619 3.773-1.014 1.161-2.235 6.396-2.58 8.17-.171.881.194 2.949-.63 3.31-3.505-9.491-14.674-7.57-14.889 2.678-.161 7.657 5.357 17.192 13.993 16.318-3.716 13.316-6.866 25.072-.903 38.349.527 1.175 2.147 3.142 2.326 4.127.419 2.301-1.197 6.307-1.23 8.78-.247.448-2.637-.248-3.207-.405-7.467-2.061-12.989-7.894-15.232-15.226-.351-1.146-1.129-6.382-1.638-6.604-.985-.426-1.257.85-1.268 1.62-.068 5.217 3.54 12.022 6.826 15.931-5.21-1.032-9.664-5.117-12.183-9.671-9.428-17.039 4.074-32.888 7.647-49.149 3.271-14.888 1.895-29.583 9.85-43.54 8.794-15.43 27.566-23.45 44.852-18.21 1.563.472 3.318 1.583 4.562 1.888 5.504 1.35 7.987.505 13.118 4.44 19.741 15.157 10.191 39.129 14.742 60.149 1.785 8.234 5.508 14.57 8.432 22.205z"/><path fill="#f1c09e" d="M23.724 174.06c-3.247 4.87-7.02 9.782-9.378 15.168-.523 1.19-2.028 4.766-2.082 5.837-.057 1.147.825 1.692 1.613.86.613-.648 1.38-4.085 1.903-5.264 4.826-10.914 15.483-23.599 22.288-33.969 8.28-12.614 19.446-27.427 21.8-42.341.936-5.919.359-16.028 5.311-19.772 2.19-1.656 11.814-7.59 14.079-8.138 3.092-.749 8.105.509 11.198 1.369 1.175.326 5.658 1.673 6.36 2.236 1.484 1.19-.878 1.881-1.942 1.978-4.809.437-9.721-2.003-14.183.147-.87.419-2.214 1.752-2.752 1.906-1.73.498-6.984-.752-7.822 1.143-.115.262.129 1.021.43 1.1 4.55 0 9.818-1.225 14.3-.756 2.061.219 3.25 1.516 3.38 3.605-3.555.211-7.403-.283-10.922.007-.903.075-3.852.2-3.404 1.605 1.082 1.194 2.763.212 4.103.169 2.329-.075 9.37-.312 11.087.767 1.146.72.953 2.375.931 3.551-3.558-.402-7.356-.527-10.907.018-1.595.243-2.509 1.548-.398 1.788 2.895.329 11.058-1.882 11.947 2.028.835 3.68-1.287 6.89-4.057 9.051-1.107.864-2.5 2.01-2.709-.165-.337-3.583 2.132-2.952 3.594-4.325.889-.835 1.072-2.11-.433-1.885-.337.051-4.44 1.76-4.594 1.961-1.319 1.741-2.197 10.947-3.38 14.096-1.805 4.82-5.83 8.532-8.119 13.38-8.184 17.34-12.713 37.607-20.195 55.413-4.995 11.882-21.927 40.724-36.353 23.115-8.575-10.47-8.202-26.76-7.532-39.588q1.36-2.898 5.235-3.877l8.317-2.369q3.655-1.689 3.29.154z"/><path fill="#f1c09e" d="M57.466 50.727c.624.358 1.319.057 1.673-.527 1.337-2.197 1.692-11.176 3.372-12.932.416-.434 5.465-2.763 6.687-3.522 6.88-4.268 12.828-10.356 17.411-16.989.244 1.72-1.268 4.167-2.143 5.74-.53.95-3.275 4.598-3.336 4.885-.505 2.386 4.329.73 5.547.193 7.113-3.135 13.416-12.731 15.165-20.134 9.839 6.708 14.774 17.429 15.419 29.19.845 15.39.129 36.14-12.746 46.765-1.33 1.1-6.328 4.314-7.865 4.325-1.273.01-4-1.33-5.483-1.706-3.816-.967-8.084-2.064-12.05-1.505-1.828.258-2.29 1.566-4.276.627-5.113-2.411-10.997-9.356-13.68-14.268-.739-1.351-2.434-6.243-3.573-6.461-3.071-.58-3.766.828-6.959-1.641-4.354-3.369-7.335-12.223-4.271-17.11 1.752-2.795 5.156-3.018 7.59-.9 1.332 1.161 3.01 5.676 3.522 5.966z"/><circle cx="74.733" cy="56.333" r=".821" fill="#be5b24"/><circle cx=".821" cy=".821" r=".821" fill="#be5b24" transform="matrix(-1 0 0 1 112.51 54.965)"/><circle cx="81.303" cy="57.702" r=".821" fill="#be5b24"/><circle cx=".821" cy=".821" r=".821" fill="#be5b24" transform="matrix(-1 0 0 1 106.214 56.333)"/><circle cx="77.196" cy="61.535" r=".821" fill="#be5b24"/><circle cx=".821" cy=".821" r=".821" fill="#be5b24" transform="matrix(-1 0 0 1 110.046 59.892)"/><path fill="#a05622" d="M83.658 68.177c.032-.048.775.033.742-.784-.057-1.397-4.137 1.408-3.91 2.249.274 1.016.459-.852 3.91 1.564 4.385 2.121 9.747 2.761 14.587 1.336 1.6-.471 3.117-1.872 3.12-2.5.005-1.3-2.467.143-3.12.332-3.95 1.153-8.077.882-11.926-.332-.416-.132-3.608-1.566-3.398-1.865z"/><path fill="#7567b8" d="M31.605 108.844c2.806 2.394 7.038 5.834 10.94 6.099.878.061 2.025-.366 2.455-.283.304.057 3.93 2.845 5.16 3.397 2.1.946 4.088 1.114 6.027 1.852.419.161.544-.186.512.57-.057 1.369-1.451 4.472-2.096 5.809l-15.838 25.91-1.147-10.492c-.072-.616-1.06-.817-1.35-.612-.685.476.945 12.23.275 14.079l-8.883 13.154c-5.44-1.032-11.097-1.817-16.659-1.43-.856.061-8.768 1.691-8.79 1.244 3.397-13.846 5.48-29.255 11.524-42.226 3.766-8.08 9.711-13.534 17.867-17.071z"/><path fill="#f1c09e" d="M101.839 94.87c.236.788.193 1.54.645 2.4 1.401 2.667 7.563 3.821 10.574 4.916-1.509 13.964-17.343 23.153-30.93 20.63l.361-2.146c3.304 1.831 8.478-3.204 9.6-5.985 1.709-4.239 0-5.034-.283-8.202-.154-1.691.734-2.429-.283-4.701-.255-.57-1.04-1.082-1.154-1.537-.233-.738-.434-1.968.14-2.458 4.102-.201 7.589-1.982 10.42-4.902q.87.242.903 1.985z"/><path fill="#a54f1e" d="M64.139 81.899c-.251.426-1.663.504-1.842 1.862-.373 2.287-.047 3.71-.197 5.555-.405 4.992-2.247 9.8-2.892 14.702-.071.534 0 .893-.544 1.24-5.264-9.212-4.662-19.712-2.09-29.673.233-.896 1.14-5.307 2.082-5.078.918 2.706 7.128 8.607 5.483 11.392m46.296-1.005c1.652 6.446 3.505 12.56 2.867 19.35-3.146-.574-9.07-1.824-9.65-5.58-.151-.97-.143-7.926.15-8.402.233-.38 1.301-.642 1.799-1.068 1.387-1.193 2.57-2.763 3.988-3.906.248-.197.223-.577.846-.394"/><path fill="#e59d76" d="M15.467 168.296c2.19 0 11.223 1.232 11.223 1.232s-2.585 3.96-2.972 4.537c-.347-.76-1.107-.111-1.562.046-5.11 1.774-11.28 2.243-15.28 6.045.187-3.572.47-7.33.652-10.902 2.464-.685 5.749-.958 7.939-.958m86.372-73.426c-.107-.359-.333-1.488-.713-1.43-2.254 3.045-6.901 5.03-10.757 5.013.079.544-.115 1.315 0 1.795-.641-.746-.265-1.874-.527-2.878-.33-1.26-1.748-2.562-2.791-3.3l-2.774-.627c4.15-.613 8.83 1.928 12.735.014 3.043-1.49 1.398-3.701 1.763-4.335.255-.441 2.147-.99 2.695-1.412l.362 7.166zM68.8 90.144l-6.02 3.647c1.502-1.963-.035-8.7 1.162-9.943 1.95-2.025 5.697 4.343 4.859 6.292zm5.09-3.511-3.047 2.136c-1.064-2.355-1.361-4.598-3.4-6.44l6.45 4.3z"/><path fill="#4e4285" d="M5.448 173.344c-.827-.04-2.852-2.039-2.87-2.684l2.867-.9c.025.355-.025.721 0 1.075.057.774.043 1.731 0 2.509z"/><path fill="#e59d76" d="M168.488 178.361c-4.536-.222-9.288.903-13.616 2.15-1.222-1.419-2.376-2.888-3.584-4.3 5.297-1.426 9.923-4.261 14.692-6.808.892 2.963 1.702 5.969 2.508 8.958"/><path fill="#9e581b" d="M95.038 41.838c.269-.176.978-.026 1.247.358.186.265 1.186 5.095 1.605 6.278 1.23 3.454 5.4 8.71 2.354 12.015-1.784 1.935-6.407 2.64-8.438.867.494-1.975 2.035-.814 3.404-.85 1.473-.039 3.78-1.243 4.063-2.809.42-2.315-4.687-9.729-4.633-13.892.004-.348.297-1.907.394-1.968z"/><path fill="#3e2614" d="M84.9 32.254c2.97 3.09-5.06 1.652-6.167 1.706-3.21.154-5.79 1.788-8.782 2.143.29-2.501 4.257-4.343 6.5-4.784 1.956-.383 7.02-.552 8.449.935"/><path fill="#422916" d="M114.018 35.026c-3.074-.677-5.102-1.691-8.413-1.426-1.394.11-5.468 1.83-5.218-.53.377-3.523 13.825-3.236 13.631 1.956"/><path fill="#442b16" d="M78.717 43.382c4.053-1.207 4.569 7.217.971 7.447-3.25.207-3.49-6.698-.971-7.447"/><path fill="#3d2411" d="M106.28 43.046c3.131-.337 3.458 6.206 1.483 7.17-4.131 2.014-4.816-6.812-1.483-7.17"/><path fill="#a66120" d="M48.47 49.7c-.05-.05-.072-1.358-.022-1.409.068-.071 1.645-.035 1.953.018 3.053.545 5.17 5.984 4.884 8.765-.136 1.326-1.165 1.885-1.742.63-.928-2.01.015-4.091-2.078-6.52-1.319-1.531-2.877-1.359-2.996-1.484"/><path fill="#579a9e" d="M202.865 205.479c3.61 4.774 7.447 9.819 11.317 14.582 8.971 10.689 21.723 23.873 36.729 23.689 7.836-.096 13.839-3.794 19.957-7.749.698-.124 1.147-.062 1.226.718a110.7 110.7 0 0 0 3.057 18.692q.652 2.769-.534 4.588h-107.91a3.3 3.3 0 0 1-.449-.534c-.125-.192-.229-.37-.254-.56-.478-3.819-.063-7.757.409-11.556 3.528-16.749 3.045-33.548-.006-50.345-.228-1.98-.451-3.966-.553-5.958-.161-3.129-.43-8.61.483-11.466.107-.339.565-.565.941-.511 2.607 1.336 5.293 2.664 8.121 3.401 4.441.961 7.836 1.819 11.158 5.215a816 816 0 0 1 15.246 15.969c.483.52.78 1.183 1.065 1.825z"/><path fill="#4a301d" d="m178.007 66.214.356.155c.367 3.207.898 6.557 1.771 9.732l-.432.565c-.057.288.022.489.282.565 1.111.251 1.461 2.31 1.13 3.107l.904.636c3.913 8.147 11.184 14.474 19.803 17.2l.759.808c.512-.079 1.023-.045 1.534.006 8.02.825 13.207-.119 20.373-3.751 2.845.11-.214 2.29-1.584 3.226-5.08 3.463-11.871 4.288-17.868 3.72l.353 3.503q-.546 1.651-.545 3.748c1.062 1.161-1.022 2.379-1.715.723a30 30 0 0 1-.516-5.285c-2.452 6.952.203 16.057 8.149 18.26 13.879 3.848 30.421-9.715 39.534-18.975l1.161-.372-.124-.661 2.754-2.517q-1.822-.507-2.065-1.625.09-.748.983-.565l.147-.565c1.452.373 2.752.243 4.229.715 6.398 2.04 20.017 10.946 25.153 15.526 21.214 18.915 17.542 49.036 11.333 74.051-.718 2.892-2.037 8.997-3.283 11.406-.46.89-.895.947-1.502 1.605-.659 10.72-2.54 21.994-1.464 32.712.87 8.658 3.887 17.311 3.67 26.133h-1.978q-.808-1.826-.629-4.105a595 595 0 0 1-3.546-23.847 329 329 0 0 1 1.195-29.882l-2.121-.26c-4.797 10.091-12.421 21.215-21.529 28.198-8.296 6.359-12.751 4.864-21.872 1.692-7.212-2.506-13.382-5.689-19.789-10.215-6.454-4.556-13.214-10.028-18.149-16.104-5.416-5.17-10.246-10.975-15.529-16.252-6.107-6.096-6.864-4.375-14.282-6.904-1.935-.658-3.811-1.649-5.636-2.562-.265-.132-.206-.469-.573.003-1.839 11.732 1.471 23.297 2.404 34.896.519 6.457.39 13.299-.314 19.737-.932 8.514-3.449 16.932-2.226 25.599h-1.977c-1.288-13.201 3.89-26.009 2.822-39.266-4.41 3.916-9.995 7.659-16.158 5.851-4.551-1.334-10.571-6.585-13.334-10.396-7.658-10.571-6.33-25.274-6.717-37.633-1.899-1.791-4.133-2.904-5.365-5.37 0-3.182-3.037-5.725-3.339-9.09-.017-.605.339-1.158.271-1.941-.217-2.522-1.943-3.458-1.336-7.031.215-1.254 1.424-2.749 1.367-4.017s-1.423-3.181-1.649-4.593c-.384-2.43.048-4.5 1.757-6.3.602-.632 2.929-2.381 3.282-2.381l-8.579-25.918c-.901-2.446-.333-4.243 1.486-6.017 3.72-3.627 7.489-2.709 12-2.649 6.268.082 13.726-.577 19.797-.023 2.72.246 5.505 2.452 6.739 4.799l6.656 20.353c4.503-7.828 10.814-12.039 18.464-16.449 4.918-2.833 11.373-6.5 16.579-8.562.963-.381 4.107-.729 3.062-2.37-.051-.079-1.568-.576-1.802-.574-.639.012-3.176 1.127-4.303 1.314-3.57.585-7.13-.167-10.664-.184-2.745-.014-8.2-5.827-9.177-8.5a1.6 1.6 0 0 1-.006-.471c.426-2.402 4.712 3.395 5.119 4.098 1.098.077 1.355.95 1.435 1.918q.918.353 1.887.342c-4.916-5.675-7.274-13.703-7.777-21.073-1.077-4.616-1.175-9.141-.297-13.585l.768-.607.563.449a7.7 7.7 0 0 0-.28 2.093z"/><path fill="#412914" d="M176.593 93.05c-.579.537.644 3.009.978 3.684.486.992 3.644 4.848.361 4.167-5.104-1.057-8.409-8.376-9.398-12.927-1.963-9.042.511-16.53.997-25.294.786-14.226-6.955-22.276-.522-37.245C181.647-3.97 229.181-19.15 251.447 8.737c8.404 10.525 9.045 19.449 12.714 31.636 1.873 6.214 5.156 11.954 6.927 18.214 2.946 10.415 3.421 23.797-5.658 31.348-3.421 2.844-5.017 2.42-8.52 3.91-1.449.615-2.859 2.344-4.605 2.604-.048.715.39 1.005.845 1.404.565.494 1.212.477 1.127 1.13h-2.257q-.804.16-1.955-.757c-3.805 1.05-7.203 1.87-11.308 1.887q-2.5-.946-5.048.892l-.898-.327c.009.237-.062.587-.229.59-5.816.119-4.056-3.02-1.842-6.102.13-.183.413-.18.659-.138l.039-1.33c4.862-10.549 5.39-22.772 3.294-34.088-.958-5.17-2.229-10.122-6.681-13.173-7.717-4.89-14.78-11.734-17.274-20.9l-.565.022c-.361 4.774.404 9.531 1.949 13.935 1.921 3.816-3.971 4.709-6.333 3.83-3.181-1.18-6.551-12.42-6.777-16-1.189 5.139-.989 10.173.294 15.105.152.93-.277 1.573-1.037 2.085-.706.474-7.525 1.195-8.443 1.022-4.153-.774-5.026-13.017-4.235-16.13-2.141 4.983-2.393 10.153-1.398 15.3l-.221 1.155q-3.215 1.898-7.443 1.74l1.63 14.483a3.8 3.8 0 0 1-.472 1.588c-.675 2.127-1.003 4.41-.859 6.65.243 3.785 1.119 6.658 1.144 10.723.009 1.604 2.831 10.158 3.619 11.915 1.006 2.235 2.749 4.274 4.283 6.164-.274.943-3.232-.023-3.354-.17-.288-.35.52-1.553-1.144-1.819l-3.463-4.305c-.514-.19-.943-.164-1.356.22z"/><path fill="#579a9e" d="M281.114 191.355c-12.293-6.175-25.613-11.184-39.548-11.585l11.014-37.285c-.694-.766-2.703 3.666-2.872 4.045-3.568 8.014-5.274 17.692-7.721 26.178-.681 2.361-2.955 7.147-2.274 9.339.435 1.404 2.622 1.559.853 3.946-11.791-5.404-23.5-10.912-34.57-17.686-4.096-2.506-8.845-5.023-11.667-8.955-3.961-5.512-5.641-11.483-11.263-15.856-1.717-1.336-7.234-4.65-8.031-6.39-.322-.703 1.605-5.675.288-5.636-.802.026-1.582 3.769-1.839 4.514-3.844-2.144-5.472 3.676-3.952 6.495-.548.011-.771-.396-.988-.964l-3.286-10.816c3.689-6.913 8.469-11.065 15.031-15.172 5.051-3.164 12.721-7.545 18.15-9.817.271-.113 1.472-.655 1.599-.517-1.853 8.478 1.229 17.67 10.175 20.195 14.534 4.102 31.805-9.514 41.523-19.065a7 7 0 0 1 1.037-.042c.344.017.672.042.977.144 7.619 2.582 15.46 6.398 22.379 10.362 10.55 6.045 13.161 14.579 13.974 26.305 1.096 15.757-2.407 32.946-8.299 47.588l-.687.675z"/><path fill="#f2bd9b" d="M243.543 182.598c.235-.113.475-.212.723-.277.249-.065.478-.113.695-.082 9.896 1.421 19.399 5.311 26.774 11.842 1.297 1.147 4.551 4.15 4.565 5.901.023 2.308-5.895 11.904-7.282 13.811-9.828 13.525-19.127 14.339-34.014 7.531-17.65-8.073-32.314-21.345-45.698-35.212-2.438-2.429-5.102-4.429-8.39-5.356-8.232-1.805-16.602-4.342-23.704-9.164l.925 1.14c-.096-.082-1.583-.962-1.896-1.267-1.458-1.415-3.161-3.754-3.379-5.813.299-.294 3.924 1.988 4.61 2.308.899.415 6.251 2.874 6.757 2.744.212-.056.611-.397.495-.951s-8.184-3.853-9.512-4.615c-2.706-1.56-8.491-5.218-7.152-8.806 5.542 2.467 11.248 5.488 17.299 6.321.537-.847.621-1.539 0-1.836-4.983-2.367-12.101-2.953-17.209-6.134-3.921-2.441-2.777-5.116 1.74-4.845 5.322.319 11.418 2.994 16.701 3.636.506.062 1.174.422 1.523.028.776-.877-.12-1.513-.637-2.007-4.401-4.195-11.906-4.075-16.287-6.914-3.065-1.986-1.958-4.387 1.531-4.384 4.887 0 11.152 1.717 15.667 3.562 3.324 1.359 7.581 4.195 10.734 5.085.477.135 1.418.339 1.418-.141.472-.407-1.381-1.769-1.607-1.913-2.144-1.347-4.941-2.401-7.257-3.477-1.622-1.206-2.012-6.63.799-6.21.752.113 3.381 3.207 4.263 3.955 2.342 1.995 5.404 3.345 7.5 5.512 3.743 3.875 5.828 10.46 9.316 14.695 4.274 5.183 18.24 12.488 24.554 15.833 9.749 5.164 23.904 9.91 32.059 16.811.704.596 3.732 3.969 4.249 3.94 1.825-.098-1.797-3.782-2.116-4.093-2.932-2.844-6.551-4.878-10.048-6.921-.232-.373 1.037-3.579 1.288-4.234z"/><path fill="#f1c09e" d="M210.776 25.535c2.559 9.772 10.528 16.845 18.412 22.61 6.862 7.097 7.754 23.147 5.102 32.269-3.712 12.768-19.127 20.836-31.707 18.568-9.296-2.512-17.686-9.83-21.469-18.644-2.618-5.226-3.124-10.833-3.389-16.667-.255-5.424-1.266-10.791-1.667-16.2l.435-.427c1.266-.08 6.514-.421 7.025-1.447.475-.949-.361-3.697-.437-4.937-.314-5.09 1.138-9.69 3.121-14.274.534-.057.226.59.198.904-.35 3.813-.797 6.5-.074 10.41.41 2.217 1.478 7.437 4.252 7.355 2.045-.613 5.401-.175 7.277-.943.426-.176.833-.62.938-1.048.166-.695-.907-4.317-1.003-5.523-.362-4.568.257-9.02 1.412-13.412l.641 4.864c.373 2.918 3.54 12.438 6.031 13.743.961.503 5.17.158 5.78-.644.802-1.054-.909-4.95-1.246-6.435-.952-4.232-1.008-8.653-.471-12.94l.844 2.821z"/><path fill="#412914" d="M213.601 76.27c-3.807-.425-7.96 1.626-11.635 1.996-2.945.297-9.143-1.121-6.651 4.072 3.28 6.839 10.803 8.196 16.695 3.663 2.691-2.066 7.663-9.056 1.588-9.732z"/><path fill="#9a5013" d="M209.984 90.627c-1.347-.087-2.496.476-3.831.576-1.002.073-3.683-.338-3.994-.278-2.216.42 1.845 2.111 3.945 1.941 1.184-.096 4.083-.816 3.877-2.239z"/><path fill="#faf6e3" d="M197.867 80.025c-.099.468.142.627.447.903 2.235 2.016 9.283.297 11.928-.76.324-.128 4.304-1.97 3.627-2.544-5.42.31-10.506 2.68-16.002 2.4"/><path fill="#e15e3e" d="M203.866 86.398c4.067.519 7.537-1.654 9.585-4.852-3.46.404-8.152 1.383-9.585 4.852"/><path fill="#f1be9c" d="M146.65 221.864c-14.762-10.619-12.548-26.356-13.274-42.656.142-.155 3.127 1.661 3.099.424-.008-.469-6.446-4.127-7.618-5.37-1.732-1.83-1.599-3.384-2.492-5.418-.698-1.59-2.034-2.732-2.031-4.749 0-.723.359-1.296.266-2.228-.142-1.404-1.308-2.825-1.41-4.543-.141-2.409 1.243-3.5 1.438-5.37.469-4.554-4.859-6.96.986-11.723 2.065-1.684 8.579-4.181 10.734-2.271 3.319 2.938-4.48 5.647-6.056 6.666-.763.495-2.981 1.887-1.862 2.653l.986-.559c-.011.61.712 1.539.548 2.082-.206.683-4.071 1.031-3.65 2.717 2.5-.37 4.777-1.667 7.328-2.133 2.215-.406 8.765-1.155 10.627-.426s.297 1.44.133 2.74c-.065.52.234 1.296.13 1.537-.382.867-8.916 2.395-10.582 2.96-.921.311-6.221 1.898-6.221 3.379 0 .124.611.686.933.661.443-.037 3.672-1.797 4.644-2.142 4.138-1.471 8.955-2.257 13.347-2.33-.548.859.164 3.873-.042 4.195-.099.155-2.882 1.387-3.353 1.59-2.794 1.215-5.771 1.809-8.548 3.081-.834.381-2.907 1.082-3.531 1.553-.777.594-.469 1.81.511 1.615 3.534-1.421 7.068-3.195 10.737-4.254 1.286-.371 3.218-1.054 3.091 1.096-.167 2.782-7.204 5.949-9.294 7.672-.229.189-1.797.934-1.153 1.528 1.082.353 2.449-1.141 3.232-1.144.158 0 1.169 1.478 2.576 1.692l10.822.619c2.732 8.316 10.481 14.568 11.901 23.409l.659.58c1.816 11.567-4.04 25.469-17.608 22.867z"/><path fill="#00595e" d="m144.952 108.431 3.355.672c.449.237.849.4.911.418 1.559.435 1.995.764 2.687 2.176l9.19 27.424c-3.362-.743-13.176-2.692-13.504 2.983-.254 4.429 8.675 6.084 11.76 7.302 1.412.556 3.339.969 4.525 1.845-3.994-.93-8.017-2.153-12.088-2.74-.79-.113-2.033-.39-2.74-.387-.782.003-1.909.568-2.438.446-.528-.121-.937-.802-1.457-1.048-1.509-.715-4.828-.604-6.554-.503-2.779.164-5.654.842-6.368.842-.107-.079-.813-1.608-.745-1.721 1.048-.654 6.446-2.059 7.175-5.553.975-4.678-3.584-5.441-7.051-4.794-.855.161-2.499 1.048-3.203 1.048l-8.23-24.894c-.87-4.209 2.428-3.409 4.846-3.363 6.633.127 13.302-.006 19.929-.153"/><path fill="#c5dfe0" d="m156.187 109.926 10.238 31.144c-.921-.345-2.399-.336-2.893-1.201-2.186-6.517-4.107-13.141-6.353-19.635-.862-2.495-3.006-9.704-4.588-11.232-.957-.924-3.613-2.189-4.909-1.788l-2.449-.037c-8.063-.562-15.405.06-23.47-.57.658-.82 1.924-1.574 2.96-1.698 8.529.729 17.984-.65 26.306.288 2.774.314 4.252 2.302 5.158 4.729"/><path fill="#f2bd9b" d="m275.744 199.995 4.87 4.043-3.531 6.073c-2.865 4.554-6.082 8.874-9.805 12.751-7.432 7.74-11.588 10.907-22.257 7.836-24.026-6.915-39.433-25.517-56.571-42.3-6.124-5.997-5.573-4.74-13.551-7.07-5.384-1.574-13.61-5.834-17.797-9.464-.307-.432-.497-.819.283-.423 4.85 2.46 8.986 4.601 14.26 6.361 5.822 1.944 10.836 1.627 15.686 5.783 5.763 4.938 11.065 11.254 16.941 16.393 10.602 9.271 30.325 23.522 44.531 24.96 11.899 1.203 20.113-10.585 24.831-20.017.418-.833 2.144-4.288 2.11-4.926"/><path fill="#e79d77" d="M243.544 182.602v-.003c.119-.305.15-1.101.458-1.149 14.401 1.85 28.675 6.471 40.748 14.562-2.307 4.794-4.812 9.563-7.667 14.1 0 0 .848-1.978.424-5.085s-1.762-5.032-1.762-5.032c-1.769-2.878-6.009-7.009-7.817-8.303-7.135-5.107-15.734-7.872-24.384-9.09"/><path fill="#f1c09e" d="M231.396 95.027c-.59 1.121-2.52 3.602-2.215 4.604.322 1.06 2.704 1.178 3.627 1.045q1.229-.431 1.529 1.226a95 95 0 0 1 7.627.201l4.494-.743c2.119-.483 3.771.946 4.995 2.424-8.023 8.192-18.989 17.514-30.506 19.918-9.028 1.884-17.616-.463-19.421-10.528-.37-2.068-.579-6.198.209-8.122.345-.842 1.339-1.003 1.409-.522.201 1.389.099 4.497.498 5.395.505 1.136.895.362 1.2-.494q.284-1.832.122-3.709c3.042.319 5.644.548 8.706-.209 5.901-1.455 11.308-5.554 15.494-9.755.385-1.212 2.291-2.841 2.229-.737z"/><path fill="#579a9e" d="M251.735 106.326c.783-.768 5.102-5.791 5.503-5.836 12.362 6.195 26.723 13.966 33.531 26.551 8.042 14.87 6.664 34.966 3.494 51.048-1.254 6.365-2.994 12.658-4.672 18.915l-8.472-5.649c2.613-6.223 4.605-13.192 6.023-19.825 2.941-13.783 5.689-40.099-5.873-50.52-2.455-2.212-6.068-4.119-8.997-5.692-6.492-3.486-13.548-6.627-20.528-8.992z"/><path fill="#e59d76" d="M231.397 95.027c-1.003-1.249-1.207.432-1.828 1.138-.91 1.034-2.593 2.483-3.689 3.373-5.653 4.602-13.283 8.658-20.752 6.506-.006 1.271.141 2.194-.285 3.389.113-2.686-.023-5.282-.565-7.909 7.282.946 15.969-.483 21.186-5.93-2.231.376-4.212 1.772-6.347 2.548-5.938 2.153-10.441 2.486-16.534.84 1.5-.789 3.474.008 4.912-.029 9.76-.251 21.348-6.862 25.272-15.972 3.598-8.356 2.813-21.155-.673-29.474-2.528-6.037-6.774-7.17-11.158-11.158-3.638-3.311-7.237-8.297-9.237-12.797-.461-1.037-1.489-2.958-.93-4.014 2.599 5.861 5.862 11.141 10.732 15.398 5.025 4.395 10.133 5.585 12.291 12.568 3.893 12.585 3.808 29.737-2.401 41.525z"/><path fill="#e79e77" d="M146.651 221.863c.322-.573.263-.545.892-.506 2.712.176 4.049.506 6.732-.485 8.636-3.19 10.627-14.351 9.325-22.455 1.571-.125.607-2.966.362-3.893-1.28-4.808-4.588-8.638-7.142-12.771.401-.317 7.328 2.268 7.582 3.008-.186 11.192 2.582 22.099 3.094 33.232-2.681 3.141-6.461 6.339-10.619 7.175s-7.023-.997-10.226-3.305"/><path fill="#f1c09e" d="M252.019 98.982c.768.466 1.615.746 2.432 1.105.178.079.601-.06.39.443-.249.591-2.749 2.602-3.387 3.252-1.173.093-2-1.399-2.896-1.763-1.489-.605-5.02.647-6.85.658-.808.006-1.514-.328-2.246-.316-1.119.014-4.28.443-5.04.243-1.121-.297-.57-1.967-1.61-1.927 1.091-.155 3.141-1.554 3.856-1.624.52-.051 1.102.435 1.675.472 2.481.155 4.769-.176 7.181-.681 1.124-.235 4.359-1.47 5.074-1.139.358.167.853.933 1.421 1.277"/><path fill="#00595e" d="m142.13 172.72.113-.48c2.198-1.492 4.331-3.393 5.054-6.042.195-3.167.915-3.543 3.2-1.325q.41-.444.955-.353c-.298.956 0 3.147 1.359 5.271l1.356 1.983 1.78 1.506c-3.971-.274-9.054-.06-13.817-.56"/><path fill="#007e86" d="M165.269 178.682c-.358 1.224-.356 2.529-.548 3.772-.155 1.002-.647.065-1.209-.195a37 37 0 0 0-2.381-1.009c-1.178-.432-5.105-1.183-5.54-1.455-.717-.449-1.853-3.96-2.446-4.825.243-.177 5.415.224 6.008.345 1.574.319 4.325 2.884 6.113 3.365z"/><path fill="#004752" d="m151.453 164.519-.707 1.412c-.245-.342-2.39-2.322-2.683-1.975.274 4.147-2.492 6.701-5.662 8.766-.497-.054-1.878-.183-1.652-1.223.226-1.039 6.684-3.336 6.175-7.376-.11-.873-1.457-1.89-1.271-2.147.432-.178 1.63-1.152 1.941-1.099.262.045 3.726 3.413 3.853 3.644z"/><path fill="#00595e" d="M288.459 199.262c-1.308.364-2.317.743-3.673.282l1.277-2.542c.528.059 2.757 1.783 2.393 2.26z"/><path fill="#688d9d" d="M242.414 181.189c0 1.11-1.122 1.124-1.127 0z"/><path fill="#412914" d="M219.247 46.72c-.215.218-2.39-.51-2.966-.562-3.348-.282-6.181.026-9.325 1.122-.608.212-3.619 2.073-3.825.963.082-1.356 1.328-2.107 2.37-2.698 3.054-1.726 6.926-2.028 10.302-1.166.582.146 4.334 1.446 3.444 2.344zm-9.143 6.006c3.133-.345 4.424 7.243 1.365 7.565-3.014.319-4.56-7.212-1.365-7.565m-23.536 9.728c-1.587-1.427-2.082-7.113.887-6.698 1.274.178 2.297 2.709 2.393 3.859.169 2.05-1.26 4.655-3.28 2.839m4.148-12.062c-.413.596-4.195-.317-5.212-.283-2.692.088-4.223 1.243-6.466 2.034-1.297.455-.483-.966-.051-1.471 1.587-1.87 5.511-3.032 7.887-2.786.839.088 4.717 1.237 3.842 2.506"/><path fill="#492d12" d="M197.172 56.766c1.216.335 1.119 2.357 1.051 3.38-.253 3.827-6.886 11.777.881 11.993 1.645.046 4.373-.96 4.914-.9 1.605.171.332 2.035-1.064 2.508-4.794 1.635-12.256-.645-9.188-6.98 3.635-7.503 2.102-9.48 3.406-10.001"/></svg>