<svg width="299" height="200" viewBox="0 0 299 200" fill="none" xmlns="http://www.w3.org/2000/svg">
<path d="M137.944 220.245C138.751 232.242 140.363 244.153 142.775 255.978C142.775 256.655 142.624 257.3 142.334 257.916H28.7431C28.4135 257.357 28.2271 256.755 28.1841 256.11C29.7751 246.349 30.8179 236.553 31.3088 226.716L31.9717 224.953L32.6382 223.724C44.7784 215.526 50.5404 201.013 55.6466 187.794L64.3218 162.138C68.1452 150.689 71.9363 139.685 79.3824 130.179C80.2711 128.247 80.9662 126.237 81.4715 124.148C89.5984 125.076 97.0589 123.532 103.376 118.372C108.705 119.776 114.123 118.49 118.752 115.423C123.722 115.498 128.413 113.699 131.838 109.843L133.017 109.571C135.895 108.987 139.603 111.567 141.983 113.355C149.547 119.038 154.789 129.218 158.559 137.825C162.354 146.493 166.292 155.57 169.477 164.464C169.614 164.847 169.531 165.184 169.417 165.56C168.858 167.431 153.772 174.235 152.382 174.737C140.706 174.044 144.519 142.911 137.944 220.245Z" fill="#7567B8"/>
<path d="M30.531 103.47L31.5486 103.796C33.7201 107.347 36.8806 110.375 40.8115 111.851C38.0416 107.774 35.2466 102.61 35.1749 97.572C35.1427 95.1748 36.8913 93.5014 38.1634 96.0061C39.4785 103.922 42.2806 110.759 49.7912 114.937C50.5975 115.385 55.9258 117.588 56.4562 117.237C56.7966 117.011 57.9719 110.088 57.7677 109.2C49.2716 96.4289 51.9484 81.2966 55.9653 67.3397C47.1647 67.2966 41.5317 57.0376 42.4025 49.0827C43.4022 39.9345 53.0628 37.5911 57.7928 45.4206C58.4234 38.7735 60.018 34.0078 67.0233 31.9187C76.1429 26.3682 83.2091 18.1982 88.1111 9.02137C90.5549 6.68147 90.838 9.11812 90.7341 11.4043C90.5334 15.9085 88.559 21.5773 85.764 25.0889C92.1782 21.5486 97.2055 14.1347 98.9757 7.0613C100.144 4.26633 100.835 3.72166 103.548 5.35923C108.622 8.41938 115.226 17.048 117.143 22.7024C122.754 39.268 121.389 63.527 112.549 78.6235C116.613 91.4266 118.519 106.014 108.547 117.054C119.379 116.065 125.499 106.459 125.951 96.3537C127.85 93.1108 129.183 95.7087 129.083 98.4535C128.893 103.617 126.614 108.462 123.833 112.711C135.98 108.401 138.507 92.7417 133.304 82.153L133.73 81.2608C135.507 81.2464 136.554 82.6654 136.866 85.507L137.313 85.9191C137.396 86.2237 137.561 86.5067 137.672 86.9941C138.166 92.1182 137.991 97.3462 136.955 102.402C136.848 102.703 136.679 102.911 136.597 103.119C135.425 103.965 134.415 106.369 134.447 107.777C135.063 108.82 134.146 109.795 133.013 109.569C130.262 112.93 126.657 115.105 122.35 115.926C121.203 116.144 122.075 115.061 120.996 115.326C120.326 115.491 117.071 117.352 116.244 117.703C112.725 119.208 109.826 119.892 105.931 119.627C104.971 119.563 105.038 119.27 104.708 119.295C104.207 119.335 100.774 121.553 99.9177 122.033C94.2561 125.222 88.1863 125.69 81.7686 124.615C81.3709 130.811 76.7054 134.752 73.9535 139.558C70.8682 144.947 68.2023 153.532 65.9914 159.545C58.8534 178.96 50.8125 214.316 31.9571 224.948C31.803 225.034 29.8465 225.861 29.4488 226.023C19.0859 230.265 12.0841 221.895 8.35746 213.252C3.12942 201.126 5.10024 188.91 5.08232 176.215C4.13275 175.387 4.31908 173.839 5.44065 173.348C4.55199 172.786 4.36925 171.234 5.44065 170.84C5.05366 169.041 6.46548 167.651 7.59064 169.406C8.5223 172.796 8.16397 176.892 6.87398 180.156L7.52972 181.35C6.96714 194.694 6.58014 210.098 16.144 220.626C29.112 234.895 46.2294 206.834 50.0958 196.353C54.6466 184.008 59.1472 171.671 63.0638 159.097C66.4572 149.125 70.1157 139.443 76.5693 131.201C78.8052 126.701 80.1848 121.831 80.708 116.585C80.7008 113.657 84.001 111.443 86.6455 111.153C90.9168 110.683 88.1397 115.223 85.3448 115.632C82.4638 121.451 87.8603 116.546 89.1467 114.22C93.4896 106.376 84.9721 107.139 80.0379 107.813C78.6261 107.928 76.4546 107.749 76.8882 105.871C77.4078 103.621 86.7208 104.233 88.8743 104.43C89.5838 104.387 89.3187 103.23 89.0427 102.685C88.1899 101.012 77.2035 101.603 75.0177 102.073C70.019 99.765 76.2002 97.9877 78.9593 98.3782L87.3801 98.4356C86.8354 96.1458 84.5135 96.1351 82.4531 96.1745C78.4254 96.5113 74.3942 96.7801 70.3594 96.9807C70.1157 96.8804 69.8972 96.7371 69.7252 96.5328C66.7689 93.0714 76.1679 93.2864 77.6908 93.4082C80.0917 91.294 82.8078 90.262 86.0579 90.5881C86.8605 90.7816 96.9296 91.9749 96.4781 90.71C96.0481 89.5096 83.5854 87.0012 81.9227 86.9367C77.9739 86.7862 71.3054 91.2439 68.0052 93.5157C62.9527 96.9951 62.0139 99.7291 61.4155 105.993C61.1073 118.09 56.6927 129.252 50.1639 139.507C42.535 151.748 34.2827 163.555 25.8153 175.229C20.9886 181.783 16.9968 188.882 14.4132 196.385C13.2988 197.46 12.1271 197.177 11.5932 195.683C10.4824 192.558 20.3687 177.261 22.3359 174.832L23.7155 174.065L23.3715 173.319L25.2097 170.782C24.7367 169.675 11.6469 169.335 9.13504 169.833L8.66563 169.048L8.9272 168.185C14.3523 167.264 19.8312 167.357 25.371 168.46L27.6572 168.331L27.1985 167.73L35.8952 154.887C35.9202 150.917 35.7518 146.943 35.3863 142.962C34.8918 140.403 37.1816 139.117 38.3318 141.708C38.5862 144.531 38.9231 147.258 39.3423 149.881L53.9729 125.952C54.3241 125.278 56.1767 121.028 55.9617 120.674C51.7334 119.584 48.1393 118.169 44.814 115.342C42.2484 117.38 32.1255 111.378 31.5809 109.773C31.4769 109.465 31.4949 109.157 31.6024 108.849C30.4414 109.25 29.8286 107.931 30.5274 107.057C30.2801 106.709 30.0365 106.344 29.8107 105.982C29.0618 103.556 29.3019 102.721 30.5274 103.474L30.531 103.47Z" fill="#4A301D"/>
<path d="M137.314 85.9108L136.873 86.1795C136.382 85.3554 136.203 83.2878 135.69 82.6858C135.429 82.3776 134.096 82.0623 133.73 81.2525L132.541 80.1847C127.022 68.5353 122.604 56.843 123.142 43.7819C123.568 34.8057 123.041 25.9621 121.572 17.2439C118.537 4.9532 109.873 -4.14122 97.2593 -4.85071C82.4639 -12.0352 64.2571 -7.63136 53.3209 4.64504C46.2152 12.6215 43.2303 22.9163 41.9116 33.3365C40.9943 49.1461 36.8986 63.3109 30.574 77.6011C27.693 85.556 26.5858 94.3315 30.6314 102.111L30.5346 103.462C28.4993 104.325 31.9787 105.855 29.818 105.97C19.8134 89.7879 28.6964 76.8307 34.0283 61.6267C40.2167 43.9718 36.6692 24.8656 47.2292 8.17818C56.9973 -7.25869 75.9673 -14.583 93.6796 -9.30834C95.224 -8.84968 97.4027 -7.56686 98.5207 -7.34111C104.842 -6.04754 107.357 -6.34495 112.764 -1.87657C132.404 14.3594 122.575 38.0952 127.463 59.3907C129.602 68.7073 134.859 76.8235 137.321 85.9036L137.314 85.9108Z" fill="#382414"/>
<path d="M31.6057 108.845L30.6418 110.067C17.5734 115.743 12.9008 127.722 9.24941 140.687C7.07435 149.537 5.03904 158.424 3.14347 167.343C10.9049 165.917 18.1002 165.78 26.3669 167.361C26.5998 167.404 26.8148 167.558 27.0405 167.726C27.2663 167.895 27.4705 168.11 27.664 168.328C26.0059 169.938 25.5953 172.074 23.5422 171.991C20.4605 171.865 11.3277 167.913 8.67251 169.045C9.06309 170.063 8.00818 170.379 7.52802 169.39C6.35628 169.552 6.02242 169.664 5.44753 169.938C4.65368 171.307 3.60571 171.292 5.15728 172.546L5.44753 173.345C5.36153 174.907 5.08562 174.871 5.0892 176.211C2.50564 174.509 -0.53301 171.972 0.0797349 168.511C4.97095 150.921 6.70169 123.322 22.5363 111.777L30.5343 107.054C30.9822 107.681 31.0395 108.358 31.6092 108.845H31.6057Z" fill="#3A3161"/>
<path d="M167.772 169.044C167.7 169.108 167.019 168.847 165.98 169.402L165.224 170.624C163.06 171.964 153.886 176.927 152.034 176.497C151.776 176.436 151.528 176.332 151.288 176.211C150.883 175.738 150.715 174.946 150.572 174.777C154.585 172.882 158.742 171.258 162.637 169.105C163.708 168.514 167.951 166.245 168.488 165.629C168.771 165.303 168.947 165.127 168.793 164.654C164.281 153.621 160.189 142.295 154.821 131.645C150.006 122.096 143.842 112.779 133.013 109.558C133.49 108.973 134.038 108.397 134.447 107.766C136.357 108.995 139.209 109.952 141.366 111.417C157.358 122.282 162.999 147.928 170.925 164.651C171.516 166.786 169.449 167.027 168.284 167.955C167.836 168.313 167.815 169.001 167.772 169.04V169.044Z" fill="#3A3161"/>
<path d="M136.955 102.396L137.672 86.9874C138.897 92.4269 138.819 97.0959 136.955 102.396Z" fill="#382414"/>
<path d="M136.595 103.111C135.961 104.72 135.406 106.286 134.445 107.769C133.037 106.866 134.266 106.221 134.528 105.515C134.929 104.426 134.832 104.297 135.531 103.297C135.857 102.831 135.531 102.032 136.595 103.111Z" fill="#382414"/>
<path d="M143.404 166.895C142.899 166.315 141.584 165.928 141.254 164.387C140.95 162.971 141.093 160.474 140.849 158.879C140.136 154.181 139.305 149.498 138.373 144.84C138.252 143.933 139.015 143.195 139.842 143.765C140.953 144.528 143.537 164.147 143.404 166.899V166.895Z" fill="#3A3161"/>
<path d="M133.73 81.252C134.758 83.9395 136.177 87.6697 136.496 90.4897C137.611 100.243 132.529 112.326 121.905 113.856C125.549 109.635 128.434 103.221 128.384 97.5632C128.366 95.4025 127.137 94.847 126.638 96.5563C126.208 98.0326 126.194 100.652 125.743 102.469C123.6 111.054 116.889 118.884 106.35 117.789C115.11 110.672 116.537 98.3408 114.272 87.6303C113.796 85.3692 111.725 80.4207 111.839 78.5609C111.911 77.3856 114.702 73.272 115.369 71.6702C120.604 59.0427 121.367 32.322 115.236 20.0169C112.857 15.2439 106.74 7.78708 102.025 5.2716C99.8568 4.11778 99.2727 9.24549 98.5238 11.1088C96.7286 15.5664 90.2213 24.7003 85.4663 26.001C85.0327 26.1193 84.359 26.216 84.6457 25.5388C84.9324 24.8615 86.5412 23.034 87.1002 21.9017C88.6518 18.7663 90.4363 12.4884 90.0206 9.05557C90.0206 8.74024 89.2896 8.81907 89.132 8.88357C88.7593 9.04124 85.606 14.8139 84.9324 15.7922C80.6216 22.0737 74.2577 28.2943 67.7719 32.3148C65.9301 33.4543 62.4865 34.5651 61.1535 36.088C60.1395 37.249 58.9176 42.4842 58.5736 44.2579C58.4016 45.1394 58.7671 47.207 57.9429 47.5689C54.4384 38.0768 43.2693 39.9974 43.0543 50.2457C42.893 57.9032 48.4113 67.4383 57.0471 66.564C53.3312 79.8796 50.1814 91.6364 56.1441 104.913C56.6708 106.088 58.2905 108.055 58.4696 109.04C58.8889 111.341 57.2728 115.347 57.2406 117.82C56.9933 118.268 54.6033 117.572 54.0335 117.415C46.5659 115.354 41.044 109.521 38.8009 102.189C38.4497 101.043 37.6721 95.8074 37.1633 95.5852C36.1779 95.1588 35.9056 96.4344 35.8948 97.2048C35.8267 102.422 39.4351 109.227 42.721 113.136C37.5109 112.104 33.0568 108.019 30.5378 103.465C21.1101 86.4263 34.612 70.5773 38.1845 54.3163C41.4561 39.4277 40.0801 24.7325 48.0351 10.7756C56.8285 -4.65415 75.6014 -12.6736 92.8873 -7.43479C94.4496 -6.96179 96.2054 -5.85097 97.4488 -5.54639C102.953 -4.19549 105.436 -5.04114 110.567 -1.10667C130.308 14.0507 120.758 38.023 125.309 59.0427C127.094 67.2771 130.817 73.6124 133.741 81.2484L133.73 81.252Z" fill="#BE5B24"/>
<path d="M23.7239 174.06C20.4774 178.93 16.7042 183.842 14.3463 189.228C13.8232 190.418 12.3182 193.994 12.2644 195.065C12.2071 196.212 13.0886 196.757 13.8769 195.925C14.4897 195.277 15.2565 191.84 15.7797 190.661C20.6064 179.747 31.2631 167.062 38.0678 156.692C46.3488 144.078 57.5144 129.265 59.8687 114.351C60.8039 108.432 60.227 98.3232 65.1791 94.5786C67.3685 92.9232 76.9933 86.9892 79.2579 86.441C82.3503 85.692 87.3634 86.9498 90.4557 87.8098C91.6311 88.1359 96.1138 89.4832 96.8161 90.0458C98.2996 91.2354 95.9382 91.927 94.874 92.0237C90.0652 92.4609 85.1525 90.0207 80.6912 92.1707C79.8205 92.5899 78.4768 93.9229 77.9393 94.077C76.2085 94.5751 70.9554 93.3245 70.1169 95.2201C70.0022 95.4816 70.2459 96.2413 70.5469 96.3201C75.0977 96.3201 80.3652 95.0946 84.8479 95.564C86.9083 95.7826 88.0979 97.0798 88.2269 99.1688C84.6723 99.3803 80.8238 98.8858 77.305 99.176C76.402 99.2513 73.453 99.3767 73.9009 100.781C74.9831 101.975 76.6636 100.993 78.0038 100.95C80.3329 100.875 87.3741 100.638 89.0905 101.717C90.2372 102.437 90.0437 104.092 90.0222 105.268C86.464 104.866 82.6657 104.741 79.1146 105.286C77.52 105.529 76.6063 106.834 78.7168 107.074C81.6121 107.403 89.7749 105.192 90.6636 109.102C91.4985 112.782 89.3772 115.992 86.6073 118.153C85.5 119.017 84.1061 120.163 83.8983 117.988C83.5615 114.405 86.0304 115.036 87.4924 113.663C88.381 112.828 88.5638 111.553 87.0588 111.778C86.722 111.829 82.6191 113.538 82.465 113.739C81.1463 115.48 80.2684 124.686 79.0859 127.835C77.2799 132.655 73.2559 136.367 70.9662 141.215C62.7819 158.555 58.2526 178.822 50.7706 196.628C45.7755 208.51 28.8444 237.352 14.418 219.743C5.84316 209.273 6.21583 192.983 6.88591 180.155C7.79248 178.224 9.53755 176.93 12.1211 176.278L20.438 173.909C22.8746 172.784 23.9711 172.834 23.7274 174.063L23.7239 174.06Z" fill="#F1C09E"/>
<path d="M57.466 50.7269C58.0895 51.0852 58.7847 50.7842 59.1394 50.2001C60.476 48.0035 60.8307 39.0238 62.5113 37.268C62.927 36.8344 67.9759 34.5052 69.1978 33.7456C76.0777 29.4779 82.026 23.3898 86.6091 16.7571C86.8527 18.4771 85.3406 20.9245 84.4662 22.4976C83.9359 23.4472 81.1911 27.095 81.1302 27.3816C80.6249 29.7681 85.4588 28.1126 86.6771 27.5751C93.79 24.4397 100.093 14.8437 101.842 7.44055C111.681 14.1485 116.616 24.8697 117.261 36.6301C118.106 52.0204 117.39 72.7713 104.515 83.3958C103.185 84.4959 98.1867 87.7101 96.6495 87.7209C95.3774 87.7316 92.6505 86.3915 91.167 86.0152C87.3508 85.0477 83.0831 83.9512 79.1164 84.5102C77.2889 84.7682 76.8266 86.0761 74.8415 85.1373C69.7281 82.7258 63.8443 75.7813 61.1604 70.8686C60.4222 69.5177 58.7274 64.6265 57.5879 64.4079C54.517 63.8274 53.8218 65.2357 50.6291 62.7668C46.2754 59.3985 43.2941 50.5441 46.3578 45.6565C48.11 42.8615 51.5142 42.6393 53.9472 44.7571C55.2802 45.9181 56.9572 50.433 57.4696 50.7233L57.466 50.7269Z" fill="#F1C09E"/>
<ellipse cx="74.7329" cy="56.3333" rx="0.821238" ry="0.821238" fill="#BE5B24"/>
<ellipse cx="0.821238" cy="0.821238" rx="0.821238" ry="0.821238" transform="matrix(-1 0 0 1 112.51 54.9646)" fill="#BE5B24"/>
<ellipse cx="81.3029" cy="57.7021" rx="0.821238" ry="0.821238" fill="#BE5B24"/>
<ellipse cx="0.821238" cy="0.821238" rx="0.821238" ry="0.821238" transform="matrix(-1 0 0 1 106.214 56.3334)" fill="#BE5B24"/>
<ellipse cx="77.1964" cy="61.5346" rx="0.821238" ry="0.821238" fill="#BE5B24"/>
<ellipse cx="0.821238" cy="0.821238" rx="0.821238" ry="0.821238" transform="matrix(-1 0 0 1 110.046 59.892)" fill="#BE5B24"/>
<path d="M83.6577 68.1771C83.6901 68.1288 84.4325 68.2101 84.4002 67.393C84.3428 65.9961 80.2633 68.8007 80.49 69.6419C80.7637 70.6575 80.9485 68.7899 84.4002 71.2058C88.7851 73.3274 94.1467 73.9672 98.9875 72.5417C100.587 72.0707 102.104 70.67 102.107 70.0418C102.112 68.7416 99.6403 70.1846 98.9875 70.3735C95.0361 71.5266 90.9101 71.2564 87.0609 70.0418C86.6448 69.9101 83.4534 68.4758 83.6627 68.1771H83.6577Z" fill="#A05622"/>
<path d="M31.6052 108.844C34.4109 111.238 38.6428 114.678 42.5451 114.943C43.423 115.004 44.5696 114.577 44.9996 114.66C45.3042 114.717 48.9305 117.505 50.1596 118.057C52.2594 119.003 54.2481 119.171 56.1867 119.909C56.6059 120.07 56.7314 119.723 56.6991 120.479C56.6418 121.848 55.2479 124.951 54.6029 126.288L38.7647 152.198L37.618 141.706C37.5463 141.09 36.5574 140.889 36.2671 141.094C35.5827 141.57 37.2131 153.324 36.543 155.173L27.66 168.327C22.2205 167.295 16.5625 166.51 11.0012 166.897C10.1448 166.958 2.23286 168.588 2.21136 168.141C5.60834 154.295 7.69024 138.886 13.7353 125.915C17.5013 117.835 23.446 112.381 31.6016 108.844H31.6052Z" fill="#7567B8"/>
<path d="M101.839 94.8698C102.075 95.6581 102.032 96.4106 102.484 97.2706C103.885 99.9366 110.047 101.091 113.058 102.186C111.549 116.15 95.715 125.339 82.1271 122.816L82.4891 120.67C85.7929 122.501 90.9671 117.466 92.0887 114.685C93.798 110.446 92.0887 109.651 91.8056 106.483C91.6516 104.792 92.5402 104.054 91.5226 101.782C91.2682 101.212 90.4834 100.7 90.3687 100.245C90.1358 99.5066 89.9352 98.2775 90.5085 97.7866C94.6114 97.5859 98.0979 95.805 100.929 92.8846C101.509 93.0459 101.81 93.7088 101.832 94.8698H101.839Z" fill="#F1C09E"/>
<path d="M64.1388 81.8986C63.888 82.325 62.4757 82.4032 62.2966 83.7612C61.924 86.048 62.25 87.471 62.0999 89.316C61.695 94.3076 59.8532 99.1164 59.2082 104.018C59.1366 104.552 59.2082 104.911 58.6636 105.258C53.3997 96.0455 54.0017 85.5464 56.5745 75.5848C56.8074 74.689 57.714 70.278 58.6564 70.5073C59.5737 73.2127 65.7836 79.1144 64.1388 81.8986Z" fill="#A54F1E"/>
<path d="M110.435 80.8938C112.087 87.3402 113.94 93.4533 113.302 100.244C110.156 99.6704 104.232 98.4198 103.652 94.6645C103.501 93.6934 103.509 86.7382 103.802 86.2616C104.035 85.8818 105.103 85.6202 105.601 85.1938C106.988 84.0006 108.171 82.4311 109.589 81.288C109.837 81.0909 109.812 80.7111 110.435 80.8938Z" fill="#A54F1E"/>
<path d="M15.4667 168.296C17.6567 168.296 26.6903 169.528 26.6903 169.528C26.6903 169.528 24.1054 173.488 23.7184 174.065C23.3708 173.305 22.6112 173.954 22.1561 174.111C17.0463 175.885 10.8759 176.354 6.87689 180.156C7.06322 176.584 7.34536 172.826 7.52811 169.254C9.99182 168.569 13.2768 168.296 15.4667 168.296Z" fill="#E59D76"/>
<path d="M101.839 94.8693C101.732 94.511 101.506 93.3822 101.126 93.4395C98.8721 96.4854 94.2245 98.4705 90.3689 98.4526C90.4477 98.9973 90.2542 99.7677 90.3689 100.248C89.7275 99.5025 90.1037 98.3738 89.8422 97.3704C89.5125 96.1091 88.0935 94.8084 87.0508 94.0702L84.2773 93.4431C88.4268 92.8304 93.1066 95.3709 97.0124 93.4575C100.055 91.9668 98.4099 89.7559 98.7753 89.1217C99.0298 88.6809 100.922 88.1327 101.47 87.7098L101.832 94.8764L101.839 94.8693Z" fill="#E59D76"/>
<path d="M68.8008 90.1435L62.7809 93.7913C64.2823 91.8276 62.745 85.091 63.9419 83.8476C65.8912 81.823 69.6393 88.1906 68.8008 90.1399V90.1435Z" fill="#E59D76"/>
<path d="M73.8892 86.6329L70.8434 88.7685C69.7792 86.4143 69.4818 84.1712 67.4429 82.3293L73.8928 86.6293L73.8892 86.6329Z" fill="#E59D76"/>
<path d="M5.4483 173.344C4.62055 173.304 2.59598 171.305 2.57806 170.66L5.44471 169.76C5.46979 170.115 5.41963 170.481 5.44471 170.835C5.50204 171.609 5.48771 172.566 5.44471 173.344H5.4483Z" fill="#4E4285"/>
<path d="M168.488 178.361C163.952 178.139 159.2 179.264 154.872 180.511C153.65 179.092 152.496 177.623 151.288 176.211C156.585 174.785 161.211 171.95 165.98 169.403C166.872 172.366 167.682 175.372 168.488 178.361Z" fill="#E59D76"/>
<path d="M95.0378 41.8375C95.3066 41.6619 96.016 41.8124 96.2848 42.1958C96.4711 42.461 97.4709 47.2913 97.8901 48.4738C99.1192 51.9281 103.29 57.1848 100.244 60.4886C98.4599 62.4236 93.8374 63.1295 91.8057 61.3557C92.3002 59.3813 93.841 60.5423 95.2098 60.5065C96.6825 60.4671 98.9902 59.2631 99.2733 57.6972C99.6925 55.3824 94.5863 47.9685 94.64 43.8047C94.6436 43.4571 94.9375 41.8984 95.0342 41.8375H95.0378Z" fill="#9E581B"/>
<path d="M84.9 32.2543C87.8706 35.3431 79.8404 33.9062 78.7332 33.9599C75.5225 34.114 72.9426 35.748 69.9505 36.1027C70.2407 33.6016 74.2075 31.7598 76.4506 31.319C78.4071 30.9356 83.4703 30.7672 84.9 32.2543Z" fill="#3E2614"/>
<path d="M114.018 35.026C110.944 34.3487 108.916 33.3347 105.605 33.5998C104.211 33.7109 100.137 35.4309 100.387 33.0695C100.764 29.5471 114.212 29.8338 114.018 35.026Z" fill="#422916"/>
<path d="M78.717 43.3824C82.7697 42.1748 83.2857 50.5992 79.688 50.8285C76.438 51.0363 76.1979 44.1313 78.717 43.3824Z" fill="#442B16"/>
<path d="M106.28 43.0456C109.411 42.7088 109.738 49.2519 107.763 50.2158C103.632 52.2296 102.947 43.404 106.28 43.0456Z" fill="#3D2411"/>
<path d="M48.4693 49.6996C48.4191 49.6494 48.3976 48.3415 48.4478 48.2914C48.5159 48.2197 50.0925 48.2555 50.4007 48.3093C53.4537 48.8539 55.5714 54.2934 55.2848 57.074C55.1486 58.3999 54.1202 58.9589 53.5433 57.7047C52.6152 55.6945 53.5576 53.6126 51.465 51.1831C50.1463 49.653 48.5876 49.825 48.4693 49.6996Z" fill="#A66120"/>
<path d="M202.865 205.479C206.475 210.253 210.312 215.298 214.182 220.061C223.153 230.75 235.905 243.934 250.911 243.75C258.747 243.654 264.75 239.956 270.868 236.001C271.566 235.877 272.015 235.939 272.094 236.719C272.58 243.038 273.597 249.27 275.151 255.411C275.586 257.256 275.408 258.787 274.617 259.999H166.707C166.54 259.832 166.382 259.657 166.258 259.465C166.133 259.273 166.029 259.095 166.004 258.905C165.526 255.086 165.941 251.148 166.413 247.349C169.941 230.6 169.458 213.801 166.407 197.004C166.179 195.024 165.956 193.038 165.854 191.046C165.693 187.917 165.424 182.436 166.337 179.58C166.444 179.241 166.902 179.015 167.278 179.069C169.885 180.405 172.571 181.733 175.399 182.47C179.84 183.431 183.235 184.289 186.557 187.685C191.662 192.9 196.809 198.267 201.803 203.654C202.286 204.174 202.583 204.837 202.868 205.479H202.865Z" fill="#579A9E"/>
<path d="M178.007 66.2139L178.363 66.3693C178.73 69.5755 179.261 72.9258 180.134 76.1009L179.702 76.6659C179.645 76.954 179.724 77.1546 179.984 77.2309C181.095 77.4823 181.445 79.5416 181.114 80.3382L182.018 80.9738C185.931 89.1207 193.202 95.4484 201.821 98.1744L202.58 98.9823C203.092 98.9032 203.603 98.9371 204.114 98.988C212.134 99.8128 217.321 98.8693 224.487 95.2366C227.332 95.3467 224.273 97.5275 222.903 98.4626C217.823 101.926 211.032 102.751 205.035 102.183L205.388 105.686C205.024 106.787 204.843 108.036 204.843 109.434C205.905 110.595 203.821 111.813 203.128 110.157C202.801 108.415 202.628 106.655 202.612 104.872C200.16 111.824 202.815 120.929 210.761 123.132C224.64 126.98 241.182 113.417 250.295 104.157L251.456 103.785L251.332 103.124L254.086 100.607C252.872 100.268 252.182 99.7281 252.021 98.9823C252.081 98.4823 252.408 98.2959 253.004 98.4174L253.151 97.8524C254.603 98.2253 255.903 98.0953 257.38 98.5671C263.778 100.607 277.397 109.513 282.533 114.093C303.747 133.008 300.075 163.129 293.866 188.144C293.148 191.036 291.829 197.141 290.583 199.55C290.123 200.44 289.688 200.497 289.081 201.155C288.422 211.875 286.541 223.149 287.617 233.867C288.487 242.525 291.504 251.178 291.287 260H289.309C288.77 258.782 288.561 257.415 288.68 255.895C287.338 247.98 286.157 240.031 285.134 232.048C285.081 222.045 285.479 212.084 286.329 202.166L284.208 201.906C279.411 211.997 271.787 223.121 262.679 230.104C254.383 236.463 249.928 234.968 240.807 231.796C233.595 229.29 227.425 226.107 221.018 221.581C214.564 217.025 207.804 211.553 202.869 205.477C197.453 200.307 192.623 194.502 187.34 189.225C181.233 183.129 180.476 184.85 173.058 182.321C171.123 181.663 169.247 180.672 167.422 179.759C167.157 179.627 167.216 179.29 166.849 179.762C165.01 191.494 168.32 203.059 169.253 214.658C169.772 221.115 169.643 227.957 168.939 234.395C168.007 242.909 165.49 251.327 166.713 259.994H164.736C163.448 246.793 168.626 233.985 167.558 220.728C163.148 224.644 157.563 228.387 151.4 226.579C146.849 225.245 140.829 219.994 138.066 216.183C130.408 205.612 131.736 190.909 131.349 178.55C129.45 176.759 127.216 175.646 125.984 173.18C125.984 169.998 122.947 167.455 122.645 164.09C122.628 163.485 122.984 162.932 122.916 162.149C122.699 159.627 120.973 158.691 121.58 155.118C121.795 153.864 123.004 152.369 122.947 151.101C122.891 149.833 121.524 147.92 121.298 146.508C120.914 144.078 121.346 142.008 123.055 140.208C123.657 139.576 125.984 137.827 126.337 137.827L117.758 111.909C116.857 109.463 117.425 107.666 119.244 105.892C122.964 102.265 126.733 103.183 131.244 103.243C137.512 103.325 144.97 102.666 151.041 103.22C153.761 103.466 156.546 105.672 157.78 108.019L164.436 128.372C168.939 120.544 175.25 116.333 182.9 111.923C187.818 109.09 194.273 105.423 199.479 103.361C200.442 102.98 203.586 102.632 202.541 100.991C202.49 100.912 200.973 100.415 200.739 100.417C200.1 100.429 197.563 101.544 196.436 101.731C192.866 102.316 189.306 101.564 185.772 101.547C183.027 101.533 177.572 95.7196 176.595 93.0473C176.575 92.8863 176.563 92.7281 176.589 92.5755C177.015 90.1744 181.301 95.971 181.708 96.6744C182.806 96.7507 183.063 97.6236 183.143 98.5925C183.756 98.827 184.383 98.9428 185.03 98.9343C180.114 93.2592 177.756 85.2309 177.253 77.8608C176.176 73.245 176.078 68.7196 176.956 64.2761L177.724 63.6687L178.287 64.1179C178.097 64.8043 178.004 65.502 178.007 66.2111V66.2139Z" fill="#4A301D"/>
<path d="M176.593 93.0505C176.014 93.5872 177.237 96.059 177.571 96.7341C178.057 97.7257 181.215 101.582 177.932 100.901C172.828 99.8443 169.523 92.5251 168.534 87.9742C166.571 78.9318 169.045 71.4431 169.531 62.6804C170.317 48.4544 162.576 40.4035 169.009 25.4346C181.647 -3.96945 229.181 -19.1503 251.447 8.73679C259.851 19.2622 260.492 28.186 264.161 40.3725C266.034 46.5872 269.317 52.3273 271.088 58.5872C274.034 69.0025 274.509 82.3838 265.43 89.9347C262.009 92.7793 260.413 92.3556 256.91 93.8443C255.461 94.4601 254.051 96.1889 252.305 96.4488C252.257 97.1635 252.695 97.4545 253.15 97.8528C253.715 98.3471 254.362 98.3302 254.277 98.9827H252.02C251.483 99.0901 250.834 98.8358 250.065 98.2257C246.26 99.2765 242.862 100.096 238.757 100.113C237.091 99.4827 235.407 99.7794 233.709 101.005L232.811 100.678C232.82 100.915 232.749 101.265 232.582 101.268C226.766 101.387 228.526 98.2483 230.74 95.1663C230.87 94.9827 231.153 94.9856 231.399 95.0279L231.438 93.6974C236.3 83.1494 236.828 70.9262 234.732 59.6098C233.774 54.4403 232.503 49.4883 228.051 46.4374C220.334 41.5476 213.271 34.7029 210.777 25.5363L210.212 25.5589C209.851 30.3329 210.616 35.09 212.161 39.4939C214.082 43.3103 208.19 44.203 205.828 43.3244C202.647 42.1436 199.277 30.9035 199.051 27.3244C197.862 32.4628 198.062 37.4967 199.345 42.429C199.497 43.3583 199.068 44.0024 198.308 44.5137C197.602 44.9883 190.783 45.7086 189.865 45.5363C185.712 44.7623 184.839 32.5193 185.63 29.4063C183.489 34.3894 183.237 39.5589 184.232 44.7058L184.011 45.8612C181.867 47.1267 179.387 47.7058 176.568 47.6013L178.198 62.0844C178.158 62.6465 178 63.1776 177.726 63.6719C177.051 65.7991 176.723 68.0816 176.867 70.3217C177.11 74.107 177.986 76.9799 178.011 81.0448C178.02 82.6494 180.842 91.2031 181.63 92.9601C182.636 95.1946 184.379 97.2341 185.913 99.124C185.639 100.067 182.681 99.1014 182.559 98.9545C182.271 98.6042 183.079 97.4008 181.415 97.1353L177.952 92.8302C177.438 92.6409 177.009 92.6663 176.596 93.0505H176.593Z" fill="#412914"/>
<path d="M281.114 191.355C268.821 185.18 255.501 180.171 241.566 179.77L252.58 142.485C251.886 141.719 249.877 146.151 249.708 146.53C246.14 154.544 244.434 164.222 241.987 172.708C241.306 175.069 239.032 179.855 239.713 182.047C240.148 183.451 242.335 183.606 240.566 185.993C228.775 180.589 217.066 175.081 205.996 168.307C201.9 165.801 197.151 163.284 194.329 159.352C190.368 153.84 188.688 147.869 183.066 143.496C181.349 142.16 175.832 138.846 175.035 137.106C174.713 136.403 176.64 131.431 175.323 131.47C174.521 131.496 173.741 135.239 173.484 135.984C169.64 133.84 168.012 139.66 169.532 142.479C168.984 142.49 168.761 142.083 168.544 141.515L165.258 130.699C168.947 123.786 173.727 119.634 180.289 115.527C185.34 112.363 193.01 107.982 198.439 105.71C198.71 105.597 199.911 105.055 200.038 105.193C198.185 113.671 201.267 122.863 210.213 125.388C224.747 129.49 242.018 115.874 251.736 106.323C252.083 106.287 252.428 106.264 252.773 106.281C253.117 106.298 253.445 106.323 253.75 106.425C261.369 109.007 269.21 112.823 276.129 116.787C286.679 122.832 289.29 131.366 290.103 143.092C291.199 158.849 287.696 176.038 281.804 190.68L281.117 191.355H281.114Z" fill="#579A9E"/>
<path d="M243.543 182.598C243.778 182.485 244.018 182.386 244.266 182.321C244.515 182.256 244.744 182.208 244.961 182.239C254.857 183.66 264.36 187.55 271.735 194.081C273.032 195.228 276.286 198.231 276.3 199.982C276.323 202.29 270.405 211.886 269.018 213.793C259.19 227.318 249.891 228.132 235.004 221.324C217.354 213.251 202.69 199.979 189.306 186.112C186.868 183.683 184.204 181.683 180.916 180.756C172.684 178.951 164.314 176.414 157.212 171.592L158.137 172.732C158.041 172.65 156.554 171.77 156.241 171.465C154.783 170.05 153.08 167.711 152.862 165.652C153.161 165.358 156.786 167.64 157.472 167.96C158.371 168.375 163.723 170.834 164.229 170.704C164.441 170.648 164.84 170.307 164.724 169.753C164.608 169.2 156.54 165.9 155.212 165.138C152.506 163.578 146.721 159.92 148.06 156.332C153.602 158.799 159.308 161.82 165.359 162.653C165.896 161.806 165.98 161.114 165.359 160.817C160.376 158.45 153.258 157.864 148.15 154.683C144.229 152.242 145.373 149.567 149.89 149.838C155.212 150.157 161.308 152.832 166.591 153.474C167.097 153.536 167.765 153.896 168.114 153.502C168.89 152.625 167.994 151.989 167.477 151.495C163.076 147.3 155.571 147.42 151.19 144.581C148.125 142.595 149.232 140.194 152.721 140.197C157.608 140.197 163.873 141.914 168.388 143.759C171.712 145.118 175.969 147.954 179.122 148.844C179.599 148.979 180.54 149.183 180.54 148.703C181.012 148.296 179.159 146.934 178.933 146.79C176.789 145.443 173.992 144.389 171.676 143.313C170.054 142.107 169.664 136.683 172.475 137.103C173.227 137.216 175.856 140.31 176.738 141.058C179.08 143.053 182.142 144.403 184.238 146.57C187.981 150.445 190.066 157.03 193.554 161.265C197.828 166.448 211.794 173.753 218.108 177.098C227.857 182.262 242.012 187.008 250.167 193.909C250.871 194.505 253.899 197.878 254.416 197.849C256.241 197.751 252.619 194.067 252.3 193.756C249.368 190.912 245.749 188.878 242.252 186.835C242.02 186.462 243.289 183.256 243.54 182.601L243.543 182.598Z" fill="#F2BD9B"/>
<path d="M210.776 25.5353C213.335 35.3065 221.304 42.3799 229.188 48.1455C236.05 55.2416 236.942 71.2924 234.29 80.4139C230.578 93.1823 215.163 101.25 202.583 98.9818C193.287 96.4704 184.897 89.1512 181.114 80.3376C178.496 75.1118 177.99 69.5047 177.725 63.6709C177.47 58.2472 176.459 52.88 176.058 47.4703L176.493 47.0438C177.759 46.9647 183.007 46.6229 183.518 45.5975C183.993 44.6483 183.157 41.8997 183.081 40.6596C182.767 35.5692 184.219 30.9703 186.202 26.3856C186.736 26.3291 186.428 26.976 186.4 27.2895C186.05 31.1031 185.603 33.7895 186.326 37.6991C186.736 39.9167 187.804 45.137 190.578 45.0551C192.623 44.4421 195.979 44.88 197.855 44.1116C198.281 43.9364 198.688 43.4929 198.793 43.0636C198.959 42.3686 197.886 38.7472 197.79 37.541C197.428 32.9731 198.047 28.5212 199.202 24.1285L199.843 28.9929C200.216 31.911 203.383 41.4308 205.874 42.7359C206.835 43.2387 211.044 42.8941 211.654 42.0918C212.456 41.0381 210.745 37.1426 210.408 35.6568C209.456 31.4251 209.4 27.0042 209.937 22.7161L210.781 25.5381L210.776 25.5353Z" fill="#F1C09E"/>
<path d="M213.601 76.2694C209.794 75.8452 205.641 77.8964 201.966 78.2661C199.021 78.563 192.823 77.145 195.315 82.3383C198.595 89.1768 206.118 90.5342 212.01 86.0014C214.701 83.935 219.673 76.945 213.598 76.2694H213.601Z" fill="#412914"/>
<path d="M209.984 90.6273C208.637 90.5395 207.488 91.1034 206.153 91.2026C205.151 91.2762 202.47 90.8653 202.159 90.9248C199.943 91.3442 204.004 93.036 206.104 92.866C207.288 92.7696 210.187 92.0498 209.981 90.6273H209.984Z" fill="#9A5013"/>
<path d="M197.867 80.0247C197.768 80.4927 198.009 80.6518 198.314 80.9278C200.549 82.9439 207.597 81.2248 210.242 80.1687C210.566 80.0397 214.546 78.1976 213.869 77.6245C208.449 77.9335 203.363 80.3037 197.867 80.0247Z" fill="#FAF6E3"/>
<path d="M203.866 86.398C207.933 86.917 211.403 84.7439 213.451 81.5457C209.991 81.9496 205.299 82.9287 203.866 86.398Z" fill="#E15E3E"/>
<path d="M146.65 221.864C131.888 211.245 134.102 195.508 133.376 179.208C133.518 179.053 136.503 180.869 136.475 179.632C136.467 179.163 130.029 175.505 128.857 174.262C127.125 172.432 127.258 170.878 126.365 168.844C125.667 167.254 124.331 166.112 124.334 164.095C124.334 163.372 124.693 162.799 124.6 161.867C124.458 160.463 123.292 159.042 123.19 157.324C123.049 154.915 124.433 153.824 124.628 151.954C125.097 147.4 119.769 144.994 125.614 140.231C127.679 138.547 134.193 136.05 136.348 137.96C139.667 140.898 131.868 143.607 130.292 144.626C129.529 145.121 127.311 146.513 128.43 147.279L129.416 146.72C129.405 147.33 130.128 148.259 129.964 148.802C129.758 149.485 125.893 149.833 126.314 151.519C128.814 151.149 131.091 149.852 133.642 149.386C135.857 148.98 142.407 148.231 144.269 148.96C146.131 149.689 144.566 150.4 144.402 151.7C144.337 152.22 144.636 152.996 144.532 153.237C144.15 154.104 135.616 155.632 133.95 156.197C133.029 156.508 127.729 158.095 127.729 159.576C127.729 159.7 128.34 160.262 128.662 160.237C129.105 160.2 132.334 158.44 133.306 158.095C137.444 156.624 142.261 155.838 146.653 155.765C146.105 156.624 146.817 159.638 146.611 159.96C146.512 160.115 143.729 161.347 143.258 161.55C140.464 162.765 137.487 163.359 134.71 164.631C133.876 165.012 131.803 165.713 131.179 166.184C130.402 166.778 130.71 167.994 131.69 167.799C135.224 166.378 138.758 164.604 142.427 163.545C143.713 163.174 145.645 162.491 145.518 164.641C145.351 167.423 138.314 170.59 136.224 172.313C135.995 172.502 134.427 173.247 135.071 173.841C136.153 174.194 137.52 172.7 138.303 172.697C138.461 172.697 139.472 174.175 140.879 174.389L151.701 175.008C154.433 183.324 162.182 189.576 163.602 198.417L164.261 198.997C166.077 210.564 160.221 224.466 146.653 221.864H146.65Z" fill="#F1BE9C"/>
<path d="M144.952 108.431L148.307 109.103C148.756 109.34 149.156 109.503 149.218 109.521C150.777 109.956 151.213 110.285 151.905 111.697L161.095 139.121C157.733 138.378 147.919 136.429 147.591 142.104C147.337 146.533 156.266 148.188 159.351 149.406C160.763 149.962 162.69 150.375 163.876 151.251C159.882 150.321 155.859 149.098 151.788 148.511C150.998 148.398 149.755 148.121 149.048 148.124C148.266 148.127 147.139 148.692 146.61 148.57C146.082 148.449 145.673 147.768 145.153 147.522C143.644 146.807 140.325 146.918 138.599 147.019C135.82 147.183 132.945 147.861 132.231 147.861C132.124 147.782 131.418 146.253 131.486 146.14C132.534 145.486 137.932 144.081 138.661 140.587C139.636 135.909 135.077 135.146 131.61 135.793C130.755 135.954 129.111 136.841 128.407 136.841L120.177 111.947C119.307 107.738 122.605 108.538 125.023 108.584C131.656 108.711 138.325 108.578 144.952 108.431Z" fill="#00595E"/>
<path d="M156.187 109.926L166.425 141.07C165.504 140.725 164.026 140.734 163.532 139.869C161.346 133.352 159.425 126.728 157.179 120.234C156.317 117.739 154.173 110.53 152.591 109.002C151.634 108.078 148.978 106.813 147.682 107.214L145.233 107.177C137.17 106.615 129.828 107.237 121.763 106.607C122.421 105.787 123.687 105.033 124.723 104.909C133.252 105.638 142.707 104.259 151.029 105.197C153.803 105.511 155.281 107.499 156.187 109.926Z" fill="#C5DFE0"/>
<path d="M275.744 199.995L280.614 204.038L277.083 210.111C274.218 214.665 271.001 218.985 267.278 222.862C259.846 230.602 255.69 233.769 245.021 230.698C220.995 223.783 205.588 205.181 188.45 188.398C182.326 182.401 182.877 183.658 174.899 181.328C169.515 179.754 161.289 175.494 157.102 171.864C156.795 171.432 156.605 171.045 157.385 171.441C162.235 173.901 166.371 176.042 171.645 177.802C177.467 179.746 182.481 179.429 187.331 183.585C193.094 188.523 198.396 194.839 204.272 199.978C214.874 209.249 234.597 223.5 248.803 224.938C260.702 226.141 268.916 214.353 273.634 204.921C274.052 204.088 275.778 200.633 275.744 199.995Z" fill="#F2BD9B"/>
<path d="M243.544 182.602V182.599C243.663 182.294 243.694 181.498 244.002 181.45C258.403 183.3 272.677 187.921 284.75 196.012C282.443 200.806 279.938 205.575 277.083 210.112C277.083 210.112 277.931 208.134 277.507 205.027C277.083 201.919 275.745 199.995 275.745 199.995C273.976 197.117 269.736 192.986 267.928 191.692C260.793 186.585 252.194 183.82 243.544 182.602Z" fill="#E79D77"/>
<path d="M231.396 95.0268C230.806 96.1482 228.876 98.6285 229.181 99.6313C229.503 100.691 231.885 100.809 232.808 100.676C233.628 100.388 234.136 100.798 234.337 101.902C236.859 101.866 239.404 101.934 241.964 102.103L246.458 101.36C248.577 100.877 250.229 102.306 251.453 103.784C243.43 111.976 232.464 121.298 220.947 123.702C211.919 125.586 203.331 123.239 201.526 113.174C201.156 111.106 200.947 106.976 201.735 105.052C202.08 104.21 203.074 104.049 203.144 104.53C203.345 105.919 203.243 109.027 203.642 109.925C204.147 111.061 204.537 110.287 204.842 109.431C205.032 108.21 205.071 106.973 204.964 105.722C208.006 106.041 210.608 106.27 213.67 105.513C219.571 104.058 224.978 99.959 229.164 95.7584C229.549 94.5465 231.455 92.9166 231.393 95.0211L231.396 95.0268Z" fill="#F1C09E"/>
<path d="M251.735 106.326C252.518 105.558 256.837 100.535 257.238 100.49C269.6 106.685 283.961 114.456 290.769 127.041C298.811 141.911 297.433 162.007 294.263 178.089C293.009 184.454 291.269 190.747 289.591 197.004L281.119 191.355C283.732 185.132 285.724 178.163 287.142 171.53C290.083 157.747 292.831 131.431 281.269 121.01C278.814 118.798 275.201 116.891 272.272 115.318C265.78 111.832 258.724 108.691 251.744 106.326H251.735Z" fill="#579A9E"/>
<path d="M231.397 95.0266C230.394 93.778 230.19 95.4588 229.569 96.165C228.659 97.1989 226.976 98.648 225.88 99.5379C220.227 104.14 212.597 108.196 205.128 106.044C205.122 107.315 205.269 108.238 204.843 109.433C204.956 106.747 204.82 104.151 204.278 101.524C211.56 102.47 220.247 101.041 225.464 95.5944C223.233 95.9701 221.252 97.3656 219.117 98.1424C213.179 100.295 208.676 100.628 202.583 98.9814C204.083 98.1932 206.057 98.9898 207.495 98.9531C217.255 98.7017 228.843 92.0915 232.767 82.9813C236.365 74.6254 235.58 61.8259 232.094 53.5067C229.566 47.47 225.32 46.3372 220.936 42.3485C217.298 39.0377 213.699 34.0519 211.699 29.5519C211.238 28.5151 210.21 26.5942 210.769 25.5377C213.368 31.3993 216.631 36.679 221.501 40.9361C226.526 45.3315 231.634 46.5208 233.792 53.5039C237.685 66.0887 237.6 83.2412 231.391 95.0294L231.397 95.0266Z" fill="#E59D76"/>
<path d="M146.651 221.863C146.973 221.29 146.914 221.318 147.543 221.357C150.255 221.533 151.592 221.863 154.275 220.872C162.911 217.682 164.902 206.521 163.6 198.417C165.171 198.292 164.207 195.451 163.962 194.524C162.682 189.716 159.374 185.886 156.82 181.753C157.221 181.436 164.148 184.021 164.402 184.761C164.216 195.953 166.984 206.86 167.496 217.993C164.815 221.134 161.035 224.332 156.877 225.168C152.719 226.004 149.854 224.171 146.651 221.863Z" fill="#E79E77"/>
<path d="M252.019 98.9821C252.787 99.4482 253.634 99.7279 254.451 100.087C254.629 100.166 255.052 100.027 254.841 100.53C254.592 101.121 252.092 103.132 251.454 103.782C250.281 103.875 249.454 102.383 248.558 102.019C247.069 101.414 243.538 102.666 241.708 102.677C240.9 102.683 240.194 102.349 239.462 102.361C238.343 102.375 235.182 102.804 234.422 102.604C233.301 102.307 233.852 100.637 232.812 100.677C233.903 100.522 235.953 99.1233 236.668 99.0527C237.188 99.0019 237.77 99.4878 238.343 99.5245C240.824 99.6798 243.112 99.3493 245.524 98.8437C246.648 98.6092 249.883 97.3748 250.598 97.7053C250.956 97.8719 251.451 98.6375 252.019 98.9821Z" fill="#F1C09E"/>
<path d="M142.13 172.72L142.243 172.24C144.441 170.748 146.574 168.847 147.297 166.198C147.492 163.031 148.212 162.655 150.497 164.873C150.771 164.576 151.088 164.46 151.452 164.52C151.154 165.476 151.452 167.667 152.811 169.791L154.167 171.774L155.947 173.28C151.976 173.006 146.893 173.22 142.13 172.72Z" fill="#00595E"/>
<path d="M165.269 178.682C164.911 179.906 164.913 181.211 164.721 182.454C164.566 183.456 164.074 182.519 163.512 182.259C162.8 181.931 161.857 181.519 161.131 181.25C159.953 180.818 156.026 180.067 155.591 179.795C154.874 179.346 153.738 175.835 153.145 174.97C153.388 174.793 158.56 175.194 159.153 175.315C160.727 175.634 163.478 178.199 165.266 178.68L165.269 178.682Z" fill="#007E86"/>
<path d="M151.453 164.519L150.746 165.931C150.501 165.589 148.356 163.609 148.063 163.956C148.337 168.103 145.571 170.657 142.401 172.722C141.904 172.668 140.523 172.539 140.749 171.499C140.975 170.46 147.433 168.163 146.924 164.123C146.814 163.25 145.467 162.233 145.653 161.976C146.085 161.798 147.283 160.824 147.594 160.877C147.856 160.922 151.32 164.29 151.447 164.521L151.453 164.519Z" fill="#004752"/>
<path d="M288.459 199.262C287.151 199.626 286.142 200.005 284.786 199.544L286.063 197.002C286.591 197.061 288.82 198.785 288.456 199.262H288.459Z" fill="#00595E"/>
<path d="M242.414 181.189C242.414 182.299 241.292 182.313 241.287 181.189H242.414Z" fill="#688D9D"/>
<path d="M219.247 46.7203C219.032 46.9379 216.857 46.2091 216.281 46.1582C212.933 45.8757 210.1 46.1836 206.956 47.2797C206.348 47.4915 203.337 49.3531 203.131 48.243C203.213 46.887 204.459 46.1356 205.501 45.5452C208.555 43.8192 212.427 43.517 215.803 44.3785C216.385 44.5254 220.137 45.8249 219.247 46.7232V46.7203Z" fill="#412914"/>
<path d="M210.104 52.7257C213.237 52.3811 214.528 59.9687 211.469 60.2907C208.455 60.6099 206.909 53.0789 210.104 52.7257Z" fill="#412914"/>
<path d="M186.568 62.4537C184.981 61.0272 184.486 55.3407 187.455 55.756C188.729 55.934 189.752 58.465 189.848 59.6148C190.017 61.6656 188.588 64.2701 186.568 62.4537Z" fill="#412914"/>
<path d="M190.716 50.3919C190.303 50.9879 186.521 50.0755 185.504 50.1094C182.812 50.1969 181.281 51.3523 179.038 52.1433C177.741 52.5981 178.555 51.1772 178.987 50.6715C180.574 48.8015 184.498 47.6404 186.874 47.8862C187.713 47.9738 191.591 49.1235 190.716 50.3919Z" fill="#412914"/>
<path d="M197.172 56.7658C198.388 57.1007 198.291 59.1226 198.223 60.1453C197.97 63.9732 191.337 71.9232 199.104 72.1394C200.749 72.1851 203.477 71.1793 204.018 71.239C205.623 71.4103 204.35 73.2741 202.954 73.7467C198.16 75.3815 190.698 73.1017 193.766 66.7678C197.401 59.2639 195.868 57.2865 197.172 56.7658Z" fill="#492D12"/>
</svg>
